<svg version="1.0" id="Ebene_1" xmlns="http://www.w3.org/2000/svg" xmlns:xlink="http://www.w3.org/1999/xlink" x="0px" y="0px" viewBox="0 0 128 128" enable-background="new 0 0 128 128" xml:space="preserve">
    <g>
        <g>
            <path fill="#B0B0B2" d="M17,50c0,0-2,0.4-2,2.5v21.4c0,0-0.1,2.1,2,2.1h94c0,0,2,0,2-2.1V52.5c0,0,0.1-2.5-2-2.5H17z"></path>
        </g>
        <g>
            <path fill="#FFFFFF" d="M104.1,67.6c2.4,0,4.3-2,4.3-4.4s-1.9-4.4-4.3-4.4c-2.4,0-4.3,2-4.3,4.4S101.7,67.6,104.1,67.6"></path>
        </g>
        <g>
            <path fill="#FFFFFF" d="M52.7,58c-1.1,0-2.7,0.3-2.7,2.4v17.2c0,1.1,0.7,2.4,2.7,2.4h17.2c1.1,0,3.1-0.4,3.1-2.4V60.4c0-1.1-1-2.4-3.1-2.4H52.7z"></path>
        </g>
        <g>
            <path fill="#FFFFFF" d="M69.9,81H52.7c-2.6,0-3.7-1.7-3.7-3.4V60.4c0-2.1,1.4-3.4,3.7-3.4h17.2c2.6,0,4.1,1.7,4.1,3.4v17.2C74,79.7,72.4,81,69.9,81z M52.7,59C51,59,51,59.9,51,60.4v17.2c0,0.6,0.3,1.4,1.7,1.4h17.2c1.4,0,2.1-0.5,2.1-1.4V60.4c0-0.6-0.5-1.4-2.1-1.4H52.7z"></path>
        </g>
        <g>
            <path fill="#FFFFFF" d="M58,48c-1.1,0-3,0.4-3,2.4v17.2c0,1.1,0.9,2.4,3,2.4h17.2c1.1,0,2.8-0.3,2.8-2.4V50.4c0-1.1-0.8-2.4-2.8-2.4H58z"></path>
        </g>
        <g>
            <path fill="#FFFFFF" d="M75.2,71H58c-2.6,0-4-1.7-4-3.4V50.4c0-2.1,1.5-3.4,4-3.4h17.2c2.6,0,3.8,1.8,3.8,3.4v17.2C79,69.7,77.6,71,75.2,71z M58,49c-2,0-2,1.1-2,1.4v17.2c0,0.7,0.6,1.4,2,1.4h17.2c1.8,0,1.8-0.9,1.8-1.4V50.4c0-0.3-0.1-1.4-1.8-1.4H58z"></path>
        </g>
        <g>
            <path fill="#FFFFFF" d="M63.1,53C62,53,60,53.5,60,55.5v17.2c0,1.1,1,2.3,3.1,2.3h17.2c1.1,0,2.7-0.2,2.7-2.3V55.5c0-1.1-0.7-2.5-2.7-2.5H63.1z"></path>
        </g>
        <g>
            <path fill="#FFFFFF" d="M80.3,76H63.1c-2.7,0-4.1-1.7-4.1-3.3V55.5c0-2.4,2-3.5,4.1-3.5h17.2c2.6,0,3.7,1.8,3.7,3.5v17.2C84,73.9,83.5,76,80.3,76z M63.1,54c-0.6,0-2.1,0.1-2.1,1.5v17.2c0,0.6,0.7,1.3,2.1,1.3h17.2c1.4,0,1.7-0.5,1.7-1.3V55.5c0-0.6-0.2-1.5-1.7-1.5H63.1z"></path>
        </g>
        <g>
            <path fill="#B0B0B2" d="M69.9,80H52.7c-0.3,0-1.7-0.1-1.7-2.4V60.4c0-2.2,1.3-2.4,1.7-2.4h17.2c1.2,0,2.1,1.3,2.1,2.4v17.2C72,78.7,71.2,80,69.9,80z M53,78h16.8c0.1-0.1,0.2-0.3,0.2-0.4V60.4c0-0.1-0.1-0.3-0.1-0.4H53c0,0.1,0,0.2,0,0.4v17.2C53,77.8,53,77.9,53,78z"></path>
        </g>
        <g>
            <path fill="#B0B0B2" d="M75.2,70H58c-1.2,0-2-1.2-2-2.4V50.4c0-1.2,0.8-2.4,2-2.4h17.2c1.1,0,1.8,1,1.8,2.4v17.2C77,69,76.2,70,75.2,70z M58.1,68H75c0-0.1,0-0.2,0-0.4V50.4c0-0.2,0-0.3-0.1-0.4H58.1c0,0.1-0.1,0.3-0.1,0.4v17.2C58,67.8,58.1,67.9,58.1,68z"></path>
        </g>
        <g>
            <path fill="#B0B0B2" d="M80.3,75H63.1c-1.2,0-2.1-1.2-2.1-2.3V55.5c0-0.6,0.2-0.9,0.4-1.1c0.4-0.4,1-0.4,1.5-0.4l0.2,0l17.4,0c0.3,0,0.7,0,1.1,0.3c0.4,0.4,0.4,0.9,0.4,1.2v17.2C82,74.8,80.8,75,80.3,75z M63,56v16.7c0,0.1,0.1,0.3,0.1,0.3L80,73c0-0.1,0-0.2,0-0.3V56L63,56z"></path>
        </g>
    </g>
</svg>
