<svg version="1.0" id="Ebene_1" xmlns="http://www.w3.org/2000/svg" xmlns:xlink="http://www.w3.org/1999/xlink" x="0px" y="0px" viewBox="0 0 128 128" enable-background="new 0 0 128 128" xml:space="preserve">
    <g>
        <g>
            <path fill="#B0B0B2" d="M17,51c0,0-2,0.2-2,2.3v21.4c0,0-0.1,2.3,2,2.3h94c0,0,2-0.2,2-2.3V53.3c0,0,0.1-2.3-2-2.3H17z"></path>
        </g>
        <g>
            <path fill="#FFFFFF" d="M101.3,68.4c2.4,0,4.3-2,4.3-4.4c0-2.4-1.9-4.4-4.3-4.4c-2.4,0-4.3,2-4.3,4.4C97,66.4,98.9,68.4,101.3,68.4"></path>
        </g>
        <g>
            <path fill="#FFFFFF" d="M74.1,64c0.3-1,0.4-2.1,0.4-3.2c0-6.6-4.7-11.9-10.5-11.9c-5.8,0-10.5,5.3-10.5,11.9c0,1.1,0.1,2.2,0.4,3.2c-2,1.6-3.3,3.7-3.3,6c0,2.1,1,4,2.8,5.5L53.2,77H54v2h20v-2h0.8l-0.2-1.6c1.7-1.5,2.7-3.4,2.7-5.5C77.4,67.7,76.1,65.6,74.1,64"></path>
        </g>
        <g>
            <path fill="#FFFFFF" d="M75,81H53v-3h-1.5l0.3-2.2c-1.8-1.8-2.7-3.7-2.7-5.9c0-2.4,1.1-4.7,3.1-6.5c-0.2-0.9-0.2-1.8-0.2-2.7c0-7.4,5.4-13.4,12-13.4s12,6,12,13.4c0,0.9-0.1,1.8-0.2,2.7c2,1.9,3.1,4.1,3.1,6.4c0,2.2-0.9,4.2-2.6,5.9l0.3,2.2H75V81z M56,78h16v-3h1.1l-0.1-0.4l0.6-0.5c1.5-1.3,2.2-2.7,2.2-4.3c0-1.7-0.9-3.3-2.7-4.7l-0.8-0.6l0.2-0.9c0.2-1,0.4-1.9,0.4-2.9c0-5.7-4-10.4-9-10.4s-9,4.7-9,10.4c0,0.9,0.1,1.9,0.4,2.9l0.2,0.9l-0.8,0.6c-1.7,1.4-2.7,3.1-2.7,4.8c0,1.5,0.7,2.8,2.3,4.2l0.6,0.5l0,0.4H56V78z"></path>
        </g>
        <g>
            <polygon fill="#FFFFFF" points="74.8,77 53.2,77 55.8,54 72.3,54 "></polygon>
        </g>
        <g>
            <rect x="60" y="59" fill="#A7A9AC" width="2" height="2"></rect>
        </g>
        <g>
            <rect x="66" y="59" fill="#A7A9AC" width="2" height="2"></rect>
        </g>
        <g>
            <rect x="54" y="77" fill="#A7A9AC" width="20" height="2"></rect>
        </g>
        <g>
            <g>
                <path fill="#A7A9AC" d="M56.7,65.8c0,0-3-2.6-0.2-8.9c2.7-6.2,7.5,0.1,7.5,0.1h0.2c0,0,4.7-6.3,7.5-0.1c2.7,6.2-0.2,8.9-0.2,8.9s2.5,5.2,3.2,9.6c1.7-1.5,2.7-3.5,2.7-5.5c0-2.3-1.2-4.4-3.3-6c0.3-1,0.4-2.1,0.4-3.2c0-6.6-4.7-11.9-10.5-11.9c-5.8,0-10.5,5.3-10.5,11.9c0,1.1,0.1,2.2,0.4,3.2c-2,1.6-3.3,3.7-3.3,6c0,2.1,1.1,4,2.8,5.6C54.1,71,56.7,65.8,56.7,65.8"></path>
            </g>
            <g>
                <path fill="#A7A9AC" d="M69.7,66.2c0,1.2-5.7,2.2-5.7,2.2s-5.7-1-5.7-2.2C58.3,65,64,64,64,64S69.7,65,69.7,66.2"></path>
            </g>
        </g>
    </g>
</svg>
