<?xml version="1.0" encoding="utf-8"?>
<!-- Generator: Adobe Illustrator 15.0.2, SVG Export Plug-In . SVG Version: 6.00 Build 0)  -->
<!DOCTYPE svg PUBLIC "-//W3C//DTD SVG 1.1//EN" "http://www.w3.org/Graphics/SVG/1.1/DTD/svg11.dtd">
<svg version="1.1" id="Layer_1" xmlns="http://www.w3.org/2000/svg" xmlns:xlink="http://www.w3.org/1999/xlink" x="0px" y="0px"
	 width="14px" height="14px" viewBox="0 0 14 14" enable-background="new 0 0 14 14" xml:space="preserve">
<g>
	<defs>
		<rect id="SVGID_1_" width="14" height="14"/>
	</defs>
	<clipPath id="SVGID_2_">
		<use xlink:href="#SVGID_1_"  overflow="visible"/>
	</clipPath>
	<path clip-path="url(#SVGID_2_)" fill="#ffffff" d="M14,1.042c0-0.376-0.041-0.643-0.123-0.803C13.795,0.08,13.657,0,13.463,0
		c-0.258,0-0.572,0.131-0.94,0.392c-0.37,0.261-0.789,0.647-1.26,1.156L5.676,7.559C5.341,7.916,5.054,8.197,4.813,8.404
		c-0.24,0.207-0.404,0.312-0.492,0.312c-0.212,0-0.379-0.175-0.502-0.526C3.696,7.84,3.587,7.222,3.493,6.335
		C3.487,6.272,3.479,6.174,3.467,6.04C3.355,4.887,3.009,4.31,2.429,4.31c-0.611,0-1.168,0.279-1.672,0.836
		C0.252,5.704,0,6.311,0,6.967c0,1.204,0.057,2.322,0.172,3.354c0.114,1.032,0.236,1.708,0.365,2.026
		c0.152,0.382,0.49,0.754,1.012,1.113S2.508,14,2.86,14c0.334,0,0.908-0.359,1.72-1.08c0.813-0.72,1.797-1.739,2.952-3.059
		l5.438-6.221l0.098-0.105C13.689,2.829,14,2.103,14,1.356V1.042z"/>
</g>
</svg>
