<?xml version="1.0" encoding="utf-8"?>
<!-- Generator: Adobe Illustrator 17.1.0, SVG Export Plug-In . SVG Version: 6.00 Build 0)  -->
<!DOCTYPE svg PUBLIC "-//W3C//DTD SVG 1.1//EN" "http://www.w3.org/Graphics/SVG/1.1/DTD/svg11.dtd">
<svg version="1.1" id="Ebene_1" xmlns="http://www.w3.org/2000/svg" xmlns:xlink="http://www.w3.org/1999/xlink" x="0px" y="0px"
	 viewBox="0 0 14 14" enable-background="new 0 0 14 14" xml:space="preserve">
<rect x="6" y="6" fill="#E50060" width="2" height="2"/>
<polygon fill="#6F6F6E" points="6.5,0 6.5,3 5,3 7,5 9,3 7.5,3 7.5,0 "/>
<polygon fill="#6F6F6E" points="3,6.5 0,6.5 0,7.5 3,7.5 3,9 5,7 3,5 "/>
<polygon fill="#6F6F6E" points="5,11 6.5,11 6.5,14 7.5,14 7.5,11 9,11 7,9 "/>
<polygon fill="#6F6F6E" points="9,7 11,9 11,7.5 14,7.5 14,6.5 11,6.5 11,5 "/>
</svg>
