<?xml version="1.0" encoding="utf-8"?>
<!-- Generator: Adobe Illustrator 15.0.0, SVG Export Plug-In . SVG Version: 6.00 Build 0)  -->
<!DOCTYPE svg PUBLIC "-//W3C//DTD SVG 1.1//EN" "http://www.w3.org/Graphics/SVG/1.1/DTD/svg11.dtd">
<svg version="1.1" id="Layer_1" xmlns="http://www.w3.org/2000/svg" xmlns:xlink="http://www.w3.org/1999/xlink" x="0px" y="0px"
    xml:space="preserve">
  <defs>
    <rect id="SVGID_1_" width="14" height="14"/>
  </defs>
  <clipPath id="SVGID_2_">
    <use xlink:href="#SVGID_1_"  overflow="visible"/>
  </clipPath>
  <symbol id="symbol1" viewBox="0 0 14 14">
  <path clip-path="url(#SVGID_2_)" fill="#FFFFFF" d="M7.536,8.243c0-0.393,0.063-0.711,0.192-0.956
    c0.13-0.246,0.394-0.547,0.79-0.903L8.945,6c0.697-0.624,1.047-1.224,1.047-1.8c0-0.628-0.291-1.124-0.873-1.487
    C8.537,2.349,7.745,2.167,6.742,2.167c-0.804,0-1.627,0.12-2.469,0.36v1.355C5.098,3.526,5.83,3.348,6.469,3.348
    c0.99,0,1.485,0.372,1.485,1.116c0,0.5-0.304,1.068-0.914,1.704L6.59,6.636C5.963,7.292,5.65,7.941,5.65,8.585v0.168h1.886V8.243z
     M7.536,9.785H5.651v1.481h1.885V9.785z"/>
  </symbol>
  <rect fill="#808285" x="0" width="100%" height="100%"/>
  <use xlink:href="#symbol1"/>
</svg>
