<?xml version="1.0" encoding="utf-8"?>
<!-- Generator: Adobe Illustrator 15.0.2, SVG Export Plug-In . SVG Version: 6.00 Build 0)  -->
<!DOCTYPE svg PUBLIC "-//W3C//DTD SVG 1.1//EN" "http://www.w3.org/Graphics/SVG/1.1/DTD/svg11.dtd">
<svg version="1.1" id="Layer_1" xmlns="http://www.w3.org/2000/svg" xmlns:xlink="http://www.w3.org/1999/xlink" x="0px" y="0px"
	 width="14px" height="14px" viewBox="0 0 14 14" enable-background="new 0 0 14 14" xml:space="preserve">
<g>
	<defs>
		<rect id="SVGID_1_" width="14" height="14"/>
	</defs>
	<clipPath id="SVGID_2_">
		<use xlink:href="#SVGID_1_"  overflow="visible"/>
	</clipPath>
	<path clip-path="url(#SVGID_2_)" fill="#00245D" d="M6.934,1.342c0.877,0.016,3.278,0.306,3.463,2.402
		c0.185,2.095,1.123,4.836,1.631,5.255s3.171,1.806,1.201,2.579s-6.464,0.983-6.464,0.983L6.934,1.342z"/>
	<path clip-path="url(#SVGID_2_)" fill="#00245D" d="M7.065,1.342C6.188,1.358,3.787,1.648,3.602,3.744
		C3.417,5.839,2.479,8.58,1.971,8.999S-1.2,10.805,0.77,11.578c1.97,0.773,6.464,0.983,6.464,0.983L7.065,1.342z"/>
	<path clip-path="url(#SVGID_2_)" fill="#00245D" d="M6.912,14c0.689,0,1.247-0.556,1.247-1.241s-0.558-1.241-1.247-1.241
		c-0.689,0-1.247,0.556-1.247,1.241S6.223,14,6.912,14"/>
	<path clip-path="url(#SVGID_2_)" fill="#00245D" d="M6.938,1.631c0.451,0,0.817-0.364,0.817-0.813c0-0.45-0.366-0.814-0.817-0.814
		S6.122,0.368,6.122,0.818C6.122,1.267,6.487,1.631,6.938,1.631"/>
	<path clip-path="url(#SVGID_2_)" fill="none" stroke="#00245D" stroke-linecap="round" d="M9.842,0.5c0,0,1.316,0.646,1.758,2.153
		c0.335,1.145,0.419,1.963,0.419,1.963"/>
	<path clip-path="url(#SVGID_2_)" fill="none" stroke="#00245D" stroke-linecap="round" d="M4.159,0.5c0,0-1.317,0.646-1.758,2.153
		C2.065,3.798,1.981,4.616,1.981,4.616"/>
	<path clip-path="url(#SVGID_2_)" fill="none" stroke="#00245D" stroke-linecap="round" d="M12.426,0.526
		c0,0,0.575,0.352,0.841,1.38c0.266,1.028,0.232,1.076,0.232,1.076"/>
	<path clip-path="url(#SVGID_2_)" fill="none" stroke="#00245D" stroke-linecap="round" d="M1.574,0.527
		c0,0-0.575,0.351-0.841,1.379C0.468,2.934,0.501,2.982,0.501,2.982"/>
</g>
</svg>
