<?xml version="1.0" encoding="utf-8"?>
<!-- Generator: Adobe Illustrator 15.0.2, SVG Export Plug-In . SVG Version: 6.00 Build 0)  -->
<!DOCTYPE svg PUBLIC "-//W3C//DTD SVG 1.1//EN" "http://www.w3.org/Graphics/SVG/1.1/DTD/svg11.dtd">
<svg version="1.1" id="Layer_1" xmlns="http://www.w3.org/2000/svg" xmlns:xlink="http://www.w3.org/1999/xlink" x="0px" y="0px"
	 width="14px" height="14px" viewBox="0 0 14 14" enable-background="new 0 0 14 14" xml:space="preserve">
<g>
	<defs>
		<rect id="SVGID_1_" width="14" height="14"/>
	</defs>
	<clipPath id="SVGID_2_">
		<use xlink:href="#SVGID_1_"  overflow="visible"/>
	</clipPath>
	<path clip-path="url(#SVGID_2_)" fill="#00245D" d="M12.386,5.919c0,0.395-0.165,0.78-0.495,1.155L11.84,7.13l-2.882,3.297
		c-0.613,0.699-1.134,1.239-1.565,1.621c-0.43,0.381-0.733,0.572-0.911,0.572c-0.187,0-0.419-0.096-0.695-0.286
		c-0.277-0.191-0.456-0.388-0.537-0.59c-0.068-0.169-0.133-0.527-0.193-1.074c-0.061-0.547-0.091-1.139-0.091-1.778
		c0-0.348,0.133-0.669,0.401-0.965C5.634,7.632,5.93,7.484,6.253,7.484c0.308,0,0.491,0.306,0.55,0.917
		c0.007,0.07,0.011,0.123,0.014,0.156c0.05,0.47,0.107,0.798,0.173,0.983c0.064,0.185,0.153,0.278,0.266,0.278
		c0.046,0,0.133-0.056,0.261-0.164c0.127-0.11,0.28-0.259,0.457-0.449l2.961-3.185c0.249-0.271,0.472-0.475,0.667-0.613
		C11.798,5.269,11.964,5.2,12.101,5.2c0.104,0,0.177,0.042,0.221,0.127c0.043,0.084,0.064,0.226,0.064,0.425V5.919z M14,13V1
		c0,0,0-1-1-1H6L0,6v7c0,0,0,1,1,1h12C13,14,14,14,14,13"/>
</g>
</svg>
