<?xml version="1.0" encoding="utf-8"?>
<!-- Generator: Adobe Illustrator 15.0.2, SVG Export Plug-In . SVG Version: 6.00 Build 0)  -->
<!DOCTYPE svg PUBLIC "-//W3C//DTD SVG 1.1//EN" "http://www.w3.org/Graphics/SVG/1.1/DTD/svg11.dtd">
<svg version="1.1" id="Layer_1" xmlns="http://www.w3.org/2000/svg" xmlns:xlink="http://www.w3.org/1999/xlink" x="0px" y="0px"
	 width="25px" height="25px" viewBox="0 0 25 25" enable-background="new 0 0 25 25" xml:space="preserve">
<g>
	<defs>
		<rect id="SVGID_1_" width="25" height="25"/>
	</defs>
	<clipPath id="SVGID_2_">
		<use xlink:href="#SVGID_1_"  overflow="visible"/>
	</clipPath>
	<path clip-path="url(#SVGID_2_)" fill="#00245D" d="M7.577,7.683v-2.81c0-0.5-0.3-0.74-0.65-0.74c-0.35,0-0.65,0.24-0.65,0.74v2.81
		c0,0.5,0.3,0.73,0.65,0.73C7.277,8.413,7.577,8.183,7.577,7.683 M7.577,20.154v-2.81c0-0.5-0.3-0.74-0.65-0.74
		c-0.35,0-0.65,0.24-0.65,0.74v2.81c0,0.5,0.3,0.73,0.65,0.73C7.277,20.885,7.577,20.654,7.577,20.154 M11.837,17.345v2.81
		c0,0.5,0.3,0.73,0.65,0.73c0.35,0,0.65-0.23,0.65-0.73v-2.81c0-0.5-0.3-0.74-0.65-0.74C12.137,16.604,11.837,16.845,11.837,17.345
		 M13.137,7.683v-2.81c0-0.5-0.3-0.74-0.65-0.74c-0.35,0-0.65,0.24-0.65,0.74v2.81c0,0.5,0.3,0.73,0.65,0.73
		C12.837,8.413,13.137,8.183,13.137,7.683 M21.42,13.596c-0.604,0-1.096-0.49-1.096-1.096c0-0.604,0.491-1.096,1.096-1.096
		c0.605,0,1.095,0.491,1.095,1.096C22.515,13.105,22.025,13.596,21.42,13.596 M20.377,17.274c0,0.75-0.31,1.149-0.88,1.75l-1.7,1.8
		h2.58v1.48h-4.58v-1.48l2.58-2.8c0.26-0.28,0.36-0.46,0.36-0.76c0-0.391-0.221-0.66-0.641-0.66c-0.3,0-0.66,0.14-0.66,0.689h-1.64
		c0-1.399,1.061-2.17,2.3-2.17C19.417,15.124,20.377,15.935,20.377,17.274 M17.838,11.404c0.605,0,1.095,0.491,1.095,1.096
		c0,0.605-0.489,1.096-1.095,1.096c-0.604,0-1.096-0.49-1.096-1.096C16.742,11.896,17.233,11.404,17.838,11.404 M19.327,9.833
		h-1.641v-5.37l-1.52,1.32v-1.75l1.52-1.32h1.641V9.833z M15.351,12.5c0,0.605-0.489,1.096-1.095,1.096
		c-0.604,0-1.096-0.49-1.096-1.096c0-0.604,0.491-1.096,1.096-1.096C14.861,11.404,15.351,11.896,15.351,12.5 M14.777,7.673
		c0,1.47-1.11,2.22-2.291,2.22c-1.18,0-2.29-0.75-2.29-2.22v-2.8c0-1.47,1.11-2.22,2.29-2.22c1.18,0,2.291,0.75,2.291,2.22V7.673z
		 M10.674,11.404c0.604,0,1.095,0.491,1.095,1.096c0,0.605-0.491,1.096-1.095,1.096c-0.605,0-1.096-0.49-1.096-1.096
		C9.578,11.896,10.069,11.404,10.674,11.404 M10.197,17.345c0-1.471,1.11-2.221,2.29-2.221c1.18,0,2.291,0.75,2.291,2.221v2.8
		c0,1.47-1.11,2.22-2.291,2.22c-1.18,0-2.29-0.75-2.29-2.22V17.345z M9.217,20.145c0,1.47-1.11,2.22-2.29,2.22
		c-1.18,0-2.29-0.75-2.29-2.22v-2.8c0-1.471,1.11-2.221,2.29-2.221c1.18,0,2.29,0.75,2.29,2.221V20.145z M7.091,11.404
		c0.605,0,1.096,0.491,1.096,1.096c0,0.605-0.491,1.096-1.096,1.096c-0.604,0-1.095-0.49-1.095-1.096
		C5.996,11.896,6.487,11.404,7.091,11.404 M9.217,7.673c0,1.47-1.11,2.22-2.29,2.22c-1.18,0-2.29-0.75-2.29-2.22v-2.8
		c0-1.47,1.11-2.22,2.29-2.22c1.18,0,2.29,0.75,2.29,2.22V7.673z M4.723,12.5c0,0.605-0.49,1.096-1.095,1.096
		s-1.096-0.49-1.096-1.096c0-0.604,0.491-1.096,1.096-1.096S4.723,11.896,4.723,12.5 M22.4,19.046c0-1.436,1.164-2.6,2.6-2.6v-2.851
		c-0.604-0.001-1.094-0.491-1.094-1.096s0.49-1.095,1.094-1.095V8.854c-1.436,0-2.6-1.164-2.6-2.6s1.164-2.6,2.6-2.6V1.161
		c-0.604-0.001-1.094-0.491-1.094-1.096c0-0.022,0.002-0.043,0.004-0.065h-1.398c0.001,0.022,0.003,0.043,0.003,0.065
		c0,0.605-0.489,1.096-1.095,1.096c-0.604,0-1.096-0.491-1.096-1.096c0-0.022,0.002-0.043,0.004-0.065H18.93
		c0.001,0.022,0.003,0.043,0.003,0.065c0,0.605-0.489,1.096-1.095,1.096c-0.604,0-1.096-0.491-1.096-1.096
		c0-0.022,0.002-0.043,0.004-0.065h-1.398c0.001,0.022,0.003,0.043,0.003,0.065c0,0.605-0.489,1.096-1.095,1.096
		c-0.604,0-1.096-0.491-1.096-1.096c0-0.022,0.002-0.043,0.004-0.065h-1.398c0.001,0.022,0.003,0.043,0.003,0.065
		c0,0.605-0.491,1.096-1.095,1.096c-0.605,0-1.096-0.491-1.096-1.096C9.578,0.043,9.58,0.022,9.581,0H8.183
		c0.002,0.022,0.004,0.043,0.004,0.065c0,0.605-0.491,1.096-1.096,1.096c-0.604,0-1.095-0.491-1.095-1.096
		c0-0.022,0.002-0.043,0.003-0.065H4.72c0.001,0.022,0.003,0.043,0.003,0.065c0,0.605-0.49,1.096-1.095,1.096
		S2.532,0.67,2.532,0.065c0-0.022,0.003-0.043,0.004-0.065H1.167c0.002,0.022,0.004,0.043,0.004,0.065
		c0,0.605-0.491,1.096-1.096,1.096C0.05,1.161,0.025,1.159,0,1.157v2.497c1.422,0.017,2.569,1.174,2.569,2.599
		c0,1.426-1.147,2.583-2.569,2.599v2.556c0.025-0.001,0.05-0.004,0.075-0.004c0.605,0,1.096,0.491,1.096,1.096
		c0,0.605-0.491,1.096-1.096,1.096c-0.025,0-0.05-0.002-0.075-0.005v2.856c1.422,0.016,2.569,1.173,2.569,2.599
		c0,1.427-1.147,2.583-2.569,2.6v2.263c0.025-0.001,0.05-0.004,0.075-0.004c0.605,0,1.096,0.491,1.096,1.096h1.361
		c0-0.604,0.491-1.096,1.096-1.096S4.723,24.396,4.723,25h1.273c0-0.604,0.491-1.096,1.095-1.096c0.605,0,1.096,0.491,1.096,1.096
		h1.391c0-0.604,0.491-1.096,1.096-1.096c0.604,0,1.095,0.491,1.095,1.096h1.391c0-0.604,0.491-1.096,1.096-1.096
		c0.605,0,1.095,0.491,1.095,1.096h1.392c0-0.604,0.491-1.096,1.096-1.096c0.605,0,1.095,0.491,1.095,1.096h1.392
		c0-0.604,0.491-1.096,1.096-1.096c0.605,0,1.095,0.491,1.095,1.096h1.392c0-0.604,0.49-1.095,1.094-1.095v-2.259
		C23.564,21.646,22.4,20.482,22.4,19.046"/>
</g>
</svg>
