<?xml version="1.0" encoding="utf-8"?>
<!-- Generator: Adobe Illustrator 15.0.2, SVG Export Plug-In . SVG Version: 6.00 Build 0)  -->
<!DOCTYPE svg PUBLIC "-//W3C//DTD SVG 1.1//EN" "http://www.w3.org/Graphics/SVG/1.1/DTD/svg11.dtd">
<svg version="1.1" id="Layer_1" xmlns="http://www.w3.org/2000/svg" xmlns:xlink="http://www.w3.org/1999/xlink" x="0px" y="0px"
	 width="14px" height="14px" viewBox="0 0 14 14" enable-background="new 0 0 14 14" xml:space="preserve">
<g>
	<defs>
		<rect id="SVGID_1_" width="14" height="14"/>
	</defs>
	<clipPath id="SVGID_2_">
		<use xlink:href="#SVGID_1_"  overflow="visible"/>
	</clipPath>
	<path clip-path="url(#SVGID_2_)" fill="#00245D" d="M10.19,7.45h2.457c0,0,1.299-0.051,1.35-1.012
		c0.075-1.413-1.449-1.355-1.449-1.355H4.399c0,0,1.7-1.033,1.896-3.298c0.099-1.137-0.21-1.772-0.83-1.784
		C4.602-0.016,4.733,0.845,3.549,2.2S0.663,4.465,0.663,4.465S0.032,4.949,0.01,5.881c-0.022,0.932,0,6.068,0,6.068
		s-0.033,0.889,0.387,1.349C0.818,13.758,1.404,14,2.024,14s5.489-0.012,6.153-0.097c0.664-0.084,1.007-0.349,1.196-0.753
		c0.276-0.594-0.15-1.075-0.15-1.075s0.712-0.51,0.8-1.175c0.09-0.665-0.5-1.101-0.5-1.101s1.212-0.426,1.25-1.225
		C10.823,7.55,10.19,7.45,10.19,7.45"/>
</g>
</svg>
