<?xml version="1.0" encoding="utf-8"?>
<!-- Generator: Adobe Illustrator 15.0.2, SVG Export Plug-In . SVG Version: 6.00 Build 0)  -->
<!DOCTYPE svg PUBLIC "-//W3C//DTD SVG 1.1//EN" "http://www.w3.org/Graphics/SVG/1.1/DTD/svg11.dtd">
<svg version="1.1" id="Layer_1" xmlns="http://www.w3.org/2000/svg" xmlns:xlink="http://www.w3.org/1999/xlink" x="0px" y="0px"
	 width="14px" height="14px" viewBox="0 0 14 14" enable-background="new 0 0 14 14" xml:space="preserve">
<g>
	<defs>
		<rect id="SVGID_1_" width="14" height="14"/>
	</defs>
	<clipPath id="SVGID_2_">
		<use xlink:href="#SVGID_1_"  overflow="visible"/>
	</clipPath>
	<path clip-path="url(#SVGID_2_)" fill="#ffffff" d="M13.878,10.851c0.021-0.178,0-0.451-0.079-0.692
		c-0.077-0.242-0.472-1.401-0.609-1.803c-0.138-0.403-0.197-0.612-0.334-0.726c-0.138-0.111-0.65-0.257-1.004-0.338
		c-0.354-0.08-1.299-0.289-1.732-0.418C9.687,6.745,9.353,6.552,9.116,6.455C8.879,6.359,8.723,6.069,8.723,6.069
		S8.584,6.004,8.525,5.924C8.466,5.844,8.27,5.618,8.27,5.618l0.04-0.129c0,0,0.196-0.45,0.196-0.628c0-0.177,0.02-0.338,0.02-0.338
		s0.118-0.241,0.138-0.305c0.021-0.065,0.256-0.58,0.335-0.757c0.078-0.177,0.06-0.274,0.06-0.354c0-0.081,0.078-0.531,0.078-0.837
		S9.058,1.69,8.899,1.513C8.742,1.336,8.545,0.918,8.349,0.676C8.151,0.435,8.033,0.37,7.896,0.37c-0.139,0-0.434-0.161-0.492-0.257
		C7.346,0.016,6.794,0,6.557,0C6.321,0,5.751,0.064,5.396,0.113C5.042,0.161,4.767,0.306,4.629,0.354
		C4.491,0.402,4.294,0.66,4.176,0.789S3.822,1.368,3.743,1.417C3.664,1.465,3.606,1.658,3.566,1.883
		c-0.039,0.226-0.02,0.596-0.02,0.676c0,0.081,0.02,0.129-0.039,0.21c-0.059,0.08-0.039,0.209-0.039,0.402
		c0,0.193,0.354,0.87,0.354,0.87S3.861,4.234,3.94,4.346C4.02,4.459,4.314,4.684,4.314,4.684s0.039,0.435,0.079,0.548
		c0.039,0.113,0.354,0.579,0.354,0.579l-0.02,0.371L4.57,6.536c0,0-0.217,0.177-0.276,0.241C4.235,6.842,4.137,6.97,3.92,7.035
		C3.704,7.099,3.074,7.292,2.484,7.421c-0.591,0.129-1.24,0.322-1.24,0.322S1.028,8.018,0.909,8.21
		C0.792,8.403,0.732,9.047,0.575,9.675C0.45,10.172,0.094,13.51,0,14h14C13.943,13.778,13.865,10.965,13.878,10.851"/>
</g>
</svg>
