<?xml version="1.0" encoding="utf-8"?>
<!-- Generator: Adobe Illustrator 19.0.1, SVG Export Plug-In . SVG Version: 6.00 Build 0)  -->
<svg version="1.0" id="Ebene_1" xmlns="http://www.w3.org/2000/svg" xmlns:xlink="http://www.w3.org/1999/xlink" x="0px" y="0px"
	 viewBox="0 0 128 128" enable-background="new 0 0 128 128" xml:space="preserve">
<g>
	<path fill="#A7A9AC" d="M102.5,23H27c0,0-2-0.3-2,2.3v59.3c0,0-0.6,2.5,2,2.5h27.3c0,0-0.2,1.5-0.3,2.5c-0.1,1-0.5,2.5-1,3.2
		c-0.5,0.7-2.3,2.3-2.4,2.4c-0.2,0.1-0.1,0.8-0.1,1c0,0.3,0,0.6,1,0.7c1.1,0,26,0.2,26.6,0c0.7-0.2,0.4-1.1,0.4-1.3
		s-2.5-2.3-3.6-3.2c-0.9-0.8-1-5.3-1-5.3h28.4c0,0,2.5,0.1,2.5-2.5V25.3C105,25.3,105.1,23,102.5,23z"/>
	<rect x="28" y="26" fill="#FFFFFF" width="74" height="46"/>
	<g>
		<defs>
			<path id="SVGID_35_" d="M54.3,87c0,0-0.2,1.5-0.3,2.5c-0.1,1-0.5,2.5-1,3.2c-0.5,0.7-2.3,2.3-2.4,2.4c-0.2,0.1-0.1,0.8-0.1,1
				c0,0.3,0,0.6,1,0.7c1.1,0,26,0.2,26.6,0c0.7-0.2,0.4-1.1,0.4-1.3c0-0.2-2.5-2.3-3.6-3.2c-0.9-0.8-1-5.3-1-5.3H54.3z"/>
		</defs>
		<clipPath id="SVGID_2_">
			<use xlink:href="#SVGID_35_"  overflow="visible"/>
		</clipPath>
	</g>
	<path fill="#A7A9AC" d="M33.1,99h63.7c0,0,0.9-0.1,1.2,0.6c0.3,0.7,1.6,3.8,1.6,4.2c0,0.5-0.3,0.6-0.7,0.6
		c-0.3,0-67.2-0.1-67.2-0.1s-0.7,0-0.8-0.3c-0.2-0.3-0.2-0.6-0.2-1c0.1-0.4,0.7-3.2,0.7-3.4c0-0.3,0.3-0.5,0.6-0.5H33.1z"/>
	<g>
		<defs>
			<path id="SVGID_37_" d="M97,99H33.1h-1.2c-0.2,0-0.6,0.2-0.6,0.5c0,0.3-0.6,3-0.7,3.5c-0.1,0.4,0,0.8,0.2,1
				c0.2,0.3,0.8,0.3,0.8,0.3s66.8,0.1,67.2,0.1s0.7-0.1,0.7-0.6c0-0.5-1.2-3.5-1.6-4.2C97.7,99,97.1,99,96.9,99c-0.1,0-0.1,0-0.1,0"
				/>
		</defs>
		<clipPath id="SVGID_4_">
			<use xlink:href="#SVGID_37_"  overflow="visible"/>
		</clipPath>
	</g>
	<path fill="#FFFFFF" d="M65.5,78.9c0.3-0.3,0.2-0.8,0.2-0.8s-0.4,0-0.8,0.4c-0.3,0.3-0.3,0.8-0.3,0.8S65,79.4,65.5,78.9 M66.6,79.9
		c0,0,0,0-0.1-0.1c-0.1-0.1-0.4-0.3-0.8-0.4c-0.4-0.1-0.9,0.2-1,0.2c-0.1,0-0.2,0-0.4-0.1c0,0-0.2-0.1-0.4-0.1s-0.6,0-0.9,0.2
		c-0.4,0.3-0.7,0.6-0.6,1.6c0.1,1,0.6,1.6,0.9,2c0.3,0.3,0.6,0.2,0.9,0.1c0.2-0.1,0.5-0.1,1,0s0.6,0.1,0.9-0.2
		c0.3-0.2,0.6-1.1,0.6-1.1s-0.7-0.2-0.7-1.1C66,80.2,66.6,79.9,66.6,79.9"/>
</g>
</svg>
