<?xml version="1.0" encoding="utf-8"?>
<!-- Generator: Adobe Illustrator 19.0.1, SVG Export Plug-In . SVG Version: 6.00 Build 0)  -->
<svg version="1.0" id="Ebene_1" xmlns="http://www.w3.org/2000/svg" xmlns:xlink="http://www.w3.org/1999/xlink" x="0px" y="0px"
	 viewBox="-233 356.9 128 128" enable-background="new -233 356.9 128 128" xml:space="preserve">
<path fill="#A7A9AC" d="M-130.6,441.9c0.4-0.4,0.7-0.9,0.7-1.7l-0.1-0.3v-47.1c0,0-0.4-1.9-2.6-1.9h-72.8c0,0-2.6-0.4-2.6,1.9v47.4
	c0,0,0.1,0.9,0.8,1.7h-8.8v3.4c0,0-0.3,3.6,2.3,3.6h89.4c0,0,2.3-0.1,2.3-2.6v-4.4H-130.6z M-202,396.9h66v40h-66V396.9z"/>
<path fill="#FFFFFF" d="M-168.2,438.9c0.3-0.3,0.2-0.8,0.2-0.8s-0.4,0-0.8,0.4c-0.2,0.3-0.2,0.8-0.2,0.8S-168.6,439.4-168.2,438.9
	 M-167,439.9c0,0,0,0-0.1-0.1c-0.1-0.1-0.4-0.3-0.8-0.4c-0.4-0.1-0.9,0.2-1,0.2c-0.1,0-0.2,0-0.4-0.1c0,0-0.2-0.1-0.4-0.1
	c-0.2,0-0.6,0-0.9,0.2c-0.4,0.3-0.7,0.6-0.6,1.6c0.1,1,0.6,1.6,0.9,2c0.3,0.3,0.6,0.2,0.9,0.1c0.3-0.1,0.5-0.1,1,0
	c0.4,0.2,0.6,0.1,0.9-0.2c0.3-0.2,0.6-1.1,0.6-1.1s-0.7-0.2-0.7-1.1C-167.6,440.2-167,439.9-167,439.9"/>
</svg>
