<?xml version="1.0" encoding="utf-8"?>
<!-- Generator: Adobe Illustrator 19.0.1, SVG Export Plug-In . SVG Version: 6.00 Build 0)  -->
<svg version="1.0" id="Ebene_1" xmlns="http://www.w3.org/2000/svg" xmlns:xlink="http://www.w3.org/1999/xlink" x="0px" y="0px"
	 viewBox="0 0 128 128" enable-background="new 0 0 128 128" xml:space="preserve">
<g>
	<g>
		<g>
			<path fill="#B0B0B2" d="M20,33h43v30H20V33z M46.2,65.8c0-0.3,0.3-0.6,0.6-0.6s0.6,0.3,0.6,0.6c0,0.3-0.3,0.6-0.6,0.6
				S46.2,66.1,46.2,65.8 M43.7,65.8c0-0.3,0.3-0.6,0.6-0.6s0.6,0.3,0.6,0.6c0,0.3-0.3,0.6-0.6,0.6S43.7,66.1,43.7,65.8 M40.9,65.8
				c0-0.3,0.3-0.6,0.6-0.6s0.6,0.3,0.6,0.6c0,0.3-0.3,0.6-0.6,0.6S40.9,66.1,40.9,65.8 M38.4,65.8c0-0.3,0.3-0.6,0.6-0.6
				s0.6,0.3,0.6,0.6c0,0.3-0.3,0.6-0.6,0.6S38.4,66.1,38.4,65.8 M35.8,65.8c0-0.3,0.3-0.6,0.6-0.6s0.6,0.3,0.6,0.6
				c0,0.3-0.3,0.6-0.6,0.6S35.8,66.1,35.8,65.8 M67,68V30H16v38h15v3.5l-0.3,1.6l0.1,0.9h21.6l0-0.9L52,71.3V68H67z"/>
		</g>
		<g>
			<path fill="#B0B0B2" d="M23,75h36.5c0,0,2.8,3.3,2.9,3.4c0,0.2,0.1,0.6-0.3,0.6H49.7c0,0-0.7-0.1-2.3,0
				C45.8,79,22.3,78.9,22,78.9c-0.3,0-0.6-0.2-0.5-0.4c0.1-0.3,1.1-3.4,1.1-3.4"/>
		</g>
		<g>
			<path fill="#B0B0B2" d="M95.2,23.6c-0.7,0-1.3-0.6-1.3-1.3c0-0.7,0.6-1.3,1.3-1.3c0.7,0,1.3,0.6,1.3,1.3
				C96.4,23,95.9,23.6,95.2,23.6 M97,19H71.4c0,0-1.4-0.4-1.4,0.9v4.7c0,0,0.1,1.3,1.4,1.3h25.8c0,0,1.8,0,1.8-1.3v-4.7
				c0,0-0.4-0.9-1.8-0.9"/>
		</g>
		<g>
			<path fill="#B0B0B2" d="M95.2,32.2c-0.7,0-1.3-0.6-1.3-1.3c0-0.7,0.6-1.3,1.3-1.3c0.7,0,1.3,0.6,1.3,1.3
				C96.4,31.7,95.9,32.2,95.2,32.2 M97,27H71.4c0,0-1.4,0.3-1.4,1.7v4.7c0,0,0.1,1.6,1.4,1.6h25.8c0,0,1.8-0.2,1.8-1.6v-4.7
				c0,0-0.4-1.7-1.8-1.7"/>
		</g>
		<g>
			<path fill="#B0B0B2" d="M95.2,41c-0.7,0-1.3-0.6-1.3-1.3c0-0.7,0.6-1.3,1.3-1.3c0.7,0,1.3,0.6,1.3,1.3C96.4,40.4,95.9,41,95.2,41
				 M97,36H71.4c0,0-1.4,0.1-1.4,1.4v4.7c0,0,0.1,0.9,1.4,0.9h25.8c0,0,1.8,0.5,1.8-0.9v-4.7c0,0-0.4-1.4-1.8-1.4"/>
		</g>
		<g>
			<path fill="#B0B0B2" d="M103,70.1c0,0.2,0.2,0.3,0.1,0.4c0,0,0.1-0.1,0.1-0.1c-0.2,0.7-1,0.6-1,0.6H75.1C74,71,74,70.1,74,70.1
				V53c0-1.1,1.1-1,1.1-1h27.1c0.5,0,0.8,0.2,1,0.5c0,0-0.2,0-0.2,0c0.2,0.3,0,0.5,0,0.5V70.1z M106,48H71.6c0,0-1.6,0.5-1.6,1.6
				v23.8c0,0,0.5,1.6,1.6,1.6h34.1c0,0,1.3-0.4,1.3-1.6V49.6c0,0-0.1-1.6-1.3-1.6"/>
		</g>
	</g>
	<g>
		<path fill="#B0B0B2" d="M85.3,79H92l1.4,3H84L85.3,79z M71.8,76L66,82.8V85h46v-2.1l-6-6.9H71.8z"/>
	</g>
	<g>
		<g>
			<path fill="#B0B0B2" d="M60,91H44v-8h16V91z M67,91h-5v-9H42v9h-5.2c0,0-3.6,0-4.2,3h38.5c-0.3-1-1.2-3-4.2-3"/>
		</g>
		<g>
			<path fill="#B0B0B2" d="M60,107H44v-6h16V107z M47.3,96.4c0.6,0,1,0.5,1,1c0,0.6-0.5,1-1,1c-0.6,0-1-0.5-1-1
				C46.3,96.9,46.8,96.4,47.3,96.4 M51.6,96.4c0.6,0,1,0.5,1,1c0,0.6-0.5,1-1,1c-0.6,0-1-0.5-1-1C50.6,96.9,51.1,96.4,51.6,96.4
				 M56.4,96.4c0.6,0,1,0.5,1,1c0,0.6-0.5,1-1,1c-0.6,0-1-0.5-1-1C55.3,96.9,55.8,96.4,56.4,96.4 M32,95v6.5c0,0,0.5,4.5,4.8,4.5H40
				v3h24v-3h2.9c0,0,4.1-0.2,4.1-4.5v-6.4V95H32z"/>
		</g>
	</g>
</g>
</svg>
