<?xml version="1.0" encoding="utf-8"?>
<!-- Generator: Adobe Illustrator 19.0.1, SVG Export Plug-In . SVG Version: 6.00 Build 0)  -->
<svg version="1.0" id="Ebene_1" xmlns="http://www.w3.org/2000/svg" xmlns:xlink="http://www.w3.org/1999/xlink" x="0px" y="0px"
	 viewBox="0 0 128 128" enable-background="new 0 0 128 128" xml:space="preserve">
<g>
	<g>
		<path fill="#B0B0B2" d="M35.6,75c0,0-2.6-0.2-2.6,2.2v11.3c0,0,0.2,2.5,2.6,2.5h56.9c0,0,2.6-0.1,2.6-2.5V77.2
			c0,0-0.2-2.2-2.6-2.2H35.6z"/>
	</g>
	<g>
		<path fill="#B0B0B2" d="M35.6,94c0,0-2.6-0.3-2.6,2.1v11.3c0,0,0.2,2.6,2.6,2.6h56.9c0,0,2.6-0.2,2.6-2.6V96.1
			c0,0-0.2-2.1-2.6-2.1H35.6z"/>
	</g>
	<g>
		<path fill="#B0B0B2" d="M35.6,56c0,0-2.6-0.1-2.6,2.3v11.3c0,0,0.2,2.4,2.6,2.4h56.9c0,0,2.6,0,2.6-2.4V58.3c0,0-0.2-2.3-2.6-2.3
			H35.6z"/>
	</g>
	<g>
		<path fill="#FFFFFF" d="M87.4,66.7c1.5,0,2.7-1.2,2.7-2.8c0-1.5-1.2-2.8-2.7-2.8s-2.7,1.2-2.7,2.8C84.7,65.5,85.9,66.7,87.4,66.7"
			/>
	</g>
	<g>
		<path fill="#FFFFFF" d="M87.4,85.5c1.5,0,2.7-1.2,2.7-2.8c0-1.5-1.2-2.8-2.7-2.8s-2.7,1.2-2.7,2.8C84.7,84.2,85.9,85.5,87.4,85.5"
			/>
	</g>
	<g>
		<path fill="#FFFFFF" d="M87.4,104.4c1.5,0,2.7-1.2,2.7-2.8c0-1.5-1.2-2.8-2.7-2.8s-2.7,1.2-2.7,2.8
			C84.7,103.1,85.9,104.4,87.4,104.4"/>
	</g>
	<g>
		<path fill="#B0B0B2" d="M35.6,18c0,0-2.6,0.2-2.6,2.6v11.3c0,0,0.2,2.1,2.6,2.1h56.9c0,0,2.6,0.3,2.6-2.1V20.6
			c0,0-0.2-2.6-2.6-2.6H35.6z"/>
	</g>
	<g>
		<path fill="#B0B0B2" d="M35.6,37c0,0-2.6,0.1-2.6,2.5v11.3c0,0,0.2,2.2,2.6,2.2h56.9c0,0,2.6,0.2,2.6-2.2V39.5
			c0,0-0.2-2.5-2.6-2.5H35.6z"/>
	</g>
	<g>
		<path fill="#FFFFFF" d="M87.4,28.9c1.5,0,2.7-1.2,2.7-2.8c0-1.5-1.2-2.8-2.7-2.8s-2.7,1.2-2.7,2.8C84.7,27.7,85.9,28.9,87.4,28.9"
			/>
	</g>
	<g>
		<path fill="#FFFFFF" d="M87.4,47.8c1.5,0,2.7-1.2,2.7-2.8c0-1.5-1.2-2.8-2.7-2.8s-2.7,1.2-2.7,2.8C84.7,46.6,85.9,47.8,87.4,47.8"
			/>
	</g>
</g>
</svg>
