<?xml version="1.0" encoding="utf-8"?>
<!-- Generator: Adobe Illustrator 19.0.1, SVG Export Plug-In . SVG Version: 6.00 Build 0)  -->
<svg version="1.0" id="Ebene_1" xmlns="http://www.w3.org/2000/svg" xmlns:xlink="http://www.w3.org/1999/xlink" x="0px" y="0px"
	 viewBox="0 0 128 128" enable-background="new 0 0 128 128" xml:space="preserve">
<g>
	<g>
		<path fill="#B0B0B2" d="M42.5,88c0,0-1.5-1.1-1.5,0.7v8.5c0,0-0.3,2.8,1.5,2.8h42.9c0,0,1.5-1,1.5-2.8v-8.5c0,0,0.3-0.7-1.5-0.7
			H42.5z"/>
	</g>
	<g>
		<path fill="#B0B0B2" d="M42.5,102c0,0-1.5-0.9-1.5,0.9v8.5c0,0-0.3,2.6,1.5,2.6h42.9c0,0,1.5-0.7,1.5-2.6v-8.5
			c0,0,0.3-0.9-1.5-0.9H42.5z"/>
	</g>
	<g>
		<path fill="#B0B0B2" d="M42.5,73c0,0-1.5-0.4-1.5,1.4v8.5c0,0-0.3,2.1,1.5,2.1h42.9c0,0,1.5-0.3,1.5-2.1v-8.5c0,0,0.3-1.4-1.5-1.4
			H42.5z"/>
	</g>
	<g>
		<path fill="#FFFFFF" d="M81.6,80.8c1.1,0,2.1-0.9,2.1-2.1c0-1.1-0.9-2.1-2.1-2.1s-2.1,0.9-2.1,2.1C79.6,79.8,80.5,80.8,81.6,80.8"
			/>
	</g>
	<g>
		<path fill="#FFFFFF" d="M81.6,94.9c1.1,0,2.1-0.9,2.1-2.1c0-1.1-0.9-2.1-2.1-2.1s-2.1,0.9-2.1,2.1C79.6,94,80.5,94.9,81.6,94.9"/>
	</g>
	<g>
		<path fill="#FFFFFF" d="M81.6,109.2c1.1,0,2.1-0.9,2.1-2.1c0-1.1-0.9-2.1-2.1-2.1s-2.1,0.9-2.1,2.1
			C79.6,108.2,80.5,109.2,81.6,109.2"/>
	</g>
	<g>
		<path fill="#B0B0B2" d="M42.5,45c0,0-1.5-0.8-1.5,1v8.5c0,0-0.3,2.5,1.5,2.5h42.9c0,0,1.5-0.7,1.5-2.5V46c0,0,0.3-1-1.5-1H42.5z"
			/>
	</g>
	<g>
		<path fill="#B0B0B2" d="M42.5,59c0,0-1.5-0.6-1.5,1.2v8.5c0,0-0.3,2.2,1.5,2.2h42.9c0,0,1.5-0.4,1.5-2.2v-8.5c0,0,0.3-1.2-1.5-1.2
			H42.5z"/>
	</g>
	<g>
		<path fill="#FFFFFF" d="M81.6,52.2c1.1,0,2.1-0.9,2.1-2.1c0-1.1-0.9-2.1-2.1-2.1s-2.1,0.9-2.1,2.1C79.6,51.3,80.5,52.2,81.6,52.2"
			/>
	</g>
	<g>
		<path fill="#FFFFFF" d="M81.6,66.5c1.1,0,2.1-0.9,2.1-2.1c0-1.1-0.9-2.1-2.1-2.1s-2.1,0.9-2.1,2.1C79.6,65.5,80.5,66.5,81.6,66.5"
			/>
	</g>
	<g>
		<path fill="#B0B0B2" d="M42.5,15c0,0-1.5-0.3-1.5,1.6v8.5c0,0-0.3,1.9,1.5,1.9h42.9c0,0,1.5-0.1,1.5-1.9v-8.5c0,0,0.3-1.6-1.5-1.6
			H42.5z"/>
	</g>
	<g>
		<path fill="#B0B0B2" d="M42.5,29c0,0-1.5,0-1.5,1.8v8.5c0,0-0.3,1.7,1.5,1.7h42.9c0,0,1.5,0.1,1.5-1.7v-8.5c0,0,0.3-1.8-1.5-1.8
			H42.5z"/>
	</g>
	<g>
		<path fill="#FFFFFF" d="M81.6,22.8c1.1,0,2.1-0.9,2.1-2.1c0-1.1-0.9-2.1-2.1-2.1s-2.1,0.9-2.1,2.1C79.6,21.9,80.5,22.8,81.6,22.8"
			/>
	</g>
	<g>
		<path fill="#FFFFFF" d="M81.6,37.1c1.1,0,2.1-0.9,2.1-2.1c0-1.1-0.9-2.1-2.1-2.1s-2.1,0.9-2.1,2.1C79.6,36.1,80.5,37.1,81.6,37.1"
			/>
	</g>
</g>
</svg>
