<?xml version="1.0" encoding="utf-8"?>
<!-- Generator: Adobe Illustrator 19.0.1, SVG Export Plug-In . SVG Version: 6.00 Build 0)  -->
<svg version="1.0" id="Ebene_1" xmlns="http://www.w3.org/2000/svg" xmlns:xlink="http://www.w3.org/1999/xlink" x="0px" y="0px"
	 viewBox="0 0 128 128" enable-background="new 0 0 128 128" xml:space="preserve">
<g>
	<g>
		<path fill="#B0B0B2" d="M17,49c0,0-2,0.1-2,2.2v21.4c0,0-0.2,2.4,2,2.4H111c0,0,2-0.3,2-2.4V51.2c0,0,0.2-2.2-2-2.2H17z"/>
	</g>
	<g>
		<path fill="#FFFFFF" d="M101.3,66.3c2.4,0,4.3-2,4.3-4.4s-1.9-4.4-4.3-4.4c-2.4,0-4.3,2-4.3,4.4S98.9,66.3,101.3,66.3"/>
	</g>
	<g>
		<path fill="#FFFFFF" d="M68.9,77.7l2.2-8.7c0,0-6.8-0.1-8.3-1.5l-2.2,9.9C60.6,77.5,63.7,79.5,68.9,77.7"/>
	</g>
	<g>
		<path fill="#FFFFFF" d="M64.8,80.1c-3.1,0-4.9-1.2-5-1.2l-1-0.6l3-13.9l2.1,2c0.6,0.5,4,1,7.2,1l2.1,0L70.3,79l-0.8,0.3
			C67.7,79.9,66.1,80.1,64.8,80.1z M62.5,76.5c1,0.3,2.7,0.5,5-0.1l1.4-5.8c-1.6-0.1-3.5-0.3-5-0.7L62.5,76.5z"/>
	</g>
	<g>
		<path fill="#FFFFFF" d="M72.5,63.7l2.2-8.7c0,0-6.8-0.1-8.3-1.5l-2.2,9.9C64.2,63.5,67.3,65.5,72.5,63.7"/>
	</g>
	<g>
		<path fill="#FFFFFF" d="M68.3,66.1c-3.1,0-4.9-1.2-5-1.2l-1-0.6l3-13.9l2.1,2c0.6,0.5,4,1,7.2,1l2.1,0l-2.9,11.6L73,65.2
			C71.3,65.8,69.7,66.1,68.3,66.1z M66.1,62.5c1,0.3,2.7,0.5,5-0.1l1.4-5.8c-1.6-0.1-3.5-0.3-5-0.7L66.1,62.5z"/>
	</g>
	<g>
		<path fill="#FFFFFF" d="M53.3,50.2l-2.2,8.7c0,0,6.8,0.1,8.3,1.5l2.2-9.9C61.7,50.4,58.5,48.3,53.3,50.2"/>
	</g>
	<g>
		<path fill="#FFFFFF" d="M60.5,63.5l-2.1-2c-0.6-0.5-4-1-7.2-1l-2.1,0l2.9-11.6l0.8-0.3c5.9-2.1,9.6,0.3,9.8,0.4l1,0.6L60.5,63.5z
			 M53.3,57.2c1.6,0.1,3.5,0.3,5,0.7l1.4-6.6c-1-0.3-2.7-0.5-5,0.1L53.3,57.2z"/>
	</g>
	<g>
		<path fill="#FFFFFF" d="M49.8,64.2l-2.2,8.7c0,0,6.8,0.1,8.3,1.5l2.2-9.9C58.1,64.4,54.9,62.4,49.8,64.2"/>
	</g>
	<g>
		<path fill="#FFFFFF" d="M56.9,77.6l-2.1-2c-0.6-0.5-4-1-7.2-1l-2.1,0l2.9-11.6l0.8-0.3c5.9-2.1,9.6,0.3,9.8,0.4l1,0.6L56.9,77.6z
			 M49.7,71.3c1.6,0.1,3.5,0.3,5,0.7l1.4-6.6c-1-0.3-2.7-0.5-5,0.1L49.7,71.3z"/>
	</g>
	<g>
		<path fill="#FFFFFF" d="M61.8,65.7l-3,12.1c1.8,1.4,3.9,1.9,5.8,1.9c3.1,0,5.7-1.2,5.7-1.2l2.9-11.4c-1.3,0.3-2.9,0.5-4.6,0.5
			C66.4,67.6,63.9,67.1,61.8,65.7 M53,62L53,62c-1.5,0-3,0.4-4.1,0.6l-3.2,12.6c0,0,2.2-0.8,5-0.8c1.9,0,4.2,0.4,6.1,1.8l3-12.2
			C58,62.6,55.7,62,53.3,62 M65.3,51.6l-2.9,11.6c1.6,1.4,4,1.8,6.3,1.8h0h0c2,0,3.9-0.2,5.1-0.5L77,52.3c0,0-2.6,1.2-5.7,1.2
			C69.4,53.5,67.2,53.1,65.3,51.6 M57.4,48.4c-2.8,0-5,0.8-5,0.8l-2.9,11.2c1-0.1,2.2-0.3,3.5-0.3c2.4,0,5.1,0.4,7.3,1.8l3-11.9
			C61.5,48.7,59.3,48.4,57.4,48.4 M63.3,69c1.6,0.6,3.4,0.8,5.4,0.8c0.5,0,1,0,1.6-0.1l-1.8,7c-0.9,0.3-2.3,0.6-3.8,0.6
			c-1.2,0-2.3-0.2-3.3-0.7L63.3,69z M53,62.3v2.2c2,0,3.1,0.3,4.2,0.8l-1.9,7.6c-1.4-0.5-2.9-0.8-4.6-0.8c-0.7,0-1.3,0-2,0.1l2-7.6
			c0.8-0.1,1.5-0.1,2.3-0.1L53,62.3z M66.8,55c1.4,0.5,2.9,0.8,4.6,0.8c0.9,0,1.8-0.1,2.6-0.2l-1.8,7.2c-1.2,0.2-2.3,0.3-3.4,0.3
			c-1.1,0-2.5-0.1-3.7-0.7L66.8,55z M57.4,50.6c1.2,0,2.4,0.2,3.4,0.6l-1.9,7.6c-1.7-0.6-3.7-0.9-5.8-0.9c-0.2,0-0.4,0-0.6,0
			l1.8-6.9C55,50.8,56.2,50.6,57.4,50.6"/>
	</g>
	<g>
		<path fill="#FFFFFF" d="M64.6,81.2c-2.6,0-4.9-0.7-6.8-2.2L57,78.4l0-0.1L56,77.5c-1.4-1-3.2-1.5-5.2-1.5c-2.5,0-4.5,0.7-4.5,0.8
			l-2.8,1.1l4-15.6l0,0L51.1,48l0.8-0.3c0.1,0,2.5-0.9,5.6-0.9c2.6,0,4.9,0.6,6.8,1.9l0.1,0.1l0,0l0,0l0.7,0.5l0,0.1l1.1,0.9
			c1.4,1.1,3.1,1.7,5,1.7c2.7,0,5.1-1,5.1-1l2.9-1.3l-7.7,29.8L71,79.9C70.8,79.9,68,81.2,64.6,81.2z M63.2,75.7
			c1.3,0.3,2.8,0.1,3.9-0.2l1.1-4.2c-1.3,0-2.6-0.2-3.8-0.5L63.2,75.7z M50.8,70.6c1.2,0,2.3,0.1,3.4,0.4l1.2-4.7
			c-0.8-0.2-1.7-0.3-2.3-0.3h-0.1c-0.4,0-0.8,0.1-1.1,0.1L50.8,70.6z M66.8,61.4c1.1,0.2,2.5,0.2,4,0l1-4c-1.4,0-2.7-0.1-4-0.4
			L66.8,61.4z M54.5,56.3c1.2,0.1,2.2,0.2,3.3,0.5l1.1-4.5c-1.1-0.2-2.4-0.1-3.4,0L54.5,56.3z"/>
	</g>
	<g>
		<path fill="#A7A9AC" d="M68.9,77.7l2.2-8.7c0,0-6.8-0.1-8.3-1.5l-2.2,9.9C60.6,77.5,63.7,79.5,68.9,77.7"/>
	</g>
	<g>
		<path fill="#A7A9AC" d="M72.5,63.7l2.2-8.7c0,0-6.8-0.1-8.3-1.5l-2.2,9.9C64.2,63.5,67.3,65.5,72.5,63.7"/>
	</g>
	<g>
		<path fill="#A7A9AC" d="M53.3,50.2l-2.2,8.7c0,0,6.8,0.1,8.3,1.5l2.2-9.9C61.7,50.4,58.5,48.3,53.3,50.2"/>
	</g>
	<g>
		<path fill="#A7A9AC" d="M49.8,64.2l-2.2,8.7c0,0,6.8,0.1,8.3,1.5l2.2-9.9C58.1,64.4,54.9,62.4,49.8,64.2"/>
	</g>
	<g>
		<path fill="#A7A9AC" d="M61.8,65.7l-3,12.1c1.8,1.4,3.9,1.9,5.8,1.9c3.1,0,5.7-1.2,5.7-1.2l2.9-11.4c-1.3,0.3-2.9,0.5-4.6,0.5
			C66.4,67.6,63.9,67.1,61.8,65.7 M53,62L53,62c-1.5,0-3,0.4-4.1,0.6l-3.2,12.6c0,0,2.2-0.8,5-0.8c1.9,0,4.2,0.4,6.1,1.8l3-12.2
			C58,62.6,55.7,62,53.3,62 M65.3,51.6l-2.9,11.6c1.6,1.4,4,1.8,6.3,1.8h0h0c2,0,3.9-0.2,5.1-0.5L77,52.3c0,0-2.6,1.2-5.7,1.2
			C69.4,53.5,67.2,53.1,65.3,51.6 M57.4,48.4c-2.8,0-5,0.8-5,0.8l-2.9,11.2c1-0.1,2.2-0.3,3.5-0.3c2.4,0,5.1,0.4,7.3,1.8l3-11.9
			C61.5,48.7,59.3,48.4,57.4,48.4 M63.3,69c1.6,0.6,3.4,0.8,5.4,0.8c0.5,0,1,0,1.6-0.1l-1.8,7c-0.9,0.3-2.3,0.6-3.8,0.6
			c-1.2,0-2.3-0.2-3.3-0.7L63.3,69z M53,62.3v2.2c2,0,3.1,0.3,4.2,0.8l-1.9,7.6c-1.4-0.5-2.9-0.8-4.6-0.8c-0.7,0-1.3,0-2,0.1l2-7.6
			c0.8-0.1,1.5-0.1,2.3-0.1L53,62.3z M66.8,55c1.4,0.5,2.9,0.8,4.6,0.8c0.9,0,1.8-0.1,2.6-0.2l-1.8,7.2c-1.2,0.2-2.3,0.3-3.4,0.3
			c-1.1,0-2.5-0.1-3.7-0.7L66.8,55z M57.4,50.6c1.2,0,2.4,0.2,3.4,0.6l-1.9,7.6c-1.7-0.6-3.7-0.9-5.8-0.9c-0.2,0-0.4,0-0.6,0
			l1.8-6.9C55,50.8,56.2,50.6,57.4,50.6"/>
	</g>
</g>
</svg>
