<?xml version="1.0" encoding="utf-8"?>
<!-- Generator: Adobe Illustrator 19.0.1, SVG Export Plug-In . SVG Version: 6.00 Build 0)  -->
<svg version="1.0" id="Ebene_1" xmlns="http://www.w3.org/2000/svg" xmlns:xlink="http://www.w3.org/1999/xlink" x="0px" y="0px"
	 viewBox="0 0 128 128" enable-background="new 0 0 128 128" xml:space="preserve">
<g>
	<g>
		<path fill="#B0B0B2" d="M16.4,52c0,0-2.4-0.5-2.4,1.7v21.6c0,0,0.3,1.7,2.4,1.7h95.1c0,0,2.4,0.4,2.4-1.7V53.7
			c0,0-0.3-1.7-2.4-1.7H16.4z"/>
	</g>
	<g>
		<path fill="#FFFFFF" d="M101.7,68.9c2.4,0,4.4-2,4.4-4.4c0-2.5-2-4.4-4.4-4.4c-2.4,0-4.4,2-4.4,4.4
			C97.3,66.9,99.3,68.9,101.7,68.9"/>
	</g>
	<g>
		<path fill="#B1B1B1" d="M63,64c0,7.7-6.2,13.9-13.9,13.9c-7.7,0-13.9-6.2-13.9-13.9s6.2-13.9,13.9-13.9C56.8,50.1,63,56.3,63,64
			 M64.6,64c0-8.5-6.9-15.5-15.5-15.5c-8.5,0-15.5,6.9-15.5,15.5s6.9,15.5,15.5,15.5C57.6,79.5,64.6,72.5,64.6,64"/>
	</g>
	<g>
		<path fill="#FFFFFF" d="M49.1,81.2c-9.5,0-17.2-7.7-17.2-17.2s7.7-17.2,17.2-17.2c9.5,0,17.2,7.7,17.2,17.2S58.6,81.2,49.1,81.2z
			 M49.1,51.8c-6.7,0-12.2,5.5-12.2,12.2s5.5,12.2,12.2,12.2c6.7,0,12.2-5.5,12.2-12.2S55.8,51.8,49.1,51.8z"/>
	</g>
	<g>
		<polygon fill="#B1B1B1" points="37.1,55 46.4,55 50.3,60.3 56.9,55 67.6,55 54.3,65.2 61.7,75 52.4,75 48.7,69.4 41.7,75 31,75 
			44.6,64.3 		"/>
	</g>
	<g>
		<path fill="#FFFFFF" d="M64.9,76H51.6l-3.2-4.9L42.2,76H26.5l15.9-12l-8.6-10h13.3l3.4,4.6l5.8-4.6h15.8L56.5,65.5L64.9,76z
			 M53.2,73h5.4l-6.5-8.1L63,57h-5.6L50,62.9L45.6,57h-5.3l6.4,7.5L35.5,73h5.7l7.9-6.3L53.2,73z"/>
	</g>
	<g>
		<path fill="#B1B1B1" d="M76.8,71h5.7l1.2-5.2c0.4-1.8,1.8-2.7,3.2-2.7c1.3,0,2,0.7,1.7,2.1L87.2,71h5.7l1.7-7.1
			c0.7-3-1.3-4.4-4.4-4.4c-2.7,0-4.8,0.5-5.5,1.5h0l0.3-1h-5.5L76.8,71z M69.4,67c-0.8,1-1.7,1-3.2,1c-2.5,0-3.1-1-2.9-2h12.4
			c1.4-5-2.2-6.8-7.7-6.8c-5.6,0-9.3,2.2-10.2,5.9c-1,4,2,5.9,7.9,5.9c2.6,0,4.6-0.5,6.2-1.2c1.6-0.6,2.8-0.9,3.5-2.9H69.4z
			 M63.9,64c0.6-1,1.9-1.9,3.9-1.9c1.9,0,3.1,0.9,2.9,1.9H63.9z"/>
	</g>
	<g>
		<path fill="#FFFFFF" d="M65.7,72.6c-4.3,0-7.1-0.9-8.5-2.8c-0.7-0.9-1.4-2.5-0.8-4.9c1.1-4.4,5.3-7,11.7-7c3.1,0,6.6,0.3,8.3,2.6
			c0.4,0.5,0.7,1.1,0.9,1.7l1-4.2h8.4l-0.1,0.6c1.1-0.3,2.3-0.5,3.6-0.5c2.6,0,4.3,0.6,5.3,1.9c0.8,1,1,2.4,0.6,4l-2,8h-8.7l1.8-7.4
			c0,0,0,0,0,0c-0.1,0-0.1,0-0.2,0c-1.3,0-1.6,0.8-1.8,1.4L83.6,72h-8.7l0.6-2.3c-0.8,0.8-1.9,1.4-3,1.9
			C70.7,72.3,68.5,72.6,65.7,72.6z M63.7,61.5c-2.4,0.7-4,2.1-4.4,4.1c-0.4,1.5,0.1,2.2,0.3,2.4c0.6,0.8,2,1.3,4.1,1.5
			c-0.5-0.2-0.9-0.5-1.2-0.9c-0.5-0.7-0.8-1.5-0.6-2.4L62,65h12.4c0.1-1.2,0-2.1-0.5-2.7c-0.6-0.7-1.7-1.1-3-1.3
			c0.2,0.1,0.3,0.3,0.4,0.4c0.5,0.6,0.8,1.4,0.6,2.2L71.9,65H61.2l1.4-2.3C62.9,62.2,63.3,61.8,63.7,61.5z M70,69
			c-0.1,0.1-0.2,0.2-0.3,0.2c0.3-0.1,0.6-0.1,0.9-0.2H70z M89.2,69h2.6l1.4-5.7c0.1-0.5,0.2-1.1-0.1-1.4c-0.2-0.2-0.8-0.7-2.9-0.7
			c-1.2,0-2.1,0.2-2.8,0.4c1,0.1,1.8,0.4,2.3,1.1c0.4,0.5,0.8,1.3,0.4,2.7L89.2,69z M78.7,69h2.6l0.9-3.8c0.2-0.9,0.6-1.6,1.1-2.2
			h-0.5l0.3-2h-2.5L78.7,69z"/>
	</g>
	<g>
		<path fill="#B1B1B1" d="M62.8,64c0,7.6-6.1,13.7-13.7,13.7c-7.6,0-13.7-6.1-13.7-13.7s6.1-13.7,13.7-13.7
			C56.6,50.3,62.8,56.4,62.8,64 M64.3,64c0-8.4-6.8-15.2-15.2-15.2c-8.4,0-15.2,6.8-15.2,15.2s6.8,15.2,15.2,15.2
			C57.5,79.2,64.3,72.4,64.3,64"/>
	</g>
	<g>
		<polygon fill="#B1B1B1" points="37.5,55 46.5,55 50.2,60.1 56.5,55 66.8,55 54.1,64.7 61.2,74 52.3,74 48.7,68.6 42,74 31.7,74 
			44.8,63.8 		"/>
	</g>
	<g>
		<path fill="#B1B1B1" d="M76.8,70h5.6l1.2-4.6c0.4-1.7,1.7-2.4,3.2-2.4c1.3,0,2,0.4,1.7,1.7L87.1,70h5.6l1.6-6.4
			c0.7-2.9-1.3-4.1-4.4-4.1c-2.7,0-4.7,1.5-5.4,1.5h0l0.3-1h-5.4L76.8,70z M69.5,67c-0.8,1-1.7,0.9-3.1,0.9c-2.5,0-3.1-0.9-2.9-1.9
			h12.3c1.4-5-2.2-6.5-7.6-6.5c-5.5,0-9.2,2.1-10.1,5.7c-0.9,3.8,1.9,5.7,7.8,5.7c2.6,0,4.6-0.5,6.1-1.1c1.6-0.6,2.7-1.7,3.4-2.7
			H69.5z M64.1,64c0.6-1,1.9-1.8,3.8-1.8c1.9,0,3,0.8,2.8,1.8H64.1z"/>
	</g>
</g>
</svg>
