<?xml version="1.0" encoding="utf-8"?>
<!-- Generator: Adobe Illustrator 19.0.1, SVG Export Plug-In . SVG Version: 6.00 Build 0)  -->
<svg version="1.0" id="Ebene_1" xmlns="http://www.w3.org/2000/svg" xmlns:xlink="http://www.w3.org/1999/xlink" x="0px" y="0px"
	 viewBox="0 0 128 128" enable-background="new 0 0 128 128" xml:space="preserve">
<g>
	<g>
		<path fill="#B0B0B2" d="M19,52c0,0-4-0.3-4,3.6v17.7c0,0,0.1,3.7,4,3.7h90c0,0,4,0.2,4-3.7V55.6c0,0-0.1-3.6-4-3.6H19z"/>
	</g>
	<g>
		<path fill="#FFFFFF" d="M101.1,68.8c2.4,0,4.3-2,4.3-4.4c0-2.4-1.9-4.4-4.3-4.4s-4.3,2-4.3,4.4C96.8,66.9,98.7,68.8,101.1,68.8"/>
	</g>
	<g>
		<path fill="#FFFFFF" d="M85.8,73.3c0-0.5-0.2-1-0.7-1.4c0.8-0.8,0.9-1.4,0.9-1.4V60c0-0.5-0.3-1-0.8-1.4c0.8-0.8,0.8-1.4,0.8-1.4
			v-2v-8.4v-2c0,0-0.1,0.6-1.2,1.3c0.7-0.5,1.1-1.1,1.1-1.7c0-2.9-9.5-5.2-21.1-5.2c-11.6,0-21.1,2.3-21.1,5.2c0,0.5,0.5,1,1,1.5
			c-0.9-0.7-0.7-1.2-0.7-1.2v2v8.4v2c0,0,0,0.6,0.8,1.4C44.3,59,44,59.5,44,60v10.5c0,0-0.2,0.6,0.6,1.4c-0.5,0.4-0.9,0.9-0.9,1.4
			c0,0.1,0,0.2,0,0.3c0,0.1,0.1,0.3,0.2,0.4c-0.1-0.1,0-0.3,0-0.4c0-0.2,0.1-0.3,0.1-0.3v10.5c0,0-0.2,5.2,21,5.2
			c21.2,0,21-5.2,21-5.2V73.3c0,0-0.1,0.1-0.2,0.3c-0.1,0.2-0.2,0.3-0.3,0.5c0.1-0.2,0.1-0.4,0.2-0.5C85.8,73.4,85.8,73.3,85.8,73.3
			"/>
	</g>
	<g>
		<path fill="#FFFFFF" d="M65,91.9c-12,0-19.3-1.6-22.4-4.8c-1.4-1.4-1.6-2.8-1.6-3.4v-9c-0.1-0.2-0.1-0.3-0.1-0.4
			c-0.1-0.5-0.1-0.9-0.1-1.1c0-0.6,0.1-1.2,0.4-1.6C41,71.1,41,70.7,41,70.3V60c0-0.4,0.1-0.9,0.3-1.5C41,57.9,41,57.4,41,57.2V45.8
			c-0.2-0.5-0.3-1-0.3-1.5c0-7.6,18.4-8.2,24.1-8.2c5.7,0,24.1,0.6,24.1,8.2c0,0.1,0,0.2,0,0.3l0.2,0v12.5c0,0.3,0,0.8-0.3,1.4
			c0.2,0.6,0.3,1.1,0.3,1.5v23.7c0,0.6-0.2,2-1.6,3.4C84.3,90.4,77,91.9,65,91.9z M47,83.1c0.8,0.6,4.4,2.9,18,2.9
			c13.6,0,17.2-2.2,18-2.9V74l-2.3-2l2.3-2.3c0,0,0,0,0,0v-9.1l-2.2-1.9l2.2-2.3V45c-1.3-1.1-7.8-3-18.2-3c-9.5,0-15.7,1.6-17.8,2.7
			v11.8l2.3,2.2l-2.3,2V70l2,2l-2,1.8V83.1z M44.4,73.8l1.4,1.8c0.6-0.4,1-1.1,1.1-1.8l-0.2,0.2c-0.1,0-0.1,0.1-0.2,0.1
			c0.1-0.1,0.3-0.4,0.3-0.9c0-0.1,0-0.3-0.1-0.6c0,0,0,0,0-0.1L44.4,73.8z M82.8,72.8c0,0.2,0,0.3,0,0.5c0,0.3,0.1,0.5,0.2,0.7v-0.7
			h1L83,72.7c0,0,0,0,0,0l-0.1,0C82.9,72.7,82.9,72.8,82.8,72.8z M45.5,45.1l1.4,0.4C47,45.2,47,45,47,44.7
			c-0.3,0.1-0.5,0.3-0.6,0.4c0.1-0.1,0.2-0.3,0.2-0.6l0.3,0c0-0.4-0.1-0.7-0.3-1l-0.1,0.1c0-0.2-0.1-0.3-0.1-0.4l-0.8,1l0.3,0
			L45.5,45.1z M83,43.7c-0.1,0.1-0.1,0.3-0.1,0.6c0,0.3,0.1,0.5,0.2,0.7v-0.3h0.6l-0.3-0.4l0.3,0l-0.4-0.7c0,0.1-0.1,0.2-0.1,0.3
			L83,43.7z"/>
	</g>
	<g>
		<path fill="#FFFFFF" d="M87,44.4c0,0-0.1,4.3-22,4.3s-22-4.3-22-4.3v10.8c0,0,0.1,5.4,22,5.4s22-5.4,22-5.4V44.4z"/>
	</g>
	<g>
		<path fill="#B0B0B2" d="M87,74c0,0-0.1,5.4-22,5.4S43,74,43,74v10.8c0,0,0.1,5.4,22,5.4s22-5.4,22-5.4V74z"/>
	</g>
	<g>
		<path fill="#FFFFFF" d="M64.7,79.6c13.1,0,21.8-2.6,21.8-5.6c0-3-9.8-5.4-21.8-5.4S42.9,71,42.9,74C42.9,77,51.2,79.6,64.7,79.6"
			/>
	</g>
	<g>
		<path fill="#B0B0B2" d="M87,60.3c0,0-0.1,5.4-22,5.4s-22-5.4-22-5.4v10.8c0,0,0.1,5.4,22,5.4s22-5.4,22-5.4V60.3z"/>
	</g>
	<g>
		<path fill="#FFFFFF" d="M64.7,65.9c13.1,0,21.8-2.6,21.8-5.6c0-3-9.8-5.4-21.8-5.4s-21.8,2.4-21.8,5.4
			C42.9,63.3,51.2,65.9,64.7,65.9"/>
	</g>
	<g>
		<path fill="#B0B0B2" d="M87,46.5c0,0-0.1,5.4-22,5.4s-22-5.4-22-5.4v10.8c0,0,0.1,5.4,22,5.4s22-5.4,22-5.4V46.5z"/>
	</g>
	<g>
		<path fill="#B0B0B2" d="M64.7,49.6c13.1,0,21.8-2.6,21.8-5.6s-9.8-5.4-21.8-5.4S42.9,41,42.9,44S51.2,49.6,64.7,49.6"/>
	</g>
</g>
</svg>
