<svg id="Ebene_1" data-name="Ebene 1" xmlns="http://www.w3.org/2000/svg" viewBox="0 0 128 128"><defs><style>.cls-1{fill:#fff;}.cls-2{fill:#b0b0b2;}.cls-3{fill:#b1b1b1;}</style></defs><title>1</title><path class="cls-1" d="M64,82A31.22,31.22,0,1,0,32.51,50.76,31.36,31.36,0,0,0,64,82"/><path class="cls-2" d="M64,81.63A30.87,30.87,0,1,0,32.88,50.76,31,31,0,0,0,64,81.63"/><polygon class="cls-1" points="46 59.25 57.11 50.76 46 42.27 46 48 37 48 37 53 46 53 46 59.25"/><polygon class="cls-1" points="62 57 66 57 66 66 72.32 66 63.76 77.02 55.2 66 62 66 62 57"/><polygon class="cls-1" points="81 53 90 53 90 48 81 48 81 42.27 69.89 50.76 81 59.25 81 53"/><polygon class="cls-1" points="72.32 35 66 35 66 45 62 45 62 35 55.2 35 63.76 23.98 72.32 35"/><g id="NDnEyb"><path class="cls-3" d="M27.19,105.3V94.37l0.36,0c1.42,0,2.83,0,4.25,0a5.24,5.24,0,0,1,1.2.15,2.77,2.77,0,0,1,1.75,3.94,2.49,2.49,0,0,1-1.6,1.2l0.41,0.12a2.69,2.69,0,0,1,1.7,3.45,2.83,2.83,0,0,1-2.88,2.09c-1.67,0-3.35,0-5,0Zm1.92-4.72v3.08c1,0,1.91,0,2.86,0a1.44,1.44,0,0,0,1.4-1.52,1.47,1.47,0,0,0-1.4-1.53C31,100.53,30.07,100.57,29.11,100.57Zm0-1.63c0.92,0,1.82,0,2.71,0a1.4,1.4,0,0,0,1.25-1.46A1.29,1.29,0,0,0,31.94,96c-0.93-.11-1.88-0.09-2.84-0.13v3.06Z"/><path class="cls-3" d="M44.81,105.33c-0.7,0-1.33,0-2,0a0.43,0.43,0,0,1-.24-0.27c-0.5-1.28-1-2.57-1.47-3.86a0.44,0.44,0,0,0-.5-0.35c-0.78,0-1.57,0-2.38,0v4.45h-2V94.37l0.31,0c1.55,0,3.1,0,4.65,0a3.91,3.91,0,0,1,2.67.88c1.32,1.15,1.43,4.17-.73,5.13l-0.28.15Zm-6.54-6.1c0.65,0,1.26,0,1.88,0a8.36,8.36,0,0,0,1.29-.08,1.5,1.5,0,0,0,1.35-1.58A1.43,1.43,0,0,0,41.44,96c-1-.09-2.1,0-3.18,0v3.23Z"/><path class="cls-3" d="M73.47,105.28V94.35h0.41c1.15,0,2.29,0,3.43,0a4.82,4.82,0,0,1,4.93,3.83,6.58,6.58,0,0,1,0,3.5A4.56,4.56,0,0,1,78,105.25C76.54,105.38,75,105.28,73.47,105.28Zm2-1.57c0.57,0,1.12,0,1.67,0a2.83,2.83,0,0,0,2.42-1.32,5.15,5.15,0,0,0-.06-5.26A2.34,2.34,0,0,0,78,96c-0.81-.11-1.63-0.1-2.48-0.14v7.82Z"/><path class="cls-3" d="M45.24,99.72a6.18,6.18,0,0,1,1.42-4.07,4.34,4.34,0,0,1,6.92.5,7,7,0,0,1,.2,7,4.41,4.41,0,0,1-7.93-.37A7.7,7.7,0,0,1,45.24,99.72Zm7.2,0.72a8.39,8.39,0,0,0-.52-3.35,2,2,0,0,0-2-1.3A2,2,0,0,0,48,97a6.38,6.38,0,0,0-.49,1.76,7.29,7.29,0,0,0,.32,3.6,2.14,2.14,0,0,0,2.09,1.52A2.23,2.23,0,0,0,52,102.34,14.65,14.65,0,0,0,52.45,100.44Z"/><path class="cls-3" d="M72.92,105.33c-0.67,0-1.32,0-2,0a0.44,0.44,0,0,1-.23-0.27q-0.36-1-.7-2.06a0.32,0.32,0,0,0-.36-0.27c-1.22,0-2.44,0-3.66,0a0.3,0.3,0,0,0-.34.25c-0.22.7-.46,1.4-0.68,2.11a0.31,0.31,0,0,1-.36.27c-0.45,0-.91,0-1.4,0,0-.13,0-0.22.07-0.31q1.72-5.2,3.45-10.39a0.34,0.34,0,0,1,.39-0.28c0.63,0,1.26,0,1.88,0a0.3,0.3,0,0,1,.35.23q1.76,5.28,3.54,10.56A1.83,1.83,0,0,1,72.92,105.33Zm-5.05-8.92H67.79l-1.53,4.72H69.4Z"/><path class="cls-3" d="M90.22,103.62v1.68H83.13V94.38h7V96h-5v3h4v1.61h-4v3.06h5.09Z"/><path class="cls-3" d="M63.64,98.08l-1.82.2c-0.15-.43-0.26-0.85-0.44-1.25a2,2,0,0,0-3.6-.08,5.77,5.77,0,0,0-.53,2.91,15.77,15.77,0,0,0,.25,2,2.72,2.72,0,0,0,.35.84,1.93,1.93,0,0,0,1.88,1.07,2,2,0,0,0,1.74-1.24,9,9,0,0,0,.36-1.06l1.76,0.2a3.93,3.93,0,0,1-3.33,3.72,4,4,0,0,1-4.73-2.88,7.74,7.74,0,0,1,.27-6.07,4.15,4.15,0,0,1,5.56-1.93,4,4,0,0,1,2.09,2.68C63.52,97.5,63.57,97.77,63.64,98.08Z"/><path class="cls-3" d="M96,95.17a16.1,16.1,0,0,1-5.55-3.77h0.48c2.5,0,5,0,7.5,0a2.13,2.13,0,0,1,2.19,1.26,2.07,2.07,0,0,1-.48,2.44,0.39,0.39,0,0,0,0,.09c0.08,0.1.18,0.21,0.27,0.32a2.06,2.06,0,0,1,.25,2.19,1.93,1.93,0,0,1-1.83,1.23c-2.71,0-5.42,0-8.13,0l-0.17,0A16,16,0,0,1,96,95.17ZM93.71,97.8l0.44,0h4a3.63,3.63,0,0,0,.55,0,1,1,0,0,0,.82-0.83,0.93,0.93,0,0,0-.61-1A2.33,2.33,0,0,0,98,95.86a9.46,9.46,0,0,0-4.19,1.79A1,1,0,0,0,93.71,97.8Zm0.09-5.23,0,0.1c0.46,0.28.92,0.57,1.39,0.83a7.24,7.24,0,0,0,3.24,1,1,1,0,1,0,0-2H94.15Z"/></g></svg>