<?xml version="1.0" encoding="utf-8"?>
<!-- Generator: Adobe Illustrator 19.0.1, SVG Export Plug-In . SVG Version: 6.00 Build 0)  -->
<svg version="1.0" id="Ebene_1" xmlns="http://www.w3.org/2000/svg" xmlns:xlink="http://www.w3.org/1999/xlink" x="0px" y="0px"
	 viewBox="0 0 128 128" enable-background="new 0 0 128 128" xml:space="preserve">
<g>
	<g>
		<g>
			<path fill="#FFFFFF" d="M64,105c22.8,0,41.3-18.3,41.3-41S86.8,23,64,23c-22.8,0-41.3,18.3-41.3,41S41.2,105,64,105"/>
		</g>
		<g>
			<path fill="#B0B0B2" d="M64,104.5c22.6,0,40.9-18.1,40.9-40.5S86.6,23.5,64,23.5c-22.6,0-40.9,18.1-40.9,40.5
				S41.4,104.5,64,104.5"/>
		</g>
	</g>
	<g>
		<polygon fill="#FFFFFF" points="40,75.1 54.6,64 40,52.9 40,61 28,61 28,67 40,67 		"/>
	</g>
	<g>
		<polygon fill="#FFFFFF" points="61,72 67,72 67,84 74.9,84 63.7,98.5 52.5,84 61,84 		"/>
	</g>
	<g>
		<polygon fill="#FFFFFF" points="86,67 98,67 98,61 86,61 86,52.9 71.4,64 86,75.1 		"/>
	</g>
	<g>
		<polygon fill="#FFFFFF" points="74.9,43 67,43 67,56 61,56 61,43 52.5,43 63.7,28.5 		"/>
	</g>
</g>
</svg>
