<svg id="Ebene_1" data-name="Ebene 1" xmlns="http://www.w3.org/2000/svg" viewBox="0 0 128 128"><defs><style>.cls-1{fill:#fff;}.cls-2{fill:#b0b0b2;}.cls-3{fill:#b1b1b1;}</style></defs><title>1</title><path class="cls-1" d="M64,81A31.22,31.22,0,1,0,32.51,49.76,31.36,31.36,0,0,0,64,81"/><path class="cls-2" d="M64,80.63A30.87,30.87,0,1,0,32.88,49.76,31,31,0,0,0,64,80.63"/><polygon class="cls-1" points="46 58.25 57.11 49.76 46 41.27 46 47 37 47 37 52 46 52 46 58.25"/><polygon class="cls-1" points="62 56 66 56 66 65 72.32 65 63.76 76.02 55.2 65 62 65 62 56"/><polygon class="cls-1" points="81 52 90 52 90 47 81 47 81 41.27 69.89 49.76 81 58.25 81 52"/><polygon class="cls-1" points="72.32 34 66 34 66 44 62 44 62 34 55.2 34 63.76 22.98 72.32 34"/><path id="path268" class="cls-3" d="M55.14,117.55H52.89v-8.89h2.24v8.89Z"/><g id="g270"><g id="g272"><g id="g278"><path id="path280" class="cls-3" d="M73.22,111.21a3.92,3.92,0,0,0-1.89-.47,2.37,2.37,0,1,0,0,4.74,4,4,0,0,0,1.89-.47v2.39a7.17,7.17,0,0,1-2,.32,4.6,4.6,0,1,1,0-9.2,6.85,6.85,0,0,1,2,.32v2.39Z"/></g><g id="g282"><path id="path284" class="cls-3" d="M49.81,111.21a3.89,3.89,0,0,0-1.88-.47,2.37,2.37,0,1,0,0,4.74,3.94,3.94,0,0,0,1.88-.47v2.39a7.13,7.13,0,0,1-2,.32,4.6,4.6,0,1,1,0-9.2,6.82,6.82,0,0,1,2,.32v2.39Z"/></g><g id="g286"><path id="path288" class="cls-3" d="M80.27,110.77a2.34,2.34,0,1,0,2.32,2.34,2.3,2.3,0,0,0-2.32-2.34M85,113.1a4.7,4.7,0,1,1-4.7-4.6,4.56,4.56,0,0,1,4.7,4.6"/></g><g id="g290"><path id="path292" class="cls-3" d="M63.64,110.68a7.67,7.67,0,0,0-1.75-.27c-0.9,0-1.39.3-1.39,0.73a1.16,1.16,0,0,0,1,.85l0.62,0.2a2.67,2.67,0,0,1,2.12,2.54c0,2.23-2,3-3.68,3a13.38,13.38,0,0,1-2.42-.24v-2a8.41,8.41,0,0,0,2.12.33c1.12,0,1.63-.33,1.63-0.83a1.13,1.13,0,0,0-1-.89l-0.48-.15c-1.25-.39-2.29-1.13-2.29-2.6,0-1.66,1.24-2.78,3.31-2.78a9.6,9.6,0,0,1,2.19.28v1.9Z"/></g><g id="g294"><path id="path296" class="cls-3" d="M40.66,99.11a1.11,1.11,0,0,0-2.23,0v2.33a1.11,1.11,0,0,0,2.23,0V99.11Z"/></g><g id="g298"><path id="path300" class="cls-3" d="M46.77,96a1.11,1.11,0,0,0-2.23,0v5.39a1.11,1.11,0,0,0,2.23,0V96Z"/></g><g id="g302"><path id="path304" class="cls-3" d="M52.89,91.86a1.11,1.11,0,0,0-2.23,0v11.8a1.11,1.11,0,0,0,2.23,0V91.86Z"/></g><g id="g306"><path id="path308" class="cls-3" d="M59,96a1.11,1.11,0,0,0-2.23,0v5.39a1.11,1.11,0,0,0,2.23,0V96Z"/></g><g id="g310"><path id="path312" class="cls-3" d="M65.11,99.11a1.11,1.11,0,0,0-2.22,0v2.33a1.11,1.11,0,1,0,2.22,0V99.11Z"/></g><g id="g314"><path id="path316" class="cls-3" d="M71.23,96A1.11,1.11,0,1,0,69,96v5.39a1.11,1.11,0,1,0,2.22,0V96Z"/></g><g id="g318"><path id="path320" class="cls-3" d="M77.35,91.86a1.11,1.11,0,0,0-2.22,0v11.8a1.11,1.11,0,1,0,2.22,0V91.86Z"/></g><g id="g322"><path id="path324" class="cls-3" d="M83.47,96a1.12,1.12,0,0,0-2.23,0v5.39a1.12,1.12,0,0,0,2.23,0V96Z"/></g><g id="g326"><path id="path328" class="cls-3" d="M89.57,99.11a1.11,1.11,0,0,0-2.22,0v2.33a1.11,1.11,0,1,0,2.22,0V99.11Z"/></g><g id="g330"><path id="path332" class="cls-3" d="M88.29,116.38v0.14h-0.4v1H87.73v-1h-0.4v-0.14h1Z"/></g><g id="g334"><path id="path336" class="cls-3" d="M88.37,116.38h0.26l0.35,1h0l0.34-1h0.25v1.17H89.4v-1h0l-0.36,1H88.89l-0.35-1h0v1H88.37v-1.17Z"/></g></g></g></svg>