<svg id="Ebene_1" data-name="Ebene 1" xmlns="http://www.w3.org/2000/svg" viewBox="0 0 128 128"><defs><style>.cls-1{fill:#b0b0b2;}.cls-2{fill:#fff;}.cls-3{fill:#b1b1b1;}</style></defs><title>1</title><path class="cls-1" d="M17,57a2.49,2.49,0,0,0-2,2.5V80.87A1.93,1.93,0,0,0,17,83h94a2,2,0,0,0,2-2.13V59.5s0.14-2.5-2-2.5H17Z"/><path class="cls-2" d="M104.12,74.57a4.39,4.39,0,1,0-4.33-4.39,4.36,4.36,0,0,0,4.33,4.39"/><circle class="cls-2" cx="64" cy="70.4" r="24.32"/><path class="cls-3" d="M63.31,48.35h1.37A22.13,22.13,0,0,1,86.12,69.74v1.33A22.08,22.08,0,0,1,64.66,92.46H63.31A22.13,22.13,0,0,1,41.88,71.07V69.74a0,0,0,0,0,0,0,21.77,21.77,0,0,1,6.46-14.91A22.07,22.07,0,0,1,63.31,48.35ZM59,51.51A19.57,19.57,0,0,0,46.37,79a19.42,19.42,0,0,0,10.09,9.47,18.88,18.88,0,0,0,8.25,1.48,19.47,19.47,0,0,0,17.36-12,18.86,18.86,0,0,0,1.5-8.23,19.64,19.64,0,0,0-12-17.34,19.49,19.49,0,0,0-8.29-1.48A20.53,20.53,0,0,0,59,51.51Z"/><path class="cls-3" d="M62,64.67c0.7,0.46,1.42.91,2.08,1.42-1.49.94-3,1.91-4.45,2.85,0.23,0.17.48,0.31,0.71,0.49l4.49-2.85c0.67,0.41,1.33.84,1.95,1.31-1.5.94-2.94,1.94-4.42,2.9a8.44,8.44,0,0,0,.73.46c1.53-.94,3-1.91,4.53-2.88V65.23H70.9v6.26c0.94,0.05,2,0,2.94,0v2.94H67.58v-3C65.74,72.58,63.86,73.85,62,75c-1.93-1.25-3.78-2.57-5.71-3.83a4.4,4.4,0,0,1-4.07,3.25c-1.37.1-2.92-.07-4.49,0V65.23c2,0.13,4.13-.26,5.68.22a4.36,4.36,0,0,1,2.81,2.9C58.16,67.14,60.05,65.9,62,64.67ZM50.91,68.19v3.32a2.92,2.92,0,0,0,1.86-.31A1.93,1.93,0,0,0,53,68.63a2.39,2.39,0,0,0-2.06-.51S50.9,68.16,50.91,68.19Z"/><path class="cls-3" d="M74.71,65.23H78v6.28h2.92v2.94H74.68V65.29S74.68,65.23,74.71,65.23Z"/></svg>