<?xml version="1.0" encoding="utf-8"?>
<!-- Generator: Adobe Illustrator 19.0.1, SVG Export Plug-In . SVG Version: 6.00 Build 0)  -->
<svg version="1.0" id="Ebene_1" xmlns="http://www.w3.org/2000/svg" xmlns:xlink="http://www.w3.org/1999/xlink" x="0px" y="0px"
	 viewBox="0 0 128 128" enable-background="new 0 0 128 128" xml:space="preserve">
<g>
	<defs>
		<rect id="SVGID_33_" x="20" y="32" width="88" height="64"/>
	</defs>
	<clipPath id="SVGID_2_">
		<use xlink:href="#SVGID_33_"  overflow="visible"/>
	</clipPath>
	<g clip-path="url(#SVGID_2_)">
		<path fill="#B0B0B2" d="M83,53H45V36h38V53z M98,53H87V32H41v21H30c0,0-8.1,0-9.6,8h87C106.8,58,104.6,53,98,53"/>
	</g>
	<g clip-path="url(#SVGID_2_)">
		<path fill="#B0B0B2" d="M83,90H45V76h38V90z M53.8,66.1c1.3,0,2.3,1,2.3,2.4c0,1.3-1,2.4-2.3,2.4c-1.3,0-2.3-1.1-2.3-2.4
			C51.5,67.2,52.5,66.1,53.8,66.1 M63.5,66.1c1.3,0,2.3,1,2.3,2.4c0,1.3-1,2.4-2.3,2.4c-1.3,0-2.3-1.1-2.3-2.4
			C61.2,67.2,62.3,66.1,63.5,66.1 M74.2,66.1c1.3,0,2.3,1,2.3,2.4c0,1.3-1,2.4-2.3,2.4c-1.3,0-2.3-1.1-2.3-2.4
			C71.9,67.2,72.9,66.1,74.2,66.1 M20,63v14.6c0,0,0.2,9.4,10,9.4h8v9h52v-9h8c0,0,10,0.4,10-9.4V63.2V63H20z"/>
	</g>
</g>
</svg>
