<?xml version="1.0" encoding="utf-8"?>
<!-- Generator: Adobe Illustrator 19.0.1, SVG Export Plug-In . SVG Version: 6.00 Build 0)  -->
<svg version="1.0" id="Ebene_1" xmlns="http://www.w3.org/2000/svg" xmlns:xlink="http://www.w3.org/1999/xlink" x="0px" y="0px"
	 viewBox="0 0 128 128" enable-background="new 0 0 128 128" xml:space="preserve">
<g>
	<g>
		<defs>
			<rect id="SVGID_41_" x="42" y="24" width="44" height="80"/>
		</defs>
		<clipPath id="SVGID_2_">
			<use xlink:href="#SVGID_41_"  overflow="visible"/>
		</clipPath>
		<g clip-path="url(#SVGID_2_)">
			<path fill="#A6A8AB" d="M44.3,24c0,0-2.3-0.3-2.3,2.1v75.8c0,0-0.2,2.1,2.3,2.1h39.5c0,0,2.3,0.3,2.3-2.1V26.1
				c0,0,0.2-2.1-2.3-2.1H44.3z"/>
		</g>
	</g>
	<g>
		<polygon fill="#FFFFFF" points="46,32 46,32 46,88 82,88 82,32 		"/>
	</g>
	<g>
		<defs>
			<rect id="SVGID_43_" x="42" y="24" width="44" height="80"/>
		</defs>
		<clipPath id="SVGID_4_">
			<use xlink:href="#SVGID_43_"  overflow="visible"/>
		</clipPath>
		<g clip-path="url(#SVGID_4_)">
			<path fill="#FFFFFF" d="M64,99.3c2,0,3.5-1.6,3.5-3.5c0-2-1.6-3.5-3.5-3.5s-3.5,1.6-3.5,3.5C60.5,97.8,62,99.3,64,99.3"/>
		</g>
	</g>
	<g>
		<g>
			<path fill="#BBCA0E" d="M58.5,55.1C58.4,55.1,58.4,55.1,58.5,55.1C58.4,55.1,58.4,55.1,58.5,55.1"/>
		</g>
	</g>
</g>
</svg>
