<?xml version="1.0" encoding="utf-8"?>
<!-- Generator: Adobe Illustrator 19.0.1, SVG Export Plug-In . SVG Version: 6.00 Build 0)  -->
<svg version="1.0" id="Ebene_1" xmlns="http://www.w3.org/2000/svg" xmlns:xlink="http://www.w3.org/1999/xlink" x="0px" y="0px"
	 viewBox="0 0 128 128" enable-background="new 0 0 128 128" xml:space="preserve">
<g>
	<path fill="#A7A9AC" d="M51.5,21c0,0-8.5-0.4-8.5,8.4v64.7c0,0-0.4,12.9,12.9,12.9h16.2c0,0,12.9,0.4,12.9-12.9V29.4
		c0,0,0.4-8.4-8.5-8.4H51"/>
	<path fill="#FFFFFF" d="M47.2,31c0,0-1.2,0.2-1.2,1.4v52c0,0-0.1,1.6,1.2,1.6h34c0,0,0.8-0.4,0.8-1.6v-52c0,0,0.4-1.4-0.8-1.4H47"
		/>
	<path fill="#FFFFFF" d="M59.3,26c0,0-0.3-0.4-0.3,0.1v0.6c0,0-0.1,0.4,0.3,0.4h9.5c0,0,0.2,0.1,0.2-0.4v-0.6c0,0,0.2-0.1-0.2-0.1
		H59"/>
	<path fill="#FFFFFF" d="M64.1,98c2,0,3.6-1.6,3.6-3.6c0-2-1.6-3.6-3.6-3.6s-3.6,1.6-3.6,3.6C60.5,96.4,62.1,98,64.1,98"/>
	<rect x="42" y="20" fill="none" width="44" height="88"/>
</g>
</svg>
