<?xml version="1.0" encoding="utf-8"?>
<!-- Generator: Adobe Illustrator 19.0.1, SVG Export Plug-In . SVG Version: 6.00 Build 0)  -->
<svg version="1.0" id="Ebene_1" xmlns="http://www.w3.org/2000/svg" xmlns:xlink="http://www.w3.org/1999/xlink" x="0px" y="0px"
	 viewBox="0 0 128 128" enable-background="new 0 0 128 128" xml:space="preserve">
<g>
	<g>
		<defs>
			<rect id="SVGID_51_" x="31.9" y="20.5" width="64.2" height="87"/>
		</defs>
		<clipPath id="SVGID_2_">
			<use xlink:href="#SVGID_51_"  overflow="visible"/>
		</clipPath>
		<path clip-path="url(#SVGID_2_)" fill="#A7A9AC" d="M35.5,20.5c0,0-3.5,0-3.5,3.5V104c0,0,0,3.5,3.5,3.5l57.1,0c0,0,3.5,0,3.5-3.5
			l0-79.9c0,0,0-3.5-3.5-3.5H35.5z"/>
	</g>
	<polygon fill="#FFFFFF" points="37.7,26.8 37.7,26.8 37.7,98.9 89.6,98.9 89.6,26.8 	"/>
	<g>
		<defs>
			<rect id="SVGID_53_" x="31.9" y="20.5" width="64.2" height="87"/>
		</defs>
		<clipPath id="SVGID_4_">
			<use xlink:href="#SVGID_53_"  overflow="visible"/>
		</clipPath>
		<path clip-path="url(#SVGID_4_)" fill="#FFFFFF" d="M63.9,104.9c1,0,1.8-0.8,1.8-1.8c0-1-0.8-1.8-1.8-1.8c-1,0-1.8,0.8-1.8,1.8
			C62.1,104.1,62.9,104.9,63.9,104.9"/>
	</g>
</g>
</svg>
