<?xml version="1.0" encoding="utf-8"?>
<!-- Generator: Adobe Illustrator 19.0.1, SVG Export Plug-In . SVG Version: 6.00 Build 0)  -->
<svg version="1.0" id="Ebene_1" xmlns="http://www.w3.org/2000/svg" xmlns:xlink="http://www.w3.org/1999/xlink" x="0px" y="0px"
	 viewBox="0 0 128 128" enable-background="new 0 0 128 128" xml:space="preserve">
<g>
	<g>
		<path fill="#E50060" d="M88,53.3c-5.8,4.5-8.7,2.9-10.8-0.1c-2.1-3,0.5-9,4.7-11.4c5.4-3.5-1.4-8.2-1.4-8.2c0.6,2.7-2.6,7.8-5,4.4
			c-1.9-3,5.2-9.6,5.2-9.6s-9.4,2.6-11.1,7.3c-3.9,10.3-2.3,18.9-9.8,17.8c-1.1,5.9-3.7,7.4-5.1,4.8c-1.4-2.6-0.6-5.5,4.2-7.8
			c8.3-4,1.3-22.4,1.3-22.4c1.4,14.4-8.6,19.9-11.5,17.8c-2.7-2.7,2.2-9.4,2.2-9.4c-16.5,9.1-0.4,14.4-6.9,18.6
			c-8,5.1-3.7-5.9-3.7-5.9C19.9,62.6,43.8,70.6,48,73.1c0.3,1.5-5,16.2,6.9,20.5c5.4,2,9.2,1.6,11.1,1.6c9.3-0.3,18.8-7.7,22.3-13
			C91.9,76.8,90,71,90,71c-1.8,3.9-6.3,7.8-10,7c-3.3,0.4-4.9-7.3,7.8-14.3c16.4-8,9-23.2,9-23.2S93.5,49.1,88,53.3"/>
	</g>
</g>
</svg>
