<?xml version="1.0" encoding="utf-8"?>
<!-- Generator: Adobe Illustrator 19.0.1, SVG Export Plug-In . SVG Version: 6.00 Build 0)  -->
<svg version="1.0" id="Ebene_1" xmlns="http://www.w3.org/2000/svg" xmlns:xlink="http://www.w3.org/1999/xlink" x="0px" y="0px"
	 viewBox="0 0 128 128" enable-background="new 0 0 128 128" xml:space="preserve">
<path fill="#E3E3E3" d="M33.7,53.4c0,0-0.5-14.7,19-17.3c21-2.8,26,10.4,26,10.4s8.4-3.4,13.9-2.2c11.7,2.4,9,13.8,9,13.8
	s11.7,2.8,11.6,13.1c-0.3,15.2-24.9,10-24.9,10s-5.1,10.9-20.3,12.2c-23.9,2-26.2-13.4-26.2-13.4s-2.7,4.3-12.3,3.6
	c-18.3-1.3-19.3-21-6.1-27C31.8,52.7,33.7,53.4,33.7,53.4"/>
<path fill="#FFFFFF" d="M91.3,64.5V63h-5.9v1.4h2.2v6.8h1.6v-6.8H91.3z M84.3,71.3v-1.4h-3.8v-2h3.3v-1.4h-3.3v-1.9h3.8V63h-5.5v8.3
	H84.3z M76.8,71.3V63h-1.6v5.1L71.9,63h-1.4v8.3h1.6v-5.1l3.3,5.1H76.8z M67.1,65.6c0,0.6-0.5,1.1-1.2,1.1h-1.5v-2.2h1.5
	C66.6,64.5,67.1,64.9,67.1,65.6 M69,71.3l-1.9-3.6c0.8-0.3,1.5-1,1.5-2.2c0-1.4-1-2.5-2.7-2.5h-3.2v8.3h1.6V68h1.2l1.6,3.3H69z
	 M61.1,71.3v-1.4h-3.8v-2h3.3v-1.4h-3.3v-1.9h3.8V63h-5.5v8.3H61.1z M54.2,64.5V63h-5.9v1.4h2.2v6.8H52v-6.8H54.2z M46.8,71.3V63
	h-1.6v5.1L41.9,63h-1.4v8.3h1.6v-5.1l3.3,5.1H46.8z M38.4,63h-1.6v8.3h1.6V63z"/>
</svg>
