<?xml version="1.0" encoding="utf-8"?>
<!-- Generator: Adobe Illustrator 19.0.1, SVG Export Plug-In . SVG Version: 6.00 Build 0)  -->
<svg version="1.0" id="Ebene_1" xmlns="http://www.w3.org/2000/svg" xmlns:xlink="http://www.w3.org/1999/xlink" x="0px" y="0px"
	 viewBox="0 0 128 128" enable-background="new 0 0 128 128" xml:space="preserve">
<g>
	<g>
		<g>
			<path fill="#E3E3E3" d="M33.8,52.8c0,0-0.5-14.7,19.1-17.3c21.1-2.8,26,10.4,26,10.4s8.4-3.4,14-2.2c11.7,2.4,9,13.8,9,13.8
				s11.7,2.8,11.6,13.1c-0.3,15.2-24.9,10-24.9,10s-5.1,10.9-20.3,12.2C44.3,94.7,42,79.4,42,79.4s-2.7,4.3-12.3,3.6
				c-18.3-1.3-19.3-21-6.1-27.1C31.8,52.1,33.8,52.8,33.8,52.8"/>
		</g>
	</g>
</g>
</svg>
