<?xml version="1.0" encoding="utf-8"?>
<!-- Generator: Adobe Illustrator 19.0.1, SVG Export Plug-In . SVG Version: 6.00 Build 0)  -->
<svg version="1.0" id="Ebene_1" xmlns="http://www.w3.org/2000/svg" xmlns:xlink="http://www.w3.org/1999/xlink" x="0px" y="0px"
	 viewBox="0 0 128 128" enable-background="new 0 0 128 128" xml:space="preserve">
<g>
	<g>
		<rect x="42" y="28" fill="#FFFFFF" width="44" height="72"/>
	</g>
	<g>
		<defs>
			<rect id="SVGID_25_" x="40" y="26" width="48" height="76"/>
		</defs>
		<clipPath id="SVGID_2_">
			<use xlink:href="#SVGID_25_"  overflow="visible"/>
		</clipPath>
		<g clip-path="url(#SVGID_2_)">
			<path fill="#FFFFFF" d="M88,102H40V26h48V102z M44,99h40V29H44V99z"/>
		</g>
		<g clip-path="url(#SVGID_2_)">
			<path fill="#B0B0B2" d="M45.1,28c0,0-3.1-0.3-3.1,2.6v66.8c0,0,0.2,2.6,3.1,2.6h37.8c0,0,3.1,0.3,3.1-2.6V30.6
				c0,0-0.2-2.6-3.1-2.6H45.1z"/>
		</g>
		<g clip-path="url(#SVGID_2_)">
			<path fill="#FFFFFF" d="M77.7,68c2.2,0,3.9-1.8,3.9-4c0-2.2-1.8-4-3.9-4c-2.2,0-3.9,1.8-3.9,4C73.7,66.2,75.5,68,77.7,68"/>
		</g>
	</g>
</g>
</svg>
