<?xml version="1.0" encoding="utf-8"?>
<!-- Generator: Adobe Illustrator 19.0.1, SVG Export Plug-In . SVG Version: 6.00 Build 0)  -->
<svg version="1.0" id="Ebene_1" xmlns="http://www.w3.org/2000/svg" xmlns:xlink="http://www.w3.org/1999/xlink" x="0px" y="0px"
	 viewBox="0 0 128 128" enable-background="new 0 0 128 128" xml:space="preserve">
<g>
	<path fill="#B1B1B1" d="M96.6,98H32.3c-0.9,0-1.8-0.5-1.9-1.5l-7.2-35c-0.3-1.2,0.7-2.6,1.9-2.6h77.8c1.2,0,2.2,1.3,2,2.6
		l-6.3,34.8C98.4,97.3,97.6,98,96.6,98z"/>
	<path fill="#B1B1B1" d="M71,41v-6c0-1.1-0.9-2-2-2H32c-1.1,0-2,0.9-2,2v19c0,1.1,0.9,2,2,2h35.2h3.9H96c1.1,0,2-0.9,2-2v-9
		c0-1.1-0.9-2-2-2H73C71.9,43,71,42.1,71,41z"/>
</g>
</svg>
