<?xml version="1.0" encoding="utf-8"?>
<!-- Generator: Adobe Illustrator 19.0.1, SVG Export Plug-In . SVG Version: 6.00 Build 0)  -->
<svg version="1.0" id="Ebene_1" xmlns="http://www.w3.org/2000/svg" xmlns:xlink="http://www.w3.org/1999/xlink" x="0px" y="0px"
	 viewBox="0 0 128 128" enable-background="new 0 0 128 128" xml:space="preserve">
<g>
	<g>
		<g>
			<path fill="#FFFFFF" d="M50.5,25c0,0-1.5-0.2-1.5,1.8v74.5c0,0-0.5,1.8,1.5,1.8h27.1c0,0,1.5,0.2,1.5-1.8V26.8
				c0,0,0.5-1.8-1.5-1.8H50.5z"/>
		</g>
		<g>
			<path fill="#B1B1B1" d="M50.5,25c0,0-1.5-0.2-1.5,1.8v74.5c0,0-0.5,1.8,1.5,1.8h27.1c0,0,1.5,0.2,1.5-1.8V26.8
				c0,0,0.5-1.8-1.5-1.8H50.5z"/>
		</g>
		<g>
			<path fill="#FFFFFF" d="M66,85V32.6c0,0,0.1-1.6-1-1.6h-2c0,0-1,0.4-1,1.6v52.1c-2,0.9-3.5,3.1-3.5,5.7c0,3.4,2.5,6.1,5.5,6.1
				c3.1,0,5.5-2.7,5.5-6.1c0-2.6-1.5-4.8-3.5-5.7"/>
		</g>
	</g>
	<g>
		<defs>
			<path id="SVGID_29_" d="M63,31c0,0-1,0.4-1,1.6v52.1c-2,0.9-3.5,3.1-3.5,5.7c0,3.4,2.5,6.1,5.5,6.1c3.1,0,5.5-2.7,5.5-6.1
				c0-2.6-1.5-4.8-3.5-5.7V32.6c0,0,0.1-1.6-1-1.6H63z"/>
		</defs>
		<clipPath id="SVGID_2_">
			<use xlink:href="#SVGID_29_"  overflow="visible"/>
		</clipPath>
		<g clip-path="url(#SVGID_2_)">
			<rect x="48" y="61" fill="#E3E4E5" width="32" height="48"/>
		</g>
	</g>
	<g>
		<rect x="70" y="74" fill="#B0B0B2" width="4" height="1"/>
	</g>
	<g>
		<rect x="54" y="74" fill="#B0B0B2" width="4" height="1"/>
	</g>
	<g>
		<rect x="70" y="54" fill="#B0B0B2" width="4" height="1"/>
	</g>
	<g>
		<rect x="54" y="54" fill="#B0B0B2" width="4" height="1"/>
	</g>
	<g>
		<rect x="70" y="49" fill="#B0B0B2" width="4" height="1"/>
	</g>
	<g>
		<rect x="54" y="49" fill="#B0B0B2" width="4" height="1"/>
	</g>
	<g>
		<rect x="70" y="44" fill="#B0B0B2" width="4" height="1"/>
	</g>
	<g>
		<rect x="54" y="44" fill="#B0B0B2" width="4" height="1"/>
	</g>
</g>
</svg>
