<svg id="Ebene_1" data-name="Ebene 1" xmlns="http://www.w3.org/2000/svg" viewBox="0 0 128 128"><defs><style>.cls-1{fill:#b0b0b2;}.cls-2{fill:#fff;}.cls-3{fill:#b1b1b1;}</style></defs><title>1</title><path class="cls-1" d="M17,57a2.49,2.49,0,0,0-2,2.5V80.87A1.93,1.93,0,0,0,17,83h94a2,2,0,0,0,2-2.13V59.5s0.14-2.5-2-2.5H17Z"/><path class="cls-2" d="M104.12,74.57a4.39,4.39,0,1,0-4.33-4.39,4.36,4.36,0,0,0,4.33,4.39"/><circle class="cls-2" cx="64" cy="70.27" r="24.32"/><g id="g3017"><g id="g3061"><g id="g3021"><path id="path3023" class="cls-3" d="M86.05,70.27A22.05,22.05,0,0,0,64,48.22l-1,0L58.5,60.64h3.93a2.79,2.79,0,0,1,2.8,4L59.66,79.93H55l6-16.39H57.45l-6,16.39H46.8l7-19.29h0L58,49a22.06,22.06,0,0,0,.83,42.69L63,80.48h0L70.2,60.64H78.8a2.79,2.79,0,0,1,2.8,4L76.71,78.07a3,3,0,0,1-2.66,1.86h-6.2L63.35,92.31H64A22.05,22.05,0,0,0,86.05,70.27"/></g><g id="g3025"><path id="path3027" class="cls-3" d="M77.34,63.52H73.83L68.92,77h3.51l4.92-13.49"/></g></g></g></svg>