<svg id="Ebene_1" data-name="Ebene 1" xmlns="http://www.w3.org/2000/svg" viewBox="0 0 128 128"><defs><style>.cls-1{fill:#b0b0b2;}.cls-2{fill:#fff;}</style></defs><title>1</title><path class="cls-1" d="M17,57a2.49,2.49,0,0,0-2,2.5V80.87A1.93,1.93,0,0,0,17,83h94a2,2,0,0,0,2-2.13V59.5s0.14-2.5-2-2.5H17Z"/><path class="cls-2" d="M104.12,74.57a4.39,4.39,0,1,0-4.33-4.39,4.36,4.36,0,0,0,4.33,4.39"/><path class="cls-2" d="M42,61.59V62.8h8.58V61.59H42Zm9.79,0V62.8H64a4.65,4.65,0,0,0-2.9-1.21H51.76Zm14.62,0V62.8h7.39l-0.44-1.21h-7Zm12.69,0L78.64,62.8H86V61.59H79.07ZM42,63.94v1.21h8.58V63.94H42Zm9.79,0v1.2H65.4a3.17,3.17,0,0,0-.44-1.2H51.76Zm14.62,0v1.2h8.2l-0.41-1.2h-7.8Zm11.82,0-0.41,1.2H86v-1.2H78.2ZM44.44,66.28v1.21h3.71V66.28H44.44Zm9.79,0v1.21h3.71V66.28H54.23Zm7.33,0v1.21h3.71a4.11,4.11,0,0,0,.24-1.21H61.55Zm7.29,0v1.21h6.58L75,66.28H68.84Zm8.54,0-0.44,1.21h6.62V66.28H77.39Zm-33,2.35v1.21h3.71V68.63H44.44Zm9.79,0v1.21h9.49a4.07,4.07,0,0,0,1-1.21H54.23Zm14.62,0v1.21h3.71V69.16l0.24,0.67h6.8l0.25-.67v0.67h3.71V68.63h-7l-0.37,1-0.37-1h-7ZM44.44,71v1.21h3.71V71H44.44Zm9.79,0v1.21H64.76a4.1,4.1,0,0,0-1-1.21H54.23Zm14.62,0v1.21h3.71V71H68.84Zm4.39,0,0.45,1.21h5.1L79.21,71h-6Zm6.62,0v1.21h3.71V71H79.85ZM44.44,73.32v1.21h3.71V73.32H44.44Zm9.79,0v1.21h3.71V73.32H54.23Zm7.33,0v1.21H65.5a4.1,4.1,0,0,0-.24-1.21H61.55Zm7.29,0v1.21h3.71V73.32H68.84Zm5.23,0,0.44,1.21h3.42l0.44-1.21H74.08Zm5.77,0v1.21h3.71V73.32H79.85ZM42,75.66v1.21h8.58V75.66H42Zm9.72,0v1.21H65a3.18,3.18,0,0,0,.44-1.21H51.76Zm14.69,0v1.21h6.11V75.66H66.45Zm8.47,0,0.45,1.21h1.74l0.42-1.21H74.92Zm4.93,0v1.21H86V75.66H79.85ZM42,78v1.21h8.58V78H42Zm9.72,0v1.2h9.32A4.66,4.66,0,0,0,64,78H51.76Zm14.69,0v1.21h6.11V78H66.45Zm9.32,0,0.43,1.2h0.07L76.71,78H75.77Zm4.08,0v1.21H86V78H79.85Z"/></svg>