<svg id="Ebene_1" data-name="Ebene 1" xmlns="http://www.w3.org/2000/svg" viewBox="0 0 128 128"><defs><style>.cls-1{fill:#b1b1b1;}</style></defs><title>1</title><g id="layer1"><g id="Ebene_1-2" data-name="Ebene_1"><g id="_198302696" data-name=" 198302696"><path id="_227268128" data-name=" 227268128" class="cls-1" d="M58.14,66.16s-1.87,1.14,1.3,1.47a26.68,26.68,0,0,0,10.09-.41,15.27,15.27,0,0,0,2.69,1.3c-9.52,4.07-21.57-.24-14.08-2.36h0Zm-1.22-5.29s-2,1.55,1.14,1.87a38.5,38.5,0,0,0,13-.65,5,5,0,0,0,2,1.22c-11.48,3.42-24.34.33-16.12-2.44h0Zm22.47,9.28s1.38,1.14-1.55,2c-5.45,1.63-22.87,2.12-27.76,0-1.71-.73,1.55-1.79,2.6-2A8.11,8.11,0,0,1,54.31,70c-1.87-1.3-12.45,2.69-5.37,3.83C68.4,77,84.43,72.43,79.38,70.15h0ZM59,55.33s-8.87,2.12-3.17,2.85a70.8,70.8,0,0,0,11.72-.08c3.66-.33,7.33-1,7.33-1a19.59,19.59,0,0,0-2.2,1.14c-9,2.36-26.37,1.3-21.41-1.14A16.89,16.89,0,0,1,59,55.33h0ZM74.91,64.2c9.12-4.72,4.88-9.28,2-8.71a5.09,5.09,0,0,0-1.06.33,1.4,1.4,0,0,1,.81-0.65c5.78-2,10.34,6.11-1.87,9.28a1,1,0,0,0,.16-0.24h0Zm-15,12.86c8.79,0.57,22.22-.33,22.55-4.48,0,0-.65,1.63-7.24,2.85A73.27,73.27,0,0,1,53,75.76s1.14,1,6.92,1.3h0Z"/><path id="_230367536" data-name=" 230367536" class="cls-1" d="M69.37,28.47s5,5.13-4.8,12.86c-7.9,6.27-1.79,9.85,0,13.92-4.64-4.15-8-7.81-5.7-11.23,3.34-5,12.54-7.49,10.5-15.55h0Zm-2.6,23.36c2.36,2.69-.65,5.13-0.65,5.13s6-3.09,3.26-6.92c-2.52-3.66-4.48-5.45,6.11-11.56,0,0-16.69,4.15-8.71,13.35h0Zm-6,43.71v-8c0-2-1.14-3.42-4-3.42a11.18,11.18,0,0,0-4.23.9l0.41,1.47a9.63,9.63,0,0,1,3.26-.65c1.55,0,2.28.65,2.28,2v1.06H57.65c-3.91,0-5.7,1.47-5.7,3.83,0,2,1.22,3.09,3.42,3.09a5.25,5.25,0,0,0,3.42-1.47L59,95.54h1.79Zm-2.28-2.6a3.93,3.93,0,0,1-2.52,1.14,1.61,1.61,0,0,1-1.71-1.79c0-1.14.65-2,3.26-2h1v2.6h0Zm9.93,2.6H65.55L62.13,84.39h2.44l2.12,6.84,0.49,2a39.29,39.29,0,0,0,2.2-8.87h2.44A46.38,46.38,0,0,1,68.4,95.54h0Zm13.19,0v-8c0-2-1.14-3.42-4-3.42a11.18,11.18,0,0,0-4.23.9l0.33,1.47A10.57,10.57,0,0,1,77,85.86c1.55,0,2.28.65,2.28,2v1.06H78.49c-3.91,0-5.7,1.47-5.7,3.83,0,2,1.14,3.09,3.34,3.09a5.28,5.28,0,0,0,3.5-1.47l0.16,1.22h1.79Zm-2.28-2.6a3.93,3.93,0,0,1-2.52,1.14,1.61,1.61,0,0,1-1.71-1.79c0-1.14.65-2,3.26-2h1v2.6h0ZM49.43,97.42a5.41,5.41,0,0,1-2.85,2.12l-1.06-1.3a5.42,5.42,0,0,0,2-1.87c0.33-.57.41-1.38,0.41-3.26V80.4h2.44V92.94c0,2.52-.24,3.5-0.9,4.48h0Z"/></g></g></g></svg>