<?xml version="1.0" encoding="utf-8"?>
<!-- Generator: Adobe Illustrator 19.0.1, SVG Export Plug-In . SVG Version: 6.00 Build 0)  -->
<svg version="1.0" id="Ebene_1" xmlns="http://www.w3.org/2000/svg" xmlns:xlink="http://www.w3.org/1999/xlink" x="0px" y="0px"
	 viewBox="0 0 128 128" enable-background="new 0 0 128 128" xml:space="preserve">
<g>
	<g>
		<g>
			<path fill="#B0B0B2" d="M64,23.2c-22.8,0-41.3,18.3-41.3,40.8s18.5,40.8,41.3,40.8s41.3-18.3,41.3-40.8S86.8,23.2,64,23.2"/>
		</g>
		<g>
			<path fill="#FFFFFF" d="M34,59v1.9V61v6V67v2.4c0,0,12.4,2.4,19.4,9.4c1.9,1.9,2.8,2.5,2.8,2.5c4.8,5.2,9.8,5.2,9.8,5.2V95
				l14.7-11.2L66,72.6v7.1c0,0-4.4-1.1-7.6-5.2C55.7,71.2,53.2,67,53,67h26v8.3L93.7,64L79,52.6V61H53c0.5-1,2.9-4.4,5.3-7.5
				c3.3-4.1,7.6-5.2,7.6-5.2v7.1l14.7-11.2L66,33v8.5c0,0-5,0.1-9.8,5.2c0,0-0.8,0.6-2.7,2.5c-7,7-19.5,9.4-19.5,9.4"/>
		</g>
	</g>
</g>
</svg>
