<svg id="Ebene_1" data-name="Ebene 1" xmlns="http://www.w3.org/2000/svg" viewBox="0 0 128 128"><defs><style>.cls-1{fill:#b0b0b2;}.cls-2{fill:#fff;}.cls-3{fill:#b1b1b1;}</style></defs><title>1</title><path class="cls-1" d="M36,47s-3-.2-3,2.19v11.3A3.33,3.33,0,0,0,36,63H92.91A2.3,2.3,0,0,0,95,60.49V49.19A1.9,1.9,0,0,0,92.91,47H36Z"/><path class="cls-1" d="M36,66s-3-.31-3,2.08v11.3S33.64,82,36,82H92.91A2.45,2.45,0,0,0,95,79.38V68.08A1.83,1.83,0,0,0,92.91,66H36Z"/><path class="cls-1" d="M36,28s-3-.09-3,2.31V41.6A3.27,3.27,0,0,0,36,44H92.91A2.16,2.16,0,0,0,95,41.6V30.31A2,2,0,0,0,92.91,28H36Z"/><path class="cls-2" d="M87.86,38.7A2.75,2.75,0,1,0,85.15,36a2.73,2.73,0,0,0,2.72,2.75"/><path class="cls-2" d="M87.86,57.47a2.75,2.75,0,1,0-2.72-2.75,2.73,2.73,0,0,0,2.72,2.75"/><path class="cls-2" d="M87.86,76.36a2.75,2.75,0,1,0-2.72-2.75,2.73,2.73,0,0,0,2.72,2.75"/><path class="cls-3" d="M93.95,101.75a2,2,0,0,1,1.94,2.19v0A2,2,0,1,1,92,104v0a2,2,0,0,1,1.94-2.19m-9.3,0a2,2,0,0,1,1.94,2.19v0a1.95,1.95,0,1,1-3.86,0v0a2,2,0,0,1,1.92-2.19m-25.41-.1a1.69,1.69,0,0,1,1.68,1.68H57.5a1.77,1.77,0,0,1,1.74-1.68m15.3-1.43,1.37,3.37H73.15Zm25-.25v1.78h0.27v-1.47l0.53,1.47h0.16l0.53-1.47v1.47h0.27V100h-0.41l-0.47,1.35L99.91,100H99.5Zm-1.59,0v0.25H98.4v1.53h0.27v-1.53h0.51V100H97.91Zm-3.39-.14A2.91,2.91,0,0,0,92,101.12V100H89.78v10.34H92V106.9a3,3,0,0,0,2.47,1.19c1.89,0,3.62-1.45,3.62-4.11v0c0-2.66-1.76-4.11-3.62-4.11m-9.28,0a2.94,2.94,0,0,0-2.49,1.29V100H80.5v10.34h2.25V106.9a3.08,3.08,0,0,0,2.49,1.19c1.89,0,3.62-1.45,3.62-4.11v0c0-2.66-1.76-4.11-3.62-4.11m-26,0A4,4,0,0,0,55.29,104v0a4.2,4.2,0,0,0,7.42,2.64l-1.29-1.14a2.63,2.63,0,0,1-1.94.82,1.84,1.84,0,0,1-1.94-1.55h5.54c0-.21,0-0.44,0-0.61,0-2.26-1.2-4.31-3.86-4.31M64.51,98v2H63.57v1.94h0.94v3.76c0,1.84.95,2.39,2.33,2.39a3.3,3.3,0,0,0,1.78-.45V105.8a2.3,2.3,0,0,1-1.12.29,0.65,0.65,0,0,1-.71-0.78v-3.39h1.86V100H66.78V98H64.51Zm9-.49-4.35,10.48h2.33l1-2.33H76.6l1,2.33h2.37L75.6,97.46H73.54ZM45,97.46v10.48h2.27v-6.62l5,6.62h1.94V97.46H51.94v6.48l-4.88-6.48H45Z"/><polygon class="cls-3" points="26.74 96.87 26.74 107.76 31.82 107.76 31.82 101.23 34.73 101.23 34.73 107.76 39.81 107.76 39.81 96.87 26.74 96.87"/></svg>