<svg id="Ebene_1" data-name="Ebene 1" xmlns="http://www.w3.org/2000/svg" viewBox="0 0 128 128"><defs><style>.cls-1{fill:#b0b0b2;}.cls-2{fill:#e7e6e8;}.cls-3{fill:#fff;}.cls-4{fill:#b1b1b1;}</style></defs><title>1</title><path class="cls-1" d="M78.5,37.57c-3.72,2.85-5.57,1.82-6.88-.08s0.32-5.74,3-7.26C78.1,28,73.74,25,73.74,25c0.37,1.74-1.66,5-3.21,2.78-1.2-1.94,3.29-6.13,3.29-6.13s-6,1.68-7.1,4.67c-2.51,6.58-1.44,12.06-6.24,11.36-0.71,3.74-2.34,4.71-3.24,3.08s-0.37-3.48,2.68-5c5.32-2.57.81-14.25,0.81-14.25,0.9,9.15-5.5,12.67-7.31,11.37-1.75-1.7,1.39-6,1.39-6-10.53,5.8-.28,9.19-4.38,11.82C45.35,42,48.08,35,48.08,35,35.16,43.47,50.37,48.57,53,50.2c0.17,0.92-2.9,9.46,4.65,12.23,3.47,1.28,2.25,1.84,3.45,1.79,4.68-.58,15.3-4.84,17.55-8.21a9,9,0,0,0,1.13-7.2c-1.12,2.46-4,4.94-6.37,4.43-2.08.26-3.12-4.67,5-9.11,10.46-5.1,5.73-14.8,5.73-14.8S82,34.86,78.5,37.57"/><rect class="cls-2" x="38.64" y="69.1" width="15.66" height="10.08"/><rect class="cls-2" x="47.43" y="57.31" width="15.68" height="10.08"/><rect class="cls-2" x="38.64" y="45.92" width="15.66" height="10.08"/><rect class="cls-2" x="73.67" y="69.1" width="15.68" height="10.08"/><rect class="cls-2" x="82.46" y="57.31" width="6.9" height="10.08"/><rect class="cls-2" x="73.67" y="45.92" width="15.69" height="10.08"/><rect class="cls-2" x="56.2" y="69.1" width="15.68" height="10.08"/><rect class="cls-2" x="64.99" y="57.31" width="15.68" height="10.08"/><rect class="cls-2" x="56.17" y="45.92" width="15.69" height="10.08"/><rect class="cls-2" x="38.81" y="57.31" width="8.26" height="10.08"/><rect class="cls-2" x="38.64" y="69.1" width="15.66" height="10.08"/><rect class="cls-2" x="47.43" y="57.31" width="15.68" height="10.08"/><rect class="cls-2" x="38.64" y="45.92" width="15.66" height="10.08"/><rect class="cls-2" x="73.67" y="69.1" width="15.68" height="10.08"/><rect class="cls-2" x="82.46" y="57.31" width="6.9" height="10.08"/><rect class="cls-2" x="73.67" y="45.92" width="15.69" height="10.08"/><rect class="cls-2" x="56.2" y="69.1" width="15.68" height="10.08"/><rect class="cls-2" x="64.99" y="57.31" width="15.68" height="10.08"/><rect class="cls-2" x="56.17" y="45.92" width="15.69" height="10.08"/><rect class="cls-2" x="38.81" y="57.31" width="8.26" height="10.08"/><rect class="cls-2" x="39.8" y="70.08" width="13.35" height="8.11"/><path class="cls-3" d="M55.45,80.49h-18V67.78h18V80.49ZM42.1,75.89h8.75V72.38H42.1v3.51Z"/><rect class="cls-2" x="48.58" y="58.29" width="13.37" height="8.11"/><path class="cls-3" d="M64.25,68.7h-18V56h18V68.7ZM50.89,64.1h8.77V60.59H50.89V64.1Z"/><rect class="cls-2" x="39.8" y="46.91" width="13.35" height="8.11"/><path class="cls-3" d="M55.45,57.32h-18V44.6h18V57.32ZM42.1,52.71h8.75V49.21H42.1v3.51Z"/><rect class="cls-2" x="74.82" y="70.08" width="13.37" height="8.11"/><path class="cls-3" d="M90.49,80.49h-18V67.78h18V80.49Zm-13.37-4.6h8.77V72.38H77.12v3.51Z"/><rect class="cls-2" x="83.61" y="58.29" width="4.59" height="8.11"/><rect class="cls-3" x="81.31" y="55.99" width="9.2" height="12.71"/><rect class="cls-2" x="74.82" y="46.91" width="13.38" height="8.11"/><path class="cls-3" d="M90.5,57.32h-18V44.6h18V57.32Zm-13.38-4.6H85.9V49.21H77.12v3.51Z"/><rect class="cls-2" x="57.35" y="70.08" width="13.37" height="8.11"/><path class="cls-3" d="M73,80.49h-18V67.78H73V80.49Zm-13.37-4.6h8.77V72.38H59.66v3.51Z"/><rect class="cls-2" x="66.14" y="58.29" width="13.37" height="8.11"/><path class="cls-3" d="M81.81,68.7h-18V56h18V68.7ZM68.44,64.1h8.77V60.59H68.44V64.1Z"/><rect class="cls-2" x="57.33" y="46.91" width="13.38" height="8.11"/><path class="cls-3" d="M73,57.32H55V44.6H73V57.32Zm-13.38-4.6h8.78V49.21H59.63v3.51Z"/><rect class="cls-2" x="39.8" y="58.29" width="6.29" height="8.11"/><path class="cls-3" d="M48.39,68.7H37.5V56H48.39V68.7ZM42.1,64.1h1.69V60.59H42.1V64.1Z"/><path class="cls-1" d="M89.35,70.22a1.1,1.1,0,0,0-1.13-1.13H74.8a1.1,1.1,0,0,0-1.13,1.13V78a1.1,1.1,0,0,0,1.13,1.13H88.22A1.1,1.1,0,0,0,89.35,78V70.22ZM65,66.26a1.1,1.1,0,0,0,1.13,1.13H79.54a1.1,1.1,0,0,0,1.13-1.13V58.43a1.1,1.1,0,0,0-1.13-1.13H66.11A1.1,1.1,0,0,0,65,58.43v7.82Zm6.89,4a1.1,1.1,0,0,0-1.13-1.13H57.33a1.1,1.1,0,0,0-1.13,1.13V78a1.1,1.1,0,0,0,1.13,1.13H70.75A1.1,1.1,0,0,0,71.88,78V70.22Zm-24.45-4a1.1,1.1,0,0,0,1.13,1.13H62a1.1,1.1,0,0,0,1.13-1.13V58.43A1.1,1.1,0,0,0,62,57.31H48.56a1.1,1.1,0,0,0-1.13,1.13v7.82Zm6.87,4a1.1,1.1,0,0,0-1.13-1.13H39.77a1.1,1.1,0,0,0-1.13,1.13V78a1.1,1.1,0,0,0,1.13,1.13h13.4A1.1,1.1,0,0,0,54.3,78V70.22ZM45.84,58.43a1.1,1.1,0,0,0-1.13-1.13H39.77a1.1,1.1,0,0,0-1.13,1.13v7.82a1.1,1.1,0,0,0,1.13,1.13h4.95a1.1,1.1,0,0,0,1.13-1.13V58.43Zm-7.2-3.56A1.1,1.1,0,0,0,39.77,56h13.4a1.1,1.1,0,0,0,1.13-1.13V47a1.1,1.1,0,0,0-1.13-1.13H39.77A1.1,1.1,0,0,0,38.64,47v7.82Zm17.53,0A1.1,1.1,0,0,0,57.3,56H70.73a1.1,1.1,0,0,0,1.13-1.13V47a1.1,1.1,0,0,0-1.13-1.13H57.3A1.1,1.1,0,0,0,56.17,47v7.82Zm17.5,0A1.1,1.1,0,0,0,74.8,56H88.23a1.1,1.1,0,0,0,1.13-1.13V47a1.1,1.1,0,0,0-1.13-1.13H74.8A1.1,1.1,0,0,0,73.67,47v7.82ZM88.23,67.38a1.1,1.1,0,0,0,1.13-1.13V58.43a1.1,1.1,0,0,0-1.13-1.13H83.58a1.1,1.1,0,0,0-1.13,1.13v7.82a1.1,1.1,0,0,0,1.13,1.13h4.65Z"/><path class="cls-4" d="M53.25,101.4c-1.24,0-1.42-1-1.42-2.2S52,97,53.25,97s1.41,1,1.41,2.18-0.17,2.2-1.41,2.2m-1.42,3.39v-3a2.15,2.15,0,0,0,1.79.75,2.37,2.37,0,0,0,1.65-.58,5.46,5.46,0,0,0,0-5.58,2.4,2.4,0,0,0-1.67-.59,2.13,2.13,0,0,0-1.8.78V96.22a0.86,0.86,0,0,0-.68-0.32,0.84,0.84,0,0,0-.67.32v8.56"/><path class="cls-4" d="M61,99.59h-1.6a1,1,0,0,0-1.22.95c0,0.6.39,0.94,1.25,0.94a1.67,1.67,0,0,0,1.28-.38,1.3,1.3,0,0,0,.3-1V99.59Zm0,2.91v-0.6a2.28,2.28,0,0,1-1.81.68,2.45,2.45,0,0,1-1.83-.6,2,2,0,0,1-.54-1.42c0-1.11.79-1.9,2.35-1.9H61V98.2c0-.83-0.43-1.23-1.49-1.23A1.62,1.62,0,0,0,58,97.6l-0.9-.82a2.84,2.84,0,0,1,2.45-.95c1.87,0,2.81.77,2.81,2.26v4.41H61Z"/><path class="cls-4" d="M65.85,101.37a0.65,0.65,0,0,1-.74-0.77V93.25a0.87,0.87,0,0,0-.69-0.33,0.86,0.86,0,0,0-.68.33v7.43a1.71,1.71,0,0,0,1.87,1.82h0.85v-1.13h-0.6Z"/><path class="cls-4" d="M70.78,97.39a1.42,1.42,0,0,0-1-.38,1.38,1.38,0,0,0-1,.38,3.7,3.7,0,0,0,0,3.61,1.39,1.39,0,0,0,1,.39,1.43,1.43,0,0,0,1-.39,3.7,3.7,0,0,0,0-3.61m1,4.41a2.81,2.81,0,0,1-2,.78,2.77,2.77,0,0,1-2-.78,4.57,4.57,0,0,1,0-5.19,2.78,2.78,0,0,1,2-.78,2.81,2.81,0,0,1,2,.78,4.57,4.57,0,0,1,0,5.19"/><path class="cls-4" d="M82.62,101.37a0.65,0.65,0,0,1-.74-0.77V93.25a0.87,0.87,0,0,0-.69-0.33,0.86,0.86,0,0,0-.68.33v7.43a1.71,1.71,0,0,0,1.87,1.82h0.85v-1.13h-0.6Z"/><path class="cls-4" d="M77.6,99.59H76a1,1,0,0,0-1.22.95c0,0.6.39,0.94,1.25,0.94a1.66,1.66,0,0,0,1.28-.38,1.29,1.29,0,0,0,.3-1V99.59Zm0,2.91v-0.6a2.28,2.28,0,0,1-1.81.68A2.45,2.45,0,0,1,74,102a2,2,0,0,1-.54-1.42c0-1.11.79-1.9,2.35-1.9h1.8V98.2c0-.83-0.43-1.23-1.49-1.23a1.62,1.62,0,0,0-1.49.64l-0.9-.82a2.84,2.84,0,0,1,2.45-.95c1.87,0,2.81.77,2.81,2.26v4.41H77.63Z"/><path class="cls-4" d="M87,97V96H85.71V94A0.88,0.88,0,0,0,85,93.7a0.86,0.86,0,0,0-.68.33v2H83.56v1h0.78v3.63a1.74,1.74,0,0,0,1.87,1.83H87v-1.13H86.47a0.68,0.68,0,0,1-.75-0.77V97H87Z"/><path class="cls-4" d="M91.69,97.39a1.41,1.41,0,0,0-1-.38,1.38,1.38,0,0,0-1,.38,3.7,3.7,0,0,0,0,3.61,1.39,1.39,0,0,0,1,.39,1.42,1.42,0,0,0,1-.39,3.7,3.7,0,0,0,0-3.61m1,4.41a2.8,2.8,0,0,1-2,.78,2.77,2.77,0,0,1-2-.78,4.57,4.57,0,0,1,0-5.19,2.77,2.77,0,0,1,2-.78,2.81,2.81,0,0,1,2,.78,4.57,4.57,0,0,1,0,5.19"/><path class="cls-4" d="M103.74,112.19h-0.18v0.32h0.18a0.16,0.16,0,0,0,.18-0.16,0.17,0.17,0,0,0-.18-0.16m0.18,0.81-0.22-.38h-0.14V113h-0.13v-0.92h0.32a0.29,0.29,0,0,1,.3.28,0.26,0.26,0,0,1-.2.25l0.23,0.39h-0.15Zm-0.21-1.17a0.72,0.72,0,1,0,.73.72,0.72,0.72,0,0,0-.73-0.72m0,1.55a0.84,0.84,0,1,1,.87-0.84,0.85,0.85,0,0,1-.87.84"/><path class="cls-4" d="M97.57,111.29a1,1,0,0,0,.48.85,1.93,1.93,0,0,0,1,.24l0.46,0a2.06,2.06,0,0,0,.49-0.12,0.92,0.92,0,0,0,.37-0.25,0.58,0.58,0,0,0,.13-0.43,0.61,0.61,0,0,0-.2-0.44,1.41,1.41,0,0,0-.49-0.27,4.81,4.81,0,0,0-.67-0.18l-0.77-.16a7.29,7.29,0,0,1-.77-0.21,2.53,2.53,0,0,1-.67-0.33,1.53,1.53,0,0,1-.47-0.53,1.64,1.64,0,0,1-.18-0.8,1.4,1.4,0,0,1,.26-0.86,2,2,0,0,1,.66-0.56,2.92,2.92,0,0,1,.88-0.3,5.32,5.32,0,0,1,.93-0.09,4.39,4.39,0,0,1,1,.1,2.67,2.67,0,0,1,.83.34,2,2,0,0,1,.62.6,2,2,0,0,1,.31.9h-1.5a0.87,0.87,0,0,0-.47-0.67,2,2,0,0,0-.85-0.17l-0.36,0a1.73,1.73,0,0,0-.39.09,0.82,0.82,0,0,0-.31.19,0.46,0.46,0,0,0-.13.34,0.52,0.52,0,0,0,.18.41,1.46,1.46,0,0,0,.48.26,4.73,4.73,0,0,0,.68.18l0.78,0.16c0.26,0.06.52,0.13,0.77,0.21a2.5,2.5,0,0,1,.68.33,1.62,1.62,0,0,1,.48.52,1.54,1.54,0,0,1,.18.78,1.65,1.65,0,0,1-.27,1,2.06,2.06,0,0,1-.69.63,3.2,3.2,0,0,1-.94.35,4.94,4.94,0,0,1-1,.11,4.61,4.61,0,0,1-1.14-.13,2.73,2.73,0,0,1-.91-0.41,2,2,0,0,1-.61-0.68,2.11,2.11,0,0,1-.23-1,0.88,0.88,0,0,1,.72-0.35,0.85,0.85,0,0,1,.72.35"/><path class="cls-4" d="M89.76,104.62a0.93,0.93,0,0,1,.71-0.34,0.94,0.94,0,0,1,.72.34v4.95L93.79,107a1.09,1.09,0,0,1,.88-0.43,1.15,1.15,0,0,1,.89.43l-2.49,2.32,2.73,4H94l-2-3.06-0.86.8v2.25H89.76v-8.7Z"/><path class="cls-4" d="M67.92,107a0.94,0.94,0,0,1,.75-0.37,1,1,0,0,1,.77.37l1.27,4.7h0L72,107a1,1,0,0,1,.72-0.35,1,1,0,0,1,.73.35l1.17,4.7h0l1.32-4.7a0.89,0.89,0,0,1,.72-0.35,1,1,0,0,1,.74.35l-2,6.3H73.88l-1.21-4.68h0l-1.2,4.68H69.94Z"/><path class="cls-4" d="M50.33,107a0.85,0.85,0,0,1,.65-0.34,1,1,0,0,1,.71.34v0.93l0,0a2.35,2.35,0,0,1,2-1.12,2.49,2.49,0,0,1,1.69.54A2,2,0,0,1,56,109v4.33H54.61v-4a1.67,1.67,0,0,0-.33-1.08,1.21,1.21,0,0,0-.94-0.34,1.6,1.6,0,0,0-.66.13,1.42,1.42,0,0,0-.49.35,1.64,1.64,0,0,0-.31.53,1.83,1.83,0,0,0-.11.65v3.72H50.33V107Z"/><path class="cls-4" d="M61.43,109.61A2.39,2.39,0,0,0,61.3,109a1.71,1.71,0,0,0-.3-0.53,1.48,1.48,0,0,0-.45-0.37,1.27,1.27,0,0,0-.6-0.14,1.48,1.48,0,0,0-.62.13,1.43,1.43,0,0,0-.48.35,1.78,1.78,0,0,0-.32.53,2,2,0,0,0-.13.66h3Zm-3,.91a2.59,2.59,0,0,0,.1.71,1.81,1.81,0,0,0,.29.6,1.42,1.42,0,0,0,.49.41,1.52,1.52,0,0,0,.7.15,1.48,1.48,0,0,0,.91-0.26,1.55,1.55,0,0,0,.52-0.79A0.76,0.76,0,0,1,62,111a0.78,0.78,0,0,1,.62.33,2.74,2.74,0,0,1-.35.91,2.52,2.52,0,0,1-1.39,1.09,3,3,0,0,1-.91.14,2.92,2.92,0,0,1-1.23-.24,2.53,2.53,0,0,1-.9-0.68,3,3,0,0,1-.56-1,4.54,4.54,0,0,1-.19-1.34,4.05,4.05,0,0,1,.2-1.27,3.34,3.34,0,0,1,.57-1.06,2.75,2.75,0,0,1,.89-0.73,2.56,2.56,0,0,1,1.18-.27,2.48,2.48,0,0,1,1.24.31,2.78,2.78,0,0,1,.92.82,3.46,3.46,0,0,1,.53,1.18,3.88,3.88,0,0,1,.09,1.37H58.41Z"/><path class="cls-4" d="M84.79,107a0.82,0.82,0,0,1,.67-0.33,0.84,0.84,0,0,1,.68.33v1.22h0a1.4,1.4,0,0,1,.25-0.5,2.38,2.38,0,0,1,.44-0.45,2.23,2.23,0,0,1,.57-0.32,1.76,1.76,0,0,1,.64-0.12h0.35l0.2,0v1.34l-0.31,0-0.31,0a1.7,1.7,0,0,0-.69.14,1.56,1.56,0,0,0-.56.41,2,2,0,0,0-.38.68,2.84,2.84,0,0,0-.14.93v3H84.79V107Z"/><path class="cls-4" d="M81.75,108.35a1.42,1.42,0,0,0-1-.38,1.38,1.38,0,0,0-1,.38,3.7,3.7,0,0,0,0,3.61,1.39,1.39,0,0,0,1,.39,1.42,1.42,0,0,0,1-.39,3.7,3.7,0,0,0,0-3.61m1,4.41a2.8,2.8,0,0,1-2,.78,2.77,2.77,0,0,1-2-.78,4.57,4.57,0,0,1,0-5.19,2.77,2.77,0,0,1,2-.78,2.81,2.81,0,0,1,2,.78,4.57,4.57,0,0,1,0,5.19"/><path class="cls-4" d="M67,107.88v-1H65.64v-2a0.88,0.88,0,0,0-.69-0.33,0.86,0.86,0,0,0-.68.33v2H63.49v1h0.78v3.63a1.74,1.74,0,0,0,1.87,1.83H67v-1.13H66.39a0.68,0.68,0,0,1-.75-0.77v-3.56H67Z"/><path class="cls-4" d="M38.85,98.08a0.74,0.74,0,0,1,.67.38,0.74,0.74,0,0,0-.67-0.38,1.14,1.14,0,0,0-1,.61A1.14,1.14,0,0,1,38.85,98.08Z"/><path class="cls-4" d="M44,102v0.69h0V95.82A2.75,2.75,0,0,0,40.94,93H26.34C24.51,93,23,94,23,95.82v14.12A3.17,3.17,0,0,0,26.34,113h14.6A2.93,2.93,0,0,0,44,109.94v-4.45a1,1,0,0,0-.28-0.49h0s-0.06.29-.09,0.28a1.59,1.59,0,0,1-.24.1s0,0.07,0,.07a0.62,0.62,0,0,1-.28-0.2,1.81,1.81,0,0,1-.21-0.9M25.7,106.49l0,0a1.14,1.14,0,0,1-1.07.85,0.74,0.74,0,0,1-.76-0.89l0.2-1.13a1,1,0,0,1,.14-0.35,1.15,1.15,0,0,1,.95-0.55,0.74,0.74,0,0,1,.76.89Zm2.63,2.83a1,1,0,0,1-.13.35,1.15,1.15,0,0,1-.95.55,0.74,0.74,0,0,1-.75-0.55,0.81,0.81,0,0,1,0-.35l0.6-3.35,0.11-.61a1,1,0,0,1,.14-0.35,1.15,1.15,0,0,1,.95-0.55,0.74,0.74,0,0,1,.76.89Zm2.81,1.82a1,1,0,0,1-.14.35,1.51,1.51,0,0,1-.95.55,0.85,0.85,0,0,1-.35-0.07,0.73,0.73,0,0,1-.42-0.82l1.37-7.59a1,1,0,0,1,.14-0.35,1.15,1.15,0,0,1,.95-0.55,0.74,0.74,0,0,1,.75.56,0.81,0.81,0,0,1,0,.34l-1,5.43Zm3.31-1a1.08,1.08,0,0,1-.38.63,1.11,1.11,0,0,1-.7.26,0.74,0.74,0,0,1-.76-0.89l1.84-10.22a0.94,0.94,0,0,1,0-.1,1.13,1.13,0,0,1,1-.79,0.74,0.74,0,0,1,.75.55,0.81,0.81,0,0,1,0,.35l-1.38,7.68Zm3.79-3.61a1.1,1.1,0,0,1-.57.74,1.06,1.06,0,0,1-.52.15,0.81,0.81,0,0,1-.41-0.11,0.72,0.72,0,0,1-.36-0.78L37.76,99a1,1,0,0,1,.09-0.24,1.14,1.14,0,0,1,1-.65,0.74,0.74,0,0,1,.75.55,0.81,0.81,0,0,1,0,.35Zm3.47-1.81a1.14,1.14,0,0,1-1.08.89,0.78,0.78,0,0,1-.61-0.26,0.71,0.71,0,0,1,0-.07,0.7,0.7,0,0,1-.11-0.21,0.81,0.81,0,0,1,0-.35l0.71-4a1.14,1.14,0,0,1,1.08-.89,0.73,0.73,0,0,1,.76.78,0.77,0.77,0,0,1,0,.11Z"/><path class="cls-4" d="M38.24,106.56L39.61,99h0l-1.37,7.59a1.13,1.13,0,0,1-1.08.89,0.74,0.74,0,0,1-.76-0.89h0a0.72,0.72,0,0,0,.36.78,0.81,0.81,0,0,0,.41.11,1.07,1.07,0,0,0,.52-0.15A1.1,1.1,0,0,0,38.24,106.56Z"/><path class="cls-4" d="M36.4,106.56h0L37.76,99a1,1,0,0,1,.11-0.28l0,0a1,1,0,0,0-.09.24Z"/><path class="cls-4" d="M39.61,99h0a0.81,0.81,0,0,0,0-.35,0.69,0.69,0,0,0-.08-0.16A0.75,0.75,0,0,1,39.61,99Z"/></svg>