<svg id="Ebene_1" data-name="Ebene 1" xmlns="http://www.w3.org/2000/svg" viewBox="0 0 128 128"><defs><style>.cls-1{fill:#fff;}.cls-2{fill:#b0b0b2;}.cls-3{fill:#b1b1b1;}</style></defs><title>1</title><path class="cls-1" d="M64,81A31.22,31.22,0,1,0,32.51,49.76,31.36,31.36,0,0,0,64,81"/><path class="cls-2" d="M64,80.63A30.87,30.87,0,1,0,32.88,49.76,31,31,0,0,0,64,80.63"/><polygon class="cls-1" points="46 58.25 57.11 49.76 46 41.27 46 47 37 47 37 52 46 52 46 58.25"/><polygon class="cls-1" points="62 56 66 56 66 65 72.32 65 63.76 76.02 55.2 65 62 65 62 56"/><polygon class="cls-1" points="81 52 90 52 90 47 81 47 81 41.27 69.89 49.76 81 58.25 81 52"/><polygon class="cls-1" points="72.32 34 66 34 66 44 62 44 62 34 55.2 34 63.76 22.98 72.32 34"/><path class="cls-3" d="M53.25,105.4c-1.24,0-1.42-1-1.42-2.2S52,101,53.25,101s1.41,1,1.41,2.18-0.17,2.2-1.41,2.2m-1.42,3.39v-3a2.15,2.15,0,0,0,1.79.75,2.37,2.37,0,0,0,1.65-.58,5.46,5.46,0,0,0,0-5.58,2.4,2.4,0,0,0-1.67-.59,2.13,2.13,0,0,0-1.8.78v-0.39a0.86,0.86,0,0,0-.68-0.32,0.84,0.84,0,0,0-.67.32v8.56"/><path class="cls-3" d="M61,103.59h-1.6a1,1,0,0,0-1.22.95c0,0.6.39,0.94,1.25,0.94a1.67,1.67,0,0,0,1.28-.38,1.3,1.3,0,0,0,.3-1v-0.53Zm0,2.91v-0.6a2.28,2.28,0,0,1-1.81.68,2.45,2.45,0,0,1-1.83-.6,2,2,0,0,1-.54-1.42c0-1.11.79-1.9,2.35-1.9H61V102.2c0-.83-0.43-1.23-1.49-1.23a1.62,1.62,0,0,0-1.49.64l-0.9-.82a2.84,2.84,0,0,1,2.45-.95c1.87,0,2.81.77,2.81,2.26v4.41H61Z"/><path class="cls-3" d="M65.85,105.37a0.65,0.65,0,0,1-.74-0.77V97.25a0.87,0.87,0,0,0-.69-0.33,0.86,0.86,0,0,0-.68.33v7.43a1.71,1.71,0,0,0,1.87,1.82h0.85v-1.13h-0.6Z"/><path class="cls-3" d="M70.78,101.39a1.42,1.42,0,0,0-1-.38,1.38,1.38,0,0,0-1,.38,3.7,3.7,0,0,0,0,3.61,1.39,1.39,0,0,0,1,.39,1.43,1.43,0,0,0,1-.39,3.7,3.7,0,0,0,0-3.61m1,4.41a2.81,2.81,0,0,1-2,.78,2.77,2.77,0,0,1-2-.78,4.57,4.57,0,0,1,0-5.19,2.78,2.78,0,0,1,2-.78,2.81,2.81,0,0,1,2,.78,4.57,4.57,0,0,1,0,5.19"/><path class="cls-3" d="M82.62,105.37a0.65,0.65,0,0,1-.74-0.77V97.25a0.87,0.87,0,0,0-.69-0.33,0.86,0.86,0,0,0-.68.33v7.43a1.71,1.71,0,0,0,1.87,1.82h0.85v-1.13h-0.6Z"/><path class="cls-3" d="M77.6,103.59H76a1,1,0,0,0-1.22.95c0,0.6.39,0.94,1.25,0.94a1.66,1.66,0,0,0,1.28-.38,1.29,1.29,0,0,0,.3-1v-0.53Zm0,2.91v-0.6a2.28,2.28,0,0,1-1.81.68A2.45,2.45,0,0,1,74,106a2,2,0,0,1-.54-1.42c0-1.11.79-1.9,2.35-1.9h1.8V102.2c0-.83-0.43-1.23-1.49-1.23a1.62,1.62,0,0,0-1.49.64l-0.9-.82a2.84,2.84,0,0,1,2.45-.95c1.87,0,2.81.77,2.81,2.26v4.41H77.63Z"/><path class="cls-3" d="M87,101v-1H85.71V98A0.88,0.88,0,0,0,85,97.7a0.86,0.86,0,0,0-.68.33v2H83.56v1h0.78v3.63a1.74,1.74,0,0,0,1.87,1.83H87v-1.13H86.47a0.68,0.68,0,0,1-.75-0.77V101H87Z"/><path class="cls-3" d="M91.69,101.39a1.41,1.41,0,0,0-1-.38,1.38,1.38,0,0,0-1,.38,3.7,3.7,0,0,0,0,3.61,1.39,1.39,0,0,0,1,.39,1.42,1.42,0,0,0,1-.39,3.7,3.7,0,0,0,0-3.61m1,4.41a2.8,2.8,0,0,1-2,.78,2.77,2.77,0,0,1-2-.78,4.57,4.57,0,0,1,0-5.19,2.77,2.77,0,0,1,2-.78,2.81,2.81,0,0,1,2,.78,4.57,4.57,0,0,1,0,5.19"/><path class="cls-3" d="M103.74,116.19h-0.18v0.32h0.18a0.16,0.16,0,0,0,.18-0.16,0.17,0.17,0,0,0-.18-0.16m0.18,0.81-0.22-.38h-0.14V117h-0.13v-0.92h0.32a0.29,0.29,0,0,1,.3.28,0.26,0.26,0,0,1-.2.25l0.23,0.39h-0.15Zm-0.21-1.17a0.72,0.72,0,1,0,.73.72,0.72,0.72,0,0,0-.73-0.72m0,1.55a0.84,0.84,0,1,1,.87-0.84,0.85,0.85,0,0,1-.87.84"/><path class="cls-3" d="M97.57,115.29a1,1,0,0,0,.48.85,1.93,1.93,0,0,0,1,.24l0.46,0a2.06,2.06,0,0,0,.49-0.12,0.92,0.92,0,0,0,.37-0.25,0.58,0.58,0,0,0,.13-0.43,0.61,0.61,0,0,0-.2-0.44,1.41,1.41,0,0,0-.49-0.27,4.81,4.81,0,0,0-.67-0.18l-0.77-.16a7.29,7.29,0,0,1-.77-0.21,2.53,2.53,0,0,1-.67-0.33,1.53,1.53,0,0,1-.47-0.53,1.64,1.64,0,0,1-.18-0.8,1.4,1.4,0,0,1,.26-0.86,2,2,0,0,1,.66-0.56,2.92,2.92,0,0,1,.88-0.3,5.32,5.32,0,0,1,.93-0.09,4.39,4.39,0,0,1,1,.1,2.67,2.67,0,0,1,.83.34,2,2,0,0,1,.62.6,2,2,0,0,1,.31.9h-1.5a0.87,0.87,0,0,0-.47-0.67,2,2,0,0,0-.85-0.17l-0.36,0a1.73,1.73,0,0,0-.39.09,0.82,0.82,0,0,0-.31.19,0.46,0.46,0,0,0-.13.34,0.52,0.52,0,0,0,.18.41,1.46,1.46,0,0,0,.48.26,4.73,4.73,0,0,0,.68.18l0.78,0.16c0.26,0.06.52,0.13,0.77,0.21a2.5,2.5,0,0,1,.68.33,1.62,1.62,0,0,1,.48.52,1.54,1.54,0,0,1,.18.78,1.65,1.65,0,0,1-.27,1,2.06,2.06,0,0,1-.69.63,3.2,3.2,0,0,1-.94.35,4.94,4.94,0,0,1-1,.11,4.61,4.61,0,0,1-1.14-.13,2.73,2.73,0,0,1-.91-0.41,2,2,0,0,1-.61-0.68,2.11,2.11,0,0,1-.23-1,0.88,0.88,0,0,1,.72-0.35,0.85,0.85,0,0,1,.72.35"/><path class="cls-3" d="M89.76,108.62a0.93,0.93,0,0,1,.71-0.34,0.94,0.94,0,0,1,.72.34v4.95L93.79,111a1.09,1.09,0,0,1,.88-0.43,1.15,1.15,0,0,1,.89.43l-2.49,2.32,2.73,4H94l-2-3.06-0.86.8v2.25H89.76v-8.7Z"/><path class="cls-3" d="M67.92,111a0.94,0.94,0,0,1,.75-0.37,1,1,0,0,1,.77.37l1.27,4.7h0L72,111a1,1,0,0,1,.72-0.35,1,1,0,0,1,.73.35l1.17,4.7h0l1.32-4.7a0.89,0.89,0,0,1,.72-0.35,1,1,0,0,1,.74.35l-2,6.3H73.88l-1.21-4.68h0l-1.2,4.68H69.94Z"/><path class="cls-3" d="M50.33,111a0.85,0.85,0,0,1,.65-0.34,1,1,0,0,1,.71.34v0.93l0,0a2.35,2.35,0,0,1,2-1.12,2.49,2.49,0,0,1,1.69.54A2,2,0,0,1,56,113v4.33H54.61v-4a1.67,1.67,0,0,0-.33-1.08,1.21,1.21,0,0,0-.94-0.34,1.6,1.6,0,0,0-.66.13,1.42,1.42,0,0,0-.49.35,1.64,1.64,0,0,0-.31.53,1.83,1.83,0,0,0-.11.65v3.72H50.33V111Z"/><path class="cls-3" d="M61.43,113.61A2.39,2.39,0,0,0,61.3,113a1.71,1.71,0,0,0-.3-0.53,1.48,1.48,0,0,0-.45-0.37,1.27,1.27,0,0,0-.6-0.14,1.48,1.48,0,0,0-.62.13,1.43,1.43,0,0,0-.48.35,1.78,1.78,0,0,0-.32.53,2,2,0,0,0-.13.66h3Zm-3,.91a2.59,2.59,0,0,0,.1.71,1.81,1.81,0,0,0,.29.6,1.42,1.42,0,0,0,.49.41,1.52,1.52,0,0,0,.7.15,1.48,1.48,0,0,0,.91-0.26,1.55,1.55,0,0,0,.52-0.79A0.76,0.76,0,0,1,62,115a0.78,0.78,0,0,1,.62.33,2.74,2.74,0,0,1-.35.91,2.52,2.52,0,0,1-1.39,1.09,3,3,0,0,1-.91.14,2.92,2.92,0,0,1-1.23-.24,2.53,2.53,0,0,1-.9-0.68,3,3,0,0,1-.56-1,4.54,4.54,0,0,1-.19-1.34,4.05,4.05,0,0,1,.2-1.27,3.34,3.34,0,0,1,.57-1.06,2.75,2.75,0,0,1,.89-0.73,2.56,2.56,0,0,1,1.18-.27,2.48,2.48,0,0,1,1.24.31,2.78,2.78,0,0,1,.92.82,3.46,3.46,0,0,1,.53,1.18,3.88,3.88,0,0,1,.09,1.37H58.41Z"/><path class="cls-3" d="M84.79,111a0.82,0.82,0,0,1,.67-0.33,0.84,0.84,0,0,1,.68.33v1.22h0a1.4,1.4,0,0,1,.25-0.5,2.38,2.38,0,0,1,.44-0.45,2.23,2.23,0,0,1,.57-0.32,1.76,1.76,0,0,1,.64-0.12h0.35l0.2,0v1.34l-0.31,0-0.31,0a1.7,1.7,0,0,0-.69.14,1.56,1.56,0,0,0-.56.41,2,2,0,0,0-.38.68,2.84,2.84,0,0,0-.14.93v3H84.79V111Z"/><path class="cls-3" d="M81.75,112.35a1.42,1.42,0,0,0-1-.38,1.38,1.38,0,0,0-1,.38,3.7,3.7,0,0,0,0,3.61,1.39,1.39,0,0,0,1,.39,1.42,1.42,0,0,0,1-.39,3.7,3.7,0,0,0,0-3.61m1,4.41a2.8,2.8,0,0,1-2,.78,2.77,2.77,0,0,1-2-.78,4.57,4.57,0,0,1,0-5.19,2.77,2.77,0,0,1,2-.78,2.81,2.81,0,0,1,2,.78,4.57,4.57,0,0,1,0,5.19"/><path class="cls-3" d="M67,111.88v-1H65.64v-2a0.88,0.88,0,0,0-.69-0.33,0.86,0.86,0,0,0-.68.33v2H63.49v1h0.78v3.63a1.74,1.74,0,0,0,1.87,1.83H67v-1.13H66.39a0.68,0.68,0,0,1-.75-0.77v-3.56H67Z"/><path class="cls-3" d="M38.85,102.08a0.74,0.74,0,0,1,.67.38,0.74,0.74,0,0,0-.67-0.38,1.14,1.14,0,0,0-1,.61A1.14,1.14,0,0,1,38.85,102.08Z"/><path class="cls-3" d="M44,106v0.69h0V99.82A2.75,2.75,0,0,0,40.94,97H26.34C24.51,97,23,98,23,99.82v14.12A3.17,3.17,0,0,0,26.34,117h14.6A2.93,2.93,0,0,0,44,113.94v-4.45a1,1,0,0,0-.28-0.49h0s-0.06.29-.09,0.28a1.59,1.59,0,0,1-.24.1s0,0.07,0,.07a0.62,0.62,0,0,1-.28-0.2,1.81,1.81,0,0,1-.21-0.9M25.7,110.49l0,0a1.14,1.14,0,0,1-1.07.85,0.74,0.74,0,0,1-.76-0.89l0.2-1.13a1,1,0,0,1,.14-0.35,1.15,1.15,0,0,1,.95-0.55,0.74,0.74,0,0,1,.76.89Zm2.63,2.83a1,1,0,0,1-.13.35,1.15,1.15,0,0,1-.95.55,0.74,0.74,0,0,1-.75-0.55,0.81,0.81,0,0,1,0-.35l0.6-3.35,0.11-.61a1,1,0,0,1,.14-0.35,1.15,1.15,0,0,1,.95-0.55,0.74,0.74,0,0,1,.76.89Zm2.81,1.82a1,1,0,0,1-.14.35,1.51,1.51,0,0,1-.95.55,0.85,0.85,0,0,1-.35-0.07,0.73,0.73,0,0,1-.42-0.82l1.37-7.59a1,1,0,0,1,.14-0.35,1.15,1.15,0,0,1,.95-0.55,0.74,0.74,0,0,1,.75.56,0.81,0.81,0,0,1,0,.34l-1,5.43Zm3.31-1a1.08,1.08,0,0,1-.38.63,1.11,1.11,0,0,1-.7.26,0.74,0.74,0,0,1-.76-0.89l1.84-10.22a0.94,0.94,0,0,1,0-.1,1.13,1.13,0,0,1,1-.79,0.74,0.74,0,0,1,.75.55,0.81,0.81,0,0,1,0,.35l-1.38,7.68Zm3.79-3.61a1.1,1.1,0,0,1-.57.74,1.06,1.06,0,0,1-.52.15,0.81,0.81,0,0,1-.41-0.11,0.72,0.72,0,0,1-.36-0.78L37.76,103a1,1,0,0,1,.09-0.24,1.14,1.14,0,0,1,1-.65,0.74,0.74,0,0,1,.75.55,0.81,0.81,0,0,1,0,.35Zm3.47-1.81a1.14,1.14,0,0,1-1.08.89,0.78,0.78,0,0,1-.61-0.26,0.71,0.71,0,0,1,0-.07,0.7,0.7,0,0,1-.11-0.21,0.81,0.81,0,0,1,0-.35l0.71-4a1.14,1.14,0,0,1,1.08-.89,0.73,0.73,0,0,1,.76.78,0.77,0.77,0,0,1,0,.11Z"/><path class="cls-3" d="M38.24,110.56L39.61,103h0l-1.37,7.59a1.13,1.13,0,0,1-1.08.89,0.74,0.74,0,0,1-.76-0.89h0a0.72,0.72,0,0,0,.36.78,0.81,0.81,0,0,0,.41.11,1.07,1.07,0,0,0,.52-0.15A1.1,1.1,0,0,0,38.24,110.56Z"/><path class="cls-3" d="M36.4,110.56h0L37.76,103a1,1,0,0,1,.11-0.28l0,0a1,1,0,0,0-.09.24Z"/><path class="cls-3" d="M39.61,103h0a0.81,0.81,0,0,0,0-.35,0.69,0.69,0,0,0-.08-0.16A0.75,0.75,0,0,1,39.61,103Z"/></svg>