<?xml version="1.0" encoding="utf-8"?>
<!-- Generator: Adobe Illustrator 19.0.1, SVG Export Plug-In . SVG Version: 6.00 Build 0)  -->
<svg version="1.0" id="Ebene_1" xmlns="http://www.w3.org/2000/svg" xmlns:xlink="http://www.w3.org/1999/xlink" x="0px" y="0px"
	 viewBox="0 0 128 128" enable-background="new 0 0 128 128" xml:space="preserve">
<g>
	<g>
		<g>
			<path fill="#FFFFFF" d="M104.7,51.2c0-7.4-5.8-13.3-13-13.3c-7.2,0-13,6-13,13.3c0,6.8,5,12.5,11.5,13.2L90.6,84h2.2l0.3-19.6
				C99.7,63.6,104.7,58,104.7,51.2"/>
		</g>
		<g>
			<path fill="#FFFFFF" d="M94.8,86h-6.1l-0.5-19.9c-6.7-1.6-11.5-7.7-11.5-14.9c0-8.4,6.7-15.3,15-15.3c8.3,0,15,6.8,15,15.3
				c0,7.1-4.8,13.3-11.5,14.9L94.8,86z M91.6,39.8c-6.1,0-11.1,5.1-11.1,11.4c0,5.8,4.2,10.6,9.8,11.3l1.3,0.2l1.3-0.2
				c5.6-0.7,9.7-5.5,9.7-11.3C102.7,44.9,97.8,39.8,91.6,39.8z"/>
		</g>
		<g>
			<path fill="#B0B0B2" d="M105.4,50.9c0-7.6-6.1-13.7-13.7-13.7s-13.7,6.1-13.7,13.7c0,7,5.3,13,12.1,13.8L90.6,85h2.4l0.4-20.4
				C100.1,63.8,105.4,57.9,105.4,50.9"/>
		</g>
		<g>
			<path fill="#FFFFFF" d="M91.6,61.7c6,0,10.9-4.9,10.9-10.9c0-6-4.9-10.9-10.9-10.9s-10.9,4.9-10.9,10.9
				C80.8,56.9,85.7,61.7,91.6,61.7"/>
		</g>
		<g>
			<path fill="#BBCA0E" d="M85.6,43.9c-1.5,1.4-2.6,3.4-2.8,5.6c-0.2,2.2,0.4,4.3,1.6,6l1.2-0.8c-0.8-1-1.3-2.3-1.4-3.7
				c-0.1-2.3,1.1-4.3,2.8-5.4c0,0,0,0,0,0L85.6,43.9z"/>
		</g>
		<g>
			<path fill="#BBCA0E" d="M87.5,45.4C87.5,45.4,87.4,45.4,87.5,45.4C87.4,45.4,87.5,45.4,87.5,45.4"/>
		</g>
		<g>
			<path fill="#BBCA0E" d="M87.8,45.2C87.8,45.2,87.8,45.2,87.8,45.2C87.8,45.2,87.8,45.2,87.8,45.2"/>
		</g>
		<g>
			<path fill="#E50060" d="M100.3,48.6c-0.5-2.2-1.7-4-3.3-5.3h0c0.3,0.2,0.6,0.5,0.9,0.8L95.4,47c0,0,0-0.1-0.1-0.1
				c0.8,1,1.4,2.3,1.4,3.8c0,1.1-0.2,2.2-0.7,3.1l2.9,1.8C100.3,53.6,100.8,51.1,100.3,48.6"/>
		</g>
		<g>
			<path fill="#E5007E" d="M94.7,46.2c0.1,0.1,0.3,0.3,0.4,0.4C95,46.5,94.8,46.3,94.7,46.2L94.7,46.2z"/>
		</g>
		<g>
			<path fill="#F49C00" d="M97.9,44.1c-0.3-0.3-0.6-0.5-0.9-0.8c-1.6-1.2-3.5-1.9-5.6-1.8c-2.2,0.1-4.3,0.9-5.8,2.4v0l1.5,1.7
				c0,0,0,0,0,0c0.1-0.1,0.2-0.1,0.3-0.2c0,0,0,0,0.1,0c0.1-0.1,0.2-0.1,0.3-0.2c0,0,0,0,0.1,0c0.8-0.4,1.6-0.6,2.5-0.6
				c1.7,0,3.2,0.6,4.3,1.6c0.1,0.1,0.3,0.3,0.4,0.4c0,0,0,0,0,0c0.1,0.1,0.1,0.1,0.2,0.2c0,0,0,0,0,0.1c0,0,0,0.1,0.1,0.1L97.9,44.1
				z"/>
		</g>
	</g>
	<g>
		<polygon fill="#222956" points="92.6,53.3 93.9,52.2 85.8,47.3 		"/>
	</g>
	<g>
		<g>
			<path fill="#B0B0B2" d="M23.3,71c0,0-2.3,0.3-2.3,2.2v17.1c0,0,0.4,1.8,2.3,1.8h76.1c0,0,1.6,0.1,1.6-1.8V73.2
				c0,0,0.2-2.2-1.6-2.2H23.3z"/>
		</g>
		<g>
			<path fill="#FFFFFF" d="M91.6,85.3c1.9,0,3.5-1.6,3.5-3.6c0-2-1.6-3.6-3.5-3.6c-1.9,0-3.5,1.6-3.5,3.6
				C88.1,83.7,89.7,85.3,91.6,85.3"/>
		</g>
	</g>
</g>
</svg>
