<?xml version="1.0" encoding="utf-8"?>
<!-- Generator: Adobe Illustrator 19.0.1, SVG Export Plug-In . SVG Version: 6.00 Build 0)  -->
<svg version="1.0" id="Ebene_1" xmlns="http://www.w3.org/2000/svg" xmlns:xlink="http://www.w3.org/1999/xlink" x="0px" y="0px"
	 viewBox="0 0 128 128" enable-background="new 0 0 128 128" xml:space="preserve">
<g>
	<g>
		<g>
			<path fill="#B1B1B1" d="M57.7,92.1c3.1,0,5.6-2.4,5.6-5.4s-2.5-5.4-5.6-5.4c-3.1,0-5.6,2.4-5.6,5.4S54.6,92.1,57.7,92.1"/>
		</g>
		<g>
			<path fill="#B1B1B1" d="M82.2,92.1c3.1,0,5.6-2.4,5.6-5.4s-2.5-5.4-5.6-5.4c-3.1,0-5.6,2.4-5.6,5.4S79.1,92.1,82.2,92.1"/>
		</g>
		<g>
			<path fill="#B1B1B1" d="M51.9,53.3c1.8,0,3.2-1.5,3.2-3.2c0-1.8-1.5-3.2-3.2-3.2s-3.2,1.5-3.2,3.2C48.6,51.9,50.1,53.3,51.9,53.3
				"/>
		</g>
		<g>
			<path fill="#B1B1B1" d="M63.4,53.3c1.8,0,3.2-1.5,3.2-3.2c0-1.8-1.5-3.2-3.2-3.2c-1.8,0-3.2,1.5-3.2,3.2
				C60.1,51.9,61.6,53.3,63.4,53.3"/>
		</g>
		<g>
			<path fill="#B1B1B1" d="M75.4,53.3c1.8,0,3.2-1.5,3.2-3.2c0-1.8-1.5-3.2-3.2-3.2s-3.2,1.5-3.2,3.2C72.2,51.9,73.6,53.3,75.4,53.3
				"/>
		</g>
		<g>
			<path fill="#B1B1B1" d="M86.7,53.3c1.8,0,3.2-1.5,3.2-3.2c0-1.8-1.5-3.2-3.2-3.2s-3.2,1.5-3.2,3.2C83.4,51.9,84.9,53.3,86.7,53.3
				"/>
		</g>
		<g>
			<path fill="#B1B1B1" d="M54.6,62c1.8,0,3.2-1.5,3.2-3.2c0-1.8-1.5-3.2-3.2-3.2c-1.8,0-3.2,1.5-3.2,3.2C51.4,60.5,52.8,62,54.6,62
				"/>
		</g>
		<g>
			<path fill="#B1B1B1" d="M64.8,62c1.8,0,3.2-1.5,3.2-3.2c0-1.8-1.5-3.2-3.2-3.2s-3.2,1.5-3.2,3.2C61.6,60.5,63,62,64.8,62"/>
		</g>
		<g>
			<path fill="#B1B1B1" d="M74.7,62c1.8,0,3.2-1.5,3.2-3.2c0-1.8-1.5-3.2-3.2-3.2c-1.8,0-3.2,1.5-3.2,3.2C71.4,60.5,72.9,62,74.7,62
				"/>
		</g>
		<g>
			<path fill="#B1B1B1" d="M84.7,62c1.8,0,3.2-1.5,3.2-3.2c0-1.8-1.5-3.2-3.2-3.2c-1.8,0-3.2,1.5-3.2,3.2C81.4,60.5,82.9,62,84.7,62
				"/>
		</g>
		<g>
			<path fill="#B1B1B1" d="M56.8,70.6c1.8,0,3.2-1.5,3.2-3.2s-1.5-3.2-3.2-3.2c-1.8,0-3.2,1.5-3.2,3.2S55,70.6,56.8,70.6"/>
		</g>
		<g>
			<path fill="#B1B1B1" d="M65.5,70.6c1.8,0,3.2-1.5,3.2-3.2s-1.5-3.2-3.2-3.2c-1.8,0-3.2,1.5-3.2,3.2S63.7,70.6,65.5,70.6"/>
		</g>
		<g>
			<path fill="#B1B1B1" d="M74.1,70.6c1.8,0,3.2-1.5,3.2-3.2s-1.5-3.2-3.2-3.2s-3.2,1.5-3.2,3.2S72.3,70.6,74.1,70.6"/>
		</g>
		<g>
			<path fill="#B1B1B1" d="M82.8,70.6c1.8,0,3.2-1.5,3.2-3.2s-1.5-3.2-3.2-3.2s-3.2,1.5-3.2,3.2S81,70.6,82.8,70.6"/>
		</g>
	</g>
	<g>
		<polygon fill="#B1B1B1" points="29,35.9 29,40.4 37.5,42.9 49.2,78 91.8,78 99.2,47 95.1,47 88.5,74 52.2,74 41.3,39.8 		"/>
	</g>
</g>
</svg>
