<svg id="Ebene_1" data-name="Ebene 1" xmlns="http://www.w3.org/2000/svg" viewBox="0 0 128 128"><defs><style>.cls-1{fill:#fff;}.cls-2{fill:#b0b0b2;}.cls-3{fill:#b1b1b1;}</style></defs><title>1</title><path class="cls-1" d="M64,82A31.22,31.22,0,1,0,32.51,50.76,31.36,31.36,0,0,0,64,82"/><path class="cls-2" d="M64,81.63A30.87,30.87,0,1,0,32.88,50.76,31,31,0,0,0,64,81.63"/><polygon class="cls-1" points="46 59.25 57.11 50.76 46 42.27 46 48 37 48 37 53 46 53 46 59.25"/><polygon class="cls-1" points="62 57 66 57 66 66 72.32 66 63.76 77.02 55.2 66 62 66 62 57"/><polygon class="cls-1" points="81 53 90 53 90 48 81 48 81 42.27 69.89 50.76 81 59.25 81 53"/><polygon class="cls-1" points="72.32 35 66 35 66 45 62 45 62 35 55.2 35 63.76 23.98 72.32 35"/><path class="cls-3" d="M102.76,103.32c0-4.58-13.38-8.31-29.85-8.31a82.45,82.45,0,0,0-21.54,2.53c4.79-3,15.07-5.21,27-5.21,16.48,0,29.78,4,29.78,9,0,3-4.79,5.56-12.18,7.25,4.23-1.48,6.76-3.31,6.76-5.28h0Z"/><path class="cls-3" d="M26.65,102.75a2.47,2.47,0,0,0-1.76-.85,1.47,1.47,0,0,0-1.55,1.27c-0.28,2.18,3.59,2.25,3,5.84A4.43,4.43,0,0,1,22,113.1a3.79,3.79,0,0,1-2.18-.63l0.42-2.53a2.82,2.82,0,0,0,1.83.7,1.75,1.75,0,0,0,1.76-1.41c0.14-1-.56-1.41-1.27-1.9-1.34-1-2.11-2-1.76-3.94a4.12,4.12,0,0,1,4-3.8,3.79,3.79,0,0,1,2.18.63l-0.35,2.54h0Z"/><path class="cls-3" d="M30.59,106.34c0.21-1.2.84-4.37,2.53-4.37s1.34,3.17,1.2,4.37-0.85,4.37-2.53,4.37-1.34-3.31-1.2-4.37h0Zm3-6.76c-2.32,0-4.93,1.83-5.7,6.76s1.2,6.76,3.52,6.76,4.93-1.83,5.7-6.76-1.2-6.76-3.52-6.76h0Z"/><path class="cls-3" d="M42,99.79l2,7.89h0a10.32,10.32,0,0,1,.14-2L45,99.79h2.6l-2,13.1H43.12l-2-8-0.07.07L41,106.34l-0.07.49L40,112.89h-2.6l2-13.1H42Z"/><polygon class="cls-3" points="52.07 99.8 49.95 112.89 47.42 112.89 49.46 99.8 52.07 99.8"/><path class="cls-3" d="M60.09,102.26a2.4,2.4,0,0,0-1-.14c-2.25,0-3.59,2-3.94,4.08s0.35,4.37,2.61,4.37a6.3,6.3,0,0,0,1-.21l-0.35,2.46a4,4,0,0,1-1.27.21c-3.73,0-5.28-3.38-4.72-6.83,0.49-3.24,3.17-6.62,6.76-6.62a4.1,4.1,0,0,1,1.27.28l-0.35,2.39h0Z"/><path class="cls-3" d="M63.61,99.79l0.14,6.27c0,0.92-.07,1.83-0.14,2.75h0c0.28-.92.49-1.83,0.84-2.75l2.32-6.27h2l0.21,9h0.07a19.66,19.66,0,0,1,.7-2.75l2-6.27h2.75l-4.79,13.1H67.49L67.2,106c0.07-.84.07-1.62,0.07-2.46H67.2c-0.28.84-.49,1.62-0.77,2.46l-2.6,6.9H61.57L61,99.79h2.6Z"/><path class="cls-3" d="M77.77,108.6H75.93L77,105.15l0.63-2h0v2l0.14,3.45h0Zm-0.85-8.8-5.14,13.1h2.53l0.85-2.18h2.61l0.14,2.18h2.82L79.6,99.79H76.92Z"/><polygon class="cls-3" points="86.42 99.8 84.73 110.43 87.41 110.43 87.06 112.89 81.71 112.89 83.82 99.8 86.42 99.8"/><polygon class="cls-3" points="92.9 99.8 91.21 110.43 93.96 110.43 93.54 112.89 88.26 112.89 90.3 99.8 92.9 99.8"/></svg>