<?xml version="1.0" encoding="utf-8"?>
<!-- Generator: Adobe Illustrator 19.0.1, SVG Export Plug-In . SVG Version: 6.00 Build 0)  -->
<svg version="1.0" id="Ebene_1" xmlns="http://www.w3.org/2000/svg" xmlns:xlink="http://www.w3.org/1999/xlink" x="0px" y="0px"
	 viewBox="0 0 128 128" enable-background="new 0 0 128 128" xml:space="preserve">
<g>
	<g>
		<path fill="#B0B0B2" d="M64,102c19.8,0,35.8-17,35.8-38c0-21-16-38-35.8-38S28.2,43,28.2,64C28.2,85,44.2,102,64,102"/>
	</g>
	<g>
		<path fill="#FFFFFF" d="M82,82h9.9c0,0,2.1-4.1,3.2-7.8c1.2-4.1,1.4-8.2,1.4-8.2H84.2c0,0-0.2,4.9-0.7,8.8C83,78.7,81.9,82,82,82
			 M78.6,91.4c-1.2,2.5-3.7,5.6-3.7,5.6s4.6-1.7,8.3-4.6c3.2-2.5,6.2-6.4,6.2-6.4h-8.5C80.9,86,79.8,88.9,78.6,91.4 M77,86H66v12.5
			c0,0,3.6,0,7.3-5.4C76.1,89.1,77,86,77,86 M81,66H66v16h12.2c0,0,1.2-4.1,1.8-8.4c0.5-4.3,0.7-7.6,0.7-7.6 M78,46H66v16h14.7
			c0,0-0.2-3.3-0.7-7.6S78.2,46,78.2,46 M47,86h-8.4c0,0,3,3.8,6.2,6.4c3.7,2.9,8.3,4.6,8.3,4.6s-2.5-3.1-3.7-5.6
			c-1.2-2.5-2.3-5.4-2.3-5.4 M44,66H31.5c0,0,0.2,4.1,1.4,8.2c1.1,3.7,3.2,7.8,3.2,7.8h9.9c0,0-1.1-3.3-1.6-7.2
			c-0.5-3.9-0.7-8.8-0.7-8.8 M46,46h-9.9c0,0-2.1,4.1-3.2,7.8c-1.2,4.1-1.4,8.2-1.4,8.2h12.2c0,0,0.2-4.9,0.7-8.8S46.1,46,46,46
			 M49.4,36.6c1.2-2.5,3.7-5.6,3.7-5.6s-4.6,1.7-8.3,4.6c-3.2,2.5-6.2,6.4-6.2,6.4h8.5C47.1,42,48.2,39.1,49.4,36.6 M51,42h11V29.5
			c0,0-3.6,0-7.3,5.4C51.9,38.9,51,42,51,42 M47,62h15V46H49.8c0,0-1.2,4.1-1.8,8.4S47.3,62,47.3,62 M50,82h12V66H47.3
			c0,0,0.2,3.3,0.7,7.6c0.5,4.3,1.8,8.4,1.8,8.4 M62,99V86H51c0,0,0.8,3.1,3.6,7.1c3.7,5.4,7.3,5.4,7.3,5.4 M77,42
			c0,0-0.8-3.1-3.6-7.1c-3.7-5.4-7.3-5.4-7.3-5.4V42H77z M81,42h8.4c0,0-3-3.8-6.2-6.4c-3.7-2.9-8.3-4.6-8.3-4.6s2.5,3.1,3.7,5.6
			c1.2,2.5,2.3,5.4,2.3,5.4 M84,62h12.5c0,0-0.2-4.1-1.4-8.2c-1.1-3.7-3.2-7.8-3.2-7.8h-9.9c0,0,1.1,3.3,1.6,7.2s0.7,8.8,0.7,8.8"/>
	</g>
	<g>
		<path fill="#FFFFFF" d="M65.8,99H65V85h13.1l-0.3,1.1c0,0.1-1,3.1-3.8,7.2C70,99.1,66,99,65.8,99z M67,87v10.5
			c1-0.3,3.3-1.3,5.7-4.8c1.7-2.5,2.5-4.7,3-5.7H67z M63,99h-0.8C62,99,58,99.1,54,93.4c-2.8-4.1-3.8-7.2-3.8-7.3L49.9,85H63V99z
			 M52.3,87c0.5,1,1.3,3.2,3,5.7c2.3,3.4,4.7,4.4,5.7,4.8V87H52.3z M55.8,98.9l-3-1.1c-0.2-0.1-4.8-1.8-8.6-4.8
			c-3.2-2.6-6.2-6.4-6.4-6.6L36.8,85h10.9l0.2,0.6c0,0,1.1,2.9,2.3,5.4c1.2,2.4,3.6,5.4,3.6,5.5L55.8,98.9z M40.5,87
			c1.1,1,3,3.2,4.9,4.7c1.7,1.3,3.6,2.4,5.1,3.1c-0.7-1-1.4-2-1.9-3C47.7,90,46.9,88,46.5,87H40.5z M72.2,98.9l2-2.5
			c0,0,2.4-3.1,3.6-5.5l0.8,0.4L77.8,91c1.2-2.5,2.3-5.3,2.3-5.4l0.2-0.6h10.9l-1.1,1.4c-0.1,0.2-3.1,4-6.4,6.6
			c-3.8,3-8.4,4.7-8.6,4.8L72.2,98.9z M81.5,87c-0.4,1-1.2,2.9-2.1,4.8c-0.5,1-1.2,2.1-1.9,3c1.5-0.8,3.5-1.8,5.1-3.1
			c1.9-1.5,3.7-3.8,4.9-4.8H81.5z M92.4,83H80.8l0.3-1.1c0,0,1.1-3.4,1.6-7.2c0.5-3.8,0.7-8.8,0.7-8.9l0-0.9h14l0,0.9
			c0,0.2-0.2,4.4-1.5,8.6c-1.1,3.7-3.2,7.9-3.2,8L92.4,83z M83.1,81h8.2c0.6-1,2-4.2,2.9-7.1c0.9-2.8,1.2-5.9,1.3-6.9H85.1
			c-0.1,1-0.3,4.9-0.7,7.9C84,77.5,83.5,80,83.1,81z M78.9,83H65V65h16.6l0,1c0,0-0.2,3.6-0.7,7.8c-0.5,4.3-1.8,8.4-1.8,8.6L78.9,83
			z M67,81h10.5c0.4-1,1.2-4.3,1.6-7.5c0.4-2.9,0.6-5.5,0.6-6.5H67V81z M63,83H49.1L49,82.4c-0.1-0.2-1.3-4.4-1.8-8.6
			c-0.5-4.2-0.7-7.8-0.7-7.8l0-0.9H63V83z M50.5,81H61V67H48.2c0.1,1,0.3,3.6,0.6,6.5C49.3,76.7,50.1,80,50.5,81z M47.2,83H35.6
			l-0.2-0.4c-0.1-0.2-2.1-4.3-3.2-8.1c-1.3-4.1-1.4-8.4-1.5-8.6l0-0.9h14l0,0.9c0,0,0.2,5.1,0.7,8.8c0.5,3.8,1.6,7.2,1.6,7.2
			L47.2,83z M36.7,81h8.2c-0.4-1-1-3.5-1.3-6.1c-0.4-3-0.6-6.9-0.7-7.9H32.4c0.1,1,0.5,4.1,1.3,6.9C34.6,76.8,36.1,80,36.7,81z
			 M97.4,63h-14l0-0.9c0-0.1-0.2-5.1-0.7-8.9c-0.5-3.8-1.6-7.2-1.6-7.2L80.8,45h11.7l0.2,0.4c0.1,0.2,2.1,4.3,3.2,8.1
			c1.3,4.1,1.5,8.4,1.5,8.6L97.4,63z M85.1,61h10.5c-0.1-1-0.5-4.1-1.3-6.9c-0.9-2.9-2.3-6.1-2.9-7.1h-8.2c0.4,1,1,3.5,1.3,6.1
			C84.8,56.1,85,60,85.1,61z M81.6,63H65V45h13.9l0.2,0.6c0.1,0.2,1.3,4.4,1.8,8.6c0.5,4.2,0.7,7.8,0.7,7.8L81.6,63z M67,61h12.8
			c-0.1-1-0.3-3.6-0.6-6.5c-0.4-3.2-1.2-6.5-1.6-7.5H67V61z M63,63H46.4l0-1c0,0,0.2-3.6,0.7-7.8c0.5-4.3,1.8-8.4,1.8-8.6l0.2-0.6
			H63V63z M48.2,61H61V47H50.5c-0.4,1-1.2,4.3-1.6,7.5C48.5,57.4,48.3,60,48.2,61z M44.6,63h-14l0-0.9c0-0.2,0.2-4.4,1.5-8.6
			c1.1-3.7,3.2-7.9,3.2-8l0.2-0.4h11.7l-0.3,1.1c0,0-1.1,3.4-1.6,7.2c-0.5,3.8-0.7,8.8-0.7,8.9L44.6,63z M32.4,61h10.5
			c0.1-1,0.3-4.9,0.7-7.9c0.4-2.6,0.9-5.1,1.3-6.1h-8.2c-0.6,1-2,4.2-2.9,7.1C32.9,56.9,32.6,60,32.4,61z M91.2,43H80.3L80,42.4
			c0,0-1.1-2.9-2.3-5.4c-1.2-2.4-3.6-5.4-3.6-5.5l-2-2.5l3,1.1c0.2,0.1,4.8,1.8,8.6,4.8c3.2,2.6,6.2,6.4,6.4,6.6L91.2,43z M81.5,41
			h6.1c-1.1-1-3-3.2-4.9-4.7c-1.7-1.3-3.6-2.4-5.1-3.1c0.7,1,1.3,2,1.9,3C80.3,38,81.1,40,81.5,41z M78.1,43H65V29h0.8
			c0.2,0,4.2-0.1,8.2,5.6c2.8,4.1,3.8,7.2,3.8,7.3L78.1,43z M67,41h8.7c-0.5-1-1.3-3.2-3-5.7c-2.4-3.4-4.7-4.4-5.7-4.8V41z M63,43
			H49.9l0.3-1.1c0-0.1,1-3.1,3.8-7.2c3.9-5.7,8-5.6,8.2-5.6H63V43z M52.3,41H61V30.5c-1,0.3-3.3,1.3-5.7,4.8
			C53.6,37.8,52.8,40,52.3,41z M47.1,43H36.8l1.1-1.4c0.1-0.2,3.1-4,6.4-6.6c3.8-3,8.4-4.7,8.6-4.8l3-1.1l-2,2.5
			c0,0-2.4,3.1-3.6,5.5C49,39.5,48,42.4,48,42.4L47.7,43H47.1z M40.5,41h6.1c0.4-1,1.2-2.9,2.1-4.8l0,0c0.5-1,1.2-2.1,1.9-3
			c-1.5,0.8-3.5,1.8-5.1,3.1C43.5,37.7,41.6,40,40.5,41z"/>
	</g>
	<g>
		<path fill="#B0B0B2" d="M81.6,85.4c1.7-0.6,3.3-1.9,4.3-3.7c0.1-0.1,0.1-0.2,0.1-0.3c0.1-0.1,0.1-0.2,0.2-0.3l0.7-1.3
			c0.6-1,0.2-2.2-0.7-2.8l-1.6-0.9c0,0-0.1,0-0.1-0.1l-9.1-5.3c-1-0.6-2.2-0.2-2.8,0.8l-0.7,1.3c-0.1,0.1-0.1,0.3-0.2,0.4
			c0,0.1-0.1,0.1-0.1,0.2c-0.6,1-0.9,2-1,3c-3.8,1.2-9.3-0.8-13.7-5.3s-6.3-10-5.2-13.9c1-0.1,2-0.5,3-1c0.1,0,0.1-0.1,0.2-0.1
			c0.2,0,0.3-0.1,0.5-0.2l1.2-0.7c1-0.6,1.3-1.8,0.7-2.8l-6.2-10.9c-0.6-1-1.8-1.3-2.8-0.8L47,41.5c-0.1,0.1-0.2,0.1-0.3,0.2
			c-0.1,0-0.2,0.1-0.2,0.1c-1.8,1-3,2.6-3.7,4.5C38.1,53,41.9,65.9,52,76.1C62.2,86.4,75,90.3,81.6,85.4"/>
	</g>
</g>
</svg>
