<?xml version="1.0" encoding="utf-8"?>
<!-- Generator: Adobe Illustrator 19.0.1, SVG Export Plug-In . SVG Version: 6.00 Build 0)  -->
<svg version="1.0" id="Ebene_1" xmlns="http://www.w3.org/2000/svg" xmlns:xlink="http://www.w3.org/1999/xlink" x="0px" y="0px"
	 viewBox="0 0 128 128" enable-background="new 0 0 128 128" xml:space="preserve">
<g>
	<g>
		<path fill="#B0B0B2" d="M89.5,95c2.5-0.9,4.8-2.8,6.2-5.3c0.1-0.1,0.1-0.3,0.2-0.4c0.1-0.1,0.2-0.3,0.3-0.4l1-1.8
			c0.8-1.4,0.3-3.3-1.1-4.1l-2.3-1.4c-0.1,0-0.1-0.1-0.1-0.1l-13.2-7.7c-1.4-0.8-3.2-0.3-4,1.1l-1,1.8c-0.1,0.2-0.2,0.4-0.3,0.6
			c-0.1,0.1-0.1,0.2-0.2,0.3c-0.8,1.4-1.3,2.9-1.5,4.4c-5.5,1.7-13.5-1.2-19.9-7.6c-6.4-6.4-9.2-14.5-7.5-20.1
			c1.5-0.2,2.9-0.7,4.3-1.5c0.1,0,0.1-0.1,0.2-0.1c0.2-0.1,0.5-0.2,0.7-0.3l1.8-1c1.4-0.8,1.9-2.6,1.1-4.1l-9-15.9
			c-0.8-1.4-2.6-1.9-4-1.1l-1.8,1c-0.2,0.1-0.3,0.2-0.4,0.3c-0.1,0.1-0.2,0.1-0.3,0.2c-2.6,1.5-4.4,3.8-5.3,6.5
			C26.4,48,32,66.7,46.6,81.6C61.4,96.5,80,102.2,89.5,95"/>
	</g>
</g>
</svg>
