<?xml version="1.0" encoding="utf-8"?>
<!-- Generator: Adobe Illustrator 19.0.1, SVG Export Plug-In . SVG Version: 6.00 Build 0)  -->
<svg version="1.0" id="Ebene_1" xmlns="http://www.w3.org/2000/svg" xmlns:xlink="http://www.w3.org/1999/xlink" x="0px" y="0px"
	 viewBox="0 0 128 128" enable-background="new 0 0 128 128" xml:space="preserve">
<g>
	<g>
		<g>
			<g>
				<path fill="#E3E3E3" d="M39.2,95.7c0,0.1,0.1,0.2,0.2,0.2h49.1c0.1,0,0.2-0.1,0.2-0.2V36.3c0-0.1-0.1-0.2-0.2-0.2H39.4
					c-0.1,0-0.2,0.1-0.2,0.2V95.7z"/>
			</g>
			<g>
				<defs>
					<filter id="Adobe_OpacityMaskFilter" filterUnits="userSpaceOnUse" x="44" y="40.4" width="39.9" height="51.2">
						<feColorMatrix  type="matrix" values="1 0 0 0 0  0 1 0 0 0  0 0 1 0 0  0 0 0 1 0"/>
					</filter>
				</defs>
				<mask maskUnits="userSpaceOnUse" x="44" y="40.4" width="39.9" height="51.2" id="SVGID_2_">
					<g filter="url(#Adobe_OpacityMaskFilter)">
						<polygon fill="#FFFFFF" points="84,79.3 84,40.4 44,40.4 44,79.3 56.2,79.3 56.2,91.6 71.8,91.6 71.8,79.3 						"/>
					</g>
				</mask>
				<g mask="url(#SVGID_2_)">
					<g>
						<g>
							<path fill="#A7A9AC" d="M83.7,79.3c0.1,0,0.2-0.1,0.2-0.2V40.6c0-0.1-0.1-0.2-0.2-0.2H44.3c-0.1,0-0.2,0.1-0.2,0.2v38.5
								c0,0.1,0.1,0.2,0.2,0.2h11.7c0.1,0,0.2,0.1,0.2,0.2v11.8c0,0.1,0.1,0.2,0.2,0.2h15.2c0.1,0,0.2-0.1,0.2-0.2V79.6
								c0-0.1,0.1-0.2,0.2-0.2H83.7z"/>
						</g>
					</g>
				</g>
			</g>
		</g>
	</g>
</g>
</svg>
