<?xml version="1.0" encoding="utf-8"?>
<!-- Generator: Adobe Illustrator 19.0.1, SVG Export Plug-In . SVG Version: 6.00 Build 0)  -->
<svg version="1.0" id="Ebene_1" xmlns="http://www.w3.org/2000/svg" xmlns:xlink="http://www.w3.org/1999/xlink" x="0px" y="0px"
	 viewBox="0 0 128 128" enable-background="new 0 0 128 128" xml:space="preserve">
<g>
	<g>
		<defs>
			<rect id="SVGID_31_" x="13" y="27" width="102" height="75"/>
		</defs>
		<clipPath id="SVGID_2_">
			<use xlink:href="#SVGID_31_"  overflow="visible"/>
		</clipPath>
		<g clip-path="url(#SVGID_2_)">
			<path fill="#FFFFFF" d="M112,27H16.3c-1.6,0-3.3,1.5-3.3,3.1v67.8c0,1.6,1.8,3.1,3.3,3.1h95.3c1.5,0,2.3-1.5,2.3-3.1V30.1
				c0-1.5-0.8-3.1-2.3-3.1"/>
		</g>
		<g clip-path="url(#SVGID_2_)">
			<path fill="#B0B0B2" d="M116,98.4c0,2-1.6,3.6-3.6,3.6H16.6c-2,0-3.6-1.6-3.6-3.6V30.6c0-2,1.6-3.6,3.6-3.6h95.8
				c2,0,3.6,1.6,3.6,3.6V98.4z M114,30.1c0-1.1-0.9-2.1-2.1-2.1H16.1c-1.1,0-2.1,0.9-2.1,2.1v67.8c0,1.1,0.9,2.1,2.1,2.1h95.8
				c1.1,0,2.1-0.9,2.1-2.1V30.1z"/>
		</g>
		<g clip-path="url(#SVGID_2_)">
			<path fill="#B0B0B2" d="M111.7,102H16.3c-2,0-3.3-2.1-3.3-4.1V41h102v56.9C115,99.9,113.6,102,111.7,102z M14,42v55.9
				c0,1.1,1.2,2.1,2.3,2.1h95.3c1.1,0,2.3-1,2.3-2.1V42H14z"/>
		</g>
		<g clip-path="url(#SVGID_2_)">
			<path fill="#B0B0B2" d="M106.2,38.4c-2.2,0-4-1.8-4-4s1.8-4,4-4c2.2,0,4,1.8,4,4S108.4,38.4,106.2,38.4 M98,38H17v-8h81V38z
				 M112,27H16.3c-1.6,0-3.3,1.5-3.3,3.1V41h101V30.1c0-1.5-0.8-3.1-2.3-3.1"/>
		</g>
		<g clip-path="url(#SVGID_2_)">
			<path fill="#B0B0B2" d="M115,42H13V30.1c0-2,1.4-3.1,3.3-3.1h95.3c2,0,3.3,1.1,3.3,3.1V42z M14,41h100V30.1
				c0-1.1-1.2-2.1-2.3-2.1H16.3c-1.1,0-2.3,1-2.3,2.1V41z M106.2,39.2c-2.6,0-4.8-2.1-4.8-4.8s2.1-4.8,4.8-4.8s4.8,2.1,4.8,4.8
				S108.8,39.2,106.2,39.2z M106.2,31.2c-1.8,0-3.2,1.5-3.2,3.2s1.5,3.2,3.2,3.2s3.2-1.5,3.2-3.2S108,31.2,106.2,31.2z M99,39H16v-9
				h83V39z M17,38h81v-7H17V38z"/>
		</g>
	</g>
	<g>
		<rect x="17" y="57" fill="#F6F7F8" width="94" height="3"/>
	</g>
	<g>
		<rect x="17" y="63" fill="#F6F7F8" width="63" height="32"/>
	</g>
	<g>
		<rect x="83" y="63" fill="#F6F7F8" width="28" height="32"/>
	</g>
	<g>
		<g>
			<path fill="#B1B1B1" d="M49.8,54h-1.2l-1.3-4.3L46,54h-1.2L43,47h1.4l1.1,4.5l1.3-4.5h1l1.3,4.5l1.1-4.5h1.4L49.8,54z"/>
		</g>
		<g>
			<path fill="#B1B1B1" d="M53,54v-7h4v1h-3v2h3v1h-3v2h3v1H53z"/>
		</g>
		<g>
			<path fill="#B1B1B1" d="M61.6,54H59v-7h2.5c1.4,0,2.2,0.8,2.2,2c0,0.8-0.5,1.3-0.9,1.5c0.4,0.2,1,0.6,1,1.5
				C63.8,53.3,62.9,54,61.6,54z M61.4,48H60v2h1.4c0.6,0,0.9-0.5,0.9-1C62.3,48.5,62,48,61.4,48z M61.5,51H60v2h1.5
				c0.6,0,0.9-0.5,0.9-1C62.4,51.5,62.1,51,61.5,51z"/>
		</g>
		<g>
			<path fill="#B1B1B1" d="M67.2,54.2c-1.1,0-1.9-0.2-2.6-0.9l0.9-0.9c0.4,0.5,1.1,0.6,1.7,0.6c0.8,0,1.3-0.3,1.3-0.9
				c0-0.2-0.1-0.4-0.2-0.6c-0.1-0.1-0.3-0.2-0.6-0.2l-0.8-0.1c-0.6-0.1-1.1-0.3-1.4-0.6c-0.3-0.3-0.5-0.8-0.5-1.4
				c0-1.3,0.9-2.2,2.5-2.2c1,0,1.7,0.2,2.3,0.8l-0.9,0.9c-0.4-0.4-1-0.5-1.5-0.5c-0.7,0-1.1,0.4-1.1,0.9c0,0.2,0.1,0.4,0.2,0.5
				c0.1,0.1,0.3,0.2,0.6,0.3l0.8,0.1c0.6,0.1,1,0.3,1.4,0.6c0.4,0.3,0.5,0.9,0.5,1.5C69.8,53.4,68.7,54.2,67.2,54.2z"/>
		</g>
		<g>
			<path fill="#B1B1B1" d="M71,54v-7h2v7H71z"/>
		</g>
		<g>
			<path fill="#B1B1B1" d="M77,48v6h-2v-6h-1v-1h5v1H77z"/>
		</g>
		<g>
			<path fill="#B1B1B1" d="M80,54v-7h5v1h-4v2h3v1h-3v2h4v1H80z"/>
		</g>
	</g>
</g>
</svg>
