<?xml version="1.0" encoding="utf-8"?>
<!-- Generator: Adobe Illustrator 15.0.2, SVG Export Plug-In . SVG Version: 6.00 Build 0)  -->
<!DOCTYPE svg PUBLIC "-//W3C//DTD SVG 1.1//EN" "http://www.w3.org/Graphics/SVG/1.1/DTD/svg11.dtd">
<svg version="1.1" id="Layer_1" xmlns="http://www.w3.org/2000/svg" xmlns:xlink="http://www.w3.org/1999/xlink" x="0px" y="0px"
	 width="14px" height="14px" viewBox="0 0 14 14" enable-background="new 0 0 14 14" xml:space="preserve">
<g>
	<defs>
		<rect id="SVGID_1_" width="14" height="14"/>
	</defs>
	<clipPath id="SVGID_2_">
		<use xlink:href="#SVGID_1_"  overflow="visible"/>
	</clipPath>
</g>
<g>
	<defs>
		<rect id="SVGID_3_" x="2" y="2" width="10" height="10"/>
	</defs>
	<clipPath id="SVGID_4_">
		<use xlink:href="#SVGID_3_"  overflow="visible"/>
	</clipPath>
</g>
<g>
	<defs>
		<rect id="SVGID_5_" x="2" y="2" width="10" height="10"/>
	</defs>
	<clipPath id="SVGID_6_">
		<use xlink:href="#SVGID_5_"  overflow="visible"/>
	</clipPath>
	<path clip-path="url(#SVGID_6_)" fill="#00245D" d="M10.978,9.24c0,0-0.483,0.272-1.444,0.429S7.575,9.953,6.961,9.958
		C6.347,9.964,5.383,9.819,5.019,9.763C4.656,9.708,3.892,9.574,3.522,9.446C3.153,9.318,3.019,9.237,3.019,9.237
		s0.159-0.248,0.475-0.485c0.317-0.237,0.434-0.298,0.595-0.465C4.25,8.12,4.28,8.068,4.442,7.735C4.6,7.41,4.6,7.451,4.797,6.741
		c0.197-0.71,0.178-0.621,0.247-0.934c0.07-0.312,0.114-0.531,0.17-0.905c0.055-0.374,0.089-0.811,0.128-0.97
		C5.381,3.774,5.55,3.465,5.756,3.334c0.205-0.131,0.638-0.376,1.227-0.381c0.589-0.006,1.139,0.276,1.359,0.459
		c0.219,0.184,0.316,0.424,0.361,0.811C8.747,4.61,8.786,5.017,8.875,5.437c0.089,0.421,0.244,1.076,0.406,1.569
		c0.161,0.493,0.352,0.902,0.436,1.047C9.8,8.198,9.956,8.343,10.183,8.51c0.229,0.167,0.51,0.39,0.614,0.501
		C10.903,9.123,10.978,9.24,10.978,9.24 M12,9.264c0-0.316-0.147-0.547-0.381-0.842c-0.233-0.294-1.025-0.861-1.025-0.861
		s-0.399-0.782-0.616-1.766C9.885,5.373,9.756,4.686,9.714,4.342C9.672,3.997,9.678,3.881,9.589,3.575
		C9.5,3.27,9.208,2.797,8.825,2.533C8.441,2.27,7.95,2,6.994,2C6.039,2,5.511,2.272,5.067,2.617c-0.445,0.344-0.645,0.889-0.698,1.1
		c-0.052,0.211-0.097,0.705-0.152,1.1C4.161,5.211,4.069,5.586,4.029,5.758c-0.04,0.173-0.223,0.82-0.362,1.224
		C3.528,7.386,3.399,7.563,3.399,7.563s-0.188,0.14-0.61,0.47C2.367,8.364,2.2,8.646,2.089,8.855
		C1.978,9.063,1.953,9.478,2.158,9.774c0.206,0.298,0.486,0.411,1.131,0.64c0.644,0.228,2.361,0.431,2.361,0.431S5.803,12,6.939,12
		c1.136,0,1.292-1.147,1.292-1.147s0.233-0.021,0.764-0.092c0.531-0.068,1.298-0.205,2.048-0.45C11.792,10.067,12,9.581,12,9.264"/>
</g>
<polygon fill="#00245D" points="11.028,2 10.172,2.522 11.153,4.1 12,3.572 "/>
<polygon fill="#00245D" points="2.978,2 3.822,2.522 2.85,4.1 2,3.572 "/>
</svg>
