<?xml version="1.0" encoding="utf-8"?>
<!-- Generator: Adobe Illustrator 15.0.2, SVG Export Plug-In . SVG Version: 6.00 Build 0)  -->
<!DOCTYPE svg PUBLIC "-//W3C//DTD SVG 1.1//EN" "http://www.w3.org/Graphics/SVG/1.1/DTD/svg11.dtd">
<svg version="1.1" id="Layer_1" xmlns="http://www.w3.org/2000/svg" xmlns:xlink="http://www.w3.org/1999/xlink" x="0px" y="0px"
	 width="14px" height="14px" viewBox="0 0 14 14" enable-background="new 0 0 14 14" xml:space="preserve">
<g>
	<defs>
		<rect id="SVGID_1_" width="14" height="14"/>
	</defs>
	<clipPath id="SVGID_2_">
		<use xlink:href="#SVGID_1_"  overflow="visible"/>
	</clipPath>
</g>
<g>
	<defs>
		<rect id="SVGID_3_" x="2" y="2" width="10" height="10"/>
	</defs>
	<clipPath id="SVGID_4_">
		<use xlink:href="#SVGID_3_"  overflow="visible"/>
	</clipPath>
</g>
<g>
	<defs>
		<rect id="SVGID_5_" x="2" y="2" width="10" height="10"/>
	</defs>
	<clipPath id="SVGID_6_">
		<use xlink:href="#SVGID_5_"  overflow="visible"/>
	</clipPath>
	<path clip-path="url(#SVGID_6_)" fill="#00245D" d="M11,3.583v6.934c0,0.13,0.008,0.271-0.05,0.36
		c-0.045,0.068-0.128,0.095-0.197,0.107C10.683,11,10.576,11,10.479,11H3.447c-0.126,0-0.265-0.011-0.344-0.068
		C3.051,10.895,3.004,10.82,3,10.677c-0.002-0.064-0.001-3.468-0.001-3.468L7.208,3h3.295c0.151,0,0.387-0.023,0.461,0.167
		C11.008,3.281,11,3.47,11,3.583 M12,10.741V3.335c0,0,0.011-1.252-1.275-1.336H6.794L2,6.795v3.779C2,11.336,2.443,11.967,3.264,12
		h7.33C10.724,12,11.907,12,12,10.741"/>
</g>
</svg>
