<?xml version="1.0" encoding="utf-8"?>
<!-- Generator: Adobe Illustrator 15.0.2, SVG Export Plug-In . SVG Version: 6.00 Build 0)  -->
<!DOCTYPE svg PUBLIC "-//W3C//DTD SVG 1.1//EN" "http://www.w3.org/Graphics/SVG/1.1/DTD/svg11.dtd">
<svg version="1.1" id="Layer_1" xmlns="http://www.w3.org/2000/svg" xmlns:xlink="http://www.w3.org/1999/xlink" x="0px" y="0px"
	 width="14px" height="14px" viewBox="0 0 14 14" enable-background="new 0 0 14 14" xml:space="preserve">
<g>
	<defs>
		<rect id="SVGID_1_" width="14" height="14"/>
	</defs>
	<clipPath id="SVGID_2_">
		<use xlink:href="#SVGID_1_"  overflow="visible"/>
	</clipPath>
</g>
<g>
	<defs>
		<rect id="SVGID_3_" x="2" y="2" width="10" height="10"/>
	</defs>
	<clipPath id="SVGID_4_">
		<use xlink:href="#SVGID_3_"  overflow="visible"/>
	</clipPath>
	<path clip-path="url(#SVGID_4_)" fill="#00245D" d="M10.611,6.791c-0.223,0.006-1.326-0.004-1.458-0.004S8.542,6.832,8.545,7.28
		c0.003,0.372,0.354,0.49,0.354,0.49s0.045,0.031,0.039,0.128S8.927,8.047,8.792,8.145C8.656,8.242,8.352,8.343,8.26,8.457
		C8.17,8.571,8.09,8.745,8.135,8.93c0.047,0.184,0.139,0.226,0.191,0.273c0.053,0.049,0.188,0.163,0.076,0.348
		c-0.11,0.184-0.346,0.351-0.409,0.466C7.931,10.13,7.899,10.29,7.958,10.43c0.06,0.139,0.164,0.231,0.11,0.337
		c-0.051,0.104-0.158,0.187-0.314,0.211c-0.157,0.024-0.619,0.027-0.844,0.027c-0.226,0-2.83,0-3.028-0.007
		c-0.198-0.007-0.497-0.027-0.646-0.173S3.004,10.54,3.004,9.978s-0.007-3.434,0-3.634c0.006-0.202,0.055-0.47,0.288-0.608
		c0.232-0.139,0.712-0.42,1.146-0.805c0.434-0.386,0.84-0.75,1.118-1.208c0.277-0.459,0.437-0.726,0.437-0.726
		s0.16,0.361-0.007,0.993C5.82,4.621,5.469,5,5.292,5.166C5.115,5.332,4.681,5.537,4.865,5.961C5.049,6.385,5.576,6.267,5.99,6.267
		c0.413,0,3.847-0.007,4.184-0.003C10.51,6.267,10.965,6.245,11,6.479C11.035,6.711,10.833,6.784,10.611,6.791 M12,6.61
		c0-0.614-0.271-0.889-0.538-1.09c-0.268-0.201-0.684-0.243-0.815-0.254c-0.133-0.011-4.149,0-4.149,0s0.118-0.163,0.208-0.35
		c0.09-0.188,0.233-0.49,0.299-0.931c0.065-0.44,0.114-0.815-0.07-1.326C6.75,2.149,6.295,2,5.931,2C5.566,2,5.219,2.309,5.052,2.6
		c-0.167,0.292-0.26,0.469-0.614,0.938C4.083,4.006,3.431,4.458,2.972,4.76C2.514,5.062,2.399,5.152,2.195,5.503
		C1.99,5.854,2,6.443,2,6.672v3.149c0,0.247,0,0.615,0.097,1.042c0.098,0.427,0.466,0.708,0.764,0.895
		c0.299,0.188,0.788,0.24,0.979,0.24h3.014c0.229,0,0.886,0.021,1.248-0.08C8.623,11.772,8.833,11.437,9,11.116
		c0.167-0.319,0.038-0.746,0.038-0.746s0.315-0.315,0.396-0.754C9.497,9.271,9.361,8.96,9.361,8.96S9.7,8.727,9.84,8.405
		c0.104-0.24,0.087-0.622,0.087-0.622s0.74,0.007,0.868-0.007c0.129-0.013,0.247-0.048,0.477-0.131C11.5,7.562,12,7.225,12,6.61"/>
</g>
</svg>
