 <svg id="loadcircle" xmlns="http://www.w3.org/2000/svg" viewBox="0 0 500.01 500.01"><title>Element 1</title><g id="Ebene_2" data-name="Ebene 2"><g id="Ebene_1-2" data-name="Ebene 1">
	<path fill="#b0d0ef" d="M250,497.74c136.82,0,247.73-110.91,247.73-247.73S386.82,2.28,250,2.28,2.27,113.19,2.27,250,113.18,497.74,250,497.74"/>
	<circle fill="none" stroke:"#c7c6c6" stroke-width:"4.67px" cx="250" cy="250.01" r="247.67"/></g></g>
	<path id="M1" fill="#fff" d="M235.3,387.33a14.25,14.25,0,0,1,14.25-14.25h0a14.25,14.25,0,0,1,14.25,14.25h0a14.26,14.26,0,0,1-14.25,14.25h0A14.26,14.26,0,0,1,235.3,387.33Z"/>
	<path id="M2" fill="#fff" d="M191.54,390.08a14.25,14.25,0,0,1-7.72-18.61h0a14.24,14.24,0,0,1,18.6-7.72h0a14.25,14.25,0,0,1,7.72,18.61h0a14.25,14.25,0,0,1-13.17,8.8h0A14.31,14.31,0,0,1,191.54,390.08Z"/>
	<path id="M3" fill="#fff" d="M288.94,382.34a14.25,14.25,0,0,1,7.72-18.61h0a14.25,14.25,0,0,1,18.62,7.71h0a14.26,14.26,0,0,1-7.72,18.62h0a14.17,14.17,0,0,1-5.44,1.09h0A14.27,14.27,0,0,1,288.94,382.34Z"/>
	<path id="M4" fill="#fff" d="M371,315.74a14.25,14.25,0,0,1-7.72-18.61h0a14.25,14.25,0,0,1,18.61-7.72h0A14.24,14.24,0,0,1,389.61,308h0a14.27,14.27,0,0,1-13.18,8.81h0A14.17,14.17,0,0,1,371,315.74Z"/>
	<path id="M5" fill="#fff" d="M372.62,250a14.25,14.25,0,0,1,14.25-14.25h0A14.25,14.25,0,0,1,401.12,250h0a14.25,14.25,0,0,1-14.25,14.25h0A14.25,14.25,0,0,1,372.62,250Z"/>
	<path id="M6" fill="#fff" d="M363.28,202.9h0A14.25,14.25,0,0,1,371,184.28h0A14.26,14.26,0,0,1,389.62,192h0a14.25,14.25,0,0,1-7.71,18.62h0a14.39,14.39,0,0,1-5.45,1.08h0A14.25,14.25,0,0,1,363.28,202.9Z"/>
	<path id="M7" fill="#fff" d="M296.67,136.28a14.24,14.24,0,0,1-7.73-18.6v0h0A14.25,14.25,0,0,1,307.56,110h0a14.25,14.25,0,0,1,7.72,18.61h0a14.26,14.26,0,0,1-13.17,8.81h0A14.12,14.12,0,0,1,296.67,136.28Z"/>
	<path id="M8" fill="#fff" d="M183.82,128.55a14.26,14.26,0,0,1,7.71-18.62h0a14.25,14.25,0,0,1,18.62,7.71h0a14.25,14.25,0,0,1-7.71,18.62h0a14.17,14.17,0,0,1-5.45,1.09h0A14.26,14.26,0,0,1,183.82,128.55Z"/>
	<path id="M9" fill="#fff" d="M249.52,127a14.24,14.24,0,0,1-14.22-14.26v0h0a14.25,14.25,0,0,1,14.27-14.22h0a14.27,14.27,0,0,1,14.23,14.28h0A14.25,14.25,0,0,1,249.55,127h0Z"/>
	<path id="M10" fill="#fff" d="M109.5,308h0a14.24,14.24,0,0,1,7.72-18.6h0a14.24,14.24,0,0,1,18.6,7.71v0h0a14.25,14.25,0,0,1-7.74,18.61h0a14.3,14.3,0,0,1-5.43,1.08h0A14.23,14.23,0,0,1,109.5,308Z"/>
	<path id="M11" fill="#fff" d="M98,250a14.27,14.27,0,0,1,14.21-14.3h0A14.25,14.25,0,0,1,126.48,250v0h0a14.24,14.24,0,0,1-14.19,14.29h-.06A14.25,14.25,0,0,1,98,250Z"/>
	<path id="M12" fill="#fff" d="M117.2,210.61a14.24,14.24,0,0,1-7.72-18.6v0h0a14.24,14.24,0,0,1,18.6-7.73h0a14.25,14.25,0,0,1,7.72,18.61h0a14.24,14.24,0,0,1-13.17,8.81h0A14.2,14.2,0,0,1,117.2,210.61Z"/>
	<path id="M13" fill="#fff" d="M152.45,361.36a9.38,9.38,0,0,1-1.4-.07c-.46-.07-.93-.12-1.38-.21s-.91-.21-1.36-.34-.88-.3-1.31-.47a12.09,12.09,0,0,1-1.26-.6c-.41-.22-.81-.46-1.2-.71a13.1,13.1,0,0,1-1.12-.84,10.45,10.45,0,0,1-1-.94c-.33-.33-.65-.68-.95-1a8.79,8.79,0,0,1-.83-1.12c-.26-.39-.49-.79-.71-1.2s-.42-.83-.6-1.26-.33-.87-.47-1.31a12.29,12.29,0,0,1-.34-1.36q-.13-.69-.21-1.38a13.29,13.29,0,0,1-.07-1.4,13,13,0,0,1,.07-1.4c.05-.47.12-.93.21-1.39s.21-.91.34-1.35.3-.88.47-1.31a12.09,12.09,0,0,1,.6-1.26c.22-.41.46-.82.71-1.2s.54-.77.83-1.13a8.23,8.23,0,0,1,.95-1,11.81,11.81,0,0,1,1-.94c.36-.29.73-.57,1.12-.83s.79-.5,1.2-.72.83-.41,1.26-.59a14,14,0,0,1,2.67-.81,10.78,10.78,0,0,1,1.38-.21,13.15,13.15,0,0,1,2.8,0,11.2,11.2,0,0,1,1.39.21,14.14,14.14,0,0,1,2.66.81c.43.18.85.38,1.26.59a13.16,13.16,0,0,1,1.2.72c.39.26.77.54,1.13.83a8.15,8.15,0,0,1,1,.94c.29.33.64.68.94,1a8.9,8.9,0,0,1,.83,1.13,11.13,11.13,0,0,1,.71,1.2,13.65,13.65,0,0,1,.6,1.26A12.87,12.87,0,0,1,166,343a14.5,14.5,0,0,1,.55,2.74,12.92,12.92,0,0,1,.07,1.4,13.17,13.17,0,0,1-.07,1.4,12.58,12.58,0,0,1-.21,1.38,14,14,0,0,1-.81,2.67,13.65,13.65,0,0,1-.6,1.26,12.27,12.27,0,0,1-.71,1.2c-.26.39-.54.76-.83,1.12a8.16,8.16,0,0,1-.94,1,14.65,14.65,0,0,1-2.13,1.81c-.38.25-.79.49-1.2.71s-.83.42-1.26.6-.87.33-1.31.47a12.68,12.68,0,0,1-1.35.34c-.45.09-.93.16-1.39.21A13,13,0,0,1,152.45,361.36Z"/>
	<path id="M14" fill="#fff" d="M152.45,167.16a13,13,0,0,1-1.4-.07,10.69,10.69,0,0,1-1.38-.21,14,14,0,0,1-2.67-.81q-.64-.27-1.26-.6a12.13,12.13,0,0,1-1.2-.71,15.07,15.07,0,0,1-2.18-1.77c-.32-.33-.64-.68-.94-1a8.9,8.9,0,0,1-.83-1.13c-.26-.39-.49-.79-.71-1.2s-.42-.83-.6-1.26-.33-.87-.47-1.31a12.69,12.69,0,0,1-.34-1.35c-.09-.45-.16-.93-.21-1.39a13,13,0,0,1-.07-1.4,9.38,9.38,0,0,1,.07-1.4c.07-.47.12-.93.21-1.38s.21-.91.34-1.36.3-.88.47-1.31a12.09,12.09,0,0,1,.6-1.26c.22-.41.46-.81.71-1.2a13,13,0,0,1,.83-1.12,14.27,14.27,0,0,1,3.11-2.82c.39-.25.79-.49,1.2-.71s.83-.42,1.26-.6.87-.33,1.31-.47a12.28,12.28,0,0,1,1.36-.34q.69-.13,1.38-.21a14.58,14.58,0,0,1,2.8,0,7.42,7.42,0,0,1,1.39.21c.46.09.91.21,1.35.34s.88.3,1.31.47a12.09,12.09,0,0,1,1.26.6c.41.22.82.46,1.2.71s.77.54,1.13.83a8.22,8.22,0,0,1,1,1,11.81,11.81,0,0,1,.94,1c.29.36.57.73.83,1.12a12.28,12.28,0,0,1,.71,1.2q.33.62.6,1.26a14.06,14.06,0,0,1,.81,2.67c.09.45.16.92.21,1.38a13.18,13.18,0,0,1,.07,1.4,12.92,12.92,0,0,1-.07,1.4,7.42,7.42,0,0,1-.21,1.39A13.22,13.22,0,0,1,166,157a12.83,12.83,0,0,1-.47,1.31,13.65,13.65,0,0,1-.6,1.26,11.17,11.17,0,0,1-.71,1.2c-.26.39-.54.77-.83,1.13a8.16,8.16,0,0,1-.94,1c-.33.29-.68.64-1,.94a8.9,8.9,0,0,1-1.13.83,11.1,11.1,0,0,1-1.2.71q-.62.33-1.26.6a14.19,14.19,0,0,1-2.66.81,11.11,11.11,0,0,1-1.39.21A12.92,12.92,0,0,1,152.45,167.16Z"/>
	<path id="M15" fill="#fff" d="M346.65,361.36a9.31,9.31,0,0,1-1.4-.07c-.46-.07-.93-.12-1.39-.21s-.91-.21-1.35-.34-.88-.3-1.31-.47a12.09,12.09,0,0,1-1.26-.6c-.41-.22-.82-.46-1.2-.71a14.65,14.65,0,0,1-2.17-1.78c-.33-.33-.64-.68-.94-1a8.79,8.79,0,0,1-.83-1.12,12.17,12.17,0,0,1-.71-1.2q-.33-.62-.6-1.26a14,14,0,0,1-.81-2.67c-.09-.45-.16-.92-.21-1.38a13.18,13.18,0,0,1-.07-1.4,12.92,12.92,0,0,1,.07-1.4,7.3,7.3,0,0,1,.21-1.39,14.18,14.18,0,0,1,.81-2.66,13.65,13.65,0,0,1,.6-1.26,11,11,0,0,1,.71-1.2c.26-.39.54-.77.83-1.13a8.15,8.15,0,0,1,.94-1c.33-.29.68-.64,1-.94a8.9,8.9,0,0,1,1.13-.83,13.09,13.09,0,0,1,1.2-.72c.41-.21.83-.41,1.26-.59a12.89,12.89,0,0,1,1.31-.47,12.69,12.69,0,0,1,1.35-.34,11.2,11.2,0,0,1,1.39-.21,13.15,13.15,0,0,1,2.8,0,10.77,10.77,0,0,1,1.38.21,13.94,13.94,0,0,1,2.67.81c.43.18.85.38,1.26.59a12.29,12.29,0,0,1,1.2.72c.39.26.76.54,1.12.83a11.74,11.74,0,0,1,1,.94c.33.33.65.68,1,1a5.77,5.77,0,0,1,.83,1.13c.26.39.49.79.71,1.2s.42.83.6,1.26.33.87.47,1.31a12.69,12.69,0,0,1,.34,1.35c.09.45.16.92.21,1.39a13.13,13.13,0,0,1,.07,1.4,9.38,9.38,0,0,1-.07,1.4c-.07.47-.12.93-.21,1.38s-.21.91-.34,1.36-.3.88-.47,1.31a12.09,12.09,0,0,1-.6,1.26c-.22.41-.46.81-.71,1.2a13,13,0,0,1-.83,1.12,5.91,5.91,0,0,1-1,1,10.4,10.4,0,0,1-1,.94,13.18,13.18,0,0,1-1.12.84c-.39.25-.79.49-1.2.71s-.83.42-1.26.6-.87.33-1.31.47a12.29,12.29,0,0,1-1.36.34q-.69.14-1.38.21A12.38,12.38,0,0,1,346.65,361.36Z"/>
	<path id="M16" fill="#fff" d="M336.58,163a14.25,14.25,0,1,0,0-20.15h0a14.25,14.25,0,0,0,0,20.15"/>
	<path class="s1" fill="#fff" d="M178.87,245.34A5.37,5.37,0,0,1,175,243.8c-1.48-1.48-1.56-2.84-1.56-6.43s.09-5,1.56-6.43a5.38,5.38,0,0,1,3.92-1.54,5.31,5.31,0,0,1,5.44,4.67h-1.72a3.68,3.68,0,0,0-3.72-3.17,3.72,3.72,0,0,0-2.71,1.1c-1,1-1.1,2.16-1.1,5.37s.11,4.36,1.1,5.37a3.84,3.84,0,0,0,6.47-2.07h1.67A5.32,5.32,0,0,1,178.87,245.34Z"/>
	<path class="s1" fill="#fff" d="M196.8,243.8a5.73,5.73,0,0,1-7.82,0c-1.48-1.48-1.56-2.84-1.56-6.43s.09-5,1.56-6.43a5.72,5.72,0,0,1,7.82,0c1.48,1.47,1.59,2.84,1.59,6.43S198.27,242.31,196.8,243.8ZM195.61,232a3.88,3.88,0,0,0-5.42,0c-1,1-1.1,2.16-1.1,5.37s.11,4.36,1.1,5.37a3.88,3.88,0,0,0,5.42,0c1-1,1.1-2.16,1.1-5.37S196.6,233,195.61,232Z"/>
	<path class="s1" fill="#fff" d="M212.54,245.21l-8.32-12.57v12.57h-1.67V229.53h1.58l8.32,12.53V229.53h1.67v15.68Z"/>
	<path class="s1" fill="#fff" d="M228.88,245.21l-8.32-12.57v12.57h-1.67V229.53h1.58l8.32,12.53V229.53h1.67v15.68Z"/>
	<path class="s1" fill="#fff" d="M235.21,245.21V229.53h9.73V231h-8.06v5.53h6.87V238h-6.87v5.66h8.06v1.5Z"/>
	<path class="s1" fill="#fff" d="M253.53,245.34a5.37,5.37,0,0,1-3.92-1.54c-1.48-1.48-1.56-2.84-1.56-6.43s.09-5,1.56-6.43a5.38,5.38,0,0,1,3.92-1.54,5.31,5.31,0,0,1,5.44,4.67h-1.72a3.68,3.68,0,0,0-3.72-3.17,3.72,3.72,0,0,0-2.71,1.1c-1,1-1.1,2.16-1.1,5.37s.11,4.36,1.1,5.37a3.84,3.84,0,0,0,6.47-2.07H259A5.32,5.32,0,0,1,253.53,245.34Z"/>
	<path class="s1" fill="#fff" d="M267.07,231v14.18h-1.71V231h-4.5v-1.5h10.75V231Z"/>
	<path class="s1" fill="#fff" d="M274.76,245.21V229.53h1.67v15.68Z"/>
	<path class="s1" fill="#fff" d="M291.16,245.21l-8.32-12.57v12.57h-1.67V229.53h1.58l8.32,12.53V229.53h1.67v15.68Z"/>
	<path class="s1" fill="#fff" d="M306.58,243.53a5.52,5.52,0,0,1-4.18,1.81,5.37,5.37,0,0,1-3.92-1.54c-1.48-1.48-1.56-2.84-1.56-6.43s.09-5,1.56-6.43a5.61,5.61,0,0,1,9.4,3.15h-1.67a3.75,3.75,0,0,0-3.81-3.19,3.65,3.65,0,0,0-2.71,1.1c-1,1-1.1,2.16-1.1,5.37s.11,4.36,1.1,5.37a3.65,3.65,0,0,0,2.71,1.1,3.82,3.82,0,0,0,3-1.34,4.18,4.18,0,0,0,.88-2.84v-1.21h-3.92V237h5.53v2.49A5.31,5.31,0,0,1,306.58,243.53Z"/>
	<path class="s1" fill="#fff" d="M311.58,245.21v-2.07h2.07v2.07Z"/>
	<path class="s1" fill="#fff" d="M317.53,245.21v-2.07h2.07v2.07Z"/>
	<path class="s1" fill="#fff" d="M323.47,245.21v-2.07h2.07v2.07Z"/>
	<path class="s1" fill="#fff" d="M189.11,265.18H185v6.45h-1.67V256h5.83c2.84,0,4.84,1.8,4.84,4.6a4.5,4.5,0,0,1-4.4,4.6Zm-.13-7.73h-4v6.23h4c2,0,3.3-1.06,3.3-3.13s-1.34-3.09-3.3-3.09Z"/>
	<path class="s1" fill="#fff" d="M197.36,271.64V256H199v14.18h8v1.5Z"/>
	<path class="s1" fill="#fff" d="M210.19,271.64V256h9.73v1.5h-8.06V263h6.87v1.5h-6.87v5.66h8.06v1.5Z"/>
	<path class="s1" fill="#fff" d="M232.76,271.64l-1.26-3.54h-6.84l-1.3,3.54h-1.78L227.36,256h1.41l5.75,15.68Zm-4.65-13.28-3,8.28H231Z"/>
	<path class="s1" fill="#fff" d="M241.31,271.77A6.79,6.79,0,0,1,236,269.7l1.12-1.12a5.37,5.37,0,0,0,4.27,1.7c2.31,0,3.72-1.06,3.72-2.91a2.46,2.46,0,0,0-.77-2,3.37,3.37,0,0,0-2-.77l-1.83-.26a5.52,5.52,0,0,1-2.86-1.19,3.74,3.74,0,0,1-1.21-3c0-2.66,1.92-4.4,5-4.4a6.38,6.38,0,0,1,4.67,1.72L245,258.55a4.86,4.86,0,0,0-3.65-1.37c-2.11,0-3.32,1.17-3.32,2.93a2.31,2.31,0,0,0,.7,1.83,4.23,4.23,0,0,0,2,.81l1.83.29a4.73,4.73,0,0,1,2.84,1.12,4,4,0,0,1,1.32,3.08C246.72,270.06,244.59,271.77,241.31,271.77Z"/>
	<path class="s1" fill="#fff" d="M250.45,271.64V256h9.73v1.5h-8.06V263H259v1.5h-6.87v5.66h8.06v1.5Z"/>
	<path class="s1" fill="#fff" d="M281.52,271.64H280l-3.48-12.55L273,271.64h-1.56l-4-15.68h1.78l3.06,12.64L275.73,256h1.5l3.46,12.64L283.74,256h1.78Z"/>
	<path class="s1" fill="#fff" d="M297.29,271.64,296,268.09h-6.85l-1.25,3.54h-1.78L291.91,256h1.45l5.75,15.68Zm-4.65-13.28-3,8.28h5.86Z"/>
	<path class="s1" fill="#fff" d="M301.8,271.64V256h1.67v15.68Z"/>
	<path class="s1" fill="#fff" d="M312.83,257.46v14.18h-1.67V257.46h-4.54V256h10.74v1.5Z"/> 
</svg>