<svg id="Ebene_1" data-name="Ebene 1" xmlns="http://www.w3.org/2000/svg" viewBox="0 0 49.22 49.22"><defs><style>.cls-1{fill:#c6c6c6;}</style></defs><title>676988-No-Data-Icon.RZ</title><path class="cls-1" d="M297.61,446.89a24.61,24.61,0,1,1,24.61-24.61A24.64,24.64,0,0,1,297.61,446.89Zm0-46A21.41,21.41,0,1,0,319,422.28,21.43,21.43,0,0,0,297.61,400.87Z" transform="translate(-273 -397.67)"/><path class="cls-1" d="M309.81,409.7a1.19,1.19,0,0,1-.6-0.16l-4.77-2.76a1.2,1.2,0,1,1,1.2-2.08l4.77,2.76A1.2,1.2,0,0,1,309.81,409.7Z" transform="translate(-273 -397.67)"/><path class="cls-1" d="M287.33,421.29a6.45,6.45,0,1,1,6.45-6.45A6.46,6.46,0,0,1,287.33,421.29Zm0-10.5a4.05,4.05,0,1,0,4,4.05A4.05,4.05,0,0,0,287.33,410.79Z" transform="translate(-273 -397.67)"/><path class="cls-1" d="M287.53,417.37A2.54,2.54,0,1,0,284.8,415a2.54,2.54,0,0,0,2.73,2.33" transform="translate(-273 -397.67)"/><path class="cls-1" d="M307.89,421.29a6.45,6.45,0,1,1,6.45-6.45A6.46,6.46,0,0,1,307.89,421.29Zm0-10.5a4.05,4.05,0,1,0,4,4.05A4.05,4.05,0,0,0,307.89,410.79Z" transform="translate(-273 -397.67)"/><path class="cls-1" d="M308.09,417.27a2.54,2.54,0,1,0-2.73-2.33,2.54,2.54,0,0,0,2.73,2.33" transform="translate(-273 -397.67)"/><path class="cls-1" d="M284.55,435.3a1.2,1.2,0,0,1-.92-2c0.16-.19,4.07-4.69,13.76-4.84h0.49c9,0,13.67,4,13.86,4.16a1.2,1.2,0,0,1-1.57,1.82c-0.07-.06-4.31-3.57-12.31-3.57h-0.44c-8.51.14-11.93,4-12,4A1.2,1.2,0,0,1,284.55,435.3Z" transform="translate(-273 -397.67)"/><path class="cls-1" d="M285.41,409.7a1.19,1.19,0,0,0,.6-0.16l4.77-2.76a1.2,1.2,0,1,0-1.2-2.08l-4.77,2.76A1.2,1.2,0,0,0,285.41,409.7Z" transform="translate(-273 -397.67)"/></svg>