<?xml version="1.0" encoding="utf-8"?>
<!-- Generator: Adobe Illustrator 21.0.2, SVG Export Plug-In . SVG Version: 6.00 Build 0)  -->
<svg version="1.1" id="Ebene_1" xmlns="http://www.w3.org/2000/svg" xmlns:xlink="http://www.w3.org/1999/xlink" x="0px" y="0px"
	 viewBox="0 0 50 30" style="enable-background:new 0 0 50 30;" xml:space="preserve">
<style type="text/css">
	.st0{fill:#FFFFFF;}
</style>
<path class="st0" d="M44.7,15.4c0-0.1,0-0.3,0-0.4c0-4.9-4-8.9-8.9-8.9c-1.7,0-3.2,0.5-4.5,1.3C29.6,3.6,25.9,1,21.5,1
	c-5.9,0-10.7,4.8-10.7,10.7c0,0.2,0,0.5,0,0.7c-0.5-0.1-1-0.1-1.5-0.1c-4.9,0-8.9,4-8.9,8.9c0,4.9,4,8.9,8.9,8.9
	c0.5,0,1-0.1,1.5-0.1h32v0c3.8-0.3,6.8-3.5,6.8-7.4C49.6,19.2,47.6,16.4,44.7,15.4z M25.6,23.3l-7.8-6.8l9.2,5.5L25.6,23.3z
	 M32.8,25.7l-3.3-2c0.6-1,0.9-2.2,0.8-3.5c0-1.6-0.6-3-1.5-4.1l0,0c0,0,0-0.1-0.1-0.1c0,0,0,0-0.1-0.1c-0.1-0.1-0.1-0.1-0.2-0.2
	c0,0,0,0,0,0c-0.2-0.2-0.3-0.3-0.5-0.5c-1.3-1.2-3-1.8-4.9-1.8c-1,0-2,0.3-2.8,0.7c0,0,0,0-0.1,0c-0.1,0.1-0.2,0.1-0.3,0.2
	c0,0,0,0-0.1,0c-0.1,0.1-0.2,0.1-0.3,0.2c0,0,0,0,0,0c0,0,0,0,0,0c-2,1.3-3.3,3.5-3.2,6.1c0,1.6,0.6,3,1.5,4.2l-1.4,0.9
	c-1.4-1.9-2.1-4.3-1.8-6.8c0.3-2.5,1.4-4.7,3.2-6.3l0,0c1.7-1.6,4-2.6,6.6-2.7c2.4-0.1,4.6,0.7,6.4,2c0.4,0.3,0.7,0.6,1,0.9l0,0
	c1.3,1.3,2.3,3.1,2.8,5C35,20.8,34.3,23.5,32.8,25.7z"/>
</svg>
