<?xml version="1.0" encoding="utf-8"?>
<!DOCTYPE svg PUBLIC "-//W3C//DTD SVG 1.1//EN" "http://www.w3.org/Graphics/SVG/1.1/DTD/svg11.dtd">
<svg width="170" height="170" xmlns="http://www.w3.org/2000/svg" xmlns:xlink="http://www.w3.org/1999/xlink">
    <g transform="translate(85,85)">
      <g class="group id-0">
        <path d="M0,-83.26530612244899A83.26530612244899,83.26530612244899 0 0,1 69.75316641510337,45.470946534375535L61.034020613215446,39.78707821757859A72.85714285714286,72.85714285714286 0 0,0 0,-72.85714285714286Z" style="fill: rgb(183, 183, 183); stroke: rgb(183, 183, 183);">
          <title>muc03s02-in-f14.1e100.net (173.194.35.174)</title>
        </path>
        <text dy=".35em" transform="rotate(-28.45016445578134)translate(45.5)" style="font-size:9px">32%</text>
        <text dy=".35em" transform="rotate(-28.45016445578134)translate(90.95238095238096)" style="font-size: 12px;">
          <title>muc03s02-in-f14.1e100.net (173.194.35.174)</title>
        </text>
      </g>
      <g class="group id-1">
        <path d="M69.75316641510337,45.470946534375535A83.26530612244899,83.26530612244899 0 0,1 28.63336600759429,78.18722117290186L25.054195256645002,68.41381852628912A72.85714285714286,72.85714285714286 0 0,0 61.034020613215446,39.78707821757859Z" style="fill: rgb(91, 196, 191); stroke: rgb(91, 196, 191);">
          <title>marty.paesslergmbh.de (192.168.1.32)</title>
        </path>
        <text dy=".35em" transform="rotate(51.49308074061523)translate(45.5)" style="font-size:9px">10%</text>
        <text dy=".35em" transform="rotate(51.49308074061523)translate(90.95238095238096)" style="font-size: 12px;">
          <title>marty.paesslergmbh.de (192.168.1.32)</title>
        </text>
      </g>
      <g class="group id-2">
        <path d="M28.63336600759429,78.18722117290186A83.26530612244899,83.26530612244899 0 0,1 -26.358053872799303,78.98331595788916L-23.063297138699387,69.11040146315301A72.85714285714286,72.85714285714286 0 0,0 25.054195256645002,68.41381852628912Z" style="fill: rgb(241, 115, 172); stroke: rgb(241, 115, 172);">
          <title>fritz.box (192.168.1.254)</title>
        </path>
        <text dy=".35em" transform="rotate(89.17060360814085)translate(45.5)" style="font-size:9px">10%</text>
        <text dy=".35em" transform="rotate(89.17060360814085)translate(90.95238095238096)" style="font-size: 12px;">
          <title>fritz.box (192.168.1.254)</title>
        </text>
      </g>
      <g class="group id-3">
        <path d="M-26.358053872799303,78.98331595788916A83.26530612244899,83.26530612244899 0 0,1 -64.47409650251315,52.68967720388651L-56.41483443969901,46.10346755340069A72.85714285714286,72.85714285714286 0 0,0 -23.063297138699387,69.11040146315301Z" style="fill: rgb(120, 116, 61); stroke: rgb(120, 116, 61);">
          <title>muc03s08-in-f10.1e100.net (173.194.44.42)</title>
        </path>
        <text dy=".35em" text-anchor="end" transform="rotate(124.59912634218452)translate(45.5)rotate(180)" style="font-size:9px">9%</text>
        <text dy=".35em" text-anchor="end" transform="rotate(124.59912634218452)translate(90.95238095238096)rotate(180)" style="font-size: 12px;">
          <title>muc03s08-in-f10.1e100.net (173.194.44.42)</title>
        </text>
      </g>
      <g class="group id-4">
        <path d="M-64.47409650251315,52.68967720388651A83.26530612244899,83.26530612244899 0 0,1 -79.92933503874875,23.332651026588767L-69.93816815890514,20.416069648265168A72.85714285714286,72.85714285714286 0 0,0 -56.41483443969901,46.10346755340069Z" style="fill: rgb(208, 155, 82); stroke: rgb(208, 155, 82);">
          <title>muc03s08-in-f7.1e100.net (173.194.44.39)</title>
        </path>
        <text dy=".35em" text-anchor="end" transform="rotate(152.23508338961653)translate(45.5)rotate(180)" style="font-size:9px">6%</text>
        <text dy=".35em" text-anchor="end" transform="rotate(152.23508338961653)translate(90.95238095238096)rotate(180)" style="font-size: 12px;">
          <title>muc03s08-in-f7.1e100.net (173.194.44.39)</title>
        </text>
      </g>
      <g class="group id-5">
        <path d="M-79.92933503874875,23.332651026588767A83.26530612244899,83.26530612244899 0 0,1 -83.21453316296656,-2.9073482995126514L-72.81271651759573,-2.54392976207357A72.85714285714286,72.85714285714286 0 0,0 -69.93816815890514,20.416069648265168Z" style="fill: rgb(160, 201, 236); stroke: rgb(160, 201, 236);">
          <title>fa-in-f101.1e100.net (173.194.70.101)</title>
        </path>
        <text dy=".35em" text-anchor="end" transform="rotate(172.86380811084393)translate(45.5)rotate(180)" style="font-size:9px">5%</text>
        <text dy=".35em" text-anchor="end" transform="rotate(172.86380811084393)translate(90.95238095238096)rotate(180)" style="font-size: 12px;">
          <title>fa-in-f101.1e100.net (173.194.70.101)</title>
        </text>
      </g>
      <g class="group id-6">
        <path d="M-83.21453316296656,-2.9073482995126514A83.26530612244899,83.26530612244899 0 0,1 -79.32601842223622,-25.3079830278942L-69.41026611945668,-22.144485149407423A72.85714285714286,72.85714285714286 0 0,0 -72.81271651759573,-2.54392976207357Z" style="fill: rgb(213, 207, 163); stroke: rgb(213, 207, 163);">
          <title>android-tablet.fritz.box (192.168.1.22)</title>
        </path>
        <text dy=".35em" text-anchor="end" transform="rotate(189.8478119109193)translate(45.5)rotate(180)" style="font-size:9px">4%</text>
        <text dy=".35em" text-anchor="end" transform="rotate(189.8478119109193)translate(90.95238095238096)rotate(180)" style="font-size: 12px;">
          <title>android-tablet.fritz.box (192.168.1.22)</title>
        </text>
      </g>
      <g class="group id-7">
        <path d="M-79.32601842223622,-25.3079830278942A83.26530612244899,83.26530612244899 0 0,1 -79.32601842223622,-25.3079830278942L-69.41026611945668,-22.144485149407423A72.85714285714286,72.85714285714286 0 0,0 -69.41026611945668,-22.144485149407423Z" style="fill: rgb(183, 183, 183); stroke: rgb(183, 183, 183);">
          <title>[239.255.255.250]</title>
        </path>
        <text dy=".35em" text-anchor="end" transform="rotate(197.6946385185032)translate(45.5)rotate(180)" style="font-size:9px"></text>
        <text dy=".35em" text-anchor="end" transform="rotate(197.6946385185032)translate(90.95238095238096)rotate(180)" style="font-size: 7px; display: none;">
          <title>[239.255.255.250]</title>
        </text>
      </g>
      <g class="group id-8">
        <path d="M-79.32601842223622,-25.3079830278942A83.26530612244899,83.26530612244899 0 0,1 -72.32235652537223,-41.26242782825661L-63.28206195970069,-36.10462434972453A72.85714285714286,72.85714285714286 0 0,0 -69.41026611945668,-22.144485149407423Z" style="fill: rgb(91, 196, 191); stroke: rgb(91, 196, 191);">
          <title>fra02s20-in-f15.1e100.net (173.194.113.47)</title>
        </path>
        <text dy=".35em" text-anchor="end" transform="rotate(203.70045247392687)translate(45.5)rotate(180)" style="font-size:9px">3%</text>
        <text dy=".35em" text-anchor="end" transform="rotate(203.70045247392687)translate(90.95238095238096)rotate(180)" style="font-size: 12px;">
          <title>fra02s20-in-f15.1e100.net (173.194.113.47)</title>
        </text>
      </g>
      <g class="group id-9">
        <path d="M-72.32235652537223,-41.26242782825661A83.26530612244899,83.26530612244899 0 0,1 -61.763752090349584,-55.84218952894811L-54.04328307905588,-48.86191583782959A72.85714285714286,72.85714285714286 0 0,0 -63.28206195970069,-36.10462434972453Z" style="fill: rgb(241, 115, 172); stroke: rgb(241, 115, 172);">
          <title>Uli-Radio.fritz.box (192.168.1.24)</title>
        </path>
        <text dy=".35em" text-anchor="end" transform="rotate(215.91190389564304)translate(45.5)rotate(180)" style="font-size:9px">3%</text>
        <text dy=".35em" text-anchor="end" transform="rotate(215.91190389564304)translate(90.95238095238096)rotate(180)" style="font-size: 12px;">
          <title>Uli-Radio.fritz.box (192.168.1.24)</title>
        </text>
      </g>
      <g class="group id-10">
        <path d="M-61.763752090349584,-55.84218952894811A83.26530612244899,83.26530612244899 0 0,1 -53.02383890373661,-64.19956161513664L-46.39585904076953,-56.17461641324456A72.85714285714286,72.85714285714286 0 0,0 -54.04328307905588,-48.86191583782959Z" style="fill: rgb(120, 116, 61); stroke: rgb(120, 116, 61);">
          <title>muc03s08-in-f23.1e100.net (173.194.44.55)</title>
        </path>
        <text dy=".35em" text-anchor="end" transform="rotate(226.28174349425177)translate(45.5)rotate(180)" style="font-size:9px">2%</text>
        <text dy=".35em" text-anchor="end" transform="rotate(226.28174349425177)translate(90.95238095238096)rotate(180)" style="font-size: 12px;">
          <title>muc03s08-in-f23.1e100.net (173.194.44.55)</title>
        </text>
      </g>
      <g class="group id-11">
        <path d="M-53.02383890373661,-64.19956161513664A83.26530612244899,83.26530612244899 0 0,1 -43.70509879908128,-70.8729535339658L-38.24196144919612,-62.01383434222007A72.85714285714286,72.85714285714286 0 0,0 -46.39585904076953,-56.17461641324456Z" style="fill: rgb(208, 155, 82); stroke: rgb(208, 155, 82);">
          <title>marty.paesslergmbh.de (192.168.1.27)</title>
        </path>
        <text dy=".35em" text-anchor="end" transform="rotate(234.39256482114246)translate(45.5)rotate(180)" style="font-size:9px">2%</text>
        <text dy=".35em" text-anchor="end" transform="rotate(234.39256482114246)translate(90.95238095238096)rotate(180)" style="font-size: 12px;">
          <title>marty.paesslergmbh.de (192.168.1.27)</title>
        </text>
      </g>
      <g class="group id-12">
        <path d="M-43.70509879908128,-70.8729535339658A83.26530612244899,83.26530612244899 0 0,1 -35.79160941250433,-75.18026269791739L-31.317658235941284,-65.7827298606777A72.85714285714286,72.85714285714286 0 0,0 -38.24196144919612,-62.01383434222007Z" style="fill: rgb(160, 201, 236); stroke: rgb(160, 201, 236);">
          <title>marty.paesslergmbh.de (fe80::8dcf:e0b5:6b30:aebb)</title>
        </path>
        <text dy=".35em" text-anchor="end" transform="rotate(241.44056473859013)translate(45.5)rotate(180)" style="font-size:9px"></text>
        <text dy=".35em" text-anchor="end" transform="rotate(241.44056473859013)translate(90.95238095238096)rotate(180)" style="font-size: 9px;">
          <title>marty.paesslergmbh.de (fe80::8dcf:e0b5:6b30:aebb)</title>
        </text>
      </g>
      <g class="group id-13">
        <path d="M-35.79160941250433,-75.18026269791739A83.26530612244899,83.26530612244899 0 0,1 -35.79160941250433,-75.18026269791739L-31.317658235941284,-65.7827298606777A72.85714285714286,72.85714285714286 0 0,0 -31.317658235941284,-65.7827298606777Z" style="fill: rgb(213, 207, 163); stroke: rgb(213, 207, 163);">
          <title>[ff02::c]</title>
        </path>
        <text dy=".35em" text-anchor="end" transform="rotate(244.54194546146311)translate(45.5)rotate(180)" style="font-size:9px"></text>
        <text dy=".35em" text-anchor="end" transform="rotate(244.54194546146311)translate(90.95238095238096)rotate(180)" style="font-size: 7px; display: none;">
          <title>[ff02::c]</title>
        </text>
      </g>
      <g class="group id-14">
        <path d="M-35.79160941250433,-75.18026269791739A83.26530612244899,83.26530612244899 0 0,1 -27.486081452700102,-78.59787866119959L-24.050321271112587,-68.77314382854964A72.85714285714286,72.85714285714286 0 0,0 -31.317658235941284,-65.7827298606777Z" style="fill: rgb(183, 183, 183); stroke: rgb(183, 183, 183);">
          <title>fra02s20-in-f19.1e100.net (173.194.113.51)</title>
        </path>
        <text dy=".35em" text-anchor="end" transform="rotate(247.6334758139654)translate(45.5)rotate(180)" style="font-size:9px"></text>
        <text dy=".35em" text-anchor="end" transform="rotate(247.6334758139654)translate(90.95238095238096)rotate(180)" style="font-size: 9px;">
          <title>fra02s20-in-f19.1e100.net (173.194.113.51)</title>
        </text>
      </g>
      <g class="group id-15">
        <path d="M-27.486081452700102,-78.59787866119959A83.26530612244899,83.26530612244899 0 0,1 -9.635441105525853,-82.7059216644557L-8.431010967335121,-72.36768145639873A72.85714285714286,72.85714285714286 0 0,0 -24.050321271112587,-68.77314382854964Z" style="fill: rgb(91, 196, 191); stroke: rgb(91, 196, 191);">
          <title>Other</title>
        </path>
        <text dy=".35em" text-anchor="end" transform="rotate(257.0399324135172)translate(45.5)rotate(180)" style="font-size:9px">3%</text>
        <text dy=".35em" text-anchor="end" transform="rotate(257.0399324135172)translate(90.95238095238096)rotate(180)" style="font-size: 12px;">
          <title>Other</title>
        </text>
      </g>
      <g class="group id-16">
        <path d="M-9.635441105525853,-82.7059216644557A83.26530612244899,83.26530612244899 0 0,1 -6.33656616884223,-83.02384677219558L-5.544495397736951,-72.64586592567113A72.85714285714286,72.85714285714286 0 0,0 -8.431010967335121,-72.36768145639873Z" style="fill: rgb(241, 115, 172); stroke: rgb(241, 115, 172);">
          <title>fa-in-f84.1e100.net (173.194.70.84)</title>
        </path>
        <text dy=".35em" text-anchor="end" transform="rotate(264.4951888237309)translate(45.5)rotate(180)" style="font-size:9px"></text>
        <text dy=".35em" text-anchor="end" transform="rotate(264.4951888237309)translate(90.95238095238096)rotate(180)" style="font-size: 7px; display: none;">
          <title>fa-in-f84.1e100.net (173.194.70.84)</title>
        </text>
      </g>
      <g class="group id-17">
        <path d="M-6.33656616884223,-83.02384677219558A83.26530612244899,83.26530612244899 0 0,1 -3.5444380402109057,-83.18983208688569L-3.1013832851845424,-72.79110307602498A72.85714285714286,72.85714285714286 0 0,0 -5.544495397736951,-72.64586592567113Z" style="fill: rgb(120, 116, 61); stroke: rgb(120, 116, 61);">
          <title>[fe80::c225:6ff:fe42:71ec]</title>
        </path>
        <text dy=".35em" text-anchor="end" transform="rotate(266.59790736217985)translate(45.5)rotate(180)" style="font-size:9px"></text>
        <text dy=".35em" text-anchor="end" transform="rotate(266.59790736217985)translate(90.95238095238096)rotate(180)" style="font-size: 7px; display: none;">
          <title>[fe80::c225:6ff:fe42:71ec]</title>
        </text>
      </g>
      <g class="group id-18">
        <path d="M-3.5444380402109057,-83.18983208688569A83.26530612244899,83.26530612244899 0 0,1 -1.1889477842405283,-83.25681717932457L-1.0403293112104621,-72.84971503190899A72.85714285714286,72.85714285714286 0 0,0 -3.1013832851845424,-72.79110307602498Z" style="fill: rgb(208, 155, 82); stroke: rgb(208, 155, 82);">
          <title>fa-in-f189.1e100.net (173.194.70.189)</title>
        </path>
        <text dy=".35em" text-anchor="end" transform="rotate(268.3710698962868)translate(45.5)rotate(180)" style="font-size:9px"></text>
        <text dy=".35em" text-anchor="end" transform="rotate(268.3710698962868)translate(90.95238095238096)rotate(180)" style="font-size: 7px; display: none;">
          <title>fa-in-f189.1e100.net (173.194.70.189)</title>
        </text>
      </g>
      <g class="group id-19">
        <path d="M-1.1889477842405283,-83.25681717932457A83.26530612244899,83.26530612244899 0 0,1 -1.5295588572105182e-14,-83.26530612244899L-1.3383640000592032e-14,-72.85714285714286A72.85714285714286,72.85714285714286 0 0,0 -1.0403293112104621,-72.84971503190899Z" style="fill: rgb(160, 201, 236); stroke: rgb(160, 201, 236);">
          <title>muc03s02-in-f11.1e100.net (173.194.35.171)</title>
        </path>
        <text dy=".35em" text-anchor="end" transform="rotate(269.59092202755454)translate(45.5)rotate(180)" style="font-size:9px"></text>
        <text dy=".35em" text-anchor="end" transform="rotate(269.59092202755454)translate(90.95238095238096)rotate(180)" style="font-size: 7px; display: none;">
          <title>muc03s02-in-f11.1e100.net (173.194.35.171)</title>
        </text>
      </g>
      <path class="chord s15 t13" d="M-8.810859847963119,-72.3224170921138A72.85714285714286,72.85714285714286 0 0,1 -8.431010967335121,-72.36768145639873Q 0,0 -31.317658235941284,-65.7827298606777A72.85714285714286,72.85714285714286 0 0,1 -31.317658235941284,-65.7827298606777Q 0,0 -8.810859847963119,-72.3224170921138Z" style="stroke: rgb(76, 163, 159); fill: rgb(91, 196, 191); opacity: 0.33;">
        <title>Other</title>
      </path>
      <path class="chord s15 t11" d="M-9.441462355778944,-72.24279932208144A72.85714285714286,72.85714285714286 0 0,1 -8.810859847963119,-72.3224170921138Q 0,0 -38.24196144919612,-62.01383434222007A72.85714285714286,72.85714285714286 0 0,1 -38.24196144919612,-62.01383434222007Q 0,0 -9.441462355778944,-72.24279932208144Z" style="stroke: rgb(76, 163, 159); fill: rgb(91, 196, 191); opacity: 0.33;">
        <title>Other</title>
      </path>
      <path class="chord s15 t10" d="M-10.35312296523649,-72.11779329799825A72.85714285714286,72.85714285714286 0 0,1 -9.441462355778944,-72.24279932208144Q 0,0 -46.39585904076953,-56.17461641324456A72.85714285714286,72.85714285714286 0 0,1 -46.39585904076953,-56.17461641324456Q 0,0 -10.35312296523649,-72.11779329799825Z" style="stroke: rgb(76, 163, 159); fill: rgb(91, 196, 191); opacity: 0.33;">
        <title>Other</title>
      </path>
      <path class="chord s19 t1" d="M-1.0403293112104621,-72.84971503190899A72.85714285714286,72.85714285714286 0 0,1 -1.3383640000592032e-14,-72.85714285714286Q 0,0 25.054195256645002,68.41381852628912A72.85714285714286,72.85714285714286 0 0,1 25.054195256645002,68.41381852628912Q 0,0 -1.0403293112104621,-72.84971503190899Z" style="stroke: rgb(133, 168, 197); fill: rgb(160, 201, 236); opacity: 0.33;">
        <title>muc03s02-in-f11.1e100.net (173.194.35.171)</title>
      </path>
      <path class="chord s15 t7" d="M-11.459225158309737,-71.95032608735893A72.85714285714286,72.85714285714286 0 0,1 -10.35312296523649,-72.11779329799825Q 0,0 -69.41026611945668,-22.144485149407423A72.85714285714286,72.85714285714286 0 0,1 -69.41026611945668,-22.144485149407423Q 0,0 -11.459225158309737,-71.95032608735893Z" style="stroke: rgb(76, 163, 159); fill: rgb(91, 196, 191); opacity: 0.33;">
        <title>Other</title>
      </path>
      <path class="chord s1 t11" d="M25.982148472884166,68.06681442552694A72.85714285714286,72.85714285714286 0 0,1 25.054195256645002,68.41381852628912Q 0,0 -39.055895092296694,-61.50447401486843A72.85714285714286,72.85714285714286 0 0,1 -38.24196144919612,-62.01383434222007Q 0,0 25.982148472884166,68.06681442552694Z" style="stroke: rgb(76, 163, 159); fill: rgb(91, 196, 191); opacity: 0.33;">
        <title>marty.paesslergmbh.de (192.168.1.32)</title>
      </path>
      <path class="chord s17 t13" d="M-5.544495397736951,-72.64586592567113A72.85714285714286,72.85714285714286 0 0,1 -3.1013832851845424,-72.79110307602498Q 0,0 -31.317658235941284,-65.7827298606777A72.85714285714286,72.85714285714286 0 0,1 -31.317658235941284,-65.7827298606777Q 0,0 -5.544495397736951,-72.64586592567113Z" style="stroke: rgb(100, 97, 51); fill: rgb(120, 116, 61); opacity: 0.33;">
        <title>[fe80::c225:6ff:fe42:71ec]</title>
      </path>
      <path class="chord s2 t7" d="M-20.58952625421167,69.88729980427945A72.85714285714286,72.85714285714286 0 0,1 -23.063297138699387,69.11040146315301Q 0,0 -69.41026611945668,-22.144485149407423A72.85714285714286,72.85714285714286 0 0,1 -69.41026611945668,-22.144485149407423Q 0,0 -20.58952625421167,69.88729980427945Z" style="stroke: rgb(201, 96, 143); fill: rgb(241, 115, 172); opacity: 0.33;">
        <title>fritz.box (192.168.1.254)</title>
      </path>
      <path class="chord s2 t11" d="M-17.152746654353287,70.80922642931274A72.85714285714286,72.85714285714286 0 0,1 -20.58952625421167,69.88729980427945Q 0,0 -38.24196144919612,-62.01383434222007A72.85714285714286,72.85714285714286 0 0,1 -38.24196144919612,-62.01383434222007Q 0,0 -17.152746654353287,70.80922642931274Z" style="stroke: rgb(201, 96, 143); fill: rgb(241, 115, 172); opacity: 0.33;">
        <title>fritz.box (192.168.1.254)</title>
      </path>
      <path class="chord s9 t7" d="M-56.88256784528256,-45.525122082570334A72.85714285714286,72.85714285714286 0 0,1 -54.04328307905588,-48.86191583782959Q 0,0 -69.41026611945668,-22.144485149407423A72.85714285714286,72.85714285714286 0 0,1 -69.41026611945668,-22.144485149407423Q 0,0 -56.88256784528256,-45.525122082570334Z" style="stroke: rgb(201, 96, 143); fill: rgb(241, 115, 172); opacity: 0.33;">
        <title>Uli-Radio.fritz.box (192.168.1.24)</title>
      </path>
      <path class="chord s1 t18" d="M39.306423931923675,61.34466808932967A72.85714285714286,72.85714285714286 0 0,1 36.770902818078255,62.89724931385759Q 0,0 -3.1013832851845424,-72.79110307602498A72.85714285714286,72.85714285714286 0 0,1 -1.0403293112104621,-72.84971503190899Q 0,0 39.306423931923675,61.34466808932967Z" style="stroke: rgb(76, 163, 159); fill: rgb(91, 196, 191); opacity: 0.33;">
        <title>marty.paesslergmbh.de (192.168.1.32)</title>
      </path>
      <path class="chord s16 t1" d="M-8.431010967335121,-72.36768145639873A72.85714285714286,72.85714285714286 0 0,1 -5.544495397736951,-72.64586592567113Q 0,0 34.46266179483269,64.19102902525468A72.85714285714286,72.85714285714286 0 0,1 32.279942020959616,65.31591389875524Q 0,0 -8.431010967335121,-72.36768145639873Z" style="stroke: rgb(201, 96, 143); fill: rgb(241, 115, 172); opacity: 0.33;">
        <title>fa-in-f84.1e100.net (173.194.70.84)</title>
      </path>
      <path class="chord s15 t1" d="M-24.050321271112587,-68.77314382854964A72.85714285714286,72.85714285714286 0 0,1 -16.971019098852132,-70.85300117886683Q 0,0 25.054195256645002,68.41381852628912A72.85714285714286,72.85714285714286 0 0,1 25.054195256645002,68.41381852628912Q 0,0 -24.050321271112587,-68.77314382854964Z" style="stroke: rgb(76, 163, 159); fill: rgb(91, 196, 191); opacity: 0.33;">
        <title>Other</title>
      </path>
      <path class="chord s12 t13" d="M-38.24196144919612,-62.01383434222007A72.85714285714286,72.85714285714286 0 0,1 -31.317658235941284,-65.7827298606777Q 0,0 -31.317658235941284,-65.7827298606777A72.85714285714286,72.85714285714286 0 0,1 -31.317658235941284,-65.7827298606777Q 0,0 -38.24196144919612,-62.01383434222007Z" style="stroke: rgb(133, 168, 197); fill: rgb(160, 201, 236); opacity: 0.33;">
        <title>marty.paesslergmbh.de (fe80::8dcf:e0b5:6b30:aebb)</title>
      </path>
      <path class="chord s11 t7" d="M-46.39585904076953,-56.17461641324456A72.85714285714286,72.85714285714286 0 0,1 -39.055895092296694,-61.50447401486843Q 0,0 -69.41026611945668,-22.144485149407423A72.85714285714286,72.85714285714286 0 0,1 -69.41026611945668,-22.144485149407423Q 0,0 -46.39585904076953,-56.17461641324456Z" style="stroke: rgb(174, 129, 68); fill: rgb(208, 155, 82); opacity: 0.33;">
        <title>marty.paesslergmbh.de (192.168.1.27)</title>
      </path>
      <path class="chord s14 t1" d="M-31.317658235941284,-65.7827298606777A72.85714285714286,72.85714285714286 0 0,1 -24.050321271112587,-68.77314382854964Q 0,0 27.159409840114364,67.60569297361587A72.85714285714286,72.85714285714286 0 0,1 25.982148472884166,68.06681442552694Q 0,0 -31.317658235941284,-65.7827298606777Z" style="stroke: rgb(153, 153, 153); fill: rgb(183, 183, 183); opacity: 0.33;">
        <title>fra02s20-in-f19.1e100.net (173.194.113.51)</title>
      </path>
      <path class="chord s10 t1" d="M-54.04328307905588,-48.86191583782959A72.85714285714286,72.85714285714286 0 0,1 -46.39585904076953,-56.17461641324456Q 0,0 25.054195256645002,68.41381852628912A72.85714285714286,72.85714285714286 0 0,1 25.054195256645002,68.41381852628912Q 0,0 -54.04328307905588,-48.86191583782959Z" style="stroke: rgb(100, 97, 51); fill: rgb(120, 116, 61); opacity: 0.33;">
        <title>muc03s08-in-f23.1e100.net (173.194.44.55)</title>
      </path>
      <path class="chord s1 t7" d="M61.034020613215446,39.78707821757859A72.85714285714286,72.85714285714286 0 0,1 54.61196476677034,48.22547635450744Q 0,0 -69.41026611945668,-22.144485149407423A72.85714285714286,72.85714285714286 0 0,1 -69.41026611945668,-22.144485149407423Q 0,0 61.034020613215446,39.78707821757859Z" style="stroke: rgb(76, 163, 159); fill: rgb(91, 196, 191); opacity: 0.33;">
        <title>marty.paesslergmbh.de (192.168.1.32)</title>
      </path>
      <path class="chord s15 t15" d="M-16.971019098852132,-70.85300117886683A72.85714285714286,72.85714285714286 0 0,1 -11.459225158309737,-71.95032608735893Q 0,0 -16.971019098852132,-70.85300117886683Z" style="stroke: rgb(76, 163, 159); fill: rgb(91, 196, 191); opacity: 0.33;">
        <title>Other</title>
      </path>
      <path class="chord s8 t1" d="M-69.41026611945668,-22.144485149407423A72.85714285714286,72.85714285714286 0 0,1 -63.28206195970069,-36.10462434972453Q 0,0 36.770902818078255,62.89724931385759A72.85714285714286,72.85714285714286 0 0,1 34.46266179483269,64.19102902525468Q 0,0 -69.41026611945668,-22.144485149407423Z" style="stroke: rgb(76, 163, 159); fill: rgb(91, 196, 191); opacity: 0.33;">
        <title>fra02s20-in-f15.1e100.net (173.194.113.47)</title>
      </path>
      <path class="chord s9 t1" d="M-63.28206195970069,-36.10462434972453A72.85714285714286,72.85714285714286 0 0,1 -56.88256784528256,-45.525122082570334Q 0,0 49.201479483439435,53.734324988286545A72.85714285714286,72.85714285714286 0 0,1 44.048194415128,58.033781835007176Q 0,0 -63.28206195970069,-36.10462434972453Z" style="stroke: rgb(201, 96, 143); fill: rgb(241, 115, 172); opacity: 0.33;">
        <title>Uli-Radio.fritz.box (192.168.1.24)</title>
      </path>
      <path class="chord s6 t7" d="M-72.81271651759573,-2.54392976207357A72.85714285714286,72.85714285714286 0 0,1 -69.41026611945668,-22.144485149407423Q 0,0 -69.41026611945668,-22.144485149407423A72.85714285714286,72.85714285714286 0 0,1 -69.41026611945668,-22.144485149407423Q 0,0 -72.81271651759573,-2.54392976207357Z" style="stroke: rgb(178, 173, 136); fill: rgb(213, 207, 163); opacity: 0.33;">
        <title>android-tablet.fritz.box (192.168.1.22)</title>
      </path>
      <path class="chord s5 t1" d="M-69.93816815890514,20.416069648265168A72.85714285714286,72.85714285714286 0 0,1 -72.81271651759573,-2.54392976207357Q 0,0 30.133465340202235,66.33353248468636A72.85714285714286,72.85714285714286 0 0,1 28.366982406524745,67.10795462874746Q 0,0 -69.93816815890514,20.416069648265168Z" style="stroke: rgb(133, 168, 197); fill: rgb(160, 201, 236); opacity: 0.33;">
        <title>fa-in-f101.1e100.net (173.194.70.101)</title>
      </path>
      <path class="chord s4 t1" d="M-56.41483443969901,46.10346755340069A72.85714285714286,72.85714285714286 0 0,1 -69.93816815890514,20.416069648265168Q 0,0 32.279942020959616,65.31591389875524A72.85714285714286,72.85714285714286 0 0,1 30.133465340202235,66.33353248468636Q 0,0 -56.41483443969901,46.10346755340069Z" style="stroke: rgb(174, 129, 68); fill: rgb(208, 155, 82); opacity: 0.33;">
        <title>muc03s08-in-f7.1e100.net (173.194.44.39)</title>
      </path>
      <path class="chord s3 t1" d="M-23.063297138699387,69.11040146315301A72.85714285714286,72.85714285714286 0 0,1 -56.41483443969901,46.10346755340069Q 0,0 28.366982406524745,67.10795462874746A72.85714285714286,72.85714285714286 0 0,1 27.159409840114364,67.60569297361587Q 0,0 -23.063297138699387,69.11040146315301Z" style="stroke: rgb(100, 97, 51); fill: rgb(120, 116, 61); opacity: 0.33;">
        <title>muc03s08-in-f10.1e100.net (173.194.44.42)</title>
      </path>
      <path class="chord s2 t1" d="M25.054195256645002,68.41381852628912A72.85714285714286,72.85714285714286 0 0,1 -17.152746654353287,70.80922642931274Q 0,0 44.048194415128,58.033781835007176A72.85714285714286,72.85714285714286 0 0,1 39.306423931923675,61.34466808932967Q 0,0 25.054195256645002,68.41381852628912Z" style="stroke: rgb(201, 96, 143); fill: rgb(241, 115, 172); opacity: 0.33;">
        <title>fritz.box (192.168.1.254)</title>
      </path>
      <path class="chord s0 t1" d="M0,-72.85714285714286A72.85714285714286,72.85714285714286 0 0,1 61.034020613215446,39.78707821757859Q 0,0 54.61196476677034,48.22547635450744A72.85714285714286,72.85714285714286 0 0,1 49.201479483439435,53.734324988286545Q 0,0 0,-72.85714285714286Z" style="stroke: rgb(153, 153, 153); fill: rgb(183, 183, 183); opacity: 0.33;">
        <title>muc03s02-in-f14.1e100.net (173.194.35.174)</title>
      </path>
    </g>
  </svg>