<?xml version="1.0" encoding="utf-8"?>
<!-- Generator: Adobe Illustrator 19.0.1, SVG Export Plug-In . SVG Version: 6.00 Build 0)  -->
<svg version="1.0" id="Ebene_1" xmlns="http://www.w3.org/2000/svg" xmlns:xlink="http://www.w3.org/1999/xlink" x="0px" y="0px"
	 viewBox="0 0 128 128" enable-background="new 0 0 128 128" xml:space="preserve">
<g>
	<g>
		<path fill="#B0B0B2" d="M27,28h73v50H27V28z M71.9,83.8c0-0.6,0.5-1,1-1c0.6,0,1,0.5,1,1c0,0.6-0.5,1-1,1
			C72.4,84.8,71.9,84.3,71.9,83.8 M67.5,83.8c0-0.6,0.5-1,1-1c0.6,0,1,0.5,1,1c0,0.6-0.5,1-1,1C68,84.8,67.5,84.3,67.5,83.8
			 M62.8,83.8c0-0.6,0.5-1,1-1c0.6,0,1,0.5,1,1c0,0.6-0.5,1-1,1C63.3,84.8,62.8,84.3,62.8,83.8 M58.5,83.8c0-0.6,0.5-1,1-1
			c0.6,0,1,0.5,1,1c0,0.6-0.5,1-1,1C59,84.8,58.5,84.3,58.5,83.8 M54.1,83.8c0-0.6,0.5-1,1-1c0.6,0,1,0.5,1,1c0,0.6-0.5,1-1,1
			C54.5,84.8,54.1,84.3,54.1,83.8 M107,88V22H20v66h26v5.5l-0.6,2.3l0.1,1.1h37.1l0.1-1.2L82,93.2V88H107z"/>
	</g>
	<g>
		<path fill="#B0B0B2" d="M31,100h63.7c0,0,4.9,5.2,4.9,5.5c0.1,0.3,0.2,0.5-0.6,0.5H77.9c0,0-1.2,0-3.9,0.2
			c-2.7,0.1-43.1,0-43.7-0.1c-0.6-0.1-1.1-0.1-0.9-0.5c0.2-0.4,2-5.6,2-5.6"/>
	</g>
</g>
</svg>
