<?xml version="1.0" encoding="utf-8"?>
<!-- Generator: Adobe Illustrator 19.0.1, SVG Export Plug-In . SVG Version: 6.00 Build 0)  -->
<svg version="1.0" id="Ebene_1" xmlns="http://www.w3.org/2000/svg" xmlns:xlink="http://www.w3.org/1999/xlink" x="0px" y="0px"
	 viewBox="0 0 128 128" enable-background="new 0 0 128 128" xml:space="preserve">
<g>
	<g>
		<path fill="#B0B0B2" d="M94,70.2c0,0.3-0.3,0.6-0.4,0.8c0,0-0.1-0.2-0.1-0.2c-0.5,1.4-2.2,1.2-2.2,1.2H36.9
			c-2.3,0-1.9-1.8-1.9-1.8V36.1c0-2.3,1.9-2.1,1.9-2.1h54.3c1,0,1.6,0.4,1.9,0.9c0,0,0.3,0,0.3,0c0.3,0.6,0.5,1.1,0.5,1.1V70.2z
			 M98,27H29.9c0,0-1.9,0-1.9,2.3V77c0,0-0.3,2,1.9,2h68.4c0,0,2.7,0.3,2.7-2V29.3c0,0-0.4-2.3-2.7-2.3"/>
	</g>
	<g>
		<path fill="#B0B0B2" d="M57.4,88h13.4l2.7,6H54.7L57.4,88z M30.2,82L18,95.8v5.2h92v-5L98.9,82H30.2z"/>
	</g>
</g>
</svg>
