<?xml version="1.0" encoding="utf-8"?>
<!-- Generator: Adobe Illustrator 19.0.1, SVG Export Plug-In . SVG Version: 6.00 Build 0)  -->
<svg version="1.0" id="Ebene_1" xmlns="http://www.w3.org/2000/svg" xmlns:xlink="http://www.w3.org/1999/xlink" x="0px" y="0px"
	 viewBox="0 0 128 128" enable-background="new 0 0 128 128" xml:space="preserve">
<g>
	<g>
		<path fill="#B0B0B2" d="M17,52c0,0-2.1,0.1-2.1,2.3v21.4c0,0,0,2.4,2.1,2.4h94c0,0,1.9-0.2,1.9-2.4V54.3c0,0,0.3-2.3-1.9-2.3H17z"
			/>
	</g>
	<g>
		<path fill="#FFFFFF" d="M101.3,69.3c2.4,0,4.3-2,4.3-4.4c0-2.4-1.9-4.4-4.3-4.4c-2.4,0-4.3,2-4.3,4.4
			C97,67.4,98.9,69.3,101.3,69.3"/>
	</g>
	<g>
		<path fill="#FFFFFF" d="M69,52.7c1.6-2.1,1.4-4.7,1.4-4.7s-2.2-0.1-4.6,2.3c-1.8,1.8-1.8,5.1-1.8,5.1S66.5,55.8,69,52.7
			 M76.2,58.9c0,0,0-0.1-0.6-0.8c-0.6-0.7-2.7-2.1-5-2.4c-2.4-0.3-5.4,1.4-6.2,1.5c-0.8,0.1-1.5-0.2-2.3-0.6c0,0-1.2-0.6-2.4-0.7
			c-1.2-0.2-3.5-0.2-5.2,1.3c-2.4,2.1-4,3.9-3.7,9.6c0.3,6,3.7,10,5.6,12c1.9,2,3.8,1.2,5.2,0.6c1.4-0.6,3.3-0.8,6,0.1
			c2.7,1,3.6,0.4,5.4-1.1c1.8-1.5,4-6.8,4-6.8S73,70.5,72.7,65C72.5,60.8,76.2,58.9,76.2,58.9"/>
	</g>
	<g>
		<path fill="#FFFFFF" d="M59.2,81.7c-1.2,0-2.6-0.4-3.9-1.8c-3.7-3.9-5.8-8.3-6.1-13.1c-0.3-6,1.2-8.5,4.3-11
			c2.3-2,5.3-1.8,6.5-1.6c0.8,0.1,1.7,0.4,2.2,0.6c0.1-1.2,0.4-4,2.3-5.8c2.8-2.8,5.6-2.8,5.9-2.8l1.5,0.1l0.1,1.5
			c0,0.1,0.3,3.3-1.8,5.9l0,0c-0.1,0.1-0.2,0.2-0.3,0.3c0.3,0,0.5,0,0.8,0.1c2.8,0.4,5.3,2,6.1,3c0.6,0.8,1.3,1.6,0.8,2.6l-0.3,0.5
			L77,60.4c-0.2,0.1-2.7,1.5-2.6,4.5c0.2,4,2.9,5,3.2,5.1l1.8,0.6l-0.7,1.7c-0.4,0.9-2.4,5.7-4.5,7.4c-2,1.7-3.5,2.7-7,1.4
			c-1.9-0.7-3.5-0.7-4.7-0.2C61.8,81.2,60.6,81.7,59.2,81.7z M58.7,57.5c-0.9,0-2.1,0.2-3,0.9c-2.1,1.8-3.3,3.2-3.1,8.2
			c0.2,3.9,1.9,7.6,5.1,10.9c1,1,1.8,0.9,3.3,0.2c2.1-0.9,4.5-0.9,7.3,0.1c1.9,0.7,2.1,0.5,3.7-0.8c0.8-0.7,2-2.8,2.9-4.7
			c-1.6-1-3.6-3.2-3.9-7.3c-0.2-3.1,1.3-5.2,2.6-6.4c-0.7-0.5-1.9-1.1-3.3-1.2c-1.2-0.2-3.1,0.5-4.1,1c-0.7,0.3-1.2,0.5-1.6,0.5
			c-1.2,0.1-2.2-0.3-3-0.7l-0.1,0c-0.3-0.2-1.2-0.5-1.9-0.6C59.3,57.6,59,57.5,58.7,57.5z M68.3,50.3c-0.4,0.3-0.9,0.6-1.4,1.1
			c-0.4,0.4-0.7,1.1-0.9,1.7c0.5-0.3,1.1-0.8,1.7-1.5C68,51.2,68.2,50.7,68.3,50.3z"/>
	</g>
	<g>
		<path fill="#B0B0B2" d="M69,52.7c1.6-2.1,1.4-4.7,1.4-4.7s-2.2-0.1-4.6,2.3c-1.8,1.8-1.8,5.1-1.8,5.1S66.5,55.8,69,52.7
			 M76.2,58.9c0,0,0-0.1-0.6-0.8c-0.6-0.7-2.7-2.1-5-2.4c-2.4-0.3-5.4,1.4-6.2,1.5c-0.8,0.1-1.5-0.2-2.3-0.6c0,0-1.2-0.6-2.4-0.7
			c-1.2-0.2-3.5-0.2-5.2,1.3c-2.4,2.1-4,3.9-3.7,9.6c0.3,6,3.7,10,5.6,12c1.9,2,3.8,1.2,5.2,0.6c1.4-0.6,3.3-0.8,6,0.1
			c2.7,1,3.6,0.4,5.4-1.1c1.8-1.5,4-6.8,4-6.8S73,70.5,72.7,65C72.5,60.8,76.2,58.9,76.2,58.9"/>
	</g>
</g>
</svg>
