<?xml version="1.0" encoding="utf-8"?>
<!-- Generator: Adobe Illustrator 19.0.1, SVG Export Plug-In . SVG Version: 6.00 Build 0)  -->
<svg version="1.0" id="Ebene_1" xmlns="http://www.w3.org/2000/svg" xmlns:xlink="http://www.w3.org/1999/xlink" x="0px" y="0px"
	 viewBox="0 0 128 128" enable-background="new 0 0 128 128" xml:space="preserve">
<g>
	<g>
		<path fill="#B0B0B2" d="M17.4,51c0,0-2.4,0.2-2.4,2.5v20.9c0,0,0.1,2.5,2.4,2.5h93.2c0,0,2.4-0.2,2.4-2.5V53.5
			c0,0-0.1-2.5-2.4-2.5H17.4z"/>
	</g>
	<g>
		<path fill="#FFFFFF" d="M101.1,68.4c2.4,0,4.3-2,4.3-4.4c0-2.4-1.9-4.4-4.3-4.4c-2.4,0-4.3,2-4.3,4.4
			C96.8,66.4,98.7,68.4,101.1,68.4"/>
	</g>
	<g>
		<path fill="#FFFFFF" d="M64,91c14.2,0,25.7-12.1,25.7-27S78.2,37,64,37S38.3,49.1,38.3,64S49.8,91,64,91"/>
	</g>
	<g>
		<path fill="#FFFFFF" d="M64,92.8c-15.2,0-27.6-12.9-27.6-28.8c0-15.9,12.4-28.8,27.6-28.8S91.6,48.1,91.6,64
			C91.6,79.9,79.2,92.8,64,92.8z M64,38.8c-13.2,0-23.9,11.3-23.9,25.2c0,13.9,10.7,25.2,23.9,25.2S87.9,77.9,87.9,64
			C87.9,50.1,77.2,38.8,64,38.8z"/>
	</g>
	<g>
		<path fill="#B0B0B2" d="M64,91c14.2,0,25.7-12.1,25.7-27S78.2,37,64,37S38.3,49.1,38.3,64S49.8,91,64,91"/>
	</g>
	<g>
		<path fill="#FFFFFF" d="M77,77h7.1c0,0,1.5-3.2,2.3-5.9c0.9-2.9,1-6.1,1-6.1h-8.8c0,0-0.1,3.8-0.5,6.6C77.7,74.3,76.9,77,77,77
			 M74.5,83.7c-0.9,1.8-2.7,3.9-2.7,3.9s3.3-1.1,6-3.2c2.3-1.8,4.5-4.4,4.5-4.4h-6.1C76.1,80,75.4,81.9,74.5,83.7 M73,80h-8v8.5
			c0,0,2.8,0.2,5.5-3.7c2-2.9,2.8-4.9,2.8-4.9 M76,65H65v12h9.2c0,0,0.9-3.2,1.3-6.3C75.9,67.7,76,65,76,65 M74,51h-9v12h11
			c0,0-0.1-2.7-0.5-5.7c-0.4-3-1.3-6.3-1.3-6.3 M52,80h-6.3c0,0,2.2,2.5,4.5,4.3c2.7,2.1,6,3.2,6,3.2s-1.8-2-2.7-3.8
			c-0.9-1.8-1.7-3.7-1.7-3.7 M49,65h-8.4c0,0,0.1,3.2,1,6.1c0.8,2.6,2.3,5.9,2.3,5.9h7.2c0,0-0.8-2.7-1.2-5.4
			c-0.4-2.8-0.5-6.6-0.5-6.6 M51,51h-7.1c0,0-1.5,3.2-2.3,5.9c-0.9,2.9-1,6.1-1,6.1h8.8c0,0,0.1-3.8,0.5-6.6
			C50.3,53.7,51.1,51,51,51 M53.5,44.3c0.9-1.8,2.7-3.9,2.7-3.9s-3.3,1.1-6,3.2c-2.3,1.8-4.5,4.4-4.5,4.4h6.1
			C51.9,48,52.6,46.1,53.5,44.3 M55,48h8v-8.5c0,0-2.8-0.2-5.5,3.7c-2,2.9-2.8,4.9-2.8,4.9 M52,63h11V51h-9.2c0,0-0.9,3.2-1.3,6.3
			C52.1,60.3,52,63,52,63 M54,77h9V65H52c0,0,0.1,2.7,0.5,5.7c0.4,3,1.3,6.3,1.3,6.3 M63,89v-9h-8.3c0,0,0.8,2,2.8,4.9
			c2.7,3.9,5.5,3.7,5.5,3.7 M73.3,48c0,0-0.8-2-2.8-4.9c-2.7-3.9-5.5-3.7-5.5-3.7V48H73.3z M76,48h6.3c0,0-2.2-2.5-4.5-4.3
			c-2.7-2.1-6-3.2-6-3.2s1.8,2,2.7,3.8c0.9,1.8,1.7,3.7,1.7,3.7 M79,63h8.4c0,0-0.1-3.2-1-6.1c-0.8-2.6-2.3-5.9-2.3-5.9h-7.2
			c0,0,0.8,2.7,1.1,5.4c0.4,2.8,0.5,6.6,0.5,6.6"/>
	</g>
	<g>
		<path fill="#FFFFFF" d="M65,89V79h9l-0.2,0.6c0,0.1-0.6,2.4-2.6,5.3c-2.8,4-5.5,4.1-5.7,4.1L65,89z M66,80v7.9
			c0.8-0.2,2.6-1,4.3-3.6c1.3-1.9,2-3.5,2.3-4.4H66z M63,89l-0.5,0c-0.1,0-2.9-0.1-5.7-4.1c-2-2.9-2.6-5.2-2.6-5.3L54,79h9V89z
			 M55.4,80c0.3,0.8,1,2.5,2.3,4.4c1.8,2.6,3.5,3.4,4.3,3.6V80H55.4z M70.3,88.5l1.1-1.4c0,0,1.8-2.2,2.6-3.9v0
			c0.9-1.7,1.6-3.8,1.6-3.8l0.1-0.3h7.5l-0.6,0.8c-0.1,0.1-2.2,2.9-4.6,4.7c-2.7,2.1-6,3.4-6.1,3.4L70.3,88.5z M74.9,83.6
			c-0.4,0.9-1,1.8-1.6,2.6c1.2-0.6,2.8-1.4,4.2-2.5c1.5-1.1,2.9-2.7,3.7-3.7h-4.7C76.2,80.7,75.6,82.2,74.9,83.6L74.9,83.6z
			 M57.7,88.5L56,87.9c-0.1-0.1-3.4-1.3-6.1-3.4c-2.3-1.8-4.5-4.6-4.6-4.7L44.7,79h7.5l0.1,0.3c0,0,0.8,2.1,1.6,3.8
			c0.9,1.7,2.6,3.9,2.6,3.9L57.7,88.5z M46.8,80c0.8,1,2.2,2.5,3.7,3.7c1.4,1.1,3,1.9,4.2,2.5c-0.5-0.8-1.2-1.7-1.6-2.6
			c-0.7-1.4-1.3-2.9-1.6-3.6H46.8z M84.4,77h-8.2l0.2-0.7c0,0,0.8-2.2,1.1-4.9c0.4-2.7,0.5-6,0.5-6l0-0.5h9.8l0,0.5
			c0,0.1-0.1,2.8-1,5.8c-0.8,2.7-2.3,5.3-2.3,5.5L84.4,77z M77.6,76h6.2c0.4-0.7,1.5-2.9,2.1-5c0.6-2.1,0.9-4.1,1-5H79
			c-0.1,1-0.2,3.5-0.5,5.6C78.3,73.5,77.9,75.1,77.6,76z M74.6,77H65V65h11.5l0,0.5c0,0-0.1,2.2-0.5,5.3c-0.4,3-1.3,5.8-1.3,5.9
			L74.6,77z M66,76h7.9c0.2-0.8,0.9-3,1.2-5.3c0.3-2.1,0.4-3.8,0.5-4.7H66V76z M63,77h-9.6l-0.1-0.3c0-0.1-0.9-2.8-1.3-5.9
			c-0.4-3-0.5-5.2-0.5-5.3l0-0.5H63V77z M54.1,76H62V66h-9.5c0.1,0.8,0.2,2.5,0.5,4.7C53.3,73,53.9,75.2,54.1,76z M51.1,77h-7.5
			l-0.1-0.3c-0.1-0.1-1.5-2.8-2.3-5.5c-0.9-2.9-1-5.6-1-5.8l0-0.5h9.8l0,0.5c0,0,0.1,3.3,0.5,6c0.4,2.7,1.1,4.8,1.1,4.9l0.2,0.7
			H51.1z M44.2,76h6.2c-0.3-0.9-0.7-2.5-1-4.4C49.2,69.5,49,67,49,66h-7.8c0.1,0.9,0.3,2.9,1,5C42.8,73.1,43.9,75.3,44.2,76z
			 M87.9,63h-9.8l0-0.5c0,0-0.1-3.3-0.5-6c-0.4-2.7-1.1-4.8-1.1-4.9L76.2,51h8.2l0.1,0.3c0.1,0.1,1.5,2.8,2.3,5.5
			c0.9,2.9,1,5.6,1,5.8L87.9,63z M79,62h7.8c-0.1-0.9-0.3-2.9-1-5c-0.6-2.1-1.7-4.3-2.1-5h-6.2c0.3,0.9,0.7,2.5,1,4.4
			C78.8,58.5,79,61,79,62z M76.5,63H65V51h9.6l0.1,0.3c0,0.1,0.9,2.8,1.3,5.9c0.4,3,0.5,5.2,0.5,5.3L76.5,63z M66,62h9.5
			c-0.1-0.8-0.2-2.5-0.5-4.7c-0.3-2.3-0.9-4.5-1.2-5.3H66V62z M63,63H51.5l0-0.5c0,0,0.1-2.2,0.5-5.3c0.4-3,1.3-5.8,1.3-5.9l0.1-0.3
			H63V63z M52.5,62H62V52h-7.9c-0.2,0.8-0.9,3-1.1,5.3C52.7,59.5,52.6,61.2,52.5,62z M49.4,63h-9.3l0-0.5c0-0.1,0.1-2.8,1-5.8
			c0.8-2.7,2.3-5.3,2.3-5.5l0.1-0.3h8.2l-0.2,0.7c0,0-0.8,2.2-1.1,4.9c-0.4,2.7-0.5,6-0.5,6l0,0.5H49.4z M41.2,62H49
			c0.1-1,0.2-3.5,0.5-5.6c0.3-1.9,0.7-3.5,1-4.4h-6.2c-0.4,0.7-1.5,2.9-2.1,5C41.5,59.1,41.2,61.1,41.2,62z M83.3,49h-7.5l-0.1-0.3
			c0,0-0.8-2.1-1.6-3.8c-0.9-1.7-2.6-3.9-2.6-3.9l-1.1-1.4l1.7,0.6c0.1,0.1,3.4,1.3,6.1,3.4c2.3,1.8,4.5,4.6,4.6,4.7L83.3,49z
			 M76.5,48h4.7c-0.8-1-2.2-2.5-3.7-3.7c-1.4-1.1-3-1.9-4.2-2.5c0.5,0.8,1.2,1.7,1.6,2.6C75.6,45.8,76.2,47.3,76.5,48z M74,49h-9V39
			l0.5,0c0.1,0,2.9,0.1,5.7,4.1c2,2.9,2.6,5.2,2.6,5.3L74,49z M66,48h6.6c-0.3-0.8-1-2.5-2.3-4.4c-1.8-2.6-3.5-3.4-4.3-3.6V48z
			 M63,49h-9l0.2-0.6c0-0.1,0.6-2.4,2.6-5.3c2.8-4,5.5-4.1,5.7-4.1l0.5,0V49z M55.4,48H62v-7.9c-0.8,0.2-2.6,1-4.3,3.6
			C56.3,45.5,55.7,47.2,55.4,48z M52.2,49h-7.5l0.6-0.8c0.1-0.1,2.2-2.9,4.6-4.7c2.7-2.1,6-3.4,6.1-3.4l1.7-0.6l-1.1,1.4
			c0,0-1.8,2.2-2.6,3.9c-0.9,1.7-1.6,3.8-1.6,3.8L52.2,49z M46.8,48h4.7c0.3-0.7,0.9-2.2,1.6-3.6l0,0c0.4-0.9,1-1.8,1.6-2.6
			c-1.2,0.6-2.8,1.4-4.2,2.5C49,45.5,47.6,47.1,46.8,48z"/>
	</g>
	<g>
		<path fill="#B0B0B2" d="M76.7,79.2c1.3-0.5,2.4-1.3,3.1-2.6c0-0.1,0.1-0.1,0.1-0.2c0.1-0.1,0.1-0.1,0.1-0.2l0.5-0.9
			c0.4-0.7,0.2-1.6-0.5-2l-1.1-0.7c0,0,0,0-0.1,0l-6.5-3.8c-0.7-0.4-1.6-0.2-2,0.5l-0.5,0.9c-0.1,0.1-0.1,0.2-0.1,0.3
			c0,0-0.1,0.1-0.1,0.1c-0.4,0.7-0.6,1.4-0.7,2.2c-2.7,0.8-6.7-0.6-9.8-3.7s-4.6-7.1-3.7-9.8c0.7-0.1,1.5-0.3,2.1-0.7
			c0,0,0.1,0,0.1-0.1c0.1,0,0.2-0.1,0.3-0.1l0.9-0.5c0.7-0.4,0.9-1.3,0.5-2L54.7,48c-0.4-0.7-1.3-0.9-2-0.5L51.8,48
			c-0.1,0-0.2,0.1-0.2,0.2c-0.1,0-0.1,0-0.2,0.1c-1.3,0.7-2.2,1.9-2.6,3.2c-3.4,4.7-0.6,13.9,6.6,21.2
			C62.7,79.9,71.9,82.7,76.7,79.2"/>
	</g>
</g>
</svg>
