<?xml version="1.0" encoding="utf-8"?>
<!-- Generator: Adobe Illustrator 19.0.1, SVG Export Plug-In . SVG Version: 6.00 Build 0)  -->
<svg version="1.0" id="Ebene_1" xmlns="http://www.w3.org/2000/svg" xmlns:xlink="http://www.w3.org/1999/xlink" x="0px" y="0px"
	 viewBox="0 0 128 128" enable-background="new 0 0 128 128" xml:space="preserve">
<g>
	<g>
		<path fill="#B0B0B2" d="M17,51c0,0-2,0.2-2,2.3v21.4c0,0-0.1,2.3,2,2.3h94c0,0,2-0.2,2-2.3V53.3c0,0,0.1-2.3-2-2.3H17z"/>
	</g>
	<g>
		<path fill="#FFFFFF" d="M101.3,68.4c2.4,0,4.3-2,4.3-4.4c0-2.4-1.9-4.4-4.3-4.4S97,61.6,97,64C97,66.4,98.9,68.4,101.3,68.4"/>
	</g>
</g>
<g>
	<g>
		<path fill="#FFFFFF" d="M37.3,69l-2.1-3.5L33,69h-2.5l3.5-5.1L30.7,59h2.5l2,3.3l2-3.3h2.5l-3.3,4.9l3.5,5.1H37.3z"/>
	</g>
	<g>
		<path fill="#FFFFFF" d="M42,69v-2h2v2H42z"/>
	</g>
	<g>
		<path fill="#FFFFFF" d="M52.9,69l-2.1-3.5L48.6,69h-2.5l3.5-5.1L46.3,59h2.5l2,3.3l2-3.3h2.5l-3.3,4.9l3.5,5.1H52.9z"/>
	</g>
	<g>
		<path fill="#FFFFFF" d="M57,69v-2h3v2H57z"/>
	</g>
	<g>
		<path fill="#FFFFFF" d="M68.5,69l-2.1-3.5L64.3,69h-2.5l3.5-5.1L61.9,59h2.5l2,3.3l2-3.3h2.5l-3.3,4.9L71,69H68.5z"/>
	</g>
	<g>
		<path fill="#FFFFFF" d="M73,69v-2h2v2H73z"/>
	</g>
	<g>
		<path fill="#FFFFFF" d="M84.1,69L82,65.5L79.9,69h-2.5l3.5-5.1L77.6,59H80l2,3.3l2-3.3h2.5l-3.3,4.9l3.5,5.1H84.1z"/>
	</g>
</g>
</svg>
