<?xml version="1.0" encoding="utf-8"?>
<!-- Generator: Adobe Illustrator 19.0.1, SVG Export Plug-In . SVG Version: 6.00 Build 0)  -->
<svg version="1.0" id="Ebene_1" xmlns="http://www.w3.org/2000/svg" xmlns:xlink="http://www.w3.org/1999/xlink" x="0px" y="0px"
	 viewBox="0 0 128 128" enable-background="new 0 0 128 128" xml:space="preserve">
<g>
	<g>
		<g>
			<path fill="#B0B0B2" d="M17.4,51c0,0-2.4,0.2-2.4,2.6v20.9c0,0,0.1,2.6,2.4,2.6h93.2c0,0,2.4-0.2,2.4-2.6V53.6
				c0,0-0.1-2.6-2.4-2.6H17.4z"/>
		</g>
		<g>
			<path fill="#FFFFFF" d="M101.1,68.4c2.4,0,4.3-2,4.3-4.4c0-2.4-1.9-4.4-4.3-4.4c-2.4,0-4.3,2-4.3,4.4
				C96.8,66.4,98.7,68.4,101.1,68.4"/>
		</g>
	</g>
	<g>
		<polygon fill="#FFFFFF" points="37,42 37,42 37,86 91,86 91,42 		"/>
	</g>
	<g>
		<g>
			<path fill="#FFFFFF" d="M93,88H35V40h58V88z M39,84h50V44H39V84z"/>
		</g>
	</g>
	<g>
		<rect x="37" y="42" fill="#B0B0B2" width="54" height="44"/>
	</g>
	<g>
		<polygon fill="#FFFFFF" points="40.6,45 64.1,63.7 87.7,45 		"/>
	</g>
	<g>
		<defs>
			<rect id="SVGID_1_" x="40" y="45" width="48" height="38"/>
		</defs>
		<clipPath id="SVGID_2_">
			<use xlink:href="#SVGID_1_"  overflow="visible"/>
		</clipPath>
		<g clip-path="url(#SVGID_2_)">
			<path fill="#FFFFFF" d="M64.1,63.8L39.2,44h49.9L64.1,63.8z M42.1,45l22.1,17.5L86.2,45H42.1z"/>
		</g>
	</g>
	<g>
		<polygon fill="#FFFFFF" points="41,49.6 56.2,61.8 41,74.3 		"/>
	</g>
	<g>
		<defs>
			<rect id="SVGID_3_" x="40" y="45" width="48" height="38"/>
		</defs>
		<clipPath id="SVGID_4_">
			<use xlink:href="#SVGID_3_"  overflow="visible"/>
		</clipPath>
		<g clip-path="url(#SVGID_4_)">
			<path fill="#FFFFFF" d="M40,75.3V48.6l16.5,13.2L40,75.3z M41,50.7v22.5l13.9-11.4L41,50.7z"/>
		</g>
	</g>
	<g>
		<polygon fill="#FFFFFF" points="73.1,61.8 88,75.3 88,49.6 		"/>
	</g>
	<g>
		<defs>
			<rect id="SVGID_5_" x="40" y="45" width="48" height="38"/>
		</defs>
		<clipPath id="SVGID_6_">
			<use xlink:href="#SVGID_5_"  overflow="visible"/>
		</clipPath>
		<g clip-path="url(#SVGID_6_)">
			<path fill="#FFFFFF" d="M88,76.4L71.8,61.8L88,48.6V76.4z M73.3,61.8L87,74.2V50.7L73.3,61.8z"/>
		</g>
	</g>
	<g>
		<polygon fill="#FFFFFF" points="41,79.3 41,83 88,83 88,80.4 70.4,64.8 64.5,69.7 58.6,64.7 		"/>
	</g>
	<g>
		<defs>
			<rect id="SVGID_7_" x="40" y="45" width="48" height="38"/>
		</defs>
		<clipPath id="SVGID_8_">
			<use xlink:href="#SVGID_7_"  overflow="visible"/>
		</clipPath>
		<g clip-path="url(#SVGID_8_)">
			<path fill="#FFFFFF" d="M88,83H40v-3.9l18.3-15l6.1,5l5.8-5l17.9,16V83z M41,82h46v-1.4L70.1,65.5l-5.8,4.9l-6.1-5L41,79.6V82z"
				/>
		</g>
	</g>
</g>
</svg>
