<?xml version="1.0" encoding="utf-8"?>
<!-- Generator: Adobe Illustrator 19.0.1, SVG Export Plug-In . SVG Version: 6.00 Build 0)  -->
<svg version="1.0" id="Ebene_1" xmlns="http://www.w3.org/2000/svg" xmlns:xlink="http://www.w3.org/1999/xlink" x="0px" y="0px"
	 viewBox="0 0 128 128" enable-background="new 0 0 128 128" xml:space="preserve">
<g>
	<path fill="#B0B0B2" d="M17.1,51c0,0-2.1,0.2-2.1,2.3v21.3c0,0,0,2.3,2.1,2.3h93.8c0,0,2.1-0.2,2.1-2.3V53.3c0,0,0-2.3-2.1-2.3
		H17.1z"/>
</g>
<g>
	<path fill="#FFFFFF" d="M101.2,68.4c2.4,0,4.3-2,4.3-4.4c0-2.4-1.9-4.4-4.3-4.4c-2.4,0-4.3,2-4.3,4.4
		C96.9,66.4,98.8,68.4,101.2,68.4"/>
</g>
<g>
	<g>
		<path fill="#B1B1B1" stroke="#FFFFFF" stroke-width="3" stroke-miterlimit="10" d="M78.7,80.5H42.4c-0.5,0-1-0.2-1.1-0.7L37.2,60
			c-0.1-0.7,0.4-1.5,1.1-1.5h43.9c0.7,0,1.2,0.9,1.1,1.6l-3.5,19.6C79.7,80.2,79.2,80.5,78.7,80.5z"/>
		<path fill="#B1B1B1" stroke="#FFFFFF" stroke-width="3" stroke-miterlimit="10" d="M64.5,48.6v-3.4c0-0.6-0.8-0.7-1.4-0.7H42.2
			c-0.6,0-0.7,0-0.7,0.7v10.7c0,0.6,0.1,1.6,0.7,1.6H62h2.2h14.1c0.6,0,1.2-1,1.2-1.6v-5.1c0-0.6-0.5-1.3-1.2-1.3h-13
			C64.7,49.5,64.5,49.2,64.5,48.6z"/>
	</g>
	<g>
		<path fill="#B1B1B1" d="M78.7,81H42.4c-0.5,0-1-0.4-1.1-1l-4.1-19.7c-0.1-0.7,0.4-1.4,1.1-1.4h43.9c0.7,0,1.2,0.6,1.1,1.3L79.8,80
			C79.7,80.6,79.2,81,78.7,81z"/>
		<path fill="#B1B1B1" d="M64,48.6v-3.4c0-0.6-0.3-1.2-0.9-1.2H42.2c-0.6,0-1.2,0.5-1.2,1.2v10.7c0,0.6,0.6,1.1,1.2,1.1H62h2.2h14.1
			c0.6,0,0.7-0.5,0.7-1.1v-5.1c0-0.6,0-0.8-0.7-0.8h-13C64.7,50,64,49.2,64,48.6z"/>
	</g>
</g>
</svg>
