<?xml version="1.0" encoding="utf-8"?>
<!-- Generator: Adobe Illustrator 19.0.1, SVG Export Plug-In . SVG Version: 6.00 Build 0)  -->
<svg version="1.0" id="Ebene_1" xmlns="http://www.w3.org/2000/svg" xmlns:xlink="http://www.w3.org/1999/xlink" x="0px" y="0px"
	 viewBox="0 0 128 128" enable-background="new 0 0 128 128" xml:space="preserve">
<g>
	<g>
		<path fill="#B0B0B2" d="M17.2,51c0,0-2.2,0.2-2.2,2.5v21c0,0-0.1,2.5,2.2,2.5h93.6c0,0,2.2-0.2,2.2-2.5v-21c0,0,0.1-2.5-2.2-2.5
			H17.2z"/>
	</g>
	<g>
		<path fill="#FFFFFF" d="M101.3,68.4c2.4,0,4.3-2,4.3-4.4c0-2.4-1.9-4.4-4.3-4.4c-2.4,0-4.3,2-4.3,4.4
			C96.9,66.4,98.9,68.4,101.3,68.4"/>
	</g>
	<g>
		<path fill="#FFFFFF" d="M64,91.1C78.3,91.1,89.8,79,89.8,64S78.3,36.9,64,36.9S38.2,49,38.2,64S49.7,91.1,64,91.1"/>
	</g>
	<g>
		<path fill="#FFFFFF" d="M64,92.9c-15.3,0-27.7-13-27.7-28.9c0-16,12.4-28.9,27.7-28.9S91.7,48,91.7,64C91.7,80,79.3,92.9,64,92.9z
			 M64,38.8c-13.2,0-24,11.3-24,25.2c0,13.9,10.8,25.2,24,25.2c13.2,0,24-11.3,24-25.2C88,50.1,77.2,38.8,64,38.8z"/>
	</g>
	<g>
		<path fill="#B0B0B2" d="M64,91.1C78.3,91.1,89.8,79,89.8,64S78.3,36.9,64,36.9S38.2,49,38.2,64S49.7,91.1,64,91.1"/>
	</g>
	<g>
		<path fill="#FFFFFF" d="M77,77h7.1c0,0,1.5-3.2,2.3-5.9c0.9-2.9,1-6.1,1-6.1h-8.8c0,0-0.1,3.8-0.5,6.6C77.7,74.3,77,77,77,77
			 M74.5,83.7c-0.9,1.8-2.7,3.9-2.7,3.9s3.3-1.1,6-3.2c2.3-1.8,4.5-4.4,4.5-4.4h-6.2C76.2,80,75.4,81.9,74.5,83.7 M73,80h-8v8.6
			c0,0,2.8,0.2,5.5-3.7c2-2.9,2.8-4.9,2.8-4.9 M76,65H65v12h9.3c0,0,0.9-3.2,1.3-6.3C75.9,67.7,76.1,65,76,65 M74,51h-9v12h11.1
			c0,0-0.1-2.7-0.5-5.7c-0.4-3-1.3-6.3-1.3-6.3 M52,80h-6.3c0,0,2.2,2.6,4.5,4.4c2.7,2.1,6,3.2,6,3.2s-1.8-2.1-2.7-3.9
			c-0.9-1.8-1.7-3.7-1.7-3.7 M49,65h-8.5c0,0,0.1,3.2,1,6.1c0.8,2.7,2.3,5.9,2.3,5.9H51c0,0-0.8-2.7-1.2-5.4
			c-0.4-2.8-0.5-6.6-0.5-6.6 M51,51h-7.1c0,0-1.5,3.2-2.3,5.9c-0.9,2.9-1,6.1-1,6.1h8.8c0,0,0.1-3.8,0.5-6.6C50.3,53.7,51,51,51,51
			 M53.5,44.3c0.9-1.8,2.7-3.9,2.7-3.9s-3.3,1.1-6,3.2c-2.3,1.8-4.5,4.4-4.5,4.4h6.2C51.8,48,52.6,46.1,53.5,44.3 M55,48h8v-8.6
			c0,0-2.8-0.2-5.5,3.7c-2,2.9-2.8,4.9-2.8,4.9 M52,63h11V51h-9.3c0,0-0.9,3.2-1.3,6.3C52.1,60.3,51.9,63,52,63 M54,77h9V65H51.9
			c0,0,0.1,2.7,0.5,5.7c0.4,3,1.3,6.3,1.3,6.3 M63,89v-9h-8.4c0,0,0.8,2.1,2.8,4.9c2.7,3.9,5.5,3.7,5.5,3.7 M73.4,48
			c0,0-0.8-2.1-2.8-4.9c-2.7-3.9-5.5-3.7-5.5-3.7V48H73.4z M76,48h6.3c0,0-2.2-2.6-4.5-4.4c-2.7-2.1-6-3.2-6-3.2s1.8,2.1,2.7,3.9
			c0.9,1.8,1.7,3.7,1.7,3.7 M79,63h8.5c0,0-0.1-3.2-1-6.1c-0.8-2.7-2.3-5.9-2.3-5.9H77c0,0,0.8,2.7,1.2,5.4c0.4,2.8,0.5,6.6,0.5,6.6
			"/>
	</g>
</g>
</svg>
