<svg id="Ebene_1" data-name="Ebene 1" xmlns="http://www.w3.org/2000/svg" viewBox="0 0 128 128"><defs><style>.cls-1{fill:#b0b0b2;}.cls-2{fill:#e7e6e8;}.cls-3{fill:#fff;}.cls-4{fill:#b1b1b1;}</style></defs><title>1</title><path class="cls-1" d="M80.14,37.57c-3.72,2.85-5.57,1.82-6.88-.08s0.32-5.74,3-7.26C79.74,28,75.38,25,75.38,25c0.37,1.74-1.66,5-3.21,2.78-1.2-1.94,3.29-6.13,3.29-6.13s-6,1.68-7.1,4.67c-2.51,6.58-1.44,12.06-6.24,11.36-0.71,3.74-2.34,4.71-3.24,3.08s-0.37-3.48,2.68-5c5.32-2.57.81-14.25,0.81-14.25,0.9,9.15-5.5,12.67-7.31,11.37-1.75-1.7,1.39-6,1.39-6-10.53,5.8-.28,9.19-4.38,11.82C47,42,49.72,35,49.72,35,36.8,43.47,52,48.57,54.64,50.2c0.17,0.92-2.9,9.46,4.65,12.23,3.47,1.28,2.25,1.84,3.45,1.79C67.41,63.63,78,59.38,80.28,56a9,9,0,0,0,1.13-7.2c-1.12,2.46-4,4.94-6.37,4.43-2.08.26-3.12-4.67,5-9.11,10.46-5.1,5.73-14.8,5.73-14.8s-2.1,5.53-5.64,8.24"/><rect class="cls-2" x="40.28" y="69.1" width="15.66" height="10.08"/><rect class="cls-2" x="49.07" y="57.31" width="15.68" height="10.08"/><rect class="cls-2" x="40.28" y="45.92" width="15.66" height="10.08"/><rect class="cls-2" x="75.31" y="69.1" width="15.68" height="10.08"/><rect class="cls-2" x="84.09" y="57.31" width="6.9" height="10.08"/><rect class="cls-2" x="75.31" y="45.92" width="15.69" height="10.08"/><rect class="cls-2" x="57.84" y="69.1" width="15.68" height="10.08"/><rect class="cls-2" x="66.63" y="57.31" width="15.68" height="10.08"/><rect class="cls-2" x="57.81" y="45.92" width="15.69" height="10.08"/><rect class="cls-2" x="40.45" y="57.31" width="8.26" height="10.08"/><rect class="cls-2" x="40.28" y="69.1" width="15.66" height="10.08"/><rect class="cls-2" x="49.07" y="57.31" width="15.68" height="10.08"/><rect class="cls-2" x="40.28" y="45.92" width="15.66" height="10.08"/><rect class="cls-2" x="75.31" y="69.1" width="15.68" height="10.08"/><rect class="cls-2" x="84.09" y="57.31" width="6.9" height="10.08"/><rect class="cls-2" x="75.31" y="45.92" width="15.69" height="10.08"/><rect class="cls-2" x="57.84" y="69.1" width="15.68" height="10.08"/><rect class="cls-2" x="66.63" y="57.31" width="15.68" height="10.08"/><rect class="cls-2" x="57.81" y="45.92" width="15.69" height="10.08"/><rect class="cls-2" x="40.45" y="57.31" width="8.26" height="10.08"/><rect class="cls-2" x="41.44" y="70.08" width="13.35" height="8.11"/><path class="cls-3" d="M57.09,80.49h-18V67.78h18V80.49Zm-13.35-4.6h8.75V72.38H43.74v3.51Z"/><rect class="cls-2" x="50.22" y="58.29" width="13.37" height="8.11"/><path class="cls-3" d="M65.89,68.7h-18V56h18V68.7ZM52.52,64.1h8.77V60.59H52.52V64.1Z"/><rect class="cls-2" x="41.44" y="46.91" width="13.35" height="8.11"/><path class="cls-3" d="M57.09,57.32h-18V44.6h18V57.32Zm-13.35-4.6h8.75V49.21H43.74v3.51Z"/><rect class="cls-2" x="76.46" y="70.08" width="13.37" height="8.11"/><path class="cls-3" d="M92.13,80.49h-18V67.78h18V80.49Zm-13.37-4.6h8.77V72.38H78.76v3.51Z"/><rect class="cls-2" x="85.25" y="58.29" width="4.59" height="8.11"/><rect class="cls-3" x="82.95" y="55.99" width="9.2" height="12.71"/><rect class="cls-2" x="76.46" y="46.91" width="13.38" height="8.11"/><path class="cls-3" d="M92.14,57.32h-18V44.6h18V57.32Zm-13.38-4.6h8.78V49.21H78.76v3.51Z"/><rect class="cls-2" x="58.99" y="70.08" width="13.37" height="8.11"/><path class="cls-3" d="M74.66,80.49h-18V67.78h18V80.49ZM61.3,75.89h8.77V72.38H61.3v3.51Z"/><rect class="cls-2" x="67.78" y="58.29" width="13.37" height="8.11"/><path class="cls-3" d="M83.45,68.7h-18V56h18V68.7ZM70.08,64.1h8.77V60.59H70.08V64.1Z"/><rect class="cls-2" x="58.97" y="46.91" width="13.38" height="8.11"/><path class="cls-3" d="M74.65,57.32h-18V44.6h18V57.32Zm-13.38-4.6H70V49.21H61.27v3.51Z"/><rect class="cls-2" x="41.44" y="58.29" width="6.29" height="8.11"/><path class="cls-3" d="M50,68.7H39.14V56H50V68.7Zm-6.29-4.6h1.69V60.59H43.74V64.1Z"/><path class="cls-1" d="M91,70.22a1.1,1.1,0,0,0-1.13-1.13H76.44a1.1,1.1,0,0,0-1.13,1.13V78a1.1,1.1,0,0,0,1.13,1.13H89.86A1.1,1.1,0,0,0,91,78V70.22Zm-24.36-4a1.1,1.1,0,0,0,1.13,1.13H81.18a1.1,1.1,0,0,0,1.13-1.13V58.43a1.1,1.1,0,0,0-1.13-1.13H67.75a1.1,1.1,0,0,0-1.13,1.13v7.82Zm6.89,4a1.1,1.1,0,0,0-1.13-1.13H59a1.1,1.1,0,0,0-1.13,1.13V78A1.1,1.1,0,0,0,59,79.17H72.39A1.1,1.1,0,0,0,73.52,78V70.22Zm-24.45-4a1.1,1.1,0,0,0,1.13,1.13H63.62a1.1,1.1,0,0,0,1.13-1.13V58.43a1.1,1.1,0,0,0-1.13-1.13H50.2a1.1,1.1,0,0,0-1.13,1.13v7.82Zm6.87,4a1.1,1.1,0,0,0-1.13-1.13H41.41a1.1,1.1,0,0,0-1.13,1.13V78a1.1,1.1,0,0,0,1.13,1.13h13.4A1.1,1.1,0,0,0,55.94,78V70.22ZM47.48,58.43a1.1,1.1,0,0,0-1.13-1.13H41.41a1.1,1.1,0,0,0-1.13,1.13v7.82a1.1,1.1,0,0,0,1.13,1.13h4.95a1.1,1.1,0,0,0,1.13-1.13V58.43Zm-7.2-3.56A1.1,1.1,0,0,0,41.41,56h13.4a1.1,1.1,0,0,0,1.13-1.13V47a1.1,1.1,0,0,0-1.13-1.13H41.41A1.1,1.1,0,0,0,40.28,47v7.82Zm17.53,0A1.1,1.1,0,0,0,58.94,56H72.37a1.1,1.1,0,0,0,1.13-1.13V47a1.1,1.1,0,0,0-1.13-1.13H58.94A1.1,1.1,0,0,0,57.81,47v7.82Zm17.5,0A1.1,1.1,0,0,0,76.43,56H89.87A1.1,1.1,0,0,0,91,54.87V47a1.1,1.1,0,0,0-1.13-1.13H76.43A1.1,1.1,0,0,0,75.31,47v7.82ZM89.87,67.38A1.1,1.1,0,0,0,91,66.26V58.43a1.1,1.1,0,0,0-1.13-1.13H85.22a1.1,1.1,0,0,0-1.13,1.13v7.82a1.1,1.1,0,0,0,1.13,1.13h4.65Z"/><g id="NDnEyb"><path class="cls-4" d="M30.13,101.3V90.37l0.36,0c1.42,0,2.83,0,4.25,0a5.24,5.24,0,0,1,1.2.15,2.77,2.77,0,0,1,1.75,3.94,2.49,2.49,0,0,1-1.6,1.2l0.41,0.12a2.69,2.69,0,0,1,1.7,3.45,2.83,2.83,0,0,1-2.88,2.09c-1.67,0-3.35,0-5,0Zm1.92-4.72v3.08c1,0,1.91,0,2.86,0a1.44,1.44,0,0,0,1.4-1.52,1.47,1.47,0,0,0-1.4-1.53C34,96.53,33,96.57,32.05,96.57Zm0-1.63c0.92,0,1.82,0,2.71,0A1.4,1.4,0,0,0,36,93.47,1.29,1.29,0,0,0,34.88,92C34,91.9,33,91.92,32,91.88v3.06Z"/><path class="cls-4" d="M47.75,101.33c-0.7,0-1.33,0-2,0a0.43,0.43,0,0,1-.24-0.27c-0.5-1.28-1-2.57-1.47-3.86a0.44,0.44,0,0,0-.5-0.35c-0.78,0-1.57,0-2.38,0v4.45h-2V90.37l0.31,0c1.55,0,3.1,0,4.65,0a3.91,3.91,0,0,1,2.67.88c1.32,1.15,1.43,4.17-.73,5.13l-0.28.15Zm-6.54-6.1c0.65,0,1.26,0,1.88,0a8.36,8.36,0,0,0,1.29-.08,1.5,1.5,0,0,0,1.35-1.58A1.43,1.43,0,0,0,44.38,92c-1-.09-2.1,0-3.18,0v3.23Z"/><path class="cls-4" d="M76.42,101.28V90.35h0.41c1.15,0,2.29,0,3.43,0a4.82,4.82,0,0,1,4.93,3.83,6.58,6.58,0,0,1,0,3.5A4.56,4.56,0,0,1,81,101.25C79.49,101.38,78,101.28,76.42,101.28Zm2-1.57c0.57,0,1.12,0,1.67,0a2.83,2.83,0,0,0,2.42-1.32,5.15,5.15,0,0,0-.06-5.26A2.34,2.34,0,0,0,80.94,92c-0.81-.11-1.63-0.1-2.48-0.14V99.7Z"/><path class="cls-4" d="M48.19,95.72a6.18,6.18,0,0,1,1.42-4.07,4.34,4.34,0,0,1,6.92.5,7,7,0,0,1,.2,7,4.41,4.41,0,0,1-7.93-.37A7.7,7.7,0,0,1,48.19,95.72Zm7.2,0.72a8.39,8.39,0,0,0-.52-3.35,2,2,0,0,0-2-1.3,2,2,0,0,0-2,1.2,6.38,6.38,0,0,0-.49,1.76,7.29,7.29,0,0,0,.32,3.6,2.14,2.14,0,0,0,2.09,1.52A2.23,2.23,0,0,0,55,98.34,14.65,14.65,0,0,0,55.39,96.44Z"/><path class="cls-4" d="M75.87,101.33c-0.67,0-1.32,0-2,0a0.44,0.44,0,0,1-.23-0.27Q73.31,100,73,99a0.32,0.32,0,0,0-.36-0.27c-1.22,0-2.44,0-3.66,0a0.3,0.3,0,0,0-.34.25c-0.22.7-.46,1.4-0.68,2.11a0.31,0.31,0,0,1-.36.27c-0.45,0-.91,0-1.4,0,0-.13,0-0.22.07-0.31q1.72-5.2,3.45-10.39a0.34,0.34,0,0,1,.39-0.28c0.63,0,1.26,0,1.88,0a0.3,0.3,0,0,1,.35.23q1.76,5.28,3.54,10.56A1.83,1.83,0,0,1,75.87,101.33Zm-5.05-8.92H70.73L69.2,97.12h3.15Z"/><path class="cls-4" d="M93.16,99.62v1.68H86.07V90.38h7V92h-5v3h4v1.61h-4v3.06h5.09Z"/><path class="cls-4" d="M66.59,94.08l-1.82.2c-0.15-.43-0.26-0.85-0.44-1.25a2,2,0,0,0-3.6-.08,5.77,5.77,0,0,0-.53,2.91,15.77,15.77,0,0,0,.25,2,2.72,2.72,0,0,0,.35.84,1.93,1.93,0,0,0,1.88,1.07,2,2,0,0,0,1.74-1.24,9,9,0,0,0,.36-1.06l1.76,0.2a3.93,3.93,0,0,1-3.33,3.72,4,4,0,0,1-4.73-2.88,7.74,7.74,0,0,1,.27-6.07,4.15,4.15,0,0,1,5.56-1.93,4,4,0,0,1,2.09,2.68C66.47,93.5,66.51,93.77,66.59,94.08Z"/><path class="cls-4" d="M98.93,91.17a16.1,16.1,0,0,1-5.55-3.77h0.48c2.5,0,5,0,7.5,0a2.13,2.13,0,0,1,2.19,1.26,2.07,2.07,0,0,1-.48,2.44,0.39,0.39,0,0,0,0,.09c0.08,0.1.18,0.21,0.27,0.32a2.06,2.06,0,0,1,.25,2.19,1.93,1.93,0,0,1-1.83,1.23c-2.71,0-5.42,0-8.13,0l-0.17,0A16,16,0,0,1,98.93,91.17ZM96.65,93.8l0.44,0h4a3.63,3.63,0,0,0,.55,0,1,1,0,0,0,.82-0.83,0.93,0.93,0,0,0-.61-1,2.33,2.33,0,0,0-.91-0.05,9.46,9.46,0,0,0-4.19,1.79A1,1,0,0,0,96.65,93.8Zm0.09-5.23,0,0.1c0.46,0.28.92,0.57,1.39,0.83a7.24,7.24,0,0,0,3.24,1,1,1,0,1,0,0-2H97.09Z"/></g></svg>