<svg id="Ebene_1" data-name="Ebene 1" xmlns="http://www.w3.org/2000/svg" viewBox="0 0 128 128"><defs><style>.cls-1{fill:#b0b0b2;}.cls-2{fill:#fff;}.cls-3{fill:#b1b1b1;}</style></defs><title>1</title><path class="cls-1" d="M35.56,45S33,44.8,33,47.19v11.3A2.62,2.62,0,0,0,35.56,61H92.44S95,60.89,95,58.49V47.19A2.43,2.43,0,0,0,92.44,45H35.56Z"/><path class="cls-1" d="M35.56,64S33,63.69,33,66.08v11.3S33.17,80,35.56,80H92.44S95,79.77,95,77.38V66.08A2.36,2.36,0,0,0,92.44,64H35.56Z"/><path class="cls-1" d="M35.56,26S33,25.91,33,28.31V39.6A2.55,2.55,0,0,0,35.56,42H92.44S95,42,95,39.6V28.31A2.49,2.49,0,0,0,92.44,26H35.56Z"/><path class="cls-2" d="M87.39,36.7A2.75,2.75,0,1,0,84.67,34a2.73,2.73,0,0,0,2.72,2.75"/><path class="cls-2" d="M87.39,55.47a2.75,2.75,0,1,0-2.72-2.75,2.73,2.73,0,0,0,2.72,2.75"/><path class="cls-2" d="M87.39,74.36a2.75,2.75,0,1,0-2.72-2.75,2.73,2.73,0,0,0,2.72,2.75"/><g id="layer1"><g id="g2594"><path id="path24" class="cls-3" d="M28.7,109.85h0.09a3.75,3.75,0,0,0,1.83-.44,2.54,2.54,0,0,0,.82-0.69,2.08,2.08,0,0,0,.31-0.57v0l0-.05,1.12-3.17a1.11,1.11,0,0,0-1.1-1.32,2.51,2.51,0,0,0,2-1.25l1.08-3.08L35,98.86a1,1,0,0,0,0-.4,1.12,1.12,0,0,0-.4-0.72,1.78,1.78,0,0,0-.89-0.4,3.07,3.07,0,0,0-.51,0H24.37L20,109.85H28.7ZM28,99.06h2.29a0.39,0.39,0,0,1,.14.05,0.22,0.22,0,0,1,.11.21,2.12,2.12,0,0,1-.07.22l-0.16.45-0.31.9-0.32.9c-0.05.15-.1,0.29-0.16,0.45a0.68,0.68,0,0,1-.37.36,1.23,1.23,0,0,1-.59.09H26.76Zm0.09,7.24-0.32.9c-0.05.15-.1,0.29-0.16,0.44a0.7,0.7,0,0,1-.37.37,1.24,1.24,0,0,1-.59.09H24.86l1.28-3.64h2.29a0.32,0.32,0,0,1,.14.05,0.23,0.23,0,0,1,.11.21s-0.06.2-.07,0.22l-0.16.45-0.32.9"/><path id="path26" class="cls-3" d="M91,108.11H87.16a0.27,0.27,0,0,1-.3-0.32l1.23-3.49,2.45-7H88.69a4,4,0,0,0-1.77.44,2.75,2.75,0,0,0-1.18,1.12,4.06,4.06,0,0,0-.26.66l-0.24.68-1.94,5.51-0.48,1.38-0.25.69-0.12.35a1.73,1.73,0,0,0-.1.35A1.15,1.15,0,0,0,83,109.6a2,2,0,0,0,.78.25H92s-1.1,0-.91-1.75"/><path id="path28" class="cls-3" d="M94.28,109.84l0.4,0h6.11a3.55,3.55,0,0,0,2.73-1.25,2.37,2.37,0,0,0,.31-0.55l0.21-.59,0.42-1.19,1.69-4.8L107,99.07a1.22,1.22,0,0,0,.12-0.61,1.08,1.08,0,0,0-.26-0.59,1.83,1.83,0,0,0-1.38-.57H98.94a3.64,3.64,0,0,0-2.78,1.16,2.29,2.29,0,0,0-.34.55c0,0.11-.17.47-0.21,0.59l-0.42,1.18L93.5,105.6l-0.42,1.2-0.21.6-0.21.6C92.38,108.85,93.13,109.7,94.28,109.84ZM97,107.72l0.06-.17,0.24-.66c0.16-.45.31-0.89,0.47-1.33l0.93-2.66,0.94-2.66,0.23-.66a0.8,0.8,0,0,1,.07-0.16,0.58,0.58,0,0,1,.13-0.14,0.85,0.85,0,0,1,.4-0.19,2.27,2.27,0,0,1,.44,0h1.35a0.32,0.32,0,0,1,.32.2,0.29,0.29,0,0,1,0,.17l-0.06.17-0.24.67c-0.15.44-.31,0.88-0.47,1.33l-0.93,2.66q-0.47,1.33-.94,2.66l-0.23.66a0.73,0.73,0,0,1-.07.16,0.58,0.58,0,0,1-.13.14,0.85,0.85,0,0,1-.4.19,2,2,0,0,1-.44,0H97.33a0.32,0.32,0,0,1-.32-0.21,0.27,0.27,0,0,1,0-.17"/><path id="path30" class="cls-3" d="M66.69,109.85h2.76l2.54-3h4.8l-0.39,3h4.12l1.63-12.55h-3a4.15,4.15,0,0,0-2.64,1,4.54,4.54,0,0,0-.43.46l-0.41.48-0.82,1-1.63,1.93Zm11-9.75-0.65,5H73.47l4.2-5"/><path id="path32" class="cls-3" d="M33.72,107.25l-0.35,1a1,1,0,0,0-.05.51,1,1,0,0,0,.22.49,1.71,1.71,0,0,0,1.08.58,4.26,4.26,0,0,0,.67,0h6.05a5.52,5.52,0,0,0,.65,0,4.1,4.1,0,0,0,.66-0.13,3.45,3.45,0,0,0,1.17-.58,2.46,2.46,0,0,0,.74-0.88,4.25,4.25,0,0,0,.19-0.48l0.17-.49,0.7-2,2.8-8H44.13l-2,5.8-1,2.9-0.51,1.44a1.1,1.1,0,0,1-.16.35A0.81,0.81,0,0,1,40,108a1.28,1.28,0,0,1-.48.05H38.07a0.27,0.27,0,0,1-.27-0.28,1.87,1.87,0,0,1,.06-0.18l0.06-.18L38.44,106l1-2.9,2-5.8H37.22l-2.8,8-0.7,2"/><path id="path34" class="cls-3" d="M49.93,109.85l1.68-4.77,4.94,0,1.37-1.77H52.22L53,101.14,53.38,100a1.52,1.52,0,0,1,.24-0.52,1.31,1.31,0,0,1,.57-0.38,1.9,1.9,0,0,1,.72-0.09h5.62a2,2,0,0,1,1.64-1.76H52.29l-0.33,0a4.08,4.08,0,0,0-.66.16,3.3,3.3,0,0,0-1.38.85,2.4,2.4,0,0,0-.4.58c-0.08.16-.18,0.46-0.23,0.62l-3.62,10.3h4.28"/><path id="path36" class="cls-3" d="M58.58,109.85h4.28l1.67-4.77,4,0L70,103.33H65.15L66,101c0.13-.38.27-0.77,0.41-1.15a1,1,0,0,1,.13-0.27,1,1,0,0,1,.24-0.24,1.48,1.48,0,0,1,.69-0.28,3.06,3.06,0,0,1,.38,0h2.75c1,0,2.95,0,3.13,0,1.3-1.91,2.07-1.76,2.07-1.76H65.32l-0.24,0-0.48.08a3.6,3.6,0,0,0-1.53.73,2.58,2.58,0,0,0-.5.56,2.22,2.22,0,0,0-.29.61l-3.71,10.55"/><path id="path38" class="cls-3" d="M105.18,109.74V108.5h-0.61v-0.16H106v0.16h-0.61v1.24h-0.24"/><path id="path40" class="cls-3" d="M106.28,109.74v-1.4h0.37l0.44,1,0.09,0.21,0.1-.22,0.44-1H108v1.4H107.8v-1.18l-0.54,1.18H107l-0.53-1.2v1.2h-0.24"/></g></g></svg>