<?xml version="1.0" encoding="utf-8"?>
<!-- Generator: Adobe Illustrator 19.0.1, SVG Export Plug-In . SVG Version: 6.00 Build 0)  -->
<svg version="1.0" id="Ebene_1" xmlns="http://www.w3.org/2000/svg" xmlns:xlink="http://www.w3.org/1999/xlink" x="0px" y="0px"
	 viewBox="0 0 128 128" enable-background="new 0 0 128 128" xml:space="preserve">
<g>
	<path fill="#FFFFFF" d="M16.2,51c0,0-2.2-0.1-2.2,1.8v22.4c0,0,0.2,1.8,2.2,1.8h96.1c0,0,1.7,0.1,1.7-1.8V52.8c0,0,0.2-1.8-1.7-1.8
		H16.2z"/>
	<path fill="none" stroke="#FFFFFF" stroke-width="5" d="M16.2,50.5c0,0-2.7,0.4-2.7,2.3v22.4c0,0,0.7,2.3,2.7,2.3h96.1
		c0,0,1.2-0.4,1.2-2.3V52.8c0,0,0.8-2.3-1.2-2.3H16.2z"/>
	<path fill="#A7A9AC" d="M16.2,51c0,0-2.2-0.1-2.2,1.8v22.4c0,0,0.2,1.8,2.2,1.8h96.1c0,0,1.7,0.1,1.7-1.8V52.8c0,0,0.2-1.8-1.7-1.8
		H16.2z"/>
	<rect x="22" y="58" fill="#FFFFFF" width="84" height="12"/>
	<polygon fill="#A7A9AC" points="41,68 41,62 43,62 43,61 44,61 44,60 49,60 49,61 50,61 50,62 52,62 52,68 	"/>
	<polygon fill="#A7A9AC" points="24,68 24,62 25,62 25,61 27,61 27,60 32,60 32,61 33,61 33,62 35,62 35,68 	"/>
	<polygon fill="#A7A9AC" points="59,68 59,62 60,62 60,61 62,61 62,60 67,60 67,61 68,61 68,62 69,62 69,68 	"/>
	<polygon fill="#A7A9AC" points="76,68 76,62 77,62 77,61 79,61 79,60 83,60 83,61 85,61 85,62 86,62 86,68 	"/>
	<polygon fill="#A7A9AC" points="93,68 93,62 95,62 95,61 96,61 96,60 101,60 101,61 103,61 103,62 104,62 104,68 	"/>
</g>
</svg>
