<?xml version="1.0" encoding="utf-8"?>
<!-- Generator: Adobe Illustrator 19.0.1, SVG Export Plug-In . SVG Version: 6.00 Build 0)  -->
<svg version="1.0" id="Ebene_1" xmlns="http://www.w3.org/2000/svg" xmlns:xlink="http://www.w3.org/1999/xlink" x="0px" y="0px"
	 viewBox="0 0 128 128" enable-background="new 0 0 128 128" xml:space="preserve">
<g>
	<g>
		<path fill="#B1B1B1" d="M97,99h-3v-9h3V99z M81,99h-4v-9h4V99z M65,99h-4v-9h4V99z M50,99h-4v-9h4V99z M34,99h-4v-9h4V99z M107,99
			V56c0,0-0.4-2-3.4-2h-4.8l-0.9-28h-3.1L94,54H24.4c0,0-3.4-0.3-3.4,2v43.4c0,0,0.4,2.7,3.4,2.7h79.3c0,0,3.4-0.4,3.4-2.7"/>
	</g>
</g>
</svg>
