<?xml version="1.0" encoding="utf-8"?>
<!-- Generator: Adobe Illustrator 19.0.1, SVG Export Plug-In . SVG Version: 6.00 Build 0)  -->
<svg version="1.0" id="Ebene_1" xmlns="http://www.w3.org/2000/svg" xmlns:xlink="http://www.w3.org/1999/xlink" x="0px" y="0px"
	 viewBox="0 0 128 128" enable-background="new 0 0 128 128" xml:space="preserve">
<g>
	<g>
		<g>
			<path fill="#FFFFFF" d="M64,104.7c22.7,0,41-18.2,41-40.7S86.7,23.3,64,23.3c-22.7,0-41,18.2-41,40.7S41.3,104.7,64,104.7"/>
		</g>
		<g>
			<path fill="#B0B0B2" d="M64,104.2c22.4,0,40.6-18,40.6-40.2S86.4,23.8,64,23.8c-22.4,0-40.6,18-40.6,40.2S41.6,104.2,64,104.2"/>
		</g>
	</g>
	<g>
		<polygon fill="#E50060" points="41,75.1 55.5,64 41,52.9 41,61 28,61 28,67 41,67 		"/>
	</g>
	<g>
		<polygon fill="#E50060" points="61,72 67,72 67,84 74.8,84 63.7,98.4 52.5,84 61,84 		"/>
	</g>
	<g>
		<polygon fill="#E50060" points="86,67 98,67 98,61 86,61 86,52.9 71.5,64 86,75.1 		"/>
	</g>
	<g>
		<polygon fill="#E50060" points="74.8,43 67,43 67,56 61,56 61,43 52.5,43 63.7,28.6 		"/>
	</g>
</g>
</svg>
