<?xml version="1.0" encoding="utf-8"?>
<!-- Generator: Adobe Illustrator 19.0.1, SVG Export Plug-In . SVG Version: 6.00 Build 0)  -->
<svg version="1.0" id="Ebene_1" xmlns="http://www.w3.org/2000/svg" xmlns:xlink="http://www.w3.org/1999/xlink" x="0px" y="0px"
	 viewBox="0 0 128 128" enable-background="new 0 0 128 128" xml:space="preserve">
<g>
	<path fill="#A7A9AC" d="M64,105.3c22.8,0,41.3-18.5,41.3-41.3c0-22.8-18.5-41.3-41.3-41.3S22.7,41.2,22.7,64
		C22.7,86.8,41.2,105.3,64,105.3"/>
	<path fill="#EC0F69" d="M48,44c0,0,4.8,0.1,9.7,5.3c4.8,5.2,6.7,8.6,6.7,8.6s4-6,6.9-8.7c5.6-5.3,8.7-5.2,8.7-5.2v-8.5l14.6,11.3
		L80,58v-7.2c0,0-1.9,0.7-3.7,2.2c-1.8,1.5-5,5.3-6.2,7.1c-1.2,1.9-2.2,3.4-2.2,3.4s2.8,4.7,5.8,7.5c3.7,3.6,6.3,4.1,6.3,4.1v-7.5
		l14.6,11.3L80,90.4l0-8.2c0,0-2.1,0.2-5.9-2.3c-4.4-2.8-9.6-10.4-9.6-10.4s-3.2,4.7-5.5,6.9C52.6,82.3,48,82.3,48,82.3v8.1
		L33.3,79.1L48,67.8v7.5c0,0,3.7-0.3,7.9-4.8c4.2-4.5,5-6.7,5-6.7s-2.5-4.1-5.3-7.7c-3.3-4.2-7.5-5.2-7.5-5.2V58L33.3,46.7L48,35.4
		V44z"/>
</g>
</svg>
