<svg id="Ebene_1" data-name="Ebene 1" xmlns="http://www.w3.org/2000/svg" viewBox="0 0 128 128"><defs><style>.cls-1{fill:#b0b0b2;}.cls-2{fill:#e7e6e8;}.cls-3{fill:#fff;}.cls-4{fill:#b1b1b1;}</style></defs><title>1</title><path class="cls-1" d="M78.5,37.57c-3.72,2.85-5.57,1.82-6.88-.08s0.32-5.74,3-7.26C78.1,28,73.74,25,73.74,25c0.37,1.74-1.66,5-3.21,2.78-1.2-1.94,3.29-6.13,3.29-6.13s-6,1.68-7.1,4.67c-2.51,6.58-1.44,12.06-6.24,11.36-0.71,3.74-2.34,4.71-3.24,3.08s-0.37-3.48,2.68-5c5.32-2.57.81-14.25,0.81-14.25,0.9,9.15-5.5,12.67-7.31,11.37-1.75-1.7,1.39-6,1.39-6-10.53,5.8-.28,9.19-4.38,11.82C45.35,42,48.08,35,48.08,35,35.16,43.47,50.37,48.57,53,50.2c0.17,0.92-2.9,9.46,4.65,12.23,3.47,1.28,2.25,1.84,3.45,1.79,4.68-.58,15.3-4.84,17.55-8.21a9,9,0,0,0,1.13-7.2c-1.12,2.46-4,4.94-6.37,4.43-2.08.26-3.12-4.67,5-9.11,10.46-5.1,5.73-14.8,5.73-14.8S82,34.86,78.5,37.57"/><rect class="cls-2" x="38.64" y="69.1" width="15.66" height="10.08"/><rect class="cls-2" x="47.43" y="57.31" width="15.68" height="10.08"/><rect class="cls-2" x="38.64" y="45.92" width="15.66" height="10.08"/><rect class="cls-2" x="73.67" y="69.1" width="15.68" height="10.08"/><rect class="cls-2" x="82.46" y="57.31" width="6.9" height="10.08"/><rect class="cls-2" x="73.67" y="45.92" width="15.69" height="10.08"/><rect class="cls-2" x="56.2" y="69.1" width="15.68" height="10.08"/><rect class="cls-2" x="64.99" y="57.31" width="15.68" height="10.08"/><rect class="cls-2" x="56.17" y="45.92" width="15.69" height="10.08"/><rect class="cls-2" x="38.81" y="57.31" width="8.26" height="10.08"/><rect class="cls-2" x="38.64" y="69.1" width="15.66" height="10.08"/><rect class="cls-2" x="47.43" y="57.31" width="15.68" height="10.08"/><rect class="cls-2" x="38.64" y="45.92" width="15.66" height="10.08"/><rect class="cls-2" x="73.67" y="69.1" width="15.68" height="10.08"/><rect class="cls-2" x="82.46" y="57.31" width="6.9" height="10.08"/><rect class="cls-2" x="73.67" y="45.92" width="15.69" height="10.08"/><rect class="cls-2" x="56.2" y="69.1" width="15.68" height="10.08"/><rect class="cls-2" x="64.99" y="57.31" width="15.68" height="10.08"/><rect class="cls-2" x="56.17" y="45.92" width="15.69" height="10.08"/><rect class="cls-2" x="38.81" y="57.31" width="8.26" height="10.08"/><rect class="cls-2" x="39.8" y="70.08" width="13.35" height="8.11"/><path class="cls-3" d="M55.45,80.49h-18V67.78h18V80.49ZM42.1,75.89h8.75V72.38H42.1v3.51Z"/><rect class="cls-2" x="48.58" y="58.29" width="13.37" height="8.11"/><path class="cls-3" d="M64.25,68.7h-18V56h18V68.7ZM50.89,64.1h8.77V60.59H50.89V64.1Z"/><rect class="cls-2" x="39.8" y="46.91" width="13.35" height="8.11"/><path class="cls-3" d="M55.45,57.32h-18V44.6h18V57.32ZM42.1,52.71h8.75V49.21H42.1v3.51Z"/><rect class="cls-2" x="74.82" y="70.08" width="13.37" height="8.11"/><path class="cls-3" d="M90.49,80.49h-18V67.78h18V80.49Zm-13.37-4.6h8.77V72.38H77.12v3.51Z"/><rect class="cls-2" x="83.61" y="58.29" width="4.59" height="8.11"/><rect class="cls-3" x="81.31" y="55.99" width="9.2" height="12.71"/><rect class="cls-2" x="74.82" y="46.91" width="13.38" height="8.11"/><path class="cls-3" d="M90.5,57.32h-18V44.6h18V57.32Zm-13.38-4.6H85.9V49.21H77.12v3.51Z"/><rect class="cls-2" x="57.35" y="70.08" width="13.37" height="8.11"/><path class="cls-3" d="M73,80.49h-18V67.78H73V80.49Zm-13.37-4.6h8.77V72.38H59.66v3.51Z"/><rect class="cls-2" x="66.14" y="58.29" width="13.37" height="8.11"/><path class="cls-3" d="M81.81,68.7h-18V56h18V68.7ZM68.44,64.1h8.77V60.59H68.44V64.1Z"/><rect class="cls-2" x="57.33" y="46.91" width="13.38" height="8.11"/><path class="cls-3" d="M73,57.32H55V44.6H73V57.32Zm-13.38-4.6h8.78V49.21H59.63v3.51Z"/><rect class="cls-2" x="39.8" y="58.29" width="6.29" height="8.11"/><path class="cls-3" d="M48.39,68.7H37.5V56H48.39V68.7ZM42.1,64.1h1.69V60.59H42.1V64.1Z"/><path class="cls-1" d="M89.35,70.22a1.1,1.1,0,0,0-1.13-1.13H74.8a1.1,1.1,0,0,0-1.13,1.13V78a1.1,1.1,0,0,0,1.13,1.13H88.22A1.1,1.1,0,0,0,89.35,78V70.22ZM65,66.26a1.1,1.1,0,0,0,1.13,1.13H79.54a1.1,1.1,0,0,0,1.13-1.13V58.43a1.1,1.1,0,0,0-1.13-1.13H66.11A1.1,1.1,0,0,0,65,58.43v7.82Zm6.89,4a1.1,1.1,0,0,0-1.13-1.13H57.33a1.1,1.1,0,0,0-1.13,1.13V78a1.1,1.1,0,0,0,1.13,1.13H70.75A1.1,1.1,0,0,0,71.88,78V70.22Zm-24.45-4a1.1,1.1,0,0,0,1.13,1.13H62a1.1,1.1,0,0,0,1.13-1.13V58.43A1.1,1.1,0,0,0,62,57.31H48.56a1.1,1.1,0,0,0-1.13,1.13v7.82Zm6.87,4a1.1,1.1,0,0,0-1.13-1.13H39.77a1.1,1.1,0,0,0-1.13,1.13V78a1.1,1.1,0,0,0,1.13,1.13h13.4A1.1,1.1,0,0,0,54.3,78V70.22ZM45.84,58.43a1.1,1.1,0,0,0-1.13-1.13H39.77a1.1,1.1,0,0,0-1.13,1.13v7.82a1.1,1.1,0,0,0,1.13,1.13h4.95a1.1,1.1,0,0,0,1.13-1.13V58.43Zm-7.2-3.56A1.1,1.1,0,0,0,39.77,56h13.4a1.1,1.1,0,0,0,1.13-1.13V47a1.1,1.1,0,0,0-1.13-1.13H39.77A1.1,1.1,0,0,0,38.64,47v7.82Zm17.53,0A1.1,1.1,0,0,0,57.3,56H70.73a1.1,1.1,0,0,0,1.13-1.13V47a1.1,1.1,0,0,0-1.13-1.13H57.3A1.1,1.1,0,0,0,56.17,47v7.82Zm17.5,0A1.1,1.1,0,0,0,74.8,56H88.23a1.1,1.1,0,0,0,1.13-1.13V47a1.1,1.1,0,0,0-1.13-1.13H74.8A1.1,1.1,0,0,0,73.67,47v7.82ZM88.23,67.38a1.1,1.1,0,0,0,1.13-1.13V58.43a1.1,1.1,0,0,0-1.13-1.13H83.58a1.1,1.1,0,0,0-1.13,1.13v7.82a1.1,1.1,0,0,0,1.13,1.13h4.65Z"/><path id="path268" class="cls-4" d="M55.14,116.55H52.89v-8.89h2.24v8.89Z"/><g id="g270"><g id="g272"><g id="g278"><path id="path280" class="cls-4" d="M73.22,110.21a3.92,3.92,0,0,0-1.89-.47,2.37,2.37,0,1,0,0,4.74,4,4,0,0,0,1.89-.47v2.39a7.17,7.17,0,0,1-2,.32,4.6,4.6,0,1,1,0-9.2,6.85,6.85,0,0,1,2,.32v2.39Z"/></g><g id="g282"><path id="path284" class="cls-4" d="M49.81,110.21a3.89,3.89,0,0,0-1.88-.47,2.37,2.37,0,1,0,0,4.74,3.94,3.94,0,0,0,1.88-.47v2.39a7.13,7.13,0,0,1-2,.32,4.6,4.6,0,1,1,0-9.2,6.82,6.82,0,0,1,2,.32v2.39Z"/></g><g id="g286"><path id="path288" class="cls-4" d="M80.27,109.77a2.34,2.34,0,1,0,2.32,2.34,2.3,2.3,0,0,0-2.32-2.34M85,112.1a4.7,4.7,0,1,1-4.7-4.6,4.56,4.56,0,0,1,4.7,4.6"/></g><g id="g290"><path id="path292" class="cls-4" d="M63.64,109.68a7.67,7.67,0,0,0-1.75-.27c-0.9,0-1.39.3-1.39,0.73a1.16,1.16,0,0,0,1,.85l0.62,0.2a2.67,2.67,0,0,1,2.12,2.54c0,2.23-2,3-3.68,3a13.38,13.38,0,0,1-2.42-.24v-2a8.41,8.41,0,0,0,2.12.33c1.12,0,1.63-.33,1.63-0.83a1.13,1.13,0,0,0-1-.89l-0.48-.15c-1.25-.39-2.29-1.13-2.29-2.6,0-1.66,1.24-2.78,3.31-2.78a9.6,9.6,0,0,1,2.19.28v1.9Z"/></g><g id="g294"><path id="path296" class="cls-4" d="M40.66,98.11a1.11,1.11,0,0,0-2.23,0v2.33a1.11,1.11,0,0,0,2.23,0V98.11Z"/></g><g id="g298"><path id="path300" class="cls-4" d="M46.77,95a1.11,1.11,0,0,0-2.23,0v5.39a1.11,1.11,0,0,0,2.23,0V95Z"/></g><g id="g302"><path id="path304" class="cls-4" d="M52.89,90.86a1.11,1.11,0,0,0-2.23,0v11.8a1.11,1.11,0,0,0,2.23,0V90.86Z"/></g><g id="g306"><path id="path308" class="cls-4" d="M59,95a1.11,1.11,0,0,0-2.23,0v5.39a1.11,1.11,0,0,0,2.23,0V95Z"/></g><g id="g310"><path id="path312" class="cls-4" d="M65.11,98.11a1.11,1.11,0,0,0-2.22,0v2.33a1.11,1.11,0,1,0,2.22,0V98.11Z"/></g><g id="g314"><path id="path316" class="cls-4" d="M71.23,95A1.11,1.11,0,1,0,69,95v5.39a1.11,1.11,0,1,0,2.22,0V95Z"/></g><g id="g318"><path id="path320" class="cls-4" d="M77.35,90.86a1.11,1.11,0,0,0-2.22,0v11.8a1.11,1.11,0,1,0,2.22,0V90.86Z"/></g><g id="g322"><path id="path324" class="cls-4" d="M83.47,95a1.12,1.12,0,0,0-2.23,0v5.39a1.12,1.12,0,0,0,2.23,0V95Z"/></g><g id="g326"><path id="path328" class="cls-4" d="M89.57,98.11a1.11,1.11,0,0,0-2.22,0v2.33a1.11,1.11,0,1,0,2.22,0V98.11Z"/></g><g id="g330"><path id="path332" class="cls-4" d="M88.29,115.38v0.14h-0.4v1H87.73v-1h-0.4v-0.14h1Z"/></g><g id="g334"><path id="path336" class="cls-4" d="M88.37,115.38h0.26l0.35,1h0l0.34-1h0.25v1.17H89.4v-1h0l-0.36,1H88.89l-0.35-1h0v1H88.37v-1.17Z"/></g></g></g></svg>