<?xml version="1.0" encoding="utf-8"?>
<!-- Generator: Adobe Illustrator 19.0.1, SVG Export Plug-In . SVG Version: 6.00 Build 0)  -->
<svg version="1.0" id="Ebene_1" xmlns="http://www.w3.org/2000/svg" xmlns:xlink="http://www.w3.org/1999/xlink" x="0px" y="0px"
	 viewBox="0 0 128 128" enable-background="new 0 0 128 128" xml:space="preserve">
<g>
	<g>
		<g>
			<path fill="#FFFFFF" d="M102,29.5c0,0-0.2,7.4-38,7.4c-37.8,0-38-7.4-38-7.4v18.7c0,0,0.2,9.3,38,9.3c37.8,0,38-9.3,38-9.3V29.5z
				"/>
		</g>
		<g>
			<path fill="#B0B0B2" d="M102,80.5c0,0-0.2,9.3-38,9.3c-37.8,0-38-9.3-38-9.3v18.7c0,0,0.2,9.3,38,9.3c37.8,0,38-9.3,38-9.3V80.5z
				"/>
		</g>
		<g>
			<path fill="#FFFFFF" d="M64,90.1c22.5,0,37.5-4.5,37.5-9.6c0-5.1-16.8-9.3-37.5-9.3s-37.5,4.2-37.5,9.3
				C26.5,85.6,40.7,90.1,64,90.1"/>
		</g>
		<g>
			<path fill="#B0B0B2" d="M102,56.9c0,0-0.2,9.3-38,9.3c-37.8,0-38-9.3-38-9.3v18.7c0,0,0.2,9.3,38,9.3c37.8,0,38-9.3,38-9.3V56.9z
				"/>
		</g>
		<g>
			<path fill="#FFFFFF" d="M64,66.4c22.5,0,37.5-4.5,37.5-9.6S84.7,47.6,64,47.6s-37.5,4.2-37.5,9.3S40.7,66.4,64,66.4"/>
		</g>
		<g>
			<path fill="#B0B0B2" d="M102,33.1c0,0-0.2,9.3-38,9.3c-37.8,0-38-9.3-38-9.3v18.7c0,0,0.2,9.3,38,9.3c37.8,0,38-9.3,38-9.3V33.1z
				"/>
		</g>
		<g>
			<path fill="#B0B0B2" d="M64,38.4c22.5,0,37.5-4.5,37.5-9.6c0-5.1-16.8-9.3-37.5-9.3s-37.5,4.2-37.5,9.3
				C26.5,33.9,40.7,38.4,64,38.4"/>
		</g>
	</g>
</g>
</svg>
