<?xml version="1.0" encoding="utf-8"?>
<!-- Generator: Adobe Illustrator 19.0.1, SVG Export Plug-In . SVG Version: 6.00 Build 0)  -->
<svg version="1.0" id="Ebene_1" xmlns="http://www.w3.org/2000/svg" xmlns:xlink="http://www.w3.org/1999/xlink" x="0px" y="0px"
	 viewBox="0 0 128 128" enable-background="new 0 0 128 128" xml:space="preserve">
<g>
	<g>
		<path fill="#FFFFFF" d="M102,53.2c0,0-0.2,7.4-38,7.4c-37.8,0-38-7.4-38-7.4v18.7c0,0,0.2,9.3,38,9.3c37.8,0,38-9.3,38-9.3V53.2z"
			/>
	</g>
	<g>
		<path fill="#B0B0B2" d="M102,56.8c0,0-0.2,9.3-38,9.3c-37.8,0-38-9.3-38-9.3v18.7c0,0,0.2,9.3,38,9.3c37.8,0,38-9.3,38-9.3V56.8z"
			/>
	</g>
	<g>
		<path fill="#B0B0B2" d="M64,62.1c22.5,0,37.5-4.5,37.5-9.6S84.7,43.2,64,43.2s-37.5,4.2-37.5,9.3S40.7,62.1,64,62.1"/>
	</g>
</g>
</svg>
