<?xml version="1.0" encoding="utf-8"?>
<!-- Generator: Adobe Illustrator 19.0.1, SVG Export Plug-In . SVG Version: 6.00 Build 0)  -->
<svg version="1.0" id="Ebene_1" xmlns="http://www.w3.org/2000/svg" xmlns:xlink="http://www.w3.org/1999/xlink" x="0px" y="0px"
	 viewBox="0 0 128 128" enable-background="new 0 0 128 128" xml:space="preserve">
<g>
	<path fill="#A7A9AC" d="M58.4,83l-0.1-3h3.6v-4.9l25.5,2.4c0,0,2.6-0.4,3.7-1.7c0.9-1.1,2.2-3.4,2.2-3.4l3.5,0.1
		c0,0,7.5-15.3,3.6-22.9c-2.1-4.1-5.6-3.9-5.6-3.9l-58.9-0.4c0,0-9.1,2.6-9.3,11.2s0.8,9.5,0.8,9.5l5,0.8c0,0,2.1,3.1,3,4
		c0.9,0.8,1.7,1,2.7,1.2c1,0.2,13.8,1.7,13.8,1.7l0,6.4h2.9v3H58.4z"/>
	<path fill="#A7A9AC" d="M87.5,77.5c3.9,0.3,7.6-5.9,8.2-13.9c0.6-8-2-14.7-5.9-15s-7.6,5.9-8.2,13.9C80.9,70.5,83.6,77.2,87.5,77.5
		"/>
	<path fill="#6F6F6E" d="M87.4,75.6c3.4,0.3,6.6-5.3,7.2-12.4c0.6-7.1-1.8-13.1-5.2-13.4c-3.4-0.3-6.6,5.3-7.2,12.4
		C81.7,69.4,84,75.3,87.4,75.6"/>
	<path fill="#3C3C3B" d="M87.8,70.4c1.9,0.2,3.8-3.1,4.1-7.3c0.3-4.2-1-7.7-2.9-7.8c-1.9-0.2-3.8,3.1-4.1,7.3
		C84.5,66.7,85.8,70.2,87.8,70.4"/>
	<path fill="#FFFFFF" d="M86.7,65.3c0.7,0.1,1.4-1.1,1.5-2.6c0.1-1.5-0.4-2.8-1.1-2.8c-0.7-0.1-1.4,1.1-1.5,2.6
		C85.5,63.9,86,65.2,86.7,65.3"/>
	<path fill="#A7A9AC" d="M94.7,45.6l-58.9-0.4c0,0-9.1,2.6-9.3,11.2c-0.2,8.5,0.8,9.9,0.8,9.9l54.8,5.9c0,0-0.1-9.9,4-17.6
		c3.6-6.9,7.4-9.2,10.2-8.6C95.5,45.5,94.7,45.6,94.7,45.6"/>
</g>
</svg>
