<?xml version="1.0" encoding="utf-8"?>
<!-- Generator: Adobe Illustrator 19.0.1, SVG Export Plug-In . SVG Version: 6.00 Build 0)  -->
<svg version="1.0" id="Ebene_1" xmlns="http://www.w3.org/2000/svg" xmlns:xlink="http://www.w3.org/1999/xlink" x="0px" y="0px"
	 viewBox="0 0 128 128" enable-background="new 0 0 128 128" xml:space="preserve">
<g>
	<g>
		<g>
			<defs>
				<rect id="SVGID_45_" x="42" y="24" width="44" height="80"/>
			</defs>
			<clipPath id="SVGID_2_">
				<use xlink:href="#SVGID_45_"  overflow="visible"/>
			</clipPath>
			<g clip-path="url(#SVGID_2_)">
				<path fill="#A6A8AB" d="M44.3,24c0,0-2.3-0.3-2.3,2.1v75.8c0,0-0.2,2.1,2.3,2.1h39.5c0,0,2.3,0.3,2.3-2.1V26.1
					c0,0,0.2-2.1-2.3-2.1H44.3z"/>
			</g>
		</g>
		<g>
			<polygon fill="#FFFFFF" points="46,32 46,32 46,88 82,88 82,32 			"/>
		</g>
		<g>
			<defs>
				<rect id="SVGID_47_" x="42" y="24" width="44" height="80"/>
			</defs>
			<clipPath id="SVGID_4_">
				<use xlink:href="#SVGID_47_"  overflow="visible"/>
			</clipPath>
			<g clip-path="url(#SVGID_4_)">
				<path fill="#FFFFFF" d="M64,99.3c2,0,3.5-1.6,3.5-3.5c0-2-1.6-3.5-3.5-3.5s-3.5,1.6-3.5,3.5C60.5,97.8,62,99.3,64,99.3"/>
			</g>
		</g>
		<g>
			<g>
				<path fill="#BBCA0E" d="M57.9,55.4C57.9,55.4,57.9,55.4,57.9,55.4C57.9,55.4,57.9,55.4,57.9,55.4"/>
			</g>
			<g>
				<path fill="#BBCA0E" d="M58.5,55.1C58.4,55.1,58.4,55.1,58.5,55.1C58.4,55.1,58.4,55.1,58.5,55.1"/>
			</g>
			<g>
				<path fill="#E5007E" d="M68.4,56.5c0.2,0.2,0.4,0.4,0.6,0.6C68.8,56.9,68.6,56.7,68.4,56.5L68.4,56.5z"/>
			</g>
		</g>
	</g>
	<path fill="#A7A9AC" d="M67.3,51.1c1.1-1.4,0.9-3.1,0.9-3.1s-1.5-0.1-3.1,1.5C64,50.6,64,52.8,64,52.8S65.6,53.1,67.3,51.1
		 M72.1,55.2c0,0,0,0-0.4-0.5c-0.4-0.5-1.8-1.4-3.3-1.6c-1.6-0.2-3.6,0.9-4.1,1c-0.5,0.1-1-0.2-1.5-0.4c0,0-0.8-0.4-1.6-0.5
		S59,53.1,57.8,54c-1.6,1.4-2.6,2.6-2.4,6.3c0.2,4,2.4,6.6,3.7,7.9c1.3,1.3,2.5,0.8,3.5,0.4c0.9-0.4,2.2-0.6,4,0.1
		c1.8,0.6,2.4,0.3,3.5-0.7c1.2-1,2.6-4.5,2.6-4.5s-2.7-0.8-2.9-4.4C69.6,56.4,72.1,55.2,72.1,55.2"/>
</g>
</svg>
