<?xml version="1.0" encoding="utf-8"?>
<!-- Generator: Adobe Illustrator 19.0.1, SVG Export Plug-In . SVG Version: 6.00 Build 0)  -->
<svg version="1.0" id="Ebene_1" xmlns="http://www.w3.org/2000/svg" xmlns:xlink="http://www.w3.org/1999/xlink" x="0px" y="0px"
	 viewBox="-233 356.9 128 128" enable-background="new -233 356.9 128 128" xml:space="preserve">
<g>
	<g>
		<g>
			<g>
				<defs>
					<rect id="SVGID_1_" x="-191" y="380.9" width="44" height="80"/>
				</defs>
				<clipPath id="SVGID_2_">
					<use xlink:href="#SVGID_1_"  overflow="visible"/>
				</clipPath>
				<g clip-path="url(#SVGID_2_)">
					<path fill="#A6A8AB" d="M-188.7,380.9c0,0-2.3-0.3-2.3,2.1v75.8c0,0-0.2,2.1,2.3,2.1h39.5c0,0,2.3,0.3,2.3-2.1V383
						c0,0,0.2-2.1-2.3-2.1H-188.7z"/>
				</g>
			</g>
		</g>
		<g>
			<polygon fill="#FFFFFF" points="-187,388.9 -187,388.9 -187,444.9 -151,444.9 -151,388.9 			"/>
		</g>
		<g>
			<g>
				<defs>
					<rect id="SVGID_3_" x="-191" y="380.9" width="44" height="80"/>
				</defs>
				<clipPath id="SVGID_4_">
					<use xlink:href="#SVGID_3_"  overflow="visible"/>
				</clipPath>
				<g clip-path="url(#SVGID_4_)">
					<path fill="#FFFFFF" d="M-169,456.2c2,0,3.5-1.6,3.5-3.5c0-2-1.6-3.5-3.5-3.5s-3.5,1.6-3.5,3.5
						C-172.5,454.7-171,456.2-169,456.2"/>
				</g>
			</g>
		</g>
	</g>
	<g>
		<polygon fill="#0B2558" points="-167.5,424.2 -165.6,422.5 -178,415 		"/>
		<path fill="#C0CC17" d="M-178.3,409.9c-2.3,2.1-3.9,5.1-4.3,8.5c-0.4,3.4,0.6,6.6,2.4,9.2l1.9-1.2c-1.3-1.6-2-3.5-2.1-5.6
			c-0.1-3.4,1.7-6.5,4.4-8.2c0,0,0,0-0.1,0L-178.3,409.9z"/>
		<path fill="#F49B00" d="M-159.4,410.2c-0.4-0.4-0.9-0.8-1.4-1.2c-2.4-1.8-5.4-2.8-8.6-2.8c-3.4,0.1-6.5,1.4-8.9,3.6l2.3,2.6
			c0,0,0,0,0.1,0c0.1-0.1,0.3-0.2,0.5-0.3c0,0,0.1,0,0.1,0c0.2-0.1,0.3-0.2,0.5-0.2c0,0,0.1,0,0.1-0.1c1.2-0.5,2.5-0.9,3.8-0.9
			c2.6-0.1,4.9,0.9,6.7,2.4c0.2,0.2,0.4,0.4,0.7,0.6c0,0,0,0,0,0c0.1,0.1,0.2,0.2,0.3,0.3c0,0,0,0.1,0.1,0.1c0,0,0.1,0.1,0.1,0.1
			L-159.4,410.2z"/>
		<path fill="#E50060" d="M-163.2,414.5c1.2,1.5,2,3.5,2.1,5.6c0,1.7-0.4,3.3-1.1,4.7l4.4,2.7c2.1-2.9,3-6.7,2.2-10.5
			c-0.6-2.7-1.9-5-3.7-6.8"/>
	</g>
</g>
</svg>
