<?xml version="1.0" encoding="utf-8"?>
<!-- Generator: Adobe Illustrator 19.0.1, SVG Export Plug-In . SVG Version: 6.00 Build 0)  -->
<svg version="1.0" id="Ebene_1" xmlns="http://www.w3.org/2000/svg" xmlns:xlink="http://www.w3.org/1999/xlink" x="0px" y="0px"
	 viewBox="0 0 128 128" enable-background="new 0 0 128 128" xml:space="preserve">
<g>
	<g>
		<path fill="#A7A9AC" d="M51.5,21c0,0-8.5-0.4-8.5,8.4v64.7c0,0-0.4,12.9,12.9,12.9h16.2c0,0,12.9,0.4,12.9-12.9V29.4
			c0,0,0.4-8.4-8.5-8.4H51"/>
		<path fill="#FFFFFF" d="M47.2,31c0,0-1.2,0.2-1.2,1.4v52c0,0-0.1,1.6,1.2,1.6h34c0,0,0.8-0.4,0.8-1.6v-52c0,0,0.4-1.4-0.8-1.4H47"
			/>
		<path fill="#FFFFFF" d="M59.3,26c0,0-0.3-0.4-0.3,0.1v0.6c0,0-0.1,0.4,0.3,0.4h9.5c0,0,0.2,0.1,0.2-0.4v-0.6c0,0,0.2-0.1-0.2-0.1
			H59"/>
		<path fill="#FFFFFF" d="M64.1,98c2,0,3.6-1.6,3.6-3.6c0-2-1.6-3.6-3.6-3.6s-3.6,1.6-3.6,3.6C60.5,96.4,62.1,98,64.1,98"/>
		<rect x="42" y="20" fill="none" width="44" height="88"/>
	</g>
	<g>
		<path fill="#A7A9AC" d="M59.8,46.7l1.1,1.9c-2,1-3.4,3-3.4,5.2H64h6.5c0-2.2-1.4-4.2-3.4-5.2l1.1-1.9c0,0,0.1-0.1,0-0.2
			c-0.1-0.1-0.2,0-0.2,0l-1.1,2C66,48.1,65,47.9,64,47.9c-1,0-2,0.2-2.9,0.6l-1.1-2c0,0-0.1-0.1-0.2,0
			C59.7,46.6,59.8,46.7,59.8,46.7L59.8,46.7z M60.9,50.4c0.3,0,0.6,0.3,0.6,0.6s-0.3,0.6-0.6,0.6c-0.3,0-0.6-0.3-0.6-0.6
			S60.6,50.4,60.9,50.4z M67.1,50.4c0.3,0,0.6,0.3,0.6,0.6c0,0.3-0.3,0.6-0.6,0.6s-0.6-0.3-0.6-0.6S66.8,50.4,67.1,50.4z"/>
		<path fill="#A7A9AC" d="M57.4,54.6v9.9c0,0.5,0.6,1.1,1.1,1.1h1.5V69c0,0.9,0.6,1.5,1.4,1.5c0.8,0,1.4-0.7,1.4-1.5v-3.4h2.3V69
			c0,0.9,0.6,1.5,1.4,1.5c0.8,0,1.4-0.7,1.4-1.5v-3.4h1.5c0.5,0,1.1-0.6,1.1-1.1v-9.9H57.4L57.4,54.6z"/>
		<path fill="#A7A9AC" d="M55.3,54.4L55.3,54.4c0.8,0,1.4,0.7,1.4,1.5v5.9c0,0.9-0.6,1.5-1.4,1.5l0,0c-0.8,0-1.4-0.7-1.4-1.5v-5.9
			C53.9,55.1,54.5,54.4,55.3,54.4z"/>
		<path fill="#A7A9AC" d="M72.7,54.4L72.7,54.4c0.8,0,1.4,0.7,1.4,1.5v5.9c0,0.9-0.6,1.5-1.4,1.5l0,0c-0.8,0-1.4-0.7-1.4-1.5v-5.9
			C71.3,55.1,71.9,54.4,72.7,54.4z"/>
	</g>
</g>
</svg>
