<?xml version="1.0" encoding="utf-8"?>
<!-- Generator: Adobe Illustrator 19.0.1, SVG Export Plug-In . SVG Version: 6.00 Build 0)  -->
<svg version="1.0" id="Ebene_1" xmlns="http://www.w3.org/2000/svg" xmlns:xlink="http://www.w3.org/1999/xlink" x="0px" y="0px"
	 viewBox="-233 356.9 128 128" enable-background="new -233 356.9 128 128" xml:space="preserve">
<g>
	<path fill="#A7A9AC" d="M-181.5,377.9c0,0-8.5-0.4-8.5,8.4V451c0,0-0.4,12.9,12.9,12.9h16.2c0,0,12.9,0.4,12.9-12.9v-64.7
		c0,0,0.4-8.4-8.5-8.4H-182"/>
	<path fill="#FFFFFF" d="M-185.8,387.9c0,0-1.2,0.2-1.2,1.4v52c0,0-0.1,1.6,1.2,1.6h34c0,0,0.8-0.4,0.8-1.6v-52c0,0,0.4-1.4-0.8-1.4
		H-186"/>
	<path fill="#FFFFFF" d="M-173.7,382.9c0,0-0.3-0.4-0.3,0.1v0.6c0,0-0.1,0.4,0.3,0.4h9.5c0,0,0.2,0.1,0.2-0.4V383
		c0,0,0.2-0.1-0.2-0.1h-9.8"/>
	<path fill="#FFFFFF" d="M-168.9,454.9c2,0,3.6-1.6,3.6-3.6s-1.6-3.6-3.6-3.6s-3.6,1.6-3.6,3.6S-170.9,454.9-168.9,454.9"/>
	<rect x="-191" y="376.9" fill="none" width="44" height="88"/>
</g>
<g>
	<polygon fill="#0B2558" points="-167.5,423.6 -165.6,421.9 -178,414.5 	"/>
	<path fill="#C0CC17" d="M-178.3,409.3c-2.3,2.1-3.9,5.1-4.3,8.5c-0.4,3.4,0.6,6.6,2.4,9.2l1.9-1.2c-1.3-1.6-2-3.5-2.1-5.6
		c-0.1-3.4,1.7-6.5,4.4-8.2c0,0,0,0-0.1,0L-178.3,409.3z"/>
	<path fill="#F49B00" d="M-159.4,409.7c-0.4-0.4-0.9-0.8-1.4-1.2c-2.4-1.8-5.4-2.8-8.6-2.8c-3.4,0.1-6.5,1.4-8.9,3.6l2.3,2.6
		c0,0,0,0,0.1,0c0.1-0.1,0.3-0.2,0.5-0.3c0,0,0.1,0,0.1,0c0.2-0.1,0.3-0.2,0.5-0.2c0,0,0.1,0,0.1-0.1c1.2-0.5,2.5-0.9,3.8-0.9
		c2.6-0.1,4.9,0.9,6.7,2.4c0.2,0.2,0.4,0.4,0.7,0.6c0,0,0,0,0,0c0.1,0.1,0.2,0.2,0.3,0.3c0,0,0,0.1,0.1,0.1c0,0,0.1,0.1,0.1,0.1
		L-159.4,409.7z"/>
	<path fill="#E50060" d="M-163.2,413.9c1.2,1.5,2,3.5,2.1,5.6c0,1.7-0.4,3.3-1.1,4.7l4.4,2.7c2.1-2.9,3-6.7,2.2-10.5
		c-0.6-2.7-1.9-5-3.7-6.8"/>
</g>
</svg>
