<svg id="Ebene_1" data-name="Ebene 1" xmlns="http://www.w3.org/2000/svg" viewBox="0 0 128 128"><defs><style>.cls-1{fill:#b0b0b2;}.cls-2{fill:#e7e6e8;}.cls-3{fill:#fff;}.cls-4{fill:#b1b1b1;}</style></defs><title>1</title><path class="cls-1" d="M78.5,37.57c-3.72,2.85-5.57,1.82-6.88-.08s0.32-5.74,3-7.26C78.1,28,73.74,25,73.74,25c0.37,1.74-1.66,5-3.21,2.78-1.2-1.94,3.29-6.13,3.29-6.13s-6,1.68-7.1,4.67c-2.51,6.58-1.44,12.06-6.24,11.36-0.71,3.74-2.34,4.71-3.24,3.08s-0.37-3.48,2.68-5c5.32-2.57.81-14.25,0.81-14.25,0.9,9.15-5.5,12.67-7.31,11.37-1.75-1.7,1.39-6,1.39-6-10.53,5.8-.28,9.19-4.38,11.82C45.35,42,48.08,35,48.08,35,35.16,43.47,50.37,48.57,53,50.2c0.17,0.92-2.9,9.46,4.65,12.23,3.47,1.28,2.25,1.84,3.45,1.79,4.68-.58,15.3-4.84,17.55-8.21a9,9,0,0,0,1.13-7.2c-1.12,2.46-4,4.94-6.37,4.43-2.08.26-3.12-4.67,5-9.11,10.46-5.1,5.73-14.8,5.73-14.8S82,34.86,78.5,37.57"/><rect class="cls-2" x="38.64" y="69.1" width="15.66" height="10.08"/><rect class="cls-2" x="47.43" y="57.31" width="15.68" height="10.08"/><rect class="cls-2" x="38.64" y="45.92" width="15.66" height="10.08"/><rect class="cls-2" x="73.67" y="69.1" width="15.68" height="10.08"/><rect class="cls-2" x="82.46" y="57.31" width="6.9" height="10.08"/><rect class="cls-2" x="73.67" y="45.92" width="15.69" height="10.08"/><rect class="cls-2" x="56.2" y="69.1" width="15.68" height="10.08"/><rect class="cls-2" x="64.99" y="57.31" width="15.68" height="10.08"/><rect class="cls-2" x="56.17" y="45.92" width="15.69" height="10.08"/><rect class="cls-2" x="38.81" y="57.31" width="8.26" height="10.08"/><rect class="cls-2" x="38.64" y="69.1" width="15.66" height="10.08"/><rect class="cls-2" x="47.43" y="57.31" width="15.68" height="10.08"/><rect class="cls-2" x="38.64" y="45.92" width="15.66" height="10.08"/><rect class="cls-2" x="73.67" y="69.1" width="15.68" height="10.08"/><rect class="cls-2" x="82.46" y="57.31" width="6.9" height="10.08"/><rect class="cls-2" x="73.67" y="45.92" width="15.69" height="10.08"/><rect class="cls-2" x="56.2" y="69.1" width="15.68" height="10.08"/><rect class="cls-2" x="64.99" y="57.31" width="15.68" height="10.08"/><rect class="cls-2" x="56.17" y="45.92" width="15.69" height="10.08"/><rect class="cls-2" x="38.81" y="57.31" width="8.26" height="10.08"/><rect class="cls-2" x="39.8" y="70.08" width="13.35" height="8.11"/><path class="cls-3" d="M55.45,80.49h-18V67.78h18V80.49ZM42.1,75.89h8.75V72.38H42.1v3.51Z"/><rect class="cls-2" x="48.58" y="58.29" width="13.37" height="8.11"/><path class="cls-3" d="M64.25,68.7h-18V56h18V68.7ZM50.89,64.1h8.77V60.59H50.89V64.1Z"/><rect class="cls-2" x="39.8" y="46.91" width="13.35" height="8.11"/><path class="cls-3" d="M55.45,57.32h-18V44.6h18V57.32ZM42.1,52.71h8.75V49.21H42.1v3.51Z"/><rect class="cls-2" x="74.82" y="70.08" width="13.37" height="8.11"/><path class="cls-3" d="M90.49,80.49h-18V67.78h18V80.49Zm-13.37-4.6h8.77V72.38H77.12v3.51Z"/><rect class="cls-2" x="83.61" y="58.29" width="4.59" height="8.11"/><rect class="cls-3" x="81.31" y="55.99" width="9.2" height="12.71"/><rect class="cls-2" x="74.82" y="46.91" width="13.38" height="8.11"/><path class="cls-3" d="M90.5,57.32h-18V44.6h18V57.32Zm-13.38-4.6H85.9V49.21H77.12v3.51Z"/><rect class="cls-2" x="57.35" y="70.08" width="13.37" height="8.11"/><path class="cls-3" d="M73,80.49h-18V67.78H73V80.49Zm-13.37-4.6h8.77V72.38H59.66v3.51Z"/><rect class="cls-2" x="66.14" y="58.29" width="13.37" height="8.11"/><path class="cls-3" d="M81.81,68.7h-18V56h18V68.7ZM68.44,64.1h8.77V60.59H68.44V64.1Z"/><rect class="cls-2" x="57.33" y="46.91" width="13.38" height="8.11"/><path class="cls-3" d="M73,57.32H55V44.6H73V57.32Zm-13.38-4.6h8.78V49.21H59.63v3.51Z"/><rect class="cls-2" x="39.8" y="58.29" width="6.29" height="8.11"/><path class="cls-3" d="M48.39,68.7H37.5V56H48.39V68.7ZM42.1,64.1h1.69V60.59H42.1V64.1Z"/><path class="cls-1" d="M89.35,70.22a1.1,1.1,0,0,0-1.13-1.13H74.8a1.1,1.1,0,0,0-1.13,1.13V78a1.1,1.1,0,0,0,1.13,1.13H88.22A1.1,1.1,0,0,0,89.35,78V70.22ZM65,66.26a1.1,1.1,0,0,0,1.13,1.13H79.54a1.1,1.1,0,0,0,1.13-1.13V58.43a1.1,1.1,0,0,0-1.13-1.13H66.11A1.1,1.1,0,0,0,65,58.43v7.82Zm6.89,4a1.1,1.1,0,0,0-1.13-1.13H57.33a1.1,1.1,0,0,0-1.13,1.13V78a1.1,1.1,0,0,0,1.13,1.13H70.75A1.1,1.1,0,0,0,71.88,78V70.22Zm-24.45-4a1.1,1.1,0,0,0,1.13,1.13H62a1.1,1.1,0,0,0,1.13-1.13V58.43A1.1,1.1,0,0,0,62,57.31H48.56a1.1,1.1,0,0,0-1.13,1.13v7.82Zm6.87,4a1.1,1.1,0,0,0-1.13-1.13H39.77a1.1,1.1,0,0,0-1.13,1.13V78a1.1,1.1,0,0,0,1.13,1.13h13.4A1.1,1.1,0,0,0,54.3,78V70.22ZM45.84,58.43a1.1,1.1,0,0,0-1.13-1.13H39.77a1.1,1.1,0,0,0-1.13,1.13v7.82a1.1,1.1,0,0,0,1.13,1.13h4.95a1.1,1.1,0,0,0,1.13-1.13V58.43Zm-7.2-3.56A1.1,1.1,0,0,0,39.77,56h13.4a1.1,1.1,0,0,0,1.13-1.13V47a1.1,1.1,0,0,0-1.13-1.13H39.77A1.1,1.1,0,0,0,38.64,47v7.82Zm17.53,0A1.1,1.1,0,0,0,57.3,56H70.73a1.1,1.1,0,0,0,1.13-1.13V47a1.1,1.1,0,0,0-1.13-1.13H57.3A1.1,1.1,0,0,0,56.17,47v7.82Zm17.5,0A1.1,1.1,0,0,0,74.8,56H88.23a1.1,1.1,0,0,0,1.13-1.13V47a1.1,1.1,0,0,0-1.13-1.13H74.8A1.1,1.1,0,0,0,73.67,47v7.82ZM88.23,67.38a1.1,1.1,0,0,0,1.13-1.13V58.43a1.1,1.1,0,0,0-1.13-1.13H83.58a1.1,1.1,0,0,0-1.13,1.13v7.82a1.1,1.1,0,0,0,1.13,1.13h4.65Z"/><g id="q65kwo"><path class="cls-4" d="M45.7,92.35v2.1H42.56v-2.1H45.7Z"/><path class="cls-4" d="M48.6,92.35a2.27,2.27,0,0,1,1.2,1.75c0,0.11,0,.23,0,0.36H46.59v-2.1h2Z"/><path class="cls-4" d="M41.67,92.35v2.1H38.5a2.14,2.14,0,0,1,1.21-2.1h2Z"/><path class="cls-4" d="M53.22,97.31v3.08H51.29v-8h0.33c1.94,0,3.87,0,5.81,0a5.76,5.76,0,0,1,1.26.14,1.77,1.77,0,0,1,1.47,1.7c0,0.39,0,.79,0,1.18a1.94,1.94,0,0,1-.63,1.41,1.23,1.23,0,0,1,.54,1.17c0,0.78,0,1.55,0,2.35H58.19c0-.1,0-0.21,0-0.31q0-1.16,0-2.31a0.38,0.38,0,0,0-.38-0.46H53.22Zm0-1.77h4.29c0.62,0,.69-0.09.69-0.71s-0.09-.61-0.63-0.61H53.53l-0.29,0v1.29Z"/><path class="cls-4" d="M83.14,100.4V92.45h7.81v1.77H85.09v1.33h4.07v1.72H85.1v1.35H91v1.78H83.14Z"/><path class="cls-4" d="M72.86,92.43h6.21a3.81,3.81,0,0,1,.91.11,2.27,2.27,0,0,1,1.75,2.07,6.65,6.65,0,0,1,0,.8c0,1.54,0,3.08,0,4.62v0.35h-2v-0.31q0-2.4,0-4.8c0-.08,0-0.16,0-0.24a0.71,0.71,0,0,0-.88-0.83H74.81v6.18h-2v-8Z"/><path class="cls-4" d="M30.74,97.27v3.12h-2V92.45h8.78v1.77h-6.8v1.32H36.6v1.73H30.74Z"/><path class="cls-4" d="M63,94.23H61.19V92.46h7.29v1.75H65v6.17H63V94.23Z"/><path class="cls-4" d="M93.77,94.23H91.94V92.45h7.28v1.77H95.72v6.16h-2V94.23Z"/><path class="cls-4" d="M71.39,100.4H69.47V92.45h1.93v7.95Z"/><path class="cls-4" d="M46.62,97.45v-2h3.2v2h-3.2Z"/><path class="cls-4" d="M41.64,95.39v2.05l-0.28,0c-0.88,0-1.75,0-2.63,0a0.25,0.25,0,0,1-.3-0.31c0-.59,0-1.18,0-1.78h3.2Z"/><path class="cls-4" d="M45.68,98.42v2H42.59v-2h3.09Z"/><path class="cls-4" d="M49.84,98.41a2.42,2.42,0,0,1-.92,1.89,0.62,0.62,0,0,1-.32.15c-0.66,0-1.31,0-2,0v-2h3.22Z"/><path class="cls-4" d="M41.64,98.43v2c-0.68,0-1.35,0-2,0a0.82,0.82,0,0,1-.42-0.25,2.36,2.36,0,0,1-.75-1.59,0.26,0.26,0,0,1,.16-0.2h3Z"/></g></svg>