<svg id="Ebene_1" data-name="Ebene 1" xmlns="http://www.w3.org/2000/svg" viewBox="0 0 128 128"><defs><style>.cls-1{fill:#fff;}.cls-2{fill:#b0b0b2;}.cls-3{fill:#b1b1b1;}</style></defs><title>1</title><path class="cls-1" d="M64,81A31.22,31.22,0,1,0,32.51,49.76,31.36,31.36,0,0,0,64,81"/><path class="cls-2" d="M64,80.63A30.87,30.87,0,1,0,32.88,49.76,31,31,0,0,0,64,80.63"/><polygon class="cls-1" points="46 58.25 57.11 49.76 46 41.27 46 47 37 47 37 52 46 52 46 58.25"/><polygon class="cls-1" points="62 56 66 56 66 65 72.32 65 63.76 76.02 55.2 65 62 65 62 56"/><polygon class="cls-1" points="81 52 90 52 90 47 81 47 81 41.27 69.89 49.76 81 58.25 81 52"/><polygon class="cls-1" points="72.32 34 66 34 66 44 62 44 62 34 55.2 34 63.76 22.98 72.32 34"/><g id="q65kwo"><path class="cls-3" d="M45.7,96.35v2.1H42.56v-2.1H45.7Z"/><path class="cls-3" d="M48.6,96.35a2.27,2.27,0,0,1,1.2,1.75c0,0.11,0,.23,0,0.36H46.59v-2.1h2Z"/><path class="cls-3" d="M41.67,96.35v2.1H38.5a2.14,2.14,0,0,1,1.21-2.1h2Z"/><path class="cls-3" d="M53.22,101.31v3.08H51.29v-8h0.33c1.94,0,3.87,0,5.81,0a5.76,5.76,0,0,1,1.26.14,1.77,1.77,0,0,1,1.47,1.7c0,0.39,0,.79,0,1.18a1.94,1.94,0,0,1-.63,1.41,1.23,1.23,0,0,1,.54,1.17c0,0.78,0,1.55,0,2.35H58.19c0-.1,0-0.21,0-0.31q0-1.16,0-2.31a0.38,0.38,0,0,0-.38-0.46H53.22Zm0-1.77h4.29c0.62,0,.69-0.09.69-0.71s-0.09-.61-0.63-0.61H53.53l-0.29,0v1.29Z"/><path class="cls-3" d="M83.14,104.4V96.45h7.81v1.77H85.09v1.33h4.07v1.72H85.1v1.35H91v1.78H83.14Z"/><path class="cls-3" d="M72.86,96.43h6.21a3.81,3.81,0,0,1,.91.11,2.27,2.27,0,0,1,1.75,2.07,6.65,6.65,0,0,1,0,.8c0,1.54,0,3.08,0,4.62v0.35h-2v-0.31q0-2.4,0-4.8c0-.08,0-0.16,0-0.24a0.71,0.71,0,0,0-.88-0.83H74.81v6.18h-2v-8Z"/><path class="cls-3" d="M30.74,101.27v3.12h-2V96.45h8.78v1.77h-6.8v1.32H36.6v1.73H30.74Z"/><path class="cls-3" d="M63,98.23H61.19V96.46h7.29v1.75H65v6.17H63V98.23Z"/><path class="cls-3" d="M93.77,98.23H91.94V96.45h7.28v1.77H95.72v6.16h-2V98.23Z"/><path class="cls-3" d="M71.39,104.4H69.47V96.45h1.93v7.95Z"/><path class="cls-3" d="M46.62,101.45v-2h3.2v2h-3.2Z"/><path class="cls-3" d="M41.64,99.39v2.05l-0.28,0c-0.88,0-1.75,0-2.63,0a0.25,0.25,0,0,1-.3-0.31c0-.59,0-1.18,0-1.78h3.2Z"/><path class="cls-3" d="M45.68,102.42v2H42.59v-2h3.09Z"/><path class="cls-3" d="M49.84,102.41a2.42,2.42,0,0,1-.92,1.89,0.62,0.62,0,0,1-.32.15c-0.66,0-1.31,0-2,0v-2h3.22Z"/><path class="cls-3" d="M41.64,102.43v2c-0.68,0-1.35,0-2,0a0.82,0.82,0,0,1-.42-0.25,2.36,2.36,0,0,1-.75-1.59,0.26,0.26,0,0,1,.16-0.2h3Z"/></g></svg>