<?xml version="1.0" encoding="utf-8"?>
<!-- Generator: Adobe Illustrator 19.0.1, SVG Export Plug-In . SVG Version: 6.00 Build 0)  -->
<svg version="1.0" id="Ebene_1" xmlns="http://www.w3.org/2000/svg" xmlns:xlink="http://www.w3.org/1999/xlink" x="0px" y="0px"
	 viewBox="0 0 128 128" enable-background="new 0 0 128 128" xml:space="preserve">
<g>
	<g>
		<rect x="29" y="36" fill="#B0B0B2" width="70" height="56"/>
	</g>
	<g>
		<polygon fill="#FFFFFF" points="33.8,39 64.2,63.1 94.6,39 		"/>
	</g>
	<g>
		<defs>
			<rect id="SVGID_17_" x="33" y="39" width="62" height="50"/>
		</defs>
		<clipPath id="SVGID_2_">
			<use xlink:href="#SVGID_17_"  overflow="visible"/>
		</clipPath>
		<g clip-path="url(#SVGID_2_)">
			<path fill="#FFFFFF" d="M64.2,64.8L31.7,39h65.1L64.2,64.8z M36,40l28.2,22.4L92.4,40H36z"/>
		</g>
	</g>
	<g>
		<polygon fill="#FFFFFF" points="34,45.4 53.6,61.1 34,77.2 		"/>
	</g>
	<g>
		<defs>
			<rect id="SVGID_19_" x="33" y="39" width="62" height="50"/>
		</defs>
		<clipPath id="SVGID_4_">
			<use xlink:href="#SVGID_19_"  overflow="visible"/>
		</clipPath>
		<g clip-path="url(#SVGID_4_)">
			<path fill="#FFFFFF" d="M33,78.8v-35l21.6,17.3L33,78.8z M35,47v28.7l17.7-14.5L35,47z"/>
		</g>
	</g>
	<g>
		<polygon fill="#FFFFFF" points="95,45.4 95,78.6 75.7,61.1 		"/>
	</g>
	<g>
		<defs>
			<rect id="SVGID_21_" x="33" y="39" width="62" height="50"/>
		</defs>
		<clipPath id="SVGID_6_">
			<use xlink:href="#SVGID_21_"  overflow="visible"/>
		</clipPath>
		<g clip-path="url(#SVGID_6_)">
			<path fill="#FFFFFF" d="M95,80.3L73.8,61.1L95,43.8V80.3z M76.6,61.2L94,76.9V47L76.6,61.2z"/>
		</g>
	</g>
	<g>
		<polygon fill="#FFFFFF" points="56.8,64.9 64.5,71.4 72.3,65 95,85.1 95,88 34,88 34,83.8 		"/>
	</g>
	<g>
		<defs>
			<rect id="SVGID_23_" x="33" y="39" width="62" height="50"/>
		</defs>
		<clipPath id="SVGID_8_">
			<use xlink:href="#SVGID_23_"  overflow="visible"/>
		</clipPath>
		<g clip-path="url(#SVGID_8_)">
			<path fill="#FFFFFF" d="M95,89H33v-5.6L56.6,64l7.8,6.5l7.4-6.4L95,84.8V89z M35,87h59v-1.5L72.1,66l-7.5,6.4l-7.7-6.5L35,84.1
				V87z"/>
		</g>
	</g>
</g>
</svg>
