<?xml version="1.0" encoding="utf-8"?>
<!-- Generator: Adobe Illustrator 19.0.1, SVG Export Plug-In . SVG Version: 6.00 Build 0)  -->
<svg version="1.0" id="Ebene_1" xmlns="http://www.w3.org/2000/svg" xmlns:xlink="http://www.w3.org/1999/xlink" x="0px" y="0px"
	 viewBox="0 0 128 128" enable-background="new 0 0 128 128" xml:space="preserve">
<g>
	<g>
		<g>
			<path fill="#B0B0B2" d="M85.2,44.3c-5.5,4.2-8.2,2.7-10.1-0.1c-2-2.8,0.5-8.4,4.4-10.6c5.1-3.3-1.3-7.7-1.3-7.7
				c0.5,2.6-2.4,7.3-4.7,4.1c-1.8-2.8,4.8-9,4.8-9s-8.7,2.5-10.4,6.8c-3.7,9.6-2.1,17.7-9.1,16.6c-1,5.5-3.4,6.9-4.7,4.5
				c-1.3-2.4-0.5-5.1,3.9-7.3c7.8-3.8,1.2-20.9,1.2-20.9c1.3,13.4-8.1,18.6-10.7,16.6c-2.6-2.5,2-8.8,2-8.8
				c-15.4,8.5-0.4,13.5-6.4,17.3c-7.4,4.8-3.4-5.5-3.4-5.5C21.8,52.9,44,60.4,47.9,62.8c0.2,1.4-4.2,13.9,6.8,17.9
				c5.1,1.9,3.3,2.7,5,2.6c6.8-0.9,22.4-7.1,25.7-12c3.4-5.1,1.7-10.5,1.7-10.5c-1.6,3.6-5.9,7.2-9.3,6.5c-3.1,0.4-4.6-6.8,7.3-13.3
				c15.3-7.5,8.4-21.7,8.4-21.7S90.4,40.3,85.2,44.3"/>
		</g>
	</g>
	<g>
		<rect x="27" y="90" fill="#E7E6E8" width="23" height="15"/>
	</g>
	<g>
		<rect x="40" y="73" fill="#E7E6E8" width="23" height="15"/>
	</g>
	<g>
		<rect x="27" y="57" fill="#E7E6E8" width="23" height="14"/>
	</g>
	<g>
		<rect x="78" y="90" fill="#E7E6E8" width="23" height="15"/>
	</g>
	<g>
		<rect x="91" y="73" fill="#E7E6E8" width="10" height="15"/>
	</g>
	<g>
		<rect x="78" y="57" fill="#E7E6E8" width="23" height="14"/>
	</g>
	<g>
		<rect x="53" y="90" fill="#E7E6E8" width="23" height="15"/>
	</g>
	<g>
		<rect x="65" y="73" fill="#E7E6E8" width="23" height="15"/>
	</g>
	<g>
		<rect x="53" y="57" fill="#E7E6E8" width="23" height="14"/>
	</g>
	<g>
		<rect x="27" y="73" fill="#E7E6E8" width="12" height="15"/>
	</g>
	<g>
		<rect x="27" y="90" fill="#E7E6E8" width="23" height="15"/>
	</g>
	<g>
		<rect x="40" y="73" fill="#E7E6E8" width="23" height="15"/>
	</g>
	<g>
		<rect x="27" y="57" fill="#E7E6E8" width="23" height="14"/>
	</g>
	<g>
		<rect x="78" y="90" fill="#E7E6E8" width="23" height="15"/>
	</g>
	<g>
		<rect x="91" y="73" fill="#E7E6E8" width="10" height="15"/>
	</g>
	<g>
		<rect x="78" y="57" fill="#E7E6E8" width="23" height="14"/>
	</g>
	<g>
		<rect x="53" y="90" fill="#E7E6E8" width="23" height="15"/>
	</g>
	<g>
		<rect x="65" y="73" fill="#E7E6E8" width="23" height="15"/>
	</g>
	<g>
		<rect x="53" y="57" fill="#E7E6E8" width="23" height="14"/>
	</g>
	<g>
		<rect x="27" y="73" fill="#E7E6E8" width="12" height="15"/>
	</g>
	<g>
		<rect x="29" y="92" fill="#E7E6E8" width="19" height="12"/>
	</g>
	<g>
		<g>
			<path fill="#FFFFFF" d="M51,107H25V89h26V107z M32,100h13v-5H32V100z"/>
		</g>
	</g>
	<g>
		<rect x="41" y="75" fill="#E7E6E8" width="20" height="11"/>
	</g>
	<g>
		<path fill="#FFFFFF" d="M64,90H38V71h26V90z M45,83h13v-5H45V83z"/>
	</g>
	<g>
		<rect x="29" y="58" fill="#E7E6E8" width="19" height="12"/>
	</g>
	<g>
		<g>
			<path fill="#FFFFFF" d="M51,73H25V55h26V73z M32,66h13v-5H32V66z"/>
		</g>
	</g>
	<g>
		<rect x="80" y="92" fill="#E7E6E8" width="19" height="12"/>
	</g>
	<g>
		<g>
			<path fill="#FFFFFF" d="M103,107H76V89h27V107z M83,100h13v-5H83V100z"/>
		</g>
	</g>
	<g>
		<rect x="93" y="75" fill="#E7E6E8" width="6" height="11"/>
	</g>
	<g>
		<g>
			<rect x="89" y="71" fill="#FFFFFF" width="14" height="19"/>
		</g>
	</g>
	<g>
		<rect x="80" y="58" fill="#E7E6E8" width="19" height="12"/>
	</g>
	<g>
		<g>
			<path fill="#FFFFFF" d="M103,73H76V55h27V73z M83,66h13v-5H83V66z"/>
		</g>
	</g>
	<g>
		<rect x="54" y="92" fill="#E7E6E8" width="20" height="12"/>
	</g>
	<g>
		<g>
			<path fill="#FFFFFF" d="M77,107H51V89h26V107z M58,100h12v-5H58V100z"/>
		</g>
	</g>
	<g>
		<rect x="67" y="75" fill="#E7E6E8" width="20" height="11"/>
	</g>
	<g>
		<path fill="#FFFFFF" d="M90,90H64V71h26V90z M71,83h12v-5H71V83z"/>
	</g>
	<g>
		<rect x="54" y="58" fill="#E7E6E8" width="20" height="12"/>
	</g>
	<g>
		<path fill="#FFFFFF" d="M77,73H51V55h26V73z M58,66h12v-5H58V66z"/>
	</g>
	<g>
		<rect x="29" y="75" fill="#E7E6E8" width="9" height="11"/>
	</g>
	<g>
		<g>
			<path fill="#FFFFFF" d="M41,90H25V71h16V90z M32,83h2v-5h-2V83z"/>
		</g>
		<g>
			<path fill="#B0B0B2" d="M101,92.1c0,0,0.1-2.1-1.5-2.1H79.8c0,0-1.8,0.4-1.8,2.1v11.5c0,0,0.2,1.4,1.8,1.4h19.7
				c0,0,1.5,0.2,1.5-1.4V92.1z M65,86.3c0,0,0.4,1.7,2.1,1.7h19.7c0,0,1.3-0.1,1.3-1.7V74.8c0,0,0.4-1.8-1.3-1.8H67.1
				c0,0-2.1,0.2-2.1,1.8V86.3z M76,92.1c0,0-0.5-2.1-2.1-2.1H54.2c0,0-1.2,0.4-1.2,2.1v11.5c0,0-0.4,1.4,1.2,1.4h19.7
				c0,0,2.1,0.2,2.1-1.4V92.1z M40,86.3c0,0-0.3,1.7,1.4,1.7H61c0,0,2-0.1,2-1.7V74.8c0,0-0.3-1.8-2-1.8H41.4c0,0-1.4,0.2-1.4,1.8
				V86.3z M50,92.1c0,0-0.2-2.1-1.9-2.1H28.5c0,0-1.5,0.4-1.5,2.1v11.5c0,0-0.1,1.4,1.5,1.4h19.6c0,0,1.9,0.2,1.9-1.4V92.1z
				 M37,74.8c0,0,0.4-1.8-1.2-1.8h-7.2c0,0-1.5,0.2-1.5,1.8v11.5c0,0-0.1,1.7,1.5,1.7h7.2c0,0,1.2-0.1,1.2-1.7V74.8z M27,69.6
				c0,0-0.1,1.4,1.5,1.4h19.6c0,0,1.9,0.3,1.9-1.4V58.2c0,0-0.2-1.2-1.9-1.2H28.5c0,0-1.5-0.5-1.5,1.2V69.6z M53,69.6
				c0,0-0.5,1.4,1.2,1.4h19.7c0,0,2.1,0.3,2.1-1.4V58.2c0,0-0.5-1.2-2.1-1.2H54.2c0,0-1.2-0.5-1.2,1.2V69.6z M78,69.6
				c0,0,0.2,1.4,1.8,1.4h19.7c0,0,1.5,0.3,1.5-1.4V58.2c0,0,0.1-1.2-1.5-1.2H79.8c0,0-1.8-0.5-1.8,1.2V69.6z M99.5,88
				c0,0,1.5-0.1,1.5-1.7V74.8c0,0,0.1-1.8-1.5-1.8h-6.8c0,0-1.7,0.2-1.7,1.8v11.5c0,0,0,1.7,1.7,1.7H99.5z"/>
		</g>
	</g>
</g>
</svg>
