<?xml version="1.0" encoding="utf-8"?>
<!-- Generator: Adobe Illustrator 19.0.1, SVG Export Plug-In . SVG Version: 6.00 Build 0)  -->
<svg version="1.0" id="Ebene_1" xmlns="http://www.w3.org/2000/svg" xmlns:xlink="http://www.w3.org/1999/xlink" x="0px" y="0px"
	 viewBox="0 0 128 128" enable-background="new 0 0 128 128" xml:space="preserve">
<g>
	<g>
		<defs>
			<rect id="SVGID_27_" x="37" y="30" width="54" height="68"/>
		</defs>
		<clipPath id="SVGID_2_">
			<use xlink:href="#SVGID_27_"  overflow="visible"/>
		</clipPath>
		<g clip-path="url(#SVGID_2_)">
			<path fill="#B2B2B2" d="M79,60H48v-7.6C48,37.6,63.2,38,63.2,38h1.3C79.3,38,79,52.4,79,52.4V60z M91,60h-5v-8.2
				c0,0,0.5-21.8-21.6-21.8h-1.1c0,0-22.2-0.2-22.2,21.8V60h-4v38h54V60z"/>
		</g>
		<g clip-path="url(#SVGID_2_)">
			<path fill="#FFFFFF" d="M68.2,73.4c0-2.3-1.9-4.2-4.2-4.2c-2.3,0-4.2,1.9-4.2,4.2c0,1.6,0.9,3.1,2.2,3.8L60,91H68l-1.9-13.9
				C67.4,76.4,68.2,74.9,68.2,73.4"/>
		</g>
	</g>
</g>
</svg>
