<?xml version="1.0" encoding="utf-8"?>
<!-- Generator: Adobe Illustrator 19.0.1, SVG Export Plug-In . SVG Version: 6.00 Build 0)  -->
<svg version="1.0" id="Ebene_1" xmlns="http://www.w3.org/2000/svg" xmlns:xlink="http://www.w3.org/1999/xlink" x="0px" y="0px"
	 viewBox="0 0 128 128" enable-background="new 0 0 128 128" xml:space="preserve">
<g>
	<g>
		<polygon fill="#B3CB38" points="37,76.5 37,51.9 37,49.8 38.4,50.7 61.3,63.8 63,64.7 63,67 63,91.6 63,93.7 61.4,92.8 38.6,79.7 
			37,78.8 		"/>
	</g>
	<g>
		<g>
			<path fill="#FFFFFF" d="M65,96.8l-30-17V46.7l30,17V96.8z M39,77.7l22,12.8V65.8L39,53V77.7z"/>
		</g>
		<g>
			<polygon fill="#B3CB38" points="91,51.9 91,76.5 91,78.8 89.3,79.7 66.5,92.8 65,93.7 65,91.6 65,67 65,64.7 66.6,63.8 
				89.5,50.7 91,49.8 			"/>
		</g>
		<g>
			<path fill="#FFFFFF" d="M63,96.8V63.7l30-17v33.2l-2.7,1.5L63,96.8z M67,65.8v24.8l22-12.8V53L67,65.8z"/>
		</g>
	</g>
	<g>
		<polygon fill="#B3CB38" points="64.8,63.7 90.2,49.7 93.3,48 90.2,46.5 64.8,33.7 64,33.3 63.2,33.7 37.8,46.5 34.7,48 37.7,49.7 
			63,63.7 63.9,64.2 		"/>
	</g>
	<g>
		<g>
			<path fill="#FFFFFF" d="M63.9,66.3L30.8,48L64,31.3l1.6,0.8L97.2,48L63.9,66.3z M38.6,48.1l25.3,14l25.5-14L64,35.4L38.6,48.1z"
				/>
		</g>
	</g>
</g>
</svg>
