<?xml version="1.0" encoding="utf-8"?>
<!-- Generator: Adobe Illustrator 19.0.1, SVG Export Plug-In . SVG Version: 6.00 Build 0)  -->
<svg version="1.0" id="Ebene_1" xmlns="http://www.w3.org/2000/svg" xmlns:xlink="http://www.w3.org/1999/xlink" x="0px" y="0px"
	 viewBox="0 0 128 128" enable-background="new 0 0 128 128" xml:space="preserve">
<g>
	<g>
		<polygon fill="#B0B0B2" points="36,76.9 36,51.5 36,49.4 37.5,50.3 61.2,63.8 63,64.7 63,67.1 63,92.5 63,94.6 61.4,93.7 
			37.7,80.2 36,79.3 		"/>
	</g>
	<g>
		<g>
			<path fill="#FFFFFF" d="M65,97.9L34,80.3V46.1l31,17.5V97.9z M38,78.2l23,13.2V65.8L38,52.6V78.2z"/>
		</g>
		<g>
			<polygon fill="#B0B0B2" points="92,51.5 92,76.9 92,79.3 90.2,80.2 66.6,93.7 65,94.6 65,92.5 65,67.1 65,64.7 66.6,63.8 
				90.4,50.3 92,49.4 			"/>
		</g>
		<g>
			<path fill="#FFFFFF" d="M63,97.9V63.7l31-17.5v34.2L63,97.9z M67,65.8v25.5l23-13.2V52.6L67,65.8z"/>
		</g>
	</g>
	<g>
		<polygon fill="#B0B0B2" points="64.8,63.7 91.1,49.3 94.2,47.5 91,45.9 64.8,32.8 64,32.3 63.1,32.8 37,45.9 33.8,47.5 36.9,49.3 
			63,63.7 63.9,64.2 		"/>
	</g>
	<g>
		<g>
			<path fill="#FFFFFF" d="M63.9,66.4L29.8,47.5L64,30.2l1.7,0.9l32.5,16.4L63.9,66.4z M37.8,47.6l26.1,14.5l26.3-14.5L64,34.5
				L37.8,47.6z"/>
		</g>
	</g>
</g>
</svg>
