<?xml version="1.0" encoding="utf-8"?>
<!-- Generator: Adobe Illustrator 19.0.1, SVG Export Plug-In . SVG Version: 6.00 Build 0)  -->
<svg version="1.0" id="Ebene_1" xmlns="http://www.w3.org/2000/svg" xmlns:xlink="http://www.w3.org/1999/xlink" x="0px" y="0px"
	 viewBox="0 0 128 128" enable-background="new 0 0 128 128" xml:space="preserve">
<g>
	<path fill="#B1B1B1" d="M51,85h5v6h-5V85z M61,85h6v6h-6V85z M72,85h5v6h-5V85z M51,76h5v6h-5V76z M61,76h6v6h-6V76z M72,76h5v6h-5
		V76z M51,67h5v5h-5V67z M61,67h6v5h-6V67z M72,67h5v5h-5V67z M51,57h5v6h-5V57z M61,57h6v6h-6V57z M72,57h5v6h-5V57z M51,48h5v5h-5
		V48z M61,48h6v5h-6V48z M72,48h5v5h-5V48z M51,38h5v6h-5V38z M61,38h6v6h-6V38z M72,38h5v6h-5V38z M51,28h5v6h-5V28z M61,28h6v6h-6
		V28z M72,28h5v6h-5V28z M52,21v4h-8.2l0,82H61V96h6v11h17.2l0-82H76v-4H52z"/>
</g>
</svg>
