<?xml version="1.0" encoding="utf-8"?>
<!-- Generator: Adobe Illustrator 19.0.1, SVG Export Plug-In . SVG Version: 6.00 Build 0)  -->
<svg version="1.0" id="Ebene_1" xmlns="http://www.w3.org/2000/svg" xmlns:xlink="http://www.w3.org/1999/xlink" x="0px" y="0px"
	 viewBox="0 0 128 128" enable-background="new 0 0 128 128" xml:space="preserve">
<g>
	<g>
		<path fill="#B0B0B2" d="M30,79.1c0-0.3,0.2-0.8,0.3-1.3s0.4-1.4,0.8-2.6c0.4-1.2,1.1-2.2,1.8-2.8c0.7-0.7,2.3-1.4,4.5-2.1
			c2.2-0.8,4.7-1.6,7.5-2.5c2.8-0.9,4.8-1.6,6.2-2.2c1.6-0.7,2.9-1.8,3.8-3.2c0.9-1.4,1.4-2.8,1.4-4.3c0-1-0.7-2.2-2.1-3.6
			c-1.4-1.4-2.6-3.4-3.5-5.8c-0.9-2.5-1.3-5.3-1.3-8.5c0-2.4,0.4-4.6,1.2-6.4c0.8-1.9,1.9-3.4,3.2-4.5c1.4-1.1,2.9-2,4.7-2.6
			c1.7-0.6,3.6-0.9,5.6-0.9c2,0,3.8,0.3,5.6,0.9c1.7,0.6,3.3,1.4,4.6,2.6c1.4,1.1,2.5,2.6,3.2,4.5c0.8,1.9,1.2,4,1.2,6.4
			c0,3.2-0.4,6.1-1.3,8.5c-0.9,2.5-2,4.4-3.5,5.8c-1.4,1.4-2.1,2.6-2.1,3.6c0,1.5,0.5,2.9,1.4,4.3c0.9,1.4,2.2,2.5,3.8,3.2
			c1.3,0.6,3.4,1.3,6.1,2.2c2.8,0.9,5.3,1.7,7.5,2.5c2.2,0.8,3.7,1.5,4.4,2.1c0.8,0.7,1.4,1.6,1.8,2.7c0.4,1.1,0.7,1.9,0.7,2.7
			l0.1,24.3H30V79.1z"/>
	</g>
</g>
</svg>
