<?xml version="1.0" encoding="utf-8"?>
<!-- Generator: Adobe Illustrator 19.0.1, SVG Export Plug-In . SVG Version: 6.00 Build 0)  -->
<svg version="1.0" id="Ebene_1" xmlns="http://www.w3.org/2000/svg" xmlns:xlink="http://www.w3.org/1999/xlink" x="0px" y="0px"
	 viewBox="0 0 128 128" enable-background="new 0 0 128 128" xml:space="preserve">
<g>
	<g>
		<g>
			<path fill="#B0B0B2" d="M12,80c0-0.2,0.1-0.5,0.1-0.9c0-0.4,0.2-1,0.5-1.9c0.3-0.9,0.7-1.5,1.3-2c0.5-0.5,1.6-1,3.2-1.5
				c1.6-0.6,3.3-1.1,5.3-1.7c2-0.6,3.4-1.1,4.4-1.5c1.2-0.5,2.1-1.3,2.7-2.3c0.6-1,1-2,1-3.1c0-0.7-0.5-1.6-1.5-2.6
				c-1-1-1.8-2.4-2.5-4.1c-0.6-1.7-0.9-3.8-0.9-6c0-1.7,0.3-3.2,0.8-4.6c0.6-1.3,1.3-2.4,2.3-3.2c1-0.8,2.1-1.4,3.3-1.8
				c1.2-0.4,2.6-0.6,4-0.6c1.4,0,2.7,0.2,3.9,0.6c1.2,0.4,2.3,1,3.3,1.8c1,0.8,1.7,1.9,2.3,3.2c0.6,1.3,0.8,2.9,0.8,4.6
				c0,2.3-0.3,4.3-0.9,6c-0.6,1.7-1.4,3.1-2.4,4.1c-1,1-1.5,1.9-1.5,2.6c0,1.1,0.3,2.1,1,3.1c0.7,1,1.6,1.7,2.7,2.3
				c0.9,0.4,2.4,0.9,4.4,1.5c2,0.6,3.7,1.2,5.3,1.7c1.6,0.6,2.6,1.1,3.1,1.5c0.5,0.5,1,1.1,1.3,1.9c0.3,0.8,0.5,1.3,0.5,1.8L59.7,96
				H12V80z"/>
		</g>
	</g>
	<g>
		<g>
			<path fill="#B0B0B2" d="M65,80c0-0.2,0.1-0.5,0.1-0.9s0.2-1,0.5-1.9c0.3-0.9,0.8-1.5,1.3-2c0.5-0.5,1.6-1,3.2-1.5
				c1.6-0.6,3.4-1.1,5.3-1.7c2-0.6,3.4-1.1,4.4-1.5c1.2-0.5,2.1-1.3,2.7-2.3c0.6-1,1-2,1-3.1c0-0.7-0.5-1.6-1.5-2.6
				c-1-1-1.8-2.4-2.5-4.1c-0.6-1.7-0.9-3.8-0.9-6c0-1.7,0.3-3.2,0.8-4.6c0.6-1.3,1.3-2.4,2.3-3.2c1-0.8,2.1-1.4,3.3-1.8
				c1.2-0.4,2.6-0.6,4-0.6c1.4,0,2.7,0.2,3.9,0.6c1.2,0.4,2.3,1,3.3,1.8c1,0.8,1.7,1.9,2.3,3.2c0.6,1.3,0.8,2.9,0.8,4.6
				c0,2.3-0.3,4.3-0.9,6c-0.6,1.7-1.4,3.1-2.4,4.1c-1,1-1.5,1.9-1.5,2.6c0,1.1,0.3,2.1,1,3.1c0.7,1,1.6,1.7,2.7,2.3
				c0.9,0.4,2.4,0.9,4.4,1.5c2,0.6,3.7,1.2,5.3,1.7c1.6,0.6,2.6,1.1,3.1,1.5c0.5,0.5,1,1.1,1.3,1.9c0.3,0.8,0.5,1.3,0.5,1.8
				l0.1,17.1H65V80z"/>
		</g>
	</g>
	<g>
		<g>
			<path fill="#B0B0B2" d="M39,69.5c0-0.2,0.1-0.5,0.1-0.9c0-0.4,0.2-1,0.5-1.9c0.3-0.9,0.7-1.5,1.3-2c0.5-0.5,1.6-1,3.2-1.5
				c1.6-0.6,3.3-1.1,5.3-1.7c2-0.6,3.4-1.1,4.4-1.5c1.2-0.5,2.1-1.3,2.7-2.3c0.6-1,1-2,1-3.1c0-0.7-0.5-1.6-1.5-2.6
				c-1-1-1.8-2.4-2.5-4.1c-0.6-1.7-0.9-3.8-0.9-6c0-1.7,0.3-3.2,0.8-4.6c0.6-1.3,1.3-2.4,2.3-3.2c1-0.8,2.1-1.4,3.3-1.8
				c1.2-0.4,2.6-0.6,4-0.6c1.4,0,2.7,0.2,3.9,0.6c1.2,0.4,2.3,1,3.3,1.8c1,0.8,1.7,1.9,2.3,3.2c0.6,1.3,0.8,2.9,0.8,4.6
				c0,2.3-0.3,4.3-0.9,6c-0.6,1.7-1.4,3.1-2.4,4.1c-1,1-1.5,1.9-1.5,2.6c0,1.1,0.3,2.1,1,3.1c0.7,1,1.6,1.7,2.7,2.3
				c0.9,0.4,2.4,0.9,4.4,1.5c2,0.6,3.7,1.2,5.3,1.7c1.6,0.6,2.6,1.1,3.1,1.5c0.5,0.5,1,1.1,1.3,1.9c0.3,0.8,0.5,1.5,0.5,2.1L86.7,86
				H39V69.5z"/>
		</g>
	</g>
	<g>
		<rect x="43" y="80" fill="#B1B1B1" width="44" height="16"/>
	</g>
</g>
</svg>
