<svg id="Ebene_1" data-name="Ebene 1" xmlns="http://www.w3.org/2000/svg" viewBox="0 0 128 128"><defs><style>.cls-1{fill:#b0b0b2;}.cls-2{fill:#fff;}.cls-3{fill:#b1b1b1;}</style></defs><title>1</title><path class="cls-1" d="M19,47s-4-.32-4,3.6v17.7A3.79,3.79,0,0,0,19,72h90s4,0.21,4-3.71V50.6a3.72,3.72,0,0,0-4-3.6H19Z"/><path class="cls-2" d="M101.11,63.81a4.37,4.37,0,1,0-4.31-4.37,4.34,4.34,0,0,0,4.31,4.37"/><path class="cls-2" d="M85.79,68.25a1.8,1.8,0,0,0-.69-1.4,3,3,0,0,0,.9-1.38V55a2,2,0,0,0-.83-1.43A2.28,2.28,0,0,0,86,52.14V39.62A2.42,2.42,0,0,1,84.78,41a2.32,2.32,0,0,0,1.06-1.7c0-2.87-9.46-5.2-21.09-5.2s-21.08,2.33-21.08,5.2a2.55,2.55,0,0,0,1,1.52A1.22,1.22,0,0,1,44,39.62V52.14a2.28,2.28,0,0,0,.83,1.41A2,2,0,0,0,44,55V65.47a1.56,1.56,0,0,0,.63,1.38,2.09,2.09,0,0,0-.88,1.4,0.76,0.76,0,0,0,0,.25,1.63,1.63,0,0,0,.16.43,3.48,3.48,0,0,1,0-.43,0.25,0.25,0,0,1,.1-0.25V78.73s-0.19,5.21,21,5.21,21-5.21,21-5.21V68.25a0.66,0.66,0,0,0-.17.27,4,4,0,0,1-.26.48,1.73,1.73,0,0,0,.19-0.48,0.87,0.87,0,0,0,0-.27"/><path class="cls-2" d="M65,86.94c-12,0-19.33-1.57-22.45-4.8A5,5,0,0,1,41,78.73v-9c-0.06-.17-0.1-0.31-0.12-0.4a3.52,3.52,0,0,1-.13-1.08,4.05,4.05,0,0,1,.35-1.64,4.1,4.1,0,0,1-.1-1.28V55a4.32,4.32,0,0,1,.26-1.48A4.07,4.07,0,0,1,41,52.18V40.8a3.91,3.91,0,0,1-.32-1.54c0-7.61,18.43-8.2,24.08-8.2s24.09,0.59,24.09,8.2c0,0.11,0,.23,0,0.35H89V52.14a4.15,4.15,0,0,1-.26,1.37A4.31,4.31,0,0,1,89,55V78.73a5,5,0,0,1-1.55,3.41C84.33,85.37,77,86.94,65,86.94ZM47,78.09c0.77,0.64,4.39,2.85,18,2.85s17.23-2.21,18-2.85V69l-2.28-2L83,64.72h0V55.65l-2.21-1.91L83,51.49V40c-1.29-1.07-7.78-3-18.24-3C55.24,37.06,49,38.63,47,39.72V51.48l2.26,2.21-2.26,2V65l2,2-2,1.79v9.34Zm-2.57-9.26,1.35,1.83a2.75,2.75,0,0,0,1.08-1.79l-0.24.22-0.15.14a1.67,1.67,0,0,0,.28-0.91,2.63,2.63,0,0,0-.07-0.55l0-.07Zm38.41-1a2.13,2.13,0,0,0,0,.45A1.34,1.34,0,0,0,83,69v-0.7h1L83,67.67v0l-0.05,0A1.66,1.66,0,0,0,82.84,67.8ZM45.52,40.08l1.35,0.41A2.68,2.68,0,0,0,47,39.73a2.33,2.33,0,0,0-.58.41,1.27,1.27,0,0,0,.24-0.57l0.34,0a2.1,2.1,0,0,0-.27-1l-0.1.11a1.8,1.8,0,0,0-.13-0.37l-0.77,1,0.3,0ZM83,38.68a1.54,1.54,0,0,0-.11.58A1.58,1.58,0,0,0,83,40V39.62h0.64l-0.31-.42,0.31,0-0.43-.66a2.21,2.21,0,0,0-.11.31Z"/><path class="cls-2" d="M87,39.39s-0.08,4.32-22,4.32-22-4.32-22-4.32V50.23s0.08,5.39,22,5.39,22-5.39,22-5.39V39.39Z"/><path class="cls-1" d="M87,69s-0.08,5.42-22,5.42S43,69,43,69V79.86s0.08,5.39,22,5.39,22-5.39,22-5.39V69Z"/><path class="cls-2" d="M64.73,74.58c13.09,0,21.79-2.6,21.79-5.57s-9.76-5.38-21.79-5.38S42.94,66,42.94,69s8.24,5.57,21.79,5.57"/><path class="cls-1" d="M87,55.29s-0.08,5.42-22,5.42-22-5.42-22-5.42V66.14s0.08,5.39,22,5.39,22-5.39,22-5.39V55.29Z"/><path class="cls-2" d="M64.73,60.86c13.09,0,21.79-2.6,21.79-5.57s-9.76-5.38-21.79-5.38-21.79,2.41-21.79,5.38,8.24,5.57,21.79,5.57"/><path class="cls-1" d="M87,41.5s-0.08,5.42-22,5.42S43,41.5,43,41.5V52.35s0.08,5.39,22,5.39,22-5.39,22-5.39V41.5Z"/><path class="cls-1" d="M64.73,44.59c13.09,0,21.79-2.6,21.79-5.57s-9.76-5.38-21.79-5.38S42.94,36,42.94,39s8.24,5.57,21.79,5.57"/><g id="layer1"><g id="g16337"><path id="path16197" class="cls-3" d="M57.68,104.59h4.81l-2.54-4.09-4.67,7.4H53.15L58.83,99a1.34,1.34,0,0,1,1.11-.58A1.32,1.32,0,0,1,61,99l5.7,8.9H64.61l-1-1.65H58.74Zm22.07,1.65V98.52h-1.8V107a0.88,0.88,0,0,0,.26.63,0.92,0.92,0,0,0,.66.27h8.22l1.06-1.65h-8.4Zm-29.83-1.38a3.17,3.17,0,1,0,0-6.34H42v9.38h1.8v-7.72h6a1.52,1.52,0,0,1,0,3H44.71l5.38,4.69h2.62l-3.62-3h0.82Zm-19,3a4.69,4.69,0,1,1,0-9.38h5.45a4.69,4.69,0,1,1,0,9.38H30.93Zm5.33-1.65a3,3,0,1,0,0-6.07H31.05a3,3,0,1,0,0,6.07h5.21Zm34.24,1.65a4.69,4.69,0,1,1,0-9.38H77l-1.06,1.65h-5.3a3,3,0,1,0,0,6.07h6.5l-1.06,1.65H70.5Zm22.05-1.65A3,3,0,0,1,89.63,104h7.71l1.06-1.65H89.63a3,3,0,0,1,2.92-2.21h5.29l1.07-1.65H92.43a4.69,4.69,0,1,0,0,9.38H98l1.06-1.65h-6.5"/><path id="path16199" class="cls-3" d="M99.88,99.51a0.83,0.83,0,1,1,.82.83A0.82,0.82,0,0,1,99.88,99.51Zm0.82,1.06a1.06,1.06,0,1,0-1-1.06A1.05,1.05,0,0,0,100.7,100.58Zm-0.1-1.68a0.76,0.76,0,0,1,.31,0,0.33,0.33,0,0,1,.23.33,0.3,0.3,0,0,1,0,.1,0.3,0.3,0,0,1-.14.2l-0.05,0,0.27,0.49h-0.26l-0.24-.45h-0.16v0.45H100.3V98.89h0.3Zm0.08,0.54a0.23,0.23,0,0,0,.19-0.07,0.16,0.16,0,0,0,0-.1,0.17,0.17,0,0,0-.09-0.14,0.54,0.54,0,0,0-.22,0h-0.07v0.34h0.15"/></g></g></svg>