<?xml version="1.0" encoding="utf-8"?>
<!-- Generator: Adobe Illustrator 19.0.1, SVG Export Plug-In . SVG Version: 6.00 Build 0)  -->
<svg version="1.0" id="Ebene_1" xmlns="http://www.w3.org/2000/svg" xmlns:xlink="http://www.w3.org/1999/xlink" x="0px" y="0px"
	 viewBox="0 0 128 128" enable-background="new 0 0 128 128" xml:space="preserve">
<g>
	<path fill="#0B2558" d="M95.9,81.2c0,1-0.7,1.7-1.9,1.7h-2.4v-3.4H94C95.2,79.5,95.9,80.2,95.9,81.2 M99,90.2l-3-5.6
		c1.3-0.5,2.4-1.6,2.4-3.4c0-2.2-1.6-4-4.3-4H89v13.1h2.6V85h1.9l2.6,5.2H99z M83.8,83.7c0,2.5-0.1,3.1-0.6,3.7
		c-0.4,0.4-0.9,0.7-1.7,0.7s-1.3-0.3-1.7-0.7c-0.5-0.5-0.6-1.2-0.6-3.7c0-2.5,0.1-3.1,0.6-3.7c0.4-0.4,1-0.7,1.7-0.7
		s1.3,0.3,1.7,0.7C83.7,80.6,83.8,81.2,83.8,83.7 M86.4,83.7c0-2.3,0-3.9-1.3-5.2c-0.9-0.9-2.1-1.4-3.6-1.4s-2.7,0.5-3.6,1.4
		c-1.3,1.3-1.3,3-1.3,5.2c0,2.3,0,3.9,1.3,5.2c0.9,0.9,2.1,1.4,3.6,1.4s2.6-0.5,3.6-1.4C86.4,87.6,86.4,86,86.4,83.7 M75.3,79.5
		v-2.3h-9.5v2.3h3.5v10.8h2.6V79.5H75.3z M63.7,77.2h-2.6v13.1h2.6V77.2z M58.1,90.2V77.2h-2.6v8l-5.2-8h-2.3v13.1h2.6v-8l5.2,8
		H58.1z M42.7,83.7c0,2.5-0.1,3.1-0.6,3.7c-0.4,0.4-0.9,0.7-1.7,0.7s-1.3-0.3-1.7-0.7c-0.5-0.5-0.6-1.2-0.6-3.7
		c0-2.5,0.1-3.1,0.6-3.7c0.4-0.4,1-0.7,1.7-0.7s1.3,0.3,1.7,0.7C42.6,80.6,42.7,81.2,42.7,83.7 M45.3,83.7c0-2.3,0-3.9-1.3-5.2
		c-0.9-0.9-2.1-1.4-3.6-1.4c-1.5,0-2.7,0.5-3.6,1.4c-1.3,1.3-1.3,3-1.3,5.2c0,2.3,0,3.9,1.3,5.2c0.9,0.9,2.1,1.4,3.6,1.4
		c1.5,0,2.6-0.5,3.6-1.4C45.3,87.6,45.3,86,45.3,83.7 M32.9,90.2V77.2h-2.5l-3.4,7.1l-3.5-7.1h-2.5v13.1h2.6v-7.6l2.5,5h1.7l2.5-5
		v7.6H32.9z"/>
	<path fill="#0B2558" d="M107.1,74.5l-4.7-7.9l4.4-5.2h-3.1L99,67.2v-5.7h-2.6v13.1H99v-3.9l1.7-2l3.4,5.9H107.1z M91.1,65.5
		c0,1-0.7,1.7-1.9,1.7h-2.4v-3.4h2.4C90.4,63.8,91.1,64.5,91.1,65.5 M94.2,74.5l-3-5.6c1.3-0.5,2.4-1.6,2.4-3.4c0-2.2-1.6-4-4.3-4
		h-5.2v13.1h2.6v-5.2h1.9l2.6,5.2H94.2z M79,68c0,2.5-0.1,3.1-0.6,3.7c-0.4,0.4-0.9,0.7-1.7,0.7c-0.7,0-1.3-0.3-1.7-0.7
		c-0.5-0.5-0.6-1.2-0.6-3.7c0-2.5,0.1-3.1,0.6-3.7c0.4-0.4,1-0.7,1.7-0.7c0.7,0,1.3,0.3,1.7,0.7C78.9,64.9,79,65.5,79,68 M81.6,68
		c0-2.3,0-3.9-1.3-5.2c-0.9-0.9-2.1-1.4-3.6-1.4c-1.5,0-2.7,0.5-3.6,1.4c-1.3,1.3-1.3,3-1.3,5.2c0,2.3,0,3.9,1.3,5.2
		c0.9,0.9,2.1,1.4,3.6,1.4c1.5,0,2.6-0.5,3.6-1.4C81.6,71.9,81.6,70.3,81.6,68 M70.8,61.5h-2.7L66,69.7l-2.4-8.2h-1.9l-2.4,8.2
		l-2-8.2h-2.7l3.5,13.1h2.2l2.4-7.9l2.4,7.9h2.2L70.8,61.5z M53.9,63.8v-2.3h-9.5v2.3h3.5v10.8h2.6V63.8H53.9z M42.8,74.5v-2.3h-6.1
		v-3.2h5.2v-2.3h-5.2v-3.1h6.1v-2.3h-8.7v13.1H42.8z M31,74.5V61.5h-2.6v8l-5.2-8h-2.3v13.1h2.6v-8l5.2,8H31z"/>
	<path fill="#0B2558" d="M64.3,53.5v-1.9h-4.9v2.1h2.3v0.5c0,0.6-0.1,1.3-0.6,1.8c-0.4,0.5-1,0.7-1.8,0.7c-0.7,0-1.3-0.3-1.7-0.7
		c-0.5-0.6-0.6-1.2-0.6-3.7c0-2.5,0.1-3.1,0.6-3.7c0.4-0.4,0.9-0.7,1.7-0.7c1,0,1.6,0.4,2.3,1.1l1.7-1.7c-1.2-1.2-2.2-1.7-4-1.7
		c-1.5,0-2.6,0.5-3.6,1.4c-1.3,1.3-1.3,3-1.3,5.2c0,2.3,0,3.9,1.3,5.2c0.9,0.9,2.1,1.4,3.6,1.4c1.5,0,2.7-0.5,3.7-1.5
		C64,56.5,64.3,55.4,64.3,53.5 M53.2,48.1v-2.3h-9.5v2.3h3.5v10.8h2.6V48.1H53.2z M39.5,49.8c0,1-0.7,1.7-1.9,1.7h-2.4v-3.4h2.4
		C38.7,48.1,39.5,48.8,39.5,49.8 M42.6,58.9l-3-5.6c1.3-0.5,2.4-1.6,2.4-3.4c0-2.2-1.6-4-4.3-4h-5.2v13.1h2.6v-5.2H37l2.6,5.2H42.6z
		 M27.8,49.9c0,1.1-0.7,1.8-1.9,1.8h-2.4v-3.6h2.4C27.1,48.1,27.8,48.8,27.8,49.9 M30.4,49.9c0-2.2-1.6-4.1-4.4-4.1h-5.1v13.1h2.6
		v-4.9H26C28.8,53.9,30.4,52.1,30.4,49.9"/>
	<polygon fill="#0B2558" points="84.5,55.5 86.4,53.8 74,46.4 	"/>
	<path fill="#C0CC17" d="M73.7,41.2c-2.3,2.1-3.9,5.1-4.3,8.5c-0.4,3.4,0.6,6.6,2.4,9.1l1.9-1.2c-1.3-1.5-2-3.5-2.1-5.6
		c-0.1-3.4,1.7-6.5,4.4-8.2c0,0,0,0-0.1,0L73.7,41.2z"/>
	<path fill="#F49B00" d="M92.6,41.6c-0.4-0.4-0.9-0.8-1.4-1.2c-2.4-1.8-5.4-2.8-8.6-2.7c-3.4,0.1-6.5,1.4-8.8,3.6l2.3,2.6
		c0,0,0,0,0.1,0c0.1-0.1,0.3-0.2,0.5-0.3c0,0,0.1,0,0.1,0c0.2-0.1,0.3-0.2,0.5-0.2c0,0,0.1,0,0.1,0c1.2-0.5,2.5-0.9,3.8-0.9
		c2.6-0.1,4.9,0.9,6.7,2.4c0.2,0.2,0.4,0.4,0.7,0.6c0,0,0,0,0,0c0.1,0.1,0.2,0.2,0.3,0.3c0,0,0,0.1,0.1,0.1c0,0,0.1,0.1,0.1,0.1
		L92.6,41.6z"/>
	<path fill="#E50060" d="M88.7,45.9c1.2,1.5,2,3.5,2.1,5.6c0,1.7-0.4,3.3-1.1,4.7l4.4,2.7c2.1-2.9,3-6.7,2.2-10.4
		c-0.6-2.7-1.9-5-3.7-6.8"/>
</g>
</svg>
