<?xml version="1.0" encoding="utf-8"?>
<!-- Generator: Adobe Illustrator 19.0.1, SVG Export Plug-In . SVG Version: 6.00 Build 0)  -->
<svg version="1.0" id="Ebene_1" xmlns="http://www.w3.org/2000/svg" xmlns:xlink="http://www.w3.org/1999/xlink" x="0px" y="0px"
	 viewBox="0 0 128 128" enable-background="new 0 0 128 128" xml:space="preserve">
<g>
	<g>
		<polygon fill="#0B2558" points="68.6,86.6 74.6,81.3 36.1,58.3 		"/>
	</g>
	<g>
		<g>
			<path fill="#C0CC17" d="M35.4,42.3c-7.2,6.6-12.1,15.8-13.2,26.2c-1.1,10.4,1.8,20.4,7.5,28.3l5.9-3.8
				c-3.9-4.8-6.3-10.8-6.5-17.4c-0.3-10.6,5.1-20,13.5-25.4c-0.1,0-0.1,0.1-0.2,0.1L35.4,42.3z"/>
		</g>
		<g>
			<path fill="#F49B00" d="M93.7,43.4c-1.4-1.3-2.8-2.6-4.3-3.7c-7.4-5.6-16.7-8.8-26.7-8.5c-10.6,0.3-20.2,4.5-27.4,11.1l7,8.1
				c0.1,0,0.1-0.1,0.2-0.1c0.5-0.3,0.9-0.6,1.4-0.9c0.1,0,0.2-0.1,0.3-0.1c0.5-0.3,0.9-0.5,1.4-0.7c0.1-0.1,0.2-0.1,0.3-0.2
				c3.6-1.7,7.6-2.7,11.8-2.8c7.9-0.2,15.2,2.6,20.6,7.5c0.7,0.6,1.4,1.3,2,2c0,0,0,0.1,0.1,0.1c0.3,0.3,0.5,0.6,0.8,0.9
				c0.1,0.1,0.1,0.2,0.2,0.3c0.1,0.1,0.2,0.3,0.3,0.4L93.7,43.4z"/>
		</g>
		<g>
			<path fill="#E50060" d="M81.8,56.6c3.8,4.8,6.2,10.8,6.4,17.3c0.1,5.2-1.1,10.2-3.4,14.5l13.7,8.4c6.4-9.1,9.2-20.6,6.8-32.4
				c-1.7-8.3-5.9-15.5-11.5-21"/>
		</g>
	</g>
</g>
</svg>
