<?xml version="1.0" encoding="utf-8"?>
<!-- Generator: Adobe Illustrator 19.0.1, SVG Export Plug-In . SVG Version: 6.00 Build 0)  -->
<svg version="1.0" id="Ebene_1" xmlns="http://www.w3.org/2000/svg" xmlns:xlink="http://www.w3.org/1999/xlink" x="0px" y="0px"
	 viewBox="0 0 128 128" enable-background="new 0 0 128 128" xml:space="preserve">
<g>
	<g>
		<g>
			<path fill="#FFFFFF" d="M85.4,48c0-12.1-9.6-21.8-21.4-21.8C52.2,26.2,42.6,36,42.6,48c0,11.2,8.2,20.5,18.8,21.8l0.8,32.2H66
				l0.6-32.2C77.2,68.5,85.4,59.2,85.4,48"/>
		</g>
		<g>
			<path fill="#FFFFFF" d="M69.1,105h-9.9l-0.9-32.6c-11-2.6-18.9-12.6-18.9-24.4c0-13.8,11-25,24.6-25c13.5,0,24.6,11.2,24.6,25
				c0,11.7-7.9,21.7-18.8,24.3L69.1,105z M64,29.4c-10,0-18.2,8.4-18.2,18.6c0,9.4,6.9,17.4,16,18.5l2.1,0.3l2.2-0.3
				c9.1-1.1,16-9.1,16-18.5C82.2,37.7,74,29.4,64,29.4z"/>
		</g>
		<g>
			<path fill="#B0B0B2" d="M86.5,47.5C86.5,35.1,76.4,25,64,25S41.5,35.1,41.5,47.5c0,11.5,8.7,21,19.8,22.3l0.9,33.1h3.9l0.6-33.1
				C77.9,68.5,86.5,59,86.5,47.5"/>
		</g>
		<g>
			<path fill="#FFFFFF" d="M64,65.4c9.8,0,17.8-8,17.8-17.8c0-9.8-8-17.8-17.8-17.8s-17.8,8-17.8,17.8C46.2,57.4,54.2,65.4,64,65.4"
				/>
		</g>
		<g>
			<path fill="#BBCA0E" d="M54.1,36.1c-2.5,2.3-4.2,5.5-4.6,9.2c-0.4,3.6,0.6,7.1,2.6,9.9l2-1.3c-1.3-1.7-2.2-3.8-2.2-6.1
				c-0.1-3.7,1.8-7,4.7-8.9c0,0,0,0-0.1,0L54.1,36.1z"/>
		</g>
		<g>
			<path fill="#BBCA0E" d="M57.1,38.5C57.1,38.6,57.1,38.6,57.1,38.5C57.1,38.6,57.1,38.6,57.1,38.5"/>
		</g>
		<g>
			<path fill="#BBCA0E" d="M57.7,38.2c0,0-0.1,0-0.1,0.1C57.7,38.3,57.7,38.2,57.7,38.2"/>
		</g>
		<g>
			<path fill="#E50060" d="M78.3,43.8c-0.7-3.6-2.8-6.8-5.5-8.8h0c0.5,1,1,0.9,1.5,1.4l-4.1,4.7c0,0-0.1-0.1-0.1-0.1
				c1.4,1.7,2.2,3.8,2.3,6.2c0.1,1.8-0.4,3.6-1.2,5.1l4.7,2.9C78.1,51.9,79.1,47.9,78.3,43.8"/>
		</g>
		<g>
			<path fill="#E5007E" d="M69,39.9c0.2,0.2,0.5,0.5,0.7,0.7C69.4,40.3,69.2,40.1,69,39.9L69,39.9z"/>
		</g>
		<g>
			<path fill="#F49C00" d="M74.3,36.5c-0.5-0.5-1-0.9-1.5-1.3c-2.6-1.9-5.8-3.1-9.3-3c-3.7,0.1-6.5,1.6-9.5,3.9v0l2.5,2.8
				c0,0,0.1,0,0.1,0c0.2-0.1,0.3-0.2,0.5-0.3c0,0,0.1,0,0.1-0.1c0.2-0.1,0.3-0.2,0.5-0.3c0,0,0.1,0,0.1-0.1c1.2-0.6,2.6-0.9,4.1-1
				c2.7-0.1,5.2,0.9,7.1,2.6c0.2,0.2,0.5,0.5,0.7,0.7c0,0,0,0,0,0c0.1,0.1,0.2,0.2,0.3,0.3c0,0,0.1,0.1,0.1,0.1c0,0,0.1,0.1,0.1,0.1
				L74.3,36.5z"/>
		</g>
	</g>
	<g>
		<polygon fill="#222956" points="65.6,51.6 67.7,49.8 54.4,41.7 		"/>
	</g>
</g>
</svg>
