<?xml version="1.0" encoding="utf-8"?>
<!-- Generator: Adobe Illustrator 19.0.1, SVG Export Plug-In . SVG Version: 6.00 Build 0)  -->
<svg version="1.0" id="Ebene_1" xmlns="http://www.w3.org/2000/svg" xmlns:xlink="http://www.w3.org/1999/xlink" x="0px" y="0px"
	 viewBox="0 0 128 128" enable-background="new 0 0 128 128" xml:space="preserve">
<g>
	<g>
		<g>
			<path fill="#B0B0B2" d="M22.5,77c0,0-1.5-0.4-1.5,1.5v18.9c0,0-0.3,1.7,1.5,1.7h82.9c0,0,1.5,0.2,1.5-1.7V78.5
				c0,0,0.3-1.5-1.5-1.5H22.5z"/>
		</g>
		<g>
			<path fill="#FFFFFF" d="M96.9,91.8c2.1,0,3.8-1.7,3.8-3.9S99,84,96.9,84c-2.1,0-3.8,1.7-3.8,3.9S94.8,91.8,96.9,91.8"/>
		</g>
		<g>
			<path fill="#BBCA0E" d="M46,35.8c-4.5,4.2-7.6,9.9-8.3,16.5C37,58.8,38.8,65,42.4,70l3.7-2.4c-2.4-3-3.9-6.8-4.1-10.9
				c-0.2-6.6,3.2-12.5,8.5-15.9c0,0-0.1,0-0.1,0.1L46,35.8z"/>
		</g>
		<g>
			<path fill="#BBCA0E" d="M51.5,40.1c-0.1,0-0.1,0.1-0.2,0.1C51.4,40.2,51.5,40.2,51.5,40.1"/>
		</g>
		<g>
			<path fill="#BBCA0E" d="M52.6,39.6c-0.1,0-0.1,0.1-0.2,0.1C52.5,39.6,52.6,39.6,52.6,39.6"/>
		</g>
		<g>
			<path fill="#E50060" d="M89.9,49.7c-1.4-6.5-5-11.8-9.9-15.5l0,0c1,0.7,1.9,1.5,2.7,2.3l-7.5,8.3c-0.1-0.1-0.1-0.2-0.2-0.2
				c2.5,3,4.1,6.9,4.2,11.1c0.1,3.3-0.7,6.4-2.1,9.1l8.6,5.3C89.7,64.3,91.4,57,89.9,49.7"/>
		</g>
		<g>
			<path fill="#E5007E" d="M73,42.5c0.4,0.4,0.9,0.8,1.3,1.2C73.9,43.3,73.5,42.9,73,42.5L73,42.5z"/>
		</g>
		<g>
			<path fill="#F49C00" d="M82.7,36.5c-0.8-0.8-1.8-1.6-2.7-2.3c-4.6-3.5-10.5-5.5-16.7-5.3C56.5,29,50.5,31.6,46,35.8v0l4.4,5.1
				c0,0,0.1,0,0.1-0.1c0.3-0.2,0.6-0.4,0.9-0.5c0.1,0,0.1-0.1,0.2-0.1c0.3-0.2,0.6-0.3,0.9-0.5c0.1,0,0.1-0.1,0.2-0.1
				c2.3-1.1,4.8-1.7,7.4-1.8c5-0.1,9.5,1.7,13,4.7c0.4,0.4,0.9,0.8,1.3,1.2c0,0,0,0,0,0c0.2,0.2,0.3,0.4,0.5,0.6
				c0,0.1,0.1,0.1,0.1,0.2c0.1,0.1,0.1,0.2,0.2,0.2L82.7,36.5z"/>
		</g>
	</g>
	<g>
		<polygon fill="#222956" points="66.9,63.5 70.7,60.3 46.5,45.8 		"/>
	</g>
</g>
</svg>
