<svg id="Ebene_1" data-name="Ebene 1" xmlns="http://www.w3.org/2000/svg" viewBox="0 0 128 128"><defs><style>.cls-1{fill:#b0b0b2;}.cls-2{fill:#fff;}.cls-3,.cls-4{fill:#b1b1b1;}.cls-4{stroke:#fff;stroke-width:0.2px;}</style></defs><title>1</title><path class="cls-1" d="M35.56,45S33,44.8,33,47.19v11.3A2.62,2.62,0,0,0,35.56,61H92.44S95,60.89,95,58.49V47.19A2.43,2.43,0,0,0,92.44,45H35.56Z"/><path class="cls-1" d="M35.56,64S33,63.69,33,66.08v11.3S33.17,80,35.56,80H92.44S95,79.77,95,77.38V66.08A2.36,2.36,0,0,0,92.44,64H35.56Z"/><path class="cls-1" d="M35.56,26S33,25.91,33,28.31V39.6A2.55,2.55,0,0,0,35.56,42H92.44S95,42,95,39.6V28.31A2.49,2.49,0,0,0,92.44,26H35.56Z"/><path class="cls-2" d="M87.39,36.7A2.75,2.75,0,1,0,84.67,34a2.73,2.73,0,0,0,2.72,2.75"/><path class="cls-2" d="M87.39,55.47a2.75,2.75,0,1,0-2.72-2.75,2.73,2.73,0,0,0,2.72,2.75"/><path class="cls-2" d="M87.39,74.36a2.75,2.75,0,1,0-2.72-2.75,2.73,2.73,0,0,0,2.72,2.75"/><path class="cls-3" d="M36.77,95.75H26.67q-4.92,0-4.92,4V107q0,3.94,4.92,3.94h9.59q4.9,0,4.9-3.94V99.71Q41.16,96,36.77,95.75Zm-1,11.48h-8V99.35h8v7.88Z"/><path class="cls-3" d="M84.88,110.88h-5.7v-4h-8v4h-5.7V99.18a2.87,2.87,0,0,1,1.13-2.38,5,5,0,0,1,3.15-.86H80.62a5,5,0,0,1,3.15.86,2.86,2.86,0,0,1,1.1,2.38v11.69Zm-5.7-6.73V99.82h-8v4.32h8Z"/><path class="cls-3" d="M105.33,96.69a4.48,4.48,0,0,0-2.65-.74H91.85a5,5,0,0,0-3.15.86,2.85,2.85,0,0,0-1.13,2.31h0v0.07h0v11.69h5.7V107h9.22q3.76,0,3.76-3V99.16A3,3,0,0,0,105.33,96.69Zm-4.89,7H93.19V99.82h7.26v3.87h0Z"/><path class="cls-3" d="M58.32,95.94H57.47v8.69a0.23,0.23,0,0,1-.29.13,0.41,0.41,0,0,1-.19-0.11c-1-1.49-4.67-6.58-5.86-8.21v0h0l-0.06-.05,0,0a1.74,1.74,0,0,0-1.22-.41H45.2a1.77,1.77,0,0,0-1.34.49,1.86,1.86,0,0,0-.48,1.31h0v13.13h5.39s0-6.94,0-9c0-.14.12-0.33,0.53-0.28a0.31,0.31,0,0,1,.23.13h0c1,1.66,7.85,9.13,7.85,9.13h5.6V95.94H58.32Z"/><path class="cls-4" d="M30.92,105.2s6,3.47,7.3,6.22h4.7C42.53,110.5,40.29,106.39,30.92,105.2Z"/></svg>