<?xml version="1.0" encoding="utf-8"?>
<!-- Generator: Adobe Illustrator 19.0.1, SVG Export Plug-In . SVG Version: 6.00 Build 0)  -->
<svg version="1.0" id="Ebene_1" xmlns="http://www.w3.org/2000/svg" xmlns:xlink="http://www.w3.org/1999/xlink" x="0px" y="0px"
	 viewBox="0 0 128 128" enable-background="new 0 0 128 128" xml:space="preserve">
<g>
	<g>
		<g>
			<path fill="#B0B0B2" d="M17.5,51c0,0-2.5,0.3-2.5,2.6v20.9c0,0,0.2,2.6,2.5,2.6h93c0,0,2.5-0.3,2.5-2.6V53.6c0,0-0.2-2.6-2.5-2.6
				H17.5z"/>
		</g>
		<g>
			<path fill="#FFFFFF" d="M101,68.4c2.4,0,4.3-1.9,4.3-4.4c0-2.4-1.9-4.4-4.3-4.4c-2.4,0-4.3,1.9-4.3,4.4
				C96.7,66.4,98.7,68.4,101,68.4"/>
		</g>
	</g>
	<g>
		<polygon fill="#FFFFFF" points="42.2,47.1 50.1,73 80.5,73 86.2,49.3 		"/>
	</g>
	<g>
		<g>
			<path fill="#B1B1B1" d="M55.9,86.9c2.9,0,5.2-2.3,5.2-5s-2.3-5-5.2-5s-5.2,2.3-5.2,5S53,86.9,55.9,86.9"/>
		</g>
		<g>
			<path fill="#FFFFFF" d="M55.9,87.7c-3.3,0-6-2.6-6-5.9s2.7-5.9,6-5.9s6,2.6,6,5.9S59.2,87.7,55.9,87.7z M55.9,77.7
				c-2.4,0-4.3,1.9-4.3,4.2s1.9,4.2,4.3,4.2s4.3-1.9,4.3-4.2S58.3,77.7,55.9,77.7z"/>
		</g>
		<g>
			<path fill="#B1B1B1" d="M74.8,86.9c2.9,0,5.2-2.3,5.2-5s-2.3-5-5.2-5c-2.9,0-5.2,2.3-5.2,5S72,86.9,74.8,86.9"/>
		</g>
		<g>
			<path fill="#FFFFFF" d="M74.8,87.7c-3.3,0-6-2.6-6-5.9s2.7-5.9,6-5.9s6,2.6,6,5.9S78.1,87.7,74.8,87.7z M74.8,77.7
				c-2.4,0-4.3,1.9-4.3,4.2s1.9,4.2,4.3,4.2s4.3-1.9,4.3-4.2S77.2,77.7,74.8,77.7z"/>
		</g>
		<g>
			<path fill="#B1B1B1" d="M51.4,56.9c1.8,0,3.4-1.5,3.4-3.4c0-1.8-1.5-3.3-3.4-3.3c-1.8,0-3.4,1.5-3.4,3.3
				C48,55.4,49.5,56.9,51.4,56.9"/>
		</g>
		<g>
			<path fill="#FFFFFF" d="M51.4,57.7c-2.3,0-4.2-1.9-4.2-4.2c0-2.3,1.9-4.2,4.2-4.2s4.2,1.9,4.2,4.2C55.5,55.9,53.7,57.7,51.4,57.7
				z M51.4,51c-1.4,0-2.5,1.1-2.5,2.5c0,1.4,1.1,2.5,2.5,2.5s2.5-1.1,2.5-2.5C53.9,52.2,52.7,51,51.4,51z"/>
		</g>
		<g>
			<path fill="#B1B1B1" d="M60.3,56.9c1.8,0,3.4-1.5,3.4-3.4c0-1.8-1.5-3.3-3.4-3.3c-1.8,0-3.4,1.5-3.4,3.3
				C56.9,55.4,58.4,56.9,60.3,56.9"/>
		</g>
		<g>
			<path fill="#FFFFFF" d="M60.3,57.7c-2.3,0-4.2-1.9-4.2-4.2c0-2.3,1.9-4.2,4.2-4.2s4.2,1.9,4.2,4.2C64.5,55.9,62.6,57.7,60.3,57.7
				z M60.3,51c-1.4,0-2.5,1.1-2.5,2.5c0,1.4,1.1,2.5,2.5,2.5s2.5-1.1,2.5-2.5C62.8,52.2,61.6,51,60.3,51z"/>
		</g>
		<g>
			<path fill="#B1B1B1" d="M69.5,56.9c1.8,0,3.4-1.5,3.4-3.4c0-1.8-1.5-3.3-3.4-3.3c-1.8,0-3.4,1.5-3.4,3.3
				C66.2,55.4,67.7,56.9,69.5,56.9"/>
		</g>
		<g>
			<path fill="#FFFFFF" d="M69.5,57.7c-2.3,0-4.2-1.9-4.2-4.2c0-2.3,1.9-4.2,4.2-4.2s4.2,1.9,4.2,4.2C73.7,55.9,71.9,57.7,69.5,57.7
				z M69.5,51c-1.4,0-2.5,1.1-2.5,2.5c0,1.4,1.1,2.5,2.5,2.5s2.5-1.1,2.5-2.5C72.1,52.2,70.9,51,69.5,51z"/>
		</g>
		<g>
			<path fill="#B1B1B1" d="M78.3,56.9c1.8,0,3.4-1.5,3.4-3.4c0-1.8-1.5-3.3-3.4-3.3c-1.8,0-3.4,1.5-3.4,3.3
				C74.9,55.4,76.4,56.9,78.3,56.9"/>
		</g>
		<g>
			<path fill="#FFFFFF" d="M78.3,57.7c-2.3,0-4.2-1.9-4.2-4.2c0-2.3,1.9-4.2,4.2-4.2s4.2,1.9,4.2,4.2C82.5,55.9,80.6,57.7,78.3,57.7
				z M78.3,51c-1.4,0-2.5,1.1-2.5,2.5c0,1.4,1.1,2.5,2.5,2.5s2.5-1.1,2.5-2.5C80.8,52.2,79.6,51,78.3,51z"/>
		</g>
		<g>
			<path fill="#B1B1B1" d="M53.5,63.6c1.8,0,3.4-1.5,3.4-3.4c0-1.8-1.5-3.3-3.4-3.3c-1.8,0-3.4,1.5-3.4,3.3
				C50.1,62.1,51.6,63.6,53.5,63.6"/>
		</g>
		<g>
			<path fill="#FFFFFF" d="M53.5,64.4c-2.3,0-4.2-1.9-4.2-4.2c0-2.3,1.9-4.2,4.2-4.2s4.2,1.9,4.2,4.2C57.7,62.5,55.8,64.4,53.5,64.4
				z M53.5,57.7c-1.4,0-2.5,1.1-2.5,2.5c0,1.4,1.1,2.5,2.5,2.5s2.5-1.1,2.5-2.5C56,58.8,54.9,57.7,53.5,57.7z"/>
		</g>
		<g>
			<path fill="#B1B1B1" d="M61.4,63.6c1.8,0,3.4-1.5,3.4-3.4c0-1.8-1.5-3.3-3.4-3.3S58,58.4,58,60.2C58,62.1,59.5,63.6,61.4,63.6"/>
		</g>
		<g>
			<path fill="#FFFFFF" d="M61.4,64.4c-2.3,0-4.2-1.9-4.2-4.2c0-2.3,1.9-4.2,4.2-4.2s4.2,1.9,4.2,4.2C65.6,62.5,63.7,64.4,61.4,64.4
				z M61.4,57.7c-1.4,0-2.5,1.1-2.5,2.5c0,1.4,1.1,2.5,2.5,2.5s2.5-1.1,2.5-2.5C63.9,58.8,62.8,57.7,61.4,57.7z"/>
		</g>
		<g>
			<path fill="#B1B1B1" d="M69,63.6c1.8,0,3.4-1.5,3.4-3.4c0-1.8-1.5-3.3-3.4-3.3c-1.8,0-3.4,1.5-3.4,3.3
				C65.6,62.1,67.1,63.6,69,63.6"/>
		</g>
		<g>
			<path fill="#FFFFFF" d="M69,64.4c-2.3,0-4.2-1.9-4.2-4.2c0-2.3,1.9-4.2,4.2-4.2s4.2,1.9,4.2,4.2C73.2,62.5,71.3,64.4,69,64.4z
				 M69,57.7c-1.4,0-2.5,1.1-2.5,2.5c0,1.4,1.1,2.5,2.5,2.5s2.5-1.1,2.5-2.5C71.5,58.8,70.4,57.7,69,57.7z"/>
		</g>
		<g>
			<path fill="#B1B1B1" d="M76.7,63.6c1.8,0,3.4-1.5,3.4-3.4c0-1.8-1.5-3.3-3.4-3.3c-1.8,0-3.4,1.5-3.4,3.3
				C73.4,62.1,74.9,63.6,76.7,63.6"/>
		</g>
		<g>
			<path fill="#FFFFFF" d="M76.7,64.4c-2.3,0-4.2-1.9-4.2-4.2c0-2.3,1.9-4.2,4.2-4.2s4.2,1.9,4.2,4.2C80.9,62.5,79,64.4,76.7,64.4z
				 M76.7,57.7c-1.4,0-2.5,1.1-2.5,2.5c0,1.4,1.1,2.5,2.5,2.5s2.5-1.1,2.5-2.5C79.2,58.8,78.1,57.7,76.7,57.7z"/>
		</g>
		<g>
			<path fill="#B1B1B1" d="M55.2,70.2c1.8,0,3.4-1.5,3.4-3.4c0-1.8-1.5-3.3-3.4-3.3c-1.8,0-3.4,1.5-3.4,3.3
				C51.8,68.7,53.3,70.2,55.2,70.2"/>
		</g>
		<g>
			<path fill="#FFFFFF" d="M55.2,71.1c-2.3,0-4.2-1.9-4.2-4.2s1.9-4.2,4.2-4.2s4.2,1.9,4.2,4.2S57.5,71.1,55.2,71.1z M55.2,64.4
				c-1.4,0-2.5,1.1-2.5,2.5s1.1,2.5,2.5,2.5s2.5-1.1,2.5-2.5S56.6,64.4,55.2,64.4z"/>
		</g>
		<g>
			<path fill="#B1B1B1" d="M61.9,70.2c1.8,0,3.4-1.5,3.4-3.4c0-1.8-1.5-3.3-3.4-3.3c-1.8,0-3.4,1.5-3.4,3.3
				C58.5,68.7,60,70.2,61.9,70.2"/>
		</g>
		<g>
			<path fill="#FFFFFF" d="M61.9,71.1c-2.3,0-4.2-1.9-4.2-4.2s1.9-4.2,4.2-4.2s4.2,1.9,4.2,4.2S64.2,71.1,61.9,71.1z M61.9,64.4
				c-1.4,0-2.5,1.1-2.5,2.5s1.1,2.5,2.5,2.5s2.5-1.1,2.5-2.5S63.2,64.4,61.9,64.4z"/>
		</g>
		<g>
			<path fill="#B1B1B1" d="M68.5,70.2c1.8,0,3.4-1.5,3.4-3.4c0-1.8-1.5-3.3-3.4-3.3s-3.4,1.5-3.4,3.3C65.2,68.7,66.7,70.2,68.5,70.2
				"/>
		</g>
		<g>
			<path fill="#FFFFFF" d="M68.5,71.1c-2.3,0-4.2-1.9-4.2-4.2s1.9-4.2,4.2-4.2s4.2,1.9,4.2,4.2S70.9,71.1,68.5,71.1z M68.5,64.4
				c-1.4,0-2.5,1.1-2.5,2.5s1.1,2.5,2.5,2.5s2.5-1.1,2.5-2.5S69.9,64.4,68.5,64.4z"/>
		</g>
		<g>
			<path fill="#B1B1B1" d="M75.2,70.2c1.8,0,3.4-1.5,3.4-3.4c0-1.8-1.5-3.3-3.4-3.3c-1.8,0-3.4,1.5-3.4,3.3
				C71.9,68.7,73.4,70.2,75.2,70.2"/>
		</g>
		<g>
			<path fill="#FFFFFF" d="M75.2,71.1c-2.3,0-4.2-1.9-4.2-4.2s1.9-4.2,4.2-4.2s4.2,1.9,4.2,4.2S77.5,71.1,75.2,71.1z M75.2,64.4
				c-1.4,0-2.5,1.1-2.5,2.5s1.1,2.5,2.5,2.5s2.5-1.1,2.5-2.5S76.6,64.4,75.2,64.4z"/>
		</g>
		<g>
			<path fill="#B1B1B1" d="M84.7,50h3.2H89l-0.2,1.1L83,75.3L82.9,76h-0.7H49.3h-0.6l-0.2-0.6c-3-8.9-6-17.8-9-26.7
				c-2.1-0.6-4-1.2-6.1-1.8L33,46.7v-0.6v-3.5v-1.1l0.9,0.3l9.5,2.9l0.4,0.1l0.1,0.4c2.8,8.6,5.5,16.8,8.3,25.8H79
				c1.6-7,3.3-13.6,4.9-20.3l0.2-0.7H84.7z"/>
		</g>
		<g>
			<path fill="#FFFFFF" d="M83.6,77H48.1L39,49.5l-7-2.2v-7l12.5,3.8L52.9,70h25.5l5-21H90L83.6,77z M49.3,75h32.9l5.7-24h-3.2
				l-5,21H51.6l-8.3-26.4l-9.3-3v3.5l6.4,1.9L49.3,75z"/>
		</g>
	</g>
</g>
</svg>
