<svg id="Ebene_1" data-name="Ebene 1" xmlns="http://www.w3.org/2000/svg" viewBox="0 0 128 128"><defs><style>.cls-1{fill:#b0b0b2;}.cls-2{fill:#e7e6e8;}.cls-3{fill:#fff;}.cls-4{fill:#b1b1b1;}</style></defs><title>1</title><path class="cls-1" d="M78.5,37.57c-3.72,2.85-5.57,1.82-6.88-.08s0.32-5.74,3-7.26C78.1,28,73.74,25,73.74,25c0.37,1.74-1.66,5-3.21,2.78-1.2-1.94,3.29-6.13,3.29-6.13s-6,1.68-7.1,4.67c-2.51,6.58-1.44,12.06-6.24,11.36-0.71,3.74-2.34,4.71-3.24,3.08s-0.37-3.48,2.68-5c5.32-2.57.81-14.25,0.81-14.25,0.9,9.15-5.5,12.67-7.31,11.37-1.75-1.7,1.39-6,1.39-6-10.53,5.8-.28,9.19-4.38,11.82C45.35,42,48.08,35,48.08,35,35.16,43.47,50.37,48.57,53,50.2c0.17,0.92-2.9,9.46,4.65,12.23,3.47,1.28,2.25,1.84,3.45,1.79,4.68-.58,15.3-4.84,17.55-8.21a9,9,0,0,0,1.13-7.2c-1.12,2.46-4,4.94-6.37,4.43-2.08.26-3.12-4.67,5-9.11,10.46-5.1,5.73-14.8,5.73-14.8S82,34.86,78.5,37.57"/><rect class="cls-2" x="38.64" y="69.1" width="15.66" height="10.08"/><rect class="cls-2" x="47.43" y="57.31" width="15.68" height="10.08"/><rect class="cls-2" x="38.64" y="45.92" width="15.66" height="10.08"/><rect class="cls-2" x="73.67" y="69.1" width="15.68" height="10.08"/><rect class="cls-2" x="82.46" y="57.31" width="6.9" height="10.08"/><rect class="cls-2" x="73.67" y="45.92" width="15.69" height="10.08"/><rect class="cls-2" x="56.2" y="69.1" width="15.68" height="10.08"/><rect class="cls-2" x="64.99" y="57.31" width="15.68" height="10.08"/><rect class="cls-2" x="56.17" y="45.92" width="15.69" height="10.08"/><rect class="cls-2" x="38.81" y="57.31" width="8.26" height="10.08"/><rect class="cls-2" x="38.64" y="69.1" width="15.66" height="10.08"/><rect class="cls-2" x="47.43" y="57.31" width="15.68" height="10.08"/><rect class="cls-2" x="38.64" y="45.92" width="15.66" height="10.08"/><rect class="cls-2" x="73.67" y="69.1" width="15.68" height="10.08"/><rect class="cls-2" x="82.46" y="57.31" width="6.9" height="10.08"/><rect class="cls-2" x="73.67" y="45.92" width="15.69" height="10.08"/><rect class="cls-2" x="56.2" y="69.1" width="15.68" height="10.08"/><rect class="cls-2" x="64.99" y="57.31" width="15.68" height="10.08"/><rect class="cls-2" x="56.17" y="45.92" width="15.69" height="10.08"/><rect class="cls-2" x="38.81" y="57.31" width="8.26" height="10.08"/><rect class="cls-2" x="39.8" y="70.08" width="13.35" height="8.11"/><path class="cls-3" d="M55.45,80.49h-18V67.78h18V80.49ZM42.1,75.89h8.75V72.38H42.1v3.51Z"/><rect class="cls-2" x="48.58" y="58.29" width="13.37" height="8.11"/><path class="cls-3" d="M64.25,68.7h-18V56h18V68.7ZM50.89,64.1h8.77V60.59H50.89V64.1Z"/><rect class="cls-2" x="39.8" y="46.91" width="13.35" height="8.11"/><path class="cls-3" d="M55.45,57.32h-18V44.6h18V57.32ZM42.1,52.71h8.75V49.21H42.1v3.51Z"/><rect class="cls-2" x="74.82" y="70.08" width="13.37" height="8.11"/><path class="cls-3" d="M90.49,80.49h-18V67.78h18V80.49Zm-13.37-4.6h8.77V72.38H77.12v3.51Z"/><rect class="cls-2" x="83.61" y="58.29" width="4.59" height="8.11"/><rect class="cls-3" x="81.31" y="55.99" width="9.2" height="12.71"/><rect class="cls-2" x="74.82" y="46.91" width="13.38" height="8.11"/><path class="cls-3" d="M90.5,57.32h-18V44.6h18V57.32Zm-13.38-4.6H85.9V49.21H77.12v3.51Z"/><rect class="cls-2" x="57.35" y="70.08" width="13.37" height="8.11"/><path class="cls-3" d="M73,80.49h-18V67.78H73V80.49Zm-13.37-4.6h8.77V72.38H59.66v3.51Z"/><rect class="cls-2" x="66.14" y="58.29" width="13.37" height="8.11"/><path class="cls-3" d="M81.81,68.7h-18V56h18V68.7ZM68.44,64.1h8.77V60.59H68.44V64.1Z"/><rect class="cls-2" x="57.33" y="46.91" width="13.38" height="8.11"/><path class="cls-3" d="M73,57.32H55V44.6H73V57.32Zm-13.38-4.6h8.78V49.21H59.63v3.51Z"/><rect class="cls-2" x="39.8" y="58.29" width="6.29" height="8.11"/><path class="cls-3" d="M48.39,68.7H37.5V56H48.39V68.7ZM42.1,64.1h1.69V60.59H42.1V64.1Z"/><path class="cls-1" d="M89.35,70.22a1.1,1.1,0,0,0-1.13-1.13H74.8a1.1,1.1,0,0,0-1.13,1.13V78a1.1,1.1,0,0,0,1.13,1.13H88.22A1.1,1.1,0,0,0,89.35,78V70.22ZM65,66.26a1.1,1.1,0,0,0,1.13,1.13H79.54a1.1,1.1,0,0,0,1.13-1.13V58.43a1.1,1.1,0,0,0-1.13-1.13H66.11A1.1,1.1,0,0,0,65,58.43v7.82Zm6.89,4a1.1,1.1,0,0,0-1.13-1.13H57.33a1.1,1.1,0,0,0-1.13,1.13V78a1.1,1.1,0,0,0,1.13,1.13H70.75A1.1,1.1,0,0,0,71.88,78V70.22Zm-24.45-4a1.1,1.1,0,0,0,1.13,1.13H62a1.1,1.1,0,0,0,1.13-1.13V58.43A1.1,1.1,0,0,0,62,57.31H48.56a1.1,1.1,0,0,0-1.13,1.13v7.82Zm6.87,4a1.1,1.1,0,0,0-1.13-1.13H39.77a1.1,1.1,0,0,0-1.13,1.13V78a1.1,1.1,0,0,0,1.13,1.13h13.4A1.1,1.1,0,0,0,54.3,78V70.22ZM45.84,58.43a1.1,1.1,0,0,0-1.13-1.13H39.77a1.1,1.1,0,0,0-1.13,1.13v7.82a1.1,1.1,0,0,0,1.13,1.13h4.95a1.1,1.1,0,0,0,1.13-1.13V58.43Zm-7.2-3.56A1.1,1.1,0,0,0,39.77,56h13.4a1.1,1.1,0,0,0,1.13-1.13V47a1.1,1.1,0,0,0-1.13-1.13H39.77A1.1,1.1,0,0,0,38.64,47v7.82Zm17.53,0A1.1,1.1,0,0,0,57.3,56H70.73a1.1,1.1,0,0,0,1.13-1.13V47a1.1,1.1,0,0,0-1.13-1.13H57.3A1.1,1.1,0,0,0,56.17,47v7.82Zm17.5,0A1.1,1.1,0,0,0,74.8,56H88.23a1.1,1.1,0,0,0,1.13-1.13V47a1.1,1.1,0,0,0-1.13-1.13H74.8A1.1,1.1,0,0,0,73.67,47v7.82ZM88.23,67.38a1.1,1.1,0,0,0,1.13-1.13V58.43a1.1,1.1,0,0,0-1.13-1.13H83.58a1.1,1.1,0,0,0-1.13,1.13v7.82a1.1,1.1,0,0,0,1.13,1.13h4.65Z"/><path class="cls-4" d="M102.76,99.32c0-4.58-13.38-8.31-29.85-8.31a82.45,82.45,0,0,0-21.54,2.53c4.79-3,15.07-5.21,27-5.21,16.48,0,29.78,4,29.78,9,0,3-4.79,5.56-12.18,7.25,4.23-1.48,6.76-3.31,6.76-5.28h0Z"/><path class="cls-4" d="M26.65,98.75a2.47,2.47,0,0,0-1.76-.85,1.47,1.47,0,0,0-1.55,1.27c-0.28,2.18,3.59,2.25,3,5.84A4.43,4.43,0,0,1,22,109.1a3.79,3.79,0,0,1-2.18-.63l0.42-2.53a2.82,2.82,0,0,0,1.83.7,1.75,1.75,0,0,0,1.76-1.41c0.14-1-.56-1.41-1.27-1.9-1.34-1-2.11-2-1.76-3.94a4.12,4.12,0,0,1,4-3.8,3.79,3.79,0,0,1,2.18.63l-0.35,2.54h0Z"/><path class="cls-4" d="M30.59,102.34c0.21-1.2.84-4.37,2.53-4.37s1.34,3.17,1.2,4.37-0.85,4.37-2.53,4.37-1.34-3.31-1.2-4.37h0Zm3-6.76c-2.32,0-4.93,1.83-5.7,6.76s1.2,6.76,3.52,6.76,4.93-1.83,5.7-6.76-1.2-6.76-3.52-6.76h0Z"/><path class="cls-4" d="M42,95.79l2,7.89h0a10.32,10.32,0,0,1,.14-2L45,95.79h2.6l-2,13.1H43.12l-2-8-0.07.07L41,102.34l-0.07.49L40,108.89h-2.6l2-13.1H42Z"/><polygon class="cls-4" points="52.07 95.8 49.95 108.89 47.42 108.89 49.46 95.8 52.07 95.8"/><path class="cls-4" d="M60.09,98.26a2.4,2.4,0,0,0-1-.14c-2.25,0-3.59,2-3.94,4.08s0.35,4.37,2.61,4.37a6.3,6.3,0,0,0,1-.21l-0.35,2.46a4,4,0,0,1-1.27.21c-3.73,0-5.28-3.38-4.72-6.83,0.49-3.24,3.17-6.62,6.76-6.62a4.1,4.1,0,0,1,1.27.28l-0.35,2.39h0Z"/><path class="cls-4" d="M63.61,95.79l0.14,6.27c0,0.92-.07,1.83-0.14,2.75h0c0.28-.92.49-1.83,0.84-2.75l2.32-6.27h2l0.21,9h0.07a19.66,19.66,0,0,1,.7-2.75l2-6.27h2.75l-4.79,13.1H67.49L67.2,102c0.07-.84.07-1.62,0.07-2.46H67.2c-0.28.84-.49,1.62-0.77,2.46l-2.6,6.9H61.57L61,95.79h2.6Z"/><path class="cls-4" d="M77.77,104.6H75.93L77,101.15l0.63-2h0v2l0.14,3.45h0Zm-0.85-8.8-5.14,13.1h2.53l0.85-2.18h2.61l0.14,2.18h2.82L79.6,95.79H76.92Z"/><polygon class="cls-4" points="86.42 95.8 84.73 106.43 87.41 106.43 87.06 108.89 81.71 108.89 83.82 95.8 86.42 95.8"/><polygon class="cls-4" points="92.9 95.8 91.21 106.43 93.96 106.43 93.54 108.89 88.26 108.89 90.3 95.8 92.9 95.8"/></svg>