<svg id="Ebene_1" data-name="Ebene 1" xmlns="http://www.w3.org/2000/svg" viewBox="0 0 128 128"><defs><style>.cls-1{fill:#b0b0b2;}.cls-2{fill:#fff;}.cls-3{fill:#b1b1b1;}</style></defs><title>1</title><path class="cls-1" d="M19,47s-4-.32-4,3.6v17.7A3.79,3.79,0,0,0,19,72h90s4,0.21,4-3.71V50.6a3.72,3.72,0,0,0-4-3.6H19Z"/><path class="cls-2" d="M101.11,63.81a4.37,4.37,0,1,0-4.31-4.37,4.34,4.34,0,0,0,4.31,4.37"/><path class="cls-2" d="M85.79,68.25a1.8,1.8,0,0,0-.69-1.4,3,3,0,0,0,.9-1.38V55a2,2,0,0,0-.83-1.43A2.28,2.28,0,0,0,86,52.14V39.62A2.42,2.42,0,0,1,84.78,41a2.32,2.32,0,0,0,1.06-1.7c0-2.87-9.46-5.2-21.09-5.2s-21.08,2.33-21.08,5.2a2.55,2.55,0,0,0,1,1.52A1.22,1.22,0,0,1,44,39.62V52.14a2.28,2.28,0,0,0,.83,1.41A2,2,0,0,0,44,55V65.47a1.56,1.56,0,0,0,.63,1.38,2.09,2.09,0,0,0-.88,1.4,0.76,0.76,0,0,0,0,.25,1.63,1.63,0,0,0,.16.43,3.48,3.48,0,0,1,0-.43,0.25,0.25,0,0,1,.1-0.25V78.73s-0.19,5.21,21,5.21,21-5.21,21-5.21V68.25a0.66,0.66,0,0,0-.17.27,4,4,0,0,1-.26.48,1.73,1.73,0,0,0,.19-0.48,0.87,0.87,0,0,0,0-.27"/><path class="cls-2" d="M65,86.94c-12,0-19.33-1.57-22.45-4.8A5,5,0,0,1,41,78.73v-9c-0.06-.17-0.1-0.31-0.12-0.4a3.52,3.52,0,0,1-.13-1.08,4.05,4.05,0,0,1,.35-1.64,4.1,4.1,0,0,1-.1-1.28V55a4.32,4.32,0,0,1,.26-1.48A4.07,4.07,0,0,1,41,52.18V40.8a3.91,3.91,0,0,1-.32-1.54c0-7.61,18.43-8.2,24.08-8.2s24.09,0.59,24.09,8.2c0,0.11,0,.23,0,0.35H89V52.14a4.15,4.15,0,0,1-.26,1.37A4.31,4.31,0,0,1,89,55V78.73a5,5,0,0,1-1.55,3.41C84.33,85.37,77,86.94,65,86.94ZM47,78.09c0.77,0.64,4.39,2.85,18,2.85s17.23-2.21,18-2.85V69l-2.28-2L83,64.72h0V55.65l-2.21-1.91L83,51.49V40c-1.29-1.07-7.78-3-18.24-3C55.24,37.06,49,38.63,47,39.72V51.48l2.26,2.21-2.26,2V65l2,2-2,1.79v9.34Zm-2.57-9.26,1.35,1.83a2.75,2.75,0,0,0,1.08-1.79l-0.24.22-0.15.14a1.67,1.67,0,0,0,.28-0.91,2.63,2.63,0,0,0-.07-0.55l0-.07Zm38.41-1a2.13,2.13,0,0,0,0,.45A1.34,1.34,0,0,0,83,69v-0.7h1L83,67.67v0l-0.05,0A1.66,1.66,0,0,0,82.84,67.8ZM45.52,40.08l1.35,0.41A2.68,2.68,0,0,0,47,39.73a2.33,2.33,0,0,0-.58.41,1.27,1.27,0,0,0,.24-0.57l0.34,0a2.1,2.1,0,0,0-.27-1l-0.1.11a1.8,1.8,0,0,0-.13-0.37l-0.77,1,0.3,0ZM83,38.68a1.54,1.54,0,0,0-.11.58A1.58,1.58,0,0,0,83,40V39.62h0.64l-0.31-.42,0.31,0-0.43-.66a2.21,2.21,0,0,0-.11.31Z"/><path class="cls-2" d="M87,39.39s-0.08,4.32-22,4.32-22-4.32-22-4.32V50.23s0.08,5.39,22,5.39,22-5.39,22-5.39V39.39Z"/><path class="cls-1" d="M87,69s-0.08,5.42-22,5.42S43,69,43,69V79.86s0.08,5.39,22,5.39,22-5.39,22-5.39V69Z"/><path class="cls-2" d="M64.73,74.58c13.09,0,21.79-2.6,21.79-5.57s-9.76-5.38-21.79-5.38S42.94,66,42.94,69s8.24,5.57,21.79,5.57"/><path class="cls-1" d="M87,55.29s-0.08,5.42-22,5.42-22-5.42-22-5.42V66.14s0.08,5.39,22,5.39,22-5.39,22-5.39V55.29Z"/><path class="cls-2" d="M64.73,60.86c13.09,0,21.79-2.6,21.79-5.57s-9.76-5.38-21.79-5.38-21.79,2.41-21.79,5.38,8.24,5.57,21.79,5.57"/><path class="cls-1" d="M87,41.5s-0.08,5.42-22,5.42S43,41.5,43,41.5V52.35s0.08,5.39,22,5.39,22-5.39,22-5.39V41.5Z"/><path class="cls-1" d="M64.73,44.59c13.09,0,21.79-2.6,21.79-5.57s-9.76-5.38-21.79-5.38S42.94,36,42.94,39s8.24,5.57,21.79,5.57"/><g id="layer1"><g id="g3545"><g id="layer1-5"><path id="path2830" class="cls-3" d="M36.39,99.47c-1.57,0-2.58.49-3.06,1.54-0.7,1.54-.08,2.71,2.15,4,1.25,0.73,1.8,1.36,1.8,2,0,1.42-1.72,1.93-3.49,1l-0.69-.33a11.28,11.28,0,0,0,0,1.37,7.89,7.89,0,0,0,1.36.39c2,0.4,3.87-.55,4-2.09s-0.37-2.2-2.34-3.39c-1.33-.8-1.91-1.38-1.84-2.06,0.21-1.89,2.54-1.62,3.82-.91V99.79A5,5,0,0,0,36.39,99.47Zm7.8,0H43.9a4.28,4.28,0,0,0-4,2.61,6.85,6.85,0,0,0,0,5,4.31,4.31,0,0,0,3.62,2.54c0.39,0.06.65,0.28,1.4,1.16l0.92,1.08h1.68l-1.12-1.13a13.2,13.2,0,0,1-1.12-1.2,1.24,1.24,0,0,1,.52-0.23,3.83,3.83,0,0,0,2.28-2.13,4.41,4.41,0,0,0,.57-2.28c0.17-3.33-1.58-5.41-4.49-5.38h0Zm17.2,0q-2.35,0-3.06,1.54c-0.7,1.54-.07,2.71,2.15,4,1.25,0.73,1.8,1.36,1.8,2,0,1.42-1.72,1.93-3.49,1l-0.69-.33a11.14,11.14,0,0,0,0,1.37,8,8,0,0,0,1.36.39c2,0.4,3.87-.55,4-2.09s-0.37-2.2-2.34-3.39c-1.33-.8-1.91-1.37-1.84-2.06,0.21-1.89,2.54-1.62,3.82-.91V99.81A5,5,0,0,0,61.39,99.49Zm-11.18.1v9.79h5.17v-1.16H51.43V99.59H50.21Zm-6.11.92c2,0,3.21,1.25,3.35,3.6,0.12,2-.53,3.43-1.79,4a4,4,0,0,1-2.78.19A3.61,3.61,0,0,1,41,106.28a5.86,5.86,0,0,1,.11-3.78A3.18,3.18,0,0,1,44.1,100.52Zm41.37,1.71a3.87,3.87,0,0,0-.75.09,4.06,4.06,0,0,0-1.58,6.31,3.78,3.78,0,0,0,4.16.6l0.58-.25v-1.09l-0.58.3c-1.31.57-2.31,0.57-3.1-.1a3.14,3.14,0,0,1-.83-1.84h4.92v-0.94a2.76,2.76,0,0,0-2.82-3.07h0Zm-18,0a3.85,3.85,0,0,0-.75.09,4.06,4.06,0,0,0-1.58,6.31,3.78,3.78,0,0,0,4.16.6l0.58-.26V107.9l-0.58.3c-1.31.57-2.31,0.57-3.1-.1a3.15,3.15,0,0,1-.83-1.84h4.92v-0.94A2.76,2.76,0,0,0,67.51,102.25Zm25.12,0.05a1.79,1.79,0,0,0-1.61.85l-0.28.45v-1.16H89.51v6.94h1.22v-2.22c0-2,0-2.27.31-2.82a1.5,1.5,0,0,1,1.71-1l0.43,0.13V102.3H92.63Zm-18,0a1.79,1.79,0,0,0-1.61.85l-0.29.45v-1.16H71.56v6.93h1.22v-2.22c0-2,0-2.27.31-2.82a1.5,1.5,0,0,1,1.71-1l0.44,0.13v-1.2H74.68Zm1,0.12c0.82,2.31,1.7,4.67,2.6,6.94h1.17L80.76,106l1.39-3.51H80.95s-0.53,1.39-1.09,3l-1,2.63-1-2.65-1-2.94H75.63Zm9.77,0.84a1.69,1.69,0,0,1,1,.35,2.72,2.72,0,0,1,.72,1.65H83.48a2.87,2.87,0,0,1,.86-1.66A1.84,1.84,0,0,1,85.4,103.28Zm-18,0a1.69,1.69,0,0,1,1,.35,2.71,2.71,0,0,1,.72,1.64H65.52a2.87,2.87,0,0,1,.86-1.66A1.84,1.84,0,0,1,67.44,103.3Z"/></g><g id="g3073"><path id="path26" class="cls-3" d="M54.44,96a0.13,0.13,0,0,0,0-.11,0.26,0.26,0,0,0-.16,0H54.12v0.3h0.13A0.15,0.15,0,0,0,54.44,96m0.17,0.63H54.46l-0.1-.21a0.21,0.21,0,0,0-.16-0.16H54.12v0.37H54V95.79h0.25a0.37,0.37,0,0,1,.25.07,0.21,0.21,0,0,1,.07.17,0.22,0.22,0,0,1-.06.15,0.3,0.3,0,0,1-.17.09h0a0.27,0.27,0,0,1,.15.16l0.12,0.24h0Zm0.28-.43a0.61,0.61,0,1,0-1,.44,0.61,0.61,0,0,0,1-.44m0.08,0a0.66,0.66,0,0,1-.2.49,0.73,0.73,0,0,1-1,0,0.71,0.71,0,0,1,0-1,0.72,0.72,0,0,1,1,0,0.66,0.66,0,0,1,.2.49"/><path id="path28" class="cls-3" d="M37,98.54H36.55V96.22c0-.18,0-0.41,0-0.67h0a2.25,2.25,0,0,1-.1.34l-1.18,2.66h-0.2L33.91,95.9a1.91,1.91,0,0,1-.1-0.35h0c0,0.14,0,.36,0,0.68v2.32H33.42V95.08H34L35,97.5a3,3,0,0,1,.16.42h0c0.07-.19.12-0.33,0.17-0.42l1.08-2.4H37"/><path id="path30" class="cls-3" d="M38.2,96.07v2.47h-0.4V96.07h0.4Zm0.07-.89a0.25,0.25,0,0,1-.08.18,0.25,0.25,0,0,1-.18.07,0.26,0.26,0,0,1-.18-0.07,0.26,0.26,0,0,1,0-.37,0.27,0.27,0,0,1,.37,0,0.24,0.24,0,0,1,.08.18"/><path id="path32" class="cls-3" d="M40.67,98.43a1.28,1.28,0,0,1-.68.17,1.11,1.11,0,0,1-.86-0.35,1.25,1.25,0,0,1-.32-0.88,1.38,1.38,0,0,1,.35-1A1.22,1.22,0,0,1,40.1,96a1.25,1.25,0,0,1,.57.13v0.41a1,1,0,0,0-.59-0.19,0.79,0.79,0,0,0-.62.26,1,1,0,0,0-.25.72,1,1,0,0,0,.23.68,0.78,0.78,0,0,0,.61.25,1,1,0,0,0,.61-0.21"/><path id="path34" class="cls-3" d="M42.56,96.47a0.49,0.49,0,0,0-.3-0.08,0.49,0.49,0,0,0-.41.22,1.08,1.08,0,0,0-.19.67v1.26h-0.4V96.07h0.4v0.51h0a0.86,0.86,0,0,1,.27-0.42A0.59,0.59,0,0,1,42.32,96a0.64,0.64,0,0,1,.24,0"/><path id="path36" class="cls-3" d="M44.76,97.31a1.08,1.08,0,0,0-.21-0.72A0.73,0.73,0,0,0,44,96.35a0.76,0.76,0,0,0-.59.24,1,1,0,0,0-.23.73,1,1,0,0,0,.22.69,0.77,0.77,0,0,0,.6.25,0.72,0.72,0,0,0,.6-0.25,1.08,1.08,0,0,0,.2-0.7m0.41,0a1.34,1.34,0,0,1-.33.95,1.17,1.17,0,0,1-.9.36,1.14,1.14,0,0,1-.88-0.36,1.29,1.29,0,0,1-.32-0.91,1.33,1.33,0,0,1,.36-1A1.23,1.23,0,0,1,44,96a1.1,1.1,0,0,1,.86.34,1.35,1.35,0,0,1,.31.94"/><path id="path38" class="cls-3" d="M47.13,97.88a0.64,0.64,0,0,1-.23.5,1,1,0,0,1-.68.22,1.21,1.21,0,0,1-.61-0.15V98a1,1,0,0,0,.64.24q0.47,0,.47-0.35a0.31,0.31,0,0,0-.1-0.24,1.65,1.65,0,0,0-.41-0.23,1.3,1.3,0,0,1-.44-0.28,0.68,0.68,0,0,1,.09-1,0.94,0.94,0,0,1,.63-0.2,1.18,1.18,0,0,1,.53.12v0.4a0.93,0.93,0,0,0-.56-0.18,0.48,0.48,0,0,0-.32.1,0.31,0.31,0,0,0-.12.25,0.33,0.33,0,0,0,.1.26,1.38,1.38,0,0,0,.37.21,1.45,1.45,0,0,1,.46.27,0.61,0.61,0,0,1,.18.45"/><path id="path40" class="cls-3" d="M49.55,97.31a1.08,1.08,0,0,0-.21-0.72,0.73,0.73,0,0,0-.58-0.24,0.77,0.77,0,0,0-.59.24,1.05,1.05,0,0,0-.23.73,1,1,0,0,0,.22.69,0.77,0.77,0,0,0,.6.25,0.72,0.72,0,0,0,.6-0.25,1.08,1.08,0,0,0,.2-0.7m0.41,0a1.34,1.34,0,0,1-.33.95,1.17,1.17,0,0,1-.9.36,1.14,1.14,0,0,1-.88-0.36,1.29,1.29,0,0,1-.32-0.91,1.33,1.33,0,0,1,.36-1,1.23,1.23,0,0,1,.9-0.33,1.1,1.1,0,0,1,.86.34,1.35,1.35,0,0,1,.31.94"/><path id="path42" class="cls-3" d="M51.7,95.23a0.53,0.53,0,0,0-.26-0.07,0.42,0.42,0,0,0-.41.52v0.38H51.6v0.34H51v2.14h-0.4V96.41H50.21V96.07h0.42v-0.4A0.83,0.83,0,0,1,50.88,95a0.86,0.86,0,0,1,.82-0.16"/><path id="path44" class="cls-3" d="M53.26,98.52a0.75,0.75,0,0,1-.37.08,0.61,0.61,0,0,1-.65-0.73V96.41H51.82V96.07h0.42v-0.6l0.4-.13v0.73h0.62v0.34H52.64v1.4a0.57,0.57,0,0,0,.08.35,0.34,0.34,0,0,0,.28.11,0.42,0.42,0,0,0,.26-0.08"/></g><path id="path3151" class="cls-3" d="M94.41,102.73a0.13,0.13,0,0,0,0-.11,0.26,0.26,0,0,0-.16,0H94.1v0.3h0.13a0.15,0.15,0,0,0,.18-0.15m0.17,0.63H94.43l-0.1-.21a0.21,0.21,0,0,0-.16-0.16H94.1v0.37H94v-0.89h0.25a0.37,0.37,0,0,1,.25.07,0.21,0.21,0,0,1,.07.17,0.22,0.22,0,0,1-.06.15,0.3,0.3,0,0,1-.17.09h0a0.27,0.27,0,0,1,.15.16l0.12,0.24h0Zm0.28-.43a0.61,0.61,0,1,0-1,.44,0.61,0.61,0,0,0,1-.44m0.08,0a0.66,0.66,0,0,1-.2.49,0.73,0.73,0,0,1-1,0,0.71,0.71,0,0,1,0-1,0.72,0.72,0,0,1,1,0,0.66,0.66,0,0,1,.2.49"/></g></g></svg>